<?xml version="1.0" encoding="UTF-8"?>
<svg width="289px" height="68px" viewBox="0 0 289 68" version="1.1" xmlns="http://www.w3.org/2000/svg" xmlns:xlink="http://www.w3.org/1999/xlink">
    <title>logo-bpd-poweredby-travello</title>
    <defs>
        <linearGradient x1="28.3749745%" y1="12.8890669%" x2="67.6059296%" y2="86.345422%" id="linearGradient-1">
            <stop stop-color="#00B0EF" offset="0%"></stop>
            <stop stop-color="#008DEF" offset="100%"></stop>
        </linearGradient>
        <linearGradient x1="15.5%" y1="19%" x2="83%" y2="86.5%" id="linearGradient-2">
            <stop stop-color="#008DEF" offset="0%"></stop>
            <stop stop-color="#00B0EF" offset="100%"></stop>
        </linearGradient>
    </defs>
    <g id="logo-bpd-poweredby-travello" stroke="none" stroke-width="1" fill="none" fill-rule="evenodd">
        <g id="Group-2" fill-rule="nonzero">
            <path d="M18.3309,6.04502875 C17.8409178,6.17050148 17.3673728,6.31851422 16.8977413,6.48380765 L16.9024376,6.47929964 C12.5387786,7.73628098 7.7915872,4.2733838 7.7915872,4.2733838 C4.90178826,2.34771543 3.02091424,0.905154662 3.02091424,0.905154662 C2.47066271,0.52873646 1.45860691,-0.284206641 0.448899258,0.101227565 C-0.539674974,0.4783971 0.412894179,2.73991164 0.412894179,2.73991164 L0.527171169,3.13962119 L6.37486562,23.9988997 L6.38973728,24.0672711 C6.38973728,24.0672711 6.61672582,24.8636848 6.75135351,25.3392791 C9.10264171,33.7369362 18.1039114,38.7152736 26.8531456,36.4552617 C35.6031625,34.1952498 40.784763,25.5564145 38.4334748,17.1587574 C36.0814039,8.76034886 27.0809169,3.78426554 18.3309,6.04502875 Z M25.2094355,27.7292717 C21.3451513,29.0643917 17.0887248,27.1439827 15.6970502,23.4384047 C14.3045929,19.7313241 16.3067884,15.6433172 20.1687244,14.3059432 C24.0306605,12.9693205 28.2886525,14.8912321 29.6811098,18.5990641 C31.073567,22.3061448 29.0690234,26.3941516 25.2094355,27.7292717 Z" id="Shape" fill="#F05A29"></path>
            <path d="M52.5747034,49.4558493 C54.6089368,40.9189014 49.1500994,32.3933099 40.3801895,30.4135193 C31.6126124,28.4344858 22.8551442,33.7492583 20.8209108,42.2869632 C20.7073794,42.7707438 20.5121988,43.5808302 20.5121988,43.5808302 L20.4982017,43.6519966 L15.449166,64.8550617 L15.3465212,65.2608619 C15.3465212,65.2608619 14.4841493,67.5699867 15.4802705,67.9159769 C16.4981648,68.269538 17.4725128,67.4178116 18.0020667,67.0195822 C18.0020667,67.0195822 19.8177911,65.504645 22.6195277,63.4673155 C22.6195277,63.4673155 27.2074395,59.8188984 31.5830631,60.9393917 L31.5807303,60.933335 C32.0496304,61.0832388 32.5247514,61.2164867 33.0169799,61.3277789 C41.7853347,63.3098408 50.5428028,57.9927971 52.5747034,49.4558493 Z M43.7239218,49.0773042 C42.0170631,52.6833243 37.6313305,54.260343 33.9252309,52.6008015 C30.2214642,50.9405029 28.6009205,46.6712719 30.3077792,43.0629805 C32.012305,39.4577175 36.39726,37.8784276 40.1033595,39.5394833 C43.8063487,41.2005389 45.4245596,45.4690128 43.7239218,49.0773042 Z" id="Shape" fill="#009344"></path>
        </g>
        <g id="Group" transform="translate(56.000000, 14.000000)" fill="#58595B" fill-rule="nonzero" stroke="#58595B">
            <path d="M12.9192369,24.2275607 C11.7432881,25.306969 10.2099804,25.8443081 8.33360822,25.8462002 C7.28154379,25.8462002 6.4076823,25.6910529 5.70058827,25.3807585 C4.99540015,25.0704641 4.3483424,24.5075825 3.76322686,23.6930597 L3.57168252,25.6333458 L0,25.6371298 L2.56250115,0.0605452513 L6.13132479,0.0605452513 L5.21076841,9.25585529 C5.90642696,8.51228392 6.6554511,7.98345899 7.45402899,7.67221856 C8.24879506,7.36097813 9.1636337,7.2048849 10.1918742,7.2048849 C12.0587168,7.20204684 13.4195393,7.67316458 14.2733887,8.62013015 C15.1243792,9.5661497 15.6189638,10.7023192 15.7619074,12.0324227 C15.903898,13.3596881 15.8934154,14.8506149 15.726648,16.501419 C15.548445,18.2752057 15.2644639,19.7954591 14.8785163,21.0650173 C14.4887569,22.3355216 13.8359815,23.3893874 12.9192369,24.2275607 Z M8.90824124,10.4733824 C7.39589862,10.4743285 6.32668096,11.0078835 5.70344714,12.0740475 C5.08116627,13.1392655 4.67615958,14.6169481 4.48652116,16.5108792 C4.29116499,18.4483273 4.39884912,19.9449302 4.81338538,20.99785 C5.22125094,22.0517157 6.18278447,22.5795946 7.69703301,22.5777077 C9.2122345,22.5777077 10.2709696,22.0498237 10.8808621,20.9950119 C11.4926604,19.9411461 11.8938553,18.4445432 12.0901644,16.5070951 C12.2817087,14.5885675 12.1778364,13.1061549 11.7785475,12.0522891 C11.3773526,11.0003153 10.4196309,10.4733824 8.90824124,10.4733824 Z" id="Shape"></path>
            <path d="M26.3035168,25.6560502 L26.4674254,24.0033541 C25.7098246,24.6854342 24.9703301,25.160336 24.2565653,25.4318436 C23.5399417,25.7014592 22.6079499,25.83674 21.4663075,25.83674 C19.3250133,25.83674 17.7955174,25.3135911 16.8787729,24.2606714 C15.9610754,23.2086976 15.5798926,21.8795402 15.7428482,20.275091 C15.902945,18.6952384 16.566203,17.4256801 17.7411989,16.4664163 C18.9152418,15.5090445 20.5171624,15.0275206 22.5564902,15.0275206 L27.3689226,15.0227905 L27.4966188,13.7314738 C27.6166914,12.5574635 27.3898877,11.6956397 26.8209724,11.1450563 C26.2501512,10.595419 25.260029,10.3210733 23.8448879,10.3210733 C22.8566716,10.3220193 22.0590467,10.4468939 21.4472483,10.6994811 C20.8316382,10.9511223 20.2408049,11.4118338 19.6699837,12.0825617 L17.5058185,9.81968294 C18.4330456,8.86231115 19.4117324,8.18401514 20.4390199,7.78952498 C21.4682134,7.39503483 22.7413638,7.19542181 24.264189,7.19542181 C29.2376711,7.19258665 31.5142852,9.27855976 31.0949841,13.452398 L29.8751993,25.6513201 L26.3035168,25.6560502 Z M27.1125772,17.5751512 L22.8223652,17.5770433 C20.637235,17.5770433 19.4584273,18.4530574 19.2830832,20.2013015 C19.1077391,21.9249491 20.1416974,22.7867729 22.3735225,22.784884 C23.2388073,22.784884 23.910642,22.7243356 24.3918852,22.6051372 C24.8731284,22.4859387 25.3886781,22.1775363 25.9413931,21.6856062 C26.4950611,21.1965141 26.8362197,20.3167159 26.9667748,19.0452656 L27.1125772,17.5751512 Z" id="Shape"></path>
            <path d="M39.4171569,25.8291754 C37.1338721,25.8310638 35.2927594,25.0780323 33.8966775,23.5700771 C32.5025015,22.0602299 31.9669397,19.7027492 32.2871332,16.4929049 C32.6073268,13.3104951 33.6155552,10.9634206 35.3137244,9.45451939 C37.0109407,7.94278015 39.0007147,7.18880257 41.2887643,7.18785655 C42.5704913,7.18785655 43.6454267,7.3789525 44.5107116,7.76019838 C45.3779024,8.14522833 46.2022101,8.8017659 46.9922114,9.73359516 L44.2515073,12.1800017 C43.3166566,11.0286959 42.2178973,10.4554081 40.9599941,10.4554081 C39.5296058,10.4563541 38.3879634,10.9549064 37.5274433,11.9491729 C36.6659703,12.9424935 36.1332674,14.4561248 35.9283816,16.4938509 C35.72159,18.5542815 35.9483937,20.081157 36.6135576,21.0725855 C37.2710979,22.065906 38.3203035,22.5635123 39.7478329,22.5587822 C40.4844686,22.5587822 41.1029377,22.4405298 41.6032401,22.2021328 C42.1006836,21.9637359 42.6953287,21.5058625 43.3795517,20.8341886 L45.6399655,23.2399163 C43.8455477,24.9645099 41.7738193,25.8272798 39.4171569,25.8291754 Z" id="Path"></path>
            <polygon id="Path" points="57.7863544 25.6560502 53.6000147 17.2203939 50.6172595 20.3015796 50.0702622 25.642806 46.4328257 25.642806 48.9981857 0.0350027234 52.6356223 0.0321646647 51.0575256 15.8004185 58.9308556 7.39125075 63.3582935 7.39314279 56.3502483 14.5280222 62.3128997 25.6361838"></polygon>
            <path d="M75.7210035,24.19445 C74.5355251,25.2710203 73.0088882,25.8111974 71.1382337,25.8111974 C70.0861693,25.8111974 69.2046841,25.6617263 68.4918724,25.3637302 C67.7771547,25.064788 67.1396265,24.5198807 66.5745231,23.7309004 L65.6453901,32.9962159 L62.0737076,33 L64.6400205,7.38935871 L68.2078912,7.38746667 L68.0182528,9.29180403 C68.7405941,8.51512198 69.4896183,7.96643064 70.27009,7.64667603 C71.0534206,7.32881346 71.9654003,7.1708282 73.0136529,7.1708282 C73.9161031,7.1708282 74.7356461,7.30705501 75.4694229,7.58140068 C76.2031997,7.85574635 76.8702696,8.32875613 77.4715854,8.99853797 C78.0681364,9.66831981 78.4416955,10.6682625 78.5808272,11.998366 C78.7199589,13.3256314 78.7056646,14.8156122 78.5398501,16.4692544 C78.364506,18.242095 78.0805249,19.7614024 77.6888596,21.0309606 C77.2991002,22.2995729 76.6444188,23.3534386 75.7210035,24.19445 Z M71.7271611,10.402431 C70.2119596,10.403377 69.142742,10.936932 68.5195081,12.0087722 C67.8972273,13.0758822 67.4884087,14.5611329 67.3025821,16.4579021 C67.1053201,18.4038643 67.2120512,19.9033053 67.6227757,20.9600092 C68.0373119,22.017659 68.9950336,22.5436459 70.513094,22.5417589 C72.0244837,22.5417589 73.0851247,22.0119829 73.696923,20.9552791 C74.3058625,19.8966832 74.7099162,18.3991342 74.9024135,16.452226 C75.0977697,14.5318063 74.9967563,13.0427716 74.5946085,11.9870137 C74.1943666,10.9293639 73.2395037,10.402431 71.7271611,10.402431 Z" id="Shape"></path>
            <path d="M89.114813,25.6219935 L89.2806275,23.9683513 C88.5239797,24.6504314 87.787344,25.1272253 87.0707204,25.3987329 C86.3512379,25.6683485 85.4240108,25.8026833 84.2795096,25.8036293 C82.1391684,25.8036293 80.6087196,25.2776424 79.691975,24.2256687 C78.7742775,23.1727489 78.3969066,21.8435914 78.5570033,20.2410343 C78.7171001,18.6611817 79.381311,17.3906774 80.555354,16.4323596 C81.726538,15.4740418 83.3341763,14.9925178 85.3706453,14.9925178 L90.1859366,14.9906258 L90.3117269,13.6993091 C90.4308465,12.5234068 90.2069016,11.662529 89.6360804,11.1109996 C89.0671651,10.5613623 88.074184,10.2851246 86.6580901,10.2889086 C85.6736856,10.2889086 84.8760606,10.4128372 84.2604505,10.6654244 C83.6457932,10.9170656 83.0578188,11.3787232 82.4841388,12.047559 L80.3199736,9.78657226 C81.2491066,8.82920047 82.2239815,8.15185047 83.253175,7.7564143 C84.2776037,7.36192415 85.553613,7.16420606 87.0773911,7.16230889 C92.0499203,7.15852994 94.3303462,9.24639509 93.9110451,13.4183413 L92.6884014,25.6182094 L89.114813,25.6219935 Z M89.9276852,17.5392025 L85.6393791,17.5420405 C83.452343,17.5429866 82.2725823,18.4171086 82.0972383,20.1662988 C81.9247531,21.8908924 82.9568054,22.7517702 85.1876775,22.7517702 C86.0501035,22.7508242 86.72575,22.691225 87.2060403,22.5691884 C87.6863306,22.450936 88.2018803,22.1425336 88.7584071,21.6524955 C89.3092162,21.1605653 89.6503748,20.2807671 89.7752121,19.0112089 L89.9276852,17.5392025 Z" id="Shape"></path>
            <path d="M102.234171,25.7922806 C99.9508861,25.7941691 98.1097733,25.0420835 96.7136914,23.5341284 C95.3195155,22.0261732 94.7801418,19.6696385 95.1003354,16.4597942 C95.4243407,13.2754924 96.4297103,10.9293639 98.1269265,9.41951667 C99.8260487,7.90966947 101.815823,7.15378607 104.101966,7.15378607 C105.387505,7.15190781 106.462441,7.34489579 107.329631,7.72519565 C108.192057,8.10927959 109.019224,8.76676318 109.806366,9.69859244 L107.065662,12.144053 C106.132718,10.9955852 105.034911,10.4204054 103.774149,10.4204054 C102.34662,10.4222974 101.202118,10.9189577 100.342551,11.9141702 C99.4801254,12.9074908 98.9464695,14.4220681 98.7453956,16.4588481 C98.535745,18.5192787 98.7654077,20.0433162 99.4267598,21.0356907 C100.088112,22.0318493 101.134459,22.5266176 102.561035,22.5266176 C103.297671,22.5266176 103.91614,22.405527 104.416442,22.1652381 C104.914839,21.9249491 105.508531,21.4699137 106.196566,20.7991858 L108.454121,23.2049136 C106.662562,24.9295072 104.587974,25.7922806 102.234171,25.7922806 Z" id="Path"></path>
            <polygon id="Path" points="120.600509 25.6219935 116.415123 17.1853912 113.434273 20.2694149 112.887276 25.6096953 109.246028 25.6096953 111.812341 0.00283805865 115.452636 0 113.870728 15.7673079 121.745964 7.36003211 126.175307 7.36003211 119.167262 14.4949116 125.129914 25.6002351"></polygon>
            <path d="M129.149486,17.517444 C128.989389,19.1237852 129.260029,20.3734771 129.968076,21.2721956 C130.678982,22.1671301 131.768212,22.6164894 133.242436,22.6164894 C134.242088,22.6136513 135.065442,22.4774245 135.7125,22.2011868 C136.356699,21.9240031 137.058075,21.4396411 137.815676,20.7452627 L139.921711,22.934352 C138.843917,23.9201043 137.780417,24.6362411 136.726446,25.0912766 C135.665805,25.5453659 134.377408,25.7761956 132.854582,25.7761956 C130.354976,25.7771407 128.441439,25.0487057 127.113017,23.5880515 C125.783642,22.1292893 125.287152,19.7462661 125.615922,16.4408738 C125.911338,13.5224035 126.825224,11.2387123 128.369014,9.59926038 C129.915663,7.95791646 131.867319,7.13677149 134.222076,7.13582547 C136.600656,7.13582547 138.396027,7.93994209 139.601517,9.55763552 C140.807961,11.1724909 141.280627,13.2849526 141.02047,15.8950205 L140.857515,17.5108219 L129.149486,17.517444 Z M137.25629,12.48462 C137.042828,11.7921337 136.64068,11.2358742 136.056518,10.8158415 C135.470449,10.3967549 134.763355,10.1886306 133.932377,10.1886306 C133.078527,10.1895766 132.323785,10.3948628 131.67101,10.7997592 C131.01347,11.2074936 130.492202,11.7713213 130.112925,12.4884041 C129.734601,13.2064329 129.495409,14.032308 129.40202,14.9679213 L137.505965,14.9622452 C137.59459,14.0767709 137.512636,13.2527879 137.25629,12.48462 Z" id="Shape"></path>
            <path d="M152.974362,11.614282 C152.612238,11.2074936 152.231055,10.9028753 151.832719,10.7004271 C151.440101,10.4960869 150.955999,10.3948628 150.384225,10.3948628 C149.358843,10.3948628 148.46497,10.7685405 147.703557,11.5130579 C146.934521,12.2566293 146.492349,13.2518419 146.367511,14.5015337 L145.25827,25.5898289 L141.686587,25.5898289 L143.516264,7.34584181 L147.086994,7.34584181 L146.88592,9.32113064 C147.381458,8.67310724 148.079975,8.14522833 148.989096,7.73938595 C149.900123,7.33165152 150.85308,7.12636528 151.852732,7.12636528 C152.805688,7.12636528 153.582348,7.24650976 154.188429,7.48490669 C154.797368,7.7223576 155.399637,8.17928504 156,8.84812086 L152.974362,11.614282 Z" id="Path"></path>
        </g>
        <g id="Group" transform="translate(215.000000, 14.000000)" fill="#58595B" fill-rule="nonzero">
            <path d="M11.5210961,26.7726561 L11.5210961,24.7440492 C10.8560629,25.5674421 10.1470724,26.1547471 9.37852669,26.4899336 C8.607145,26.8280348 7.68829327,27 6.61346363,27 C5.69177595,27 4.83673337,26.8528094 4.05684379,26.5657149 C3.27128229,26.2800777 2.53960407,25.7845847 1.8632271,25.080693 C1.17834226,24.3811734 0.697646678,23.3289793 0.411214506,21.9415987 C0.1347082,20.5498462 0,18.9773844 0,17.2198413 C0,14.8691639 0.177247632,13.1014195 0.545922706,11.9413828 C0.91459778,10.7740595 1.54276339,9.74081071 2.42332962,8.83872187 C3.31098576,7.93517569 4.70627912,7.48631727 6.62197152,7.48631727 C7.67553144,7.48631727 8.5915472,7.64079452 9.36151092,7.95412101 C10.1385645,8.26744751 10.8574809,8.82852054 11.5210961,9.62568144 L11.5210961,0 L15.1794872,0 L15.1794872,26.7711988 L11.5210961,26.7711988 L11.5210961,26.7726561 Z M7.63724596,10.9066767 C6.09022863,10.9066767 5.04943053,11.4619204 4.5205236,12.5796945 C3.9887807,13.6945539 3.72787219,15.2436984 3.72787219,17.2198413 C3.72787219,19.2542775 3.9887807,20.82091 4.5205236,21.9226534 C5.04943053,23.0273115 6.09022863,23.5796405 7.63724596,23.5796405 C9.19277117,23.5796405 10.2278973,23.0273115 10.7440424,21.9226534 C11.2601875,20.82091 11.5210961,19.2542775 11.5210961,17.2198413 C11.5210961,15.2160091 11.2601875,13.6639499 10.7440424,12.5607492 C10.2278973,11.4590058 9.19277117,10.9066767 7.63724596,10.9066767 Z" id="Shape"></path>
            <path d="M20.90292,18.4517764 C20.90292,20.113891 21.3201165,21.4087272 22.160324,22.3362851 C22.994717,23.263843 24.1896142,23.7290622 25.7406547,23.7290622 C26.7945482,23.7290622 27.6391167,23.5879121 28.2918039,23.3027312 C28.9444911,23.0175504 29.6291584,22.5134429 30.3545279,21.7961698 L32.7937463,24.0617732 C31.7674721,25.0786301 30.7223004,25.823269 29.6611387,26.2913688 C28.595616,26.7637896 27.2669833,27 25.6708797,27 C23.0441409,27 20.952344,26.2467193 19.4013034,24.7329564 C17.8517165,23.222074 17.0769231,20.7548277 17.0769231,17.3340979 C17.0769231,14.3123333 17.8008389,11.95311 19.2530315,10.2593087 C20.7023168,8.56262669 22.6661929,7.71428571 25.1417525,7.71428571 C27.6391167,7.71428571 29.6073537,8.54822362 31.0508245,10.21898 C32.4855733,11.8940574 33.2051282,14.0790035 33.2051282,16.7795796 L33.2051282,18.4503361 L20.90292,18.4503361 L20.90292,18.4517764 Z M28.8921598,13.2493865 C28.5941623,12.5292329 28.11882,11.95311 27.4559573,11.5224581 C26.7945482,11.086045 26.031384,10.8728795 25.1591962,10.8728795 C24.2622965,10.8728795 23.4933176,11.0817241 22.8449914,11.5037341 C22.1952115,11.9257442 21.712601,12.5047477 21.3869842,13.2508268 C21.0613674,13.9940254 20.90292,14.8481276 20.90292,15.8145738 L29.4154814,15.8145738 C29.4169261,14.8985384 29.2424885,14.0415555 28.8921598,13.2493865 Z" id="Shape"></path>
            <path d="M44.6902961,26.8156407 L44.6902961,25.1045556 C43.9774828,25.8103062 43.2632382,26.3000107 42.5475622,26.5808706 C41.8376117,26.8588499 40.8886253,27 39.70776,27 C37.4891645,27 35.8531293,26.4541235 34.7939288,25.3652513 C33.7361598,24.2734983 33.2051282,22.8980049 33.2051282,21.2416516 C33.2051282,19.6040222 33.7619241,18.2919023 34.8769473,17.3009709 C35.9919704,16.3100395 37.6022413,15.8145738 39.7120541,15.8145738 L44.6917274,15.8145738 L44.6917274,14.4765283 C44.6917274,13.2623493 44.3711046,12.3722394 43.7198395,11.8018777 C43.0728684,11.2315161 42.0222561,10.9463352 40.5565517,10.9463352 C39.5374291,10.9463352 38.7244212,11.0774032 38.1146653,11.3366585 C37.5077721,11.5930332 36.9438194,12.0712152 36.4170819,12.7683239 L33.9451372,10.424944 C34.806811,9.43401259 35.7515033,8.73114264 36.7663318,8.3264163 C37.7911798,7.91880935 39.089416,7.71428571 40.6667658,7.71428571 C45.8081819,7.71428571 48.3846154,9.87042569 48.3846154,14.1913475 L48.3846154,26.8142004 L44.6902961,26.8142004 L44.6902961,26.8156407 Z M44.6902961,18.4532167 L40.2573991,18.4532167 C37.9958631,18.4532167 36.8636637,19.35917 36.8636637,21.1653153 C36.8636637,22.949856 38.0187647,23.8414062 40.3275354,23.8414062 C41.220699,23.8414062 41.912042,23.779473 42.3972703,23.6570468 C42.8796359,23.536061 43.3849031,23.2177531 43.9116406,22.7078843 C44.4312214,22.2008962 44.6902961,21.2920623 44.6902961,19.9756215 L44.6902961,18.4532167 L44.6902961,18.4532167 Z" id="Shape"></path>
            <path d="M56.4522681,27 C54.7219639,27 53.4213227,26.5010056 52.5416058,25.5015492 C51.6648018,24.5035604 51.2307692,23.2340599 51.2307692,21.6901125 L51.2307692,0 L55.0627814,0 L55.0627814,21.4685003 C55.0627814,22.2272653 55.2186253,22.7864326 55.5303131,23.1548078 C55.8463704,23.5231831 56.3765309,23.7037017 57.1280772,23.7037017 L58.8205128,23.7037017 L58.8205128,27 L56.4522681,27 Z" id="Path"></path>
            <path d="M65.9742417,27 C64.2236767,27 62.7046522,26.8055295 61.4289667,26.42091 C60.1444324,26.037731 58.9587085,25.3261129 57.8717949,24.2846152 L60.4202165,21.7953925 C61.1325357,22.5127726 61.9716861,23.0227176 62.9302937,23.3209057 C63.8903762,23.6190939 64.9094499,23.7660271 65.9742417,23.7660271 C67.2174821,23.7660271 68.2262323,23.5499488 69.016715,23.1192326 C69.8012985,22.6856353 70.1980146,22.0330787 70.1980146,21.1644436 C70.1980146,20.4729929 69.9959696,19.9270349 69.5845057,19.5294507 C69.18484,19.1347475 68.5211885,18.9359554 67.6112487,18.9359554 L64.5260068,18.6766614 C62.6515601,18.5268471 61.231346,18.0327479 60.2653645,17.1900423 C59.3023325,16.3473366 58.8200791,15.1070468 58.8200791,13.4720539 C58.8200791,11.6656387 59.4999531,10.2510457 60.8567516,9.2354774 C62.2150249,8.21990909 63.9596909,7.71428571 66.0877999,7.71428571 C67.5847026,7.71428571 68.9311777,7.87850527 70.1213259,8.21702804 C71.312949,8.5483482 72.3526696,9.08854411 73.2449121,9.83041316 L70.8070991,12.2490503 C70.2525815,11.776559 69.5446866,11.4308336 68.6922631,11.2046716 C67.8442641,10.9857122 66.9608702,10.8733514 66.0494556,10.8733514 C64.9094499,10.8733514 64.0393291,11.0865487 63.4449923,11.523027 C62.8447564,11.9537432 62.5468507,12.5443574 62.5468507,13.287667 C62.5468507,13.9099727 62.7459461,14.3968693 63.1367631,14.7569999 C63.5305296,15.1171305 64.2236767,15.3476141 65.2103052,15.441248 L68.2572027,15.7034231 C70.1316494,15.854678 71.5577626,16.3617419 72.5399668,17.2289364 C73.5133223,18.0990119 74,19.3609096 74,21.0203914 C74,22.9290836 73.2567104,24.4027381 71.7671816,25.4427953 C70.2924005,26.4799714 68.3589626,27 65.9742417,27 Z" id="Path"></path>
        </g>
        <g id="Group-3" transform="translate(146.609375, 50.000000)">
            <path d="M1.40624992,13 L1.40624992,10.5953126 L2.63906234,10.5953126 C3.44843729,10.5953126 4.08203101,10.4023439 4.53984348,10.0164064 C4.99765595,9.63046895 5.22656219,9.10312523 5.22656219,8.43437527 C5.22656219,7.9937503 5.12187469,7.60078157 4.91249971,7.25546909 C4.70312472,6.91015661 4.40390599,6.64375038 4.01484351,6.45625039 C3.62578103,6.2687504 3.17499981,6.17500041 2.66249984,6.17500041 L2.66249984,6.17500041 L0,6.17500041 L0,13 L1.40624992,13 Z M2.66249984,9.45625021 L1.40624992,9.45625021 L1.40624992,7.31406284 L2.69531234,7.31406284 C3.04218732,7.32031284 3.3140623,7.42656283 3.51093729,7.63281282 C3.70781228,7.83906281 3.80624977,8.10937529 3.80624977,8.44375027 C3.80624977,8.76875025 3.70859353,9.01875024 3.51328104,9.19375023 C3.31796855,9.36875022 3.03437482,9.45625021 2.66249984,9.45625021 L2.66249984,9.45625021 Z M8.23593701,13.09375 C8.96718697,13.09375 9.54999943,12.8585938 9.9843744,12.3882813 C10.4187494,11.9179688 10.6359369,11.2937501 10.6359369,10.5156251 L10.6359369,10.5156251 L10.6265619,10.1687502 C10.5765619,9.45000021 10.3351556,8.88125025 9.90234316,8.46250027 C9.46953069,8.0437503 8.91093697,7.83437531 8.22656201,7.83437531 C7.74531204,7.83437531 7.32265581,7.9421878 6.95859334,8.15781279 C6.59453086,8.37343778 6.31562462,8.67812526 6.12187464,9.07187523 C5.92812465,9.46562521 5.83124965,9.91406268 5.83124965,10.4171877 L5.83124965,10.4171877 L5.83124965,10.4781252 C5.83124965,11.2843751 6.04921839,11.9218751 6.48515586,12.390625 C6.92109334,12.859375 7.50468705,13.09375 8.23593701,13.09375 Z M8.23593701,12.0015626 C7.89843703,12.0015626 7.63906204,11.8742188 7.45781206,11.6195313 C7.27656207,11.3648438 7.18593707,10.9968751 7.18593707,10.5156251 C7.18593707,9.97500018 7.27656207,9.57578145 7.45781206,9.31796897 C7.63906204,9.06015648 7.89531203,8.93125024 8.22656201,8.93125024 C8.56093699,8.93125024 8.82031197,9.06093773 9.00468696,9.32031272 C9.18906195,9.5796877 9.28124945,9.94531268 9.28124945,10.4171877 C9.28124945,10.9703126 9.18906195,11.3726563 9.00468696,11.6242188 C8.82031197,11.8757813 8.56406199,12.0015626 8.23593701,12.0015626 Z M13.5046867,13 L14.4656241,9.80781269 L15.4265616,13 L16.5609365,13 L17.8546864,7.9281253 L16.546874,7.9281253 L15.8812491,11.1578126 L14.9578116,7.9281253 L13.9781242,7.9281253 L13.0499992,11.1531251 L12.3890618,7.9281253 L11.0812493,7.9281253 L12.3749993,13 L13.5046867,13 Z M20.8593738,13.09375 C21.2812487,13.09375 21.6656237,13.0132812 22.0124987,12.8523438 C22.3593737,12.6914063 22.6343737,12.4671875 22.8374986,12.1796875 L22.8374986,12.1796875 L22.1718737,11.4343751 C21.8781237,11.8125001 21.4703112,12.0015626 20.9484363,12.0015626 C20.6109363,12.0015626 20.33203,11.9015626 20.1117176,11.7015626 C19.8914051,11.5015626 19.7593738,11.2359376 19.7156238,10.9046876 L19.7156238,10.9046876 L22.9453111,10.9046876 L22.9453111,10.3515627 C22.9453111,9.54843771 22.7460924,8.92812524 22.3476549,8.49062527 C21.9492174,8.05312529 21.4031237,7.83437531 20.7093738,7.83437531 C20.2468738,7.83437531 19.8351551,7.94296905 19.4742176,8.16015654 C19.1132801,8.37734403 18.8343739,8.68671901 18.6374989,9.08828148 C18.4406239,9.48984396 18.3421864,9.94531268 18.3421864,10.4546877 L18.3421864,10.4546877 L18.3421864,10.5859376 C18.3421864,11.3453126 18.5757801,11.9531251 19.0429676,12.409375 C19.5101551,12.865625 20.1156238,13.09375 20.8593738,13.09375 Z M21.6140612,9.98125018 L19.7296863,9.98125018 C19.7765613,9.6437502 19.8835926,9.38437522 20.0507801,9.20312523 C20.2179675,9.02187524 20.4359363,8.93125024 20.7046863,8.93125024 C20.9921862,8.93125024 21.2140612,9.01328149 21.3703112,9.17734398 C21.5265612,9.34140647 21.6078112,9.5734377 21.6140612,9.87343769 L21.6140612,9.87343769 L21.6140612,9.98125018 Z M25.0687485,13 L25.0687485,9.6812502 C25.2281235,9.33437531 25.564061,9.16093773 26.0765609,9.16093773 C26.2171859,9.16093773 26.3796859,9.17343773 26.5640609,9.19843773 L26.5640609,9.19843773 L26.5828109,7.8953128 C26.4515609,7.85468781 26.3109359,7.83437531 26.1609359,7.83437531 C25.679686,7.83437531 25.3031235,8.06718779 25.0312485,8.53281277 L25.0312485,8.53281277 L24.9937485,7.9281253 L23.7140611,7.9281253 L23.7140611,13 L25.0687485,13 Z M29.4609357,13.09375 C29.8828107,13.09375 30.2671857,13.0132812 30.6140607,12.8523438 C30.9609357,12.6914063 31.2359356,12.4671875 31.4390606,12.1796875 L31.4390606,12.1796875 L30.7734357,11.4343751 C30.4796857,11.8125001 30.0718732,12.0015626 29.5499982,12.0015626 C29.2124983,12.0015626 28.933592,11.9015626 28.7132795,11.7015626 C28.4929671,11.5015626 28.3609358,11.2359376 28.3171858,10.9046876 L28.3171858,10.9046876 L31.5468731,10.9046876 L31.5468731,10.3515627 C31.5468731,9.54843771 31.3476544,8.92812524 30.9492169,8.49062527 C30.5507794,8.05312529 30.0046857,7.83437531 29.3109358,7.83437531 C28.8484358,7.83437531 28.4367171,7.94296905 28.0757796,8.16015654 C27.7148421,8.37734403 27.4359359,8.68671901 27.2390609,9.08828148 C27.0421859,9.48984396 26.9437484,9.94531268 26.9437484,10.4546877 L26.9437484,10.4546877 L26.9437484,10.5859376 C26.9437484,11.3453126 27.1773421,11.9531251 27.6445296,12.409375 C28.1117171,12.865625 28.7171858,13.09375 29.4609357,13.09375 Z M30.2156232,9.98125018 L28.3312483,9.98125018 C28.3781233,9.6437502 28.4851546,9.38437522 28.652342,9.20312523 C28.8195295,9.02187524 29.0374983,8.93125024 29.3062483,8.93125024 C29.5937482,8.93125024 29.8156232,9.01328149 29.9718732,9.17734398 C30.1281232,9.34140647 30.2093732,9.5734377 30.2156232,9.87343769 L30.2156232,9.87343769 L30.2156232,9.98125018 Z M34.0828105,13.09375 C34.6140604,13.09375 35.0484354,12.8828125 35.3859354,12.4609375 L35.3859354,12.4609375 L35.4515604,13 L36.6749978,13 L36.6749978,5.80000043 L35.3156229,5.80000043 L35.3156229,8.38750027 C34.9937479,8.0187503 34.5859354,7.83437531 34.0921855,7.83437531 C33.4765605,7.83437531 32.9914043,8.06875029 32.6367168,8.53750027 C32.2820293,9.00625024 32.1046856,9.6359377 32.1046856,10.4265627 C32.1046856,11.2640626 32.2851543,11.9179688 32.6460918,12.3882813 C33.0070293,12.8585938 33.4859355,13.09375 34.0828105,13.09375 Z M34.4296854,11.9968751 C34.1140605,11.9968751 33.8734355,11.8703126 33.7078105,11.6171876 C33.5421855,11.3640626 33.459373,11.0000001 33.459373,10.5250001 C33.459373,9.46562521 33.7859355,8.93593774 34.4390604,8.93593774 C34.8546854,8.93593774 35.1468729,9.11250023 35.3156229,9.46562521 L35.3156229,9.46562521 L35.3156229,11.4671876 C35.1437479,11.8203126 34.8484354,11.9968751 34.4296854,11.9968751 Z M42.7124975,13.09375 C43.3343724,13.09375 43.8187474,12.8664063 44.1656224,12.4117188 C44.5124973,11.9570313 44.6859348,11.3234376 44.6859348,10.5109376 L44.6859348,10.5109376 L44.6859348,10.4359377 C44.6859348,9.6109377 44.5101536,8.97109399 44.1585911,8.51640652 C43.8070286,8.06171904 43.3218724,7.83437531 42.7031225,7.83437531 C42.1937475,7.83437531 41.78281,8.0171878 41.47031,8.38281278 L41.47031,8.38281278 L41.47031,5.80000043 L40.1156226,5.80000043 L40.1156226,13 L41.3343725,13 L41.39531,12.4609375 C41.723435,12.8828125 42.1624975,13.09375 42.7124975,13.09375 Z M42.37031,12.0015626 C41.935935,12.0015626 41.635935,11.8234376 41.47031,11.4671876 L41.47031,11.4671876 L41.47031,9.46562521 C41.63281,9.11250023 41.929685,8.93593774 42.360935,8.93593774 C42.68281,8.93593774 42.9249974,9.05390649 43.0874974,9.28984397 C43.2499974,9.52578146 43.3312474,9.90000018 43.3312474,10.4125002 C43.3312474,10.8343751 43.2984349,11.1484376 43.2328099,11.3546876 C43.0953099,11.7859376 42.8078099,12.0015626 42.37031,12.0015626 Z M46.1015598,15.0484374 C46.7984347,15.0484374 47.2984347,14.7171874 47.6015597,14.0546874 L47.6015597,14.0546874 L47.7140597,13.7875 L49.753122,7.9281253 L48.2999971,7.9281253 L47.3624972,11.0828126 L46.4203097,7.9281253 L44.9624973,7.9281253 L46.7390597,13.0140625 L46.5796847,13.43125 C46.5078097,13.6125 46.408591,13.7421875 46.2820285,13.8203125 C46.155466,13.8984374 45.9640598,13.9374999 45.7078098,13.9374999 L45.7078098,13.9374999 L45.5015598,13.9328124 L45.5015598,14.9593749 C45.7046848,15.0187499 45.9046848,15.0484374 46.1015598,15.0484374 Z" id="Poweredby" fill="#58595B" fill-rule="nonzero"></path>
            <g id="Branding/Travello/Icon/Pin-+-Text-(Color)" transform="translate(54.390625, 0.000000)">
                <g id="logo/NoTagline-or-Pin" transform="translate(15.049539, 0.773668)">
                    <path d="M4.8125481,16.4284871 C2.83216327,16.4284871 1.49061224,15.6125756 1.49061224,12.8781697 L1.49061224,7.27704797 L1.38413994,7.27704797 C0.617539359,7.27704797 0,6.63754982 0,5.84369004 C0,5.04983026 0.617539359,4.4103321 1.38413994,4.4103321 L1.49061224,4.4103321 L1.49061224,2.93287085 C1.49061224,2.00670111 2.21462391,1.25694465 3.10899125,1.25694465 C4.0033586,1.25694465 4.72737026,2.00670111 4.72737026,2.93287085 L4.72737026,4.4103321 L6.15409913,4.4103321 C6.92069971,4.4103321 7.53823907,5.04983026 7.53823907,5.84369004 C7.53823907,6.63754982 6.92069971,7.27704797 6.15409913,7.27704797 L4.72737026,7.27704797 L4.72737026,12.3268782 C4.72737026,13.0986863 5.04678717,13.4735646 5.77079883,13.4735646 C5.87727114,13.4735646 6.09021574,13.4515129 6.15409913,13.4515129 C6.87811079,13.4515129 7.49565015,14.0689594 7.49565015,14.8407675 C7.49565015,15.4361624 7.11234985,15.9212989 6.66516618,16.0977122 C6.06892128,16.3402804 5.51526531,16.4284871 4.8125481,16.4284871 Z M8.73885643,14.6864059 L8.73885643,5.95394834 C8.73885643,5.0277786 9.4628681,4.27802214 10.3572354,4.27802214 C11.2516028,4.27802214 11.9756145,5.0277786 11.9756145,5.95394834 L11.9756145,6.48318819 C12.4440926,5.33650185 13.2106932,4.27802214 14.1689439,4.27802214 C15.1697835,4.27802214 15.744734,4.96162362 15.744734,5.90984502 C15.744734,6.79191144 15.191078,7.32115129 14.5309497,7.47551292 C12.8912763,7.8724428 11.9756145,9.17349077 11.9756145,11.5550701 L11.9756145,14.6864059 C11.9756145,15.6125756 11.2516028,16.3623321 10.3572354,16.3623321 C9.4628681,16.3623321 8.73885643,15.6125756 8.73885643,14.6864059 Z M19.287742,16.4505387 C17.1370015,16.4505387 15.3695613,15.1715424 15.3695613,12.8340664 L15.3695613,12.7899631 C15.3695613,10.2099188 17.2647683,9.01912915 19.9691648,9.01912915 C21.1190656,9.01912915 21.9495496,9.2175941 22.7587391,9.50426568 L22.7587391,9.30580074 C22.7587391,7.91654613 21.9282551,7.14473801 20.3098761,7.14473801 C19.4155088,7.14473801 18.6914971,7.27704797 18.0739578,7.47551292 C17.8823076,7.5416679 17.7545409,7.56371956 17.6054796,7.56371956 C16.8601735,7.56371956 16.2639286,6.96832472 16.2639286,6.19651661 C16.2639286,5.60112177 16.6259344,5.09393358 17.1370015,4.89546863 C18.1591356,4.49853875 19.2664476,4.27802214 20.7783543,4.27802214 C22.5457945,4.27802214 23.8234621,4.76315867 24.6326516,5.60112177 C25.4844301,6.48318819 25.8677304,7.78423616 25.8677304,9.37195572 L25.8677304,14.7525609 C25.8677304,15.656679 25.1650132,16.3623321 24.2919403,16.3623321 C23.354984,16.3623321 22.7374446,15.6787306 22.7374446,14.9730775 L22.7374446,14.9510258 C21.9495496,15.8551439 20.8635321,16.4505387 19.287742,16.4505387 Z M20.2672872,14.1351144 C21.7791939,14.1351144 22.801328,13.2750996 22.801328,12.0622583 L22.801328,11.4668635 C22.2476721,11.2022435 21.5236604,11.0258303 20.7357653,11.0258303 C19.3516254,11.0258303 18.499847,11.5991734 18.499847,12.6576531 L18.499847,12.7017565 C18.499847,13.6058745 19.2238586,14.1351144 20.2672872,14.1351144 Z M34.0103419,15.0171808 C33.6483361,15.8771956 33.0520912,16.4725904 32.1790183,16.4725904 L32.0086626,16.4725904 C31.1355897,16.4725904 30.5393448,15.8992472 30.177339,15.0171808 L26.6850474,6.65960148 C26.5998696,6.43908487 26.5146918,6.15241328 26.5146918,5.84369004 C26.5146918,5.04983026 27.217409,4.27802214 28.0904818,4.27802214 C28.9635547,4.27802214 29.4320329,4.78521033 29.6662719,5.46881181 L32.1151349,12.3268782 L34.6065868,5.42470849 C34.8195314,4.85136531 35.2667151,4.27802214 36.1184935,4.27802214 C36.9702719,4.27802214 37.6729891,4.96162362 37.6729891,5.8657417 C37.6729891,6.15241328 37.5665168,6.50523985 37.5026334,6.65960148 L34.0103419,15.0171808 Z" id="travello" fill="#0072BE"></path>
                    <path d="M43.4519155,4.1898155 C47.263624,4.1898155 48.9458864,7.43140959 48.9458864,9.87914391 C48.9458864,10.849417 48.2857581,11.4889151 47.4339797,11.4889151 L41.024347,11.4889151 C41.3437639,13.0104797 42.365898,13.8043395 43.8139214,13.8043395 C44.7082887,13.8043395 45.4535948,13.5176679 46.1137231,13.0104797 C46.3479622,12.8340664 46.5609068,12.7458598 46.9016182,12.7458598 C47.6256298,12.7458598 48.1579913,13.319203 48.1579913,14.0689594 C48.1579913,14.5099926 47.9663412,14.8407675 47.7321021,15.0612841 C46.7312625,15.9433506 45.4323004,16.4946421 43.7713324,16.4946421 C40.3429243,16.4946421 37.8088835,14.0028044 37.8088835,10.3863321 L37.8088835,10.3422288 C37.8088835,6.96832472 40.1299797,4.1898155 43.4519155,4.1898155 Z M43.4519155,6.88011808 C42.1103645,6.88011808 41.2372916,7.8724428 40.9817581,9.39400738 L45.8581896,9.39400738 C45.6665394,7.89449446 44.814761,6.88011808 43.4519155,6.88011808 Z" id="Path" fill="#10ABE4"></path>
                    <path d="M50.5085096,14.6864059 L50.5085096,1.6759262 C50.5085096,0.749756458 51.2325212,0 52.1268886,0 C53.0212559,0 53.7452676,0.749756458 53.7452676,1.6759262 L53.7452676,14.6864059 C53.7452676,15.6125756 53.0212559,16.3623321 52.1268886,16.3623321 C51.2325212,16.3623321 50.5085096,15.6125756 50.5085096,14.6864059 Z" id="Path" fill="#10ABE4"></path>
                    <path d="M55.8828412,14.6864059 L55.8828412,1.6759262 C55.8828412,0.749756458 56.6068529,0 57.5012202,0 C58.3955876,0 59.1195992,0.749756458 59.1195992,1.6759262 L59.1195992,14.6864059 C59.1195992,15.6125756 58.3955876,16.3623321 57.5012202,16.3623321 C56.6068529,16.3623321 55.8828412,15.6125756 55.8828412,14.6864059 Z" id="Path" fill="#10ABE4"></path>
                    <path d="M66.7511437,4.1898155 C70.2860242,4.1898155 72.9052429,6.90216974 72.9052429,10.2981255 L72.9052429,10.3422288 C72.9052429,13.7381845 70.2647297,16.4946421 66.7085548,16.4946421 C63.1736743,16.4946421 60.5544557,13.7822878 60.5544557,10.3863321 L60.5544557,10.3422288 C60.5544557,6.94627306 63.1949688,4.1898155 66.7511437,4.1898155 Z M66.7085548,7.07858303 C64.8559367,7.07858303 63.7486248,8.55604428 63.7486248,10.2981255 L63.7486248,10.3422288 C63.7486248,12.08431 64.962409,13.6058745 66.7511437,13.6058745 C68.6037618,13.6058745 69.7110738,12.1284133 69.7110738,10.3863321 L69.7110738,10.3422288 C69.7110738,8.6001476 68.4972895,7.07858303 66.7085548,7.07858303 Z" id="Path" fill="#10ABE4"></path>
                </g>
                <g id="MapPin" transform="translate(0.013925, 0.326791)">
                    <path d="M6.36799934,17.2799982 C10.6133322,12.3256477 12.7359987,8.68048202 12.7359987,6.34450118 C12.7359987,2.84052993 9.88494826,0 6.36799934,0 C2.85105042,0 0,2.84052993 0,6.34450118 C0,8.68048202 2.12266645,12.3256477 6.36799934,17.2799982 Z" id="Oval" fill="url(#linearGradient-1)"></path>
                    <g id="Group" transform="translate(1.216000, 1.216000)">
                        <circle id="Oval-Copy" fill="url(#linearGradient-2)" cx="5.15199946" cy="5.15199946" r="5.15199946"></circle>
                        <path d="M5.15199946,0.618239936 C7.65592571,0.618239936 9.68575899,2.64807322 9.68575899,5.15199946 C9.68575899,6.15051639 9.36296297,7.07364027 8.81603041,7.82271163 C8.81074421,7.8753896 8.80902775,7.92891226 8.80902775,7.98283468 C8.80902775,8.6295933 9.05596065,9.21884207 9.46094447,9.66195241 C9.3475477,9.6776468 9.23171931,9.68575899 9.11399079,9.68575899 C8.47748532,9.68575899 7.89652192,9.44863302 7.45509955,9.05814055 C6.7809299,9.45665268 5.99322,9.68575899 5.15199946,9.68575899 C2.64807322,9.68575899 0.618239936,7.65592571 0.618239936,5.15199946 C0.618239936,2.64807322 2.64807322,0.618239936 5.15199946,0.618239936 Z" id="Combined-Shape" fill="#FFFFFF"></path>
                        <ellipse id="Oval" fill="#0674BB" cx="5.17754657" cy="5.20351946" rx="3.11674678" ry="3.14271967"></ellipse>
                    </g>
                </g>
            </g>
        </g>
    </g>
</svg>