<?xml version="1.0" encoding="UTF-8"?>
<svg width="34px" height="34px" viewBox="0 0 34 34" version="1.1" xmlns="http://www.w3.org/2000/svg" xmlns:xlink="http://www.w3.org/1999/xlink">
    <title>icn-lm-deal-in-circle</title>
    <g id="Page-1" stroke="none" stroke-width="1" fill="none" fill-rule="evenodd">
        <g id="icn-lm-deal-in-circle">
            <path d="M17,0 C7.61115925,0 0,7.61115925 0,17 C0,26.3888407 7.61115925,34 17,34 C26.3888407,34 34,26.3888407 34,17 C34,7.61115925 26.3888407,0 17,0 Z" id="Mask" fill="#F54D0D" fill-rule="nonzero"></path>
            <path d="M20.8333333,5.83333333 C21.2935706,5.83333333 21.6666667,6.20642938 21.6666667,6.66666667 C21.6666667,7.12690396 21.2935706,7.5 20.8333333,7.5 L18.3325,7.5 L18.3330807,10.0457461 C22.083161,10.4601681 25,13.6394519 25,17.5 C25,21.6421356 21.6421356,25 17.5,25 C14.8622114,25 12.5424745,23.6382591 11.2054298,21.5794179 C11.0943387,21.6349409 10.967541,21.6666667 10.8333333,21.6666667 L8.33333333,21.6666667 C7.87309604,21.6666667 7.5,21.2935706 7.5,20.8333333 C7.5,20.373096 7.87309604,20 8.33333333,20 L10.4269345,20.0004817 C10.2393354,19.469831 10.1097619,18.9117667 10.0458381,18.3339129 L7.5,18.3333333 C7.03976271,18.3333333 6.66666667,17.9602373 6.66666667,17.5 C6.66666667,17.0397627 7.03976271,16.6666667 7.5,16.6666667 L10.0457461,16.6669193 C10.1096043,16.0890698 10.2391106,15.5310045 10.4266418,15.0003465 L5.83333333,15 C5.37309604,15 5,14.626904 5,14.1666667 C5,13.7064294 5.37309604,13.3333333 5.83333333,13.3333333 L11.2630779,13.3331536 C12.4626807,11.5411517 14.4141048,10.2949589 16.6660871,10.0458381 L16.6658333,7.5 L14.1666667,7.5 C13.7064294,7.5 13.3333333,7.12690396 13.3333333,6.66666667 C13.3333333,6.20642938 13.7064294,5.83333333 14.1666667,5.83333333 L20.8333333,5.83333333 Z M5.83333333,20 C6.29357062,20 6.66666667,20.373096 6.66666667,20.8333333 C6.66666667,21.2935706 6.29357062,21.6666667 5.83333333,21.6666667 C5.37309604,21.6666667 5,21.2935706 5,20.8333333 C5,20.373096 5.37309604,20 5.83333333,20 Z M17.5,12.5 C17.0397627,12.5 16.6666667,12.873096 16.6666667,13.3333333 L16.6666667,13.3333333 L16.6665447,16.0563742 C16.1684442,16.3445661 15.8333333,16.8831484 15.8333333,17.5 C15.8333333,18.4204746 16.5795254,19.1666667 17.5,19.1666667 C18.4204746,19.1666667 19.1666667,18.4204746 19.1666667,17.5 C19.1666667,16.8831484 18.8315558,16.3445661 18.3334553,16.0563742 L18.3334553,16.0563742 L18.3333333,13.3333333 C18.3333333,12.873096 17.9602373,12.5 17.5,12.5 Z" id="Combined-Shape" fill="#FFFFFF"></path>
        </g>
    </g>
</svg>