<?xml version="1.0" encoding="UTF-8"?>
<svg width="202px" height="24px" viewBox="0 0 202 24" version="1.1" xmlns="http://www.w3.org/2000/svg" xmlns:xlink="http://www.w3.org/1999/xlink">
    <title>Group 6 Copy</title>
    <g id="Molecules" stroke="none" stroke-width="1" fill="none" fill-rule="evenodd">
        <g id="Group-6-Copy">
            <g id="Visa">
                <path d="M0,1.57470703 C0,0.705020352 0.710138321,0 1.57170124,0 L32.4282988,0 C33.2963254,0 34,0.692390442 34,1.57470703 L34,22.425293 C34,23.2949796 33.2898617,24 32.4282988,24 L1.57170124,24 C0.703674614,24 0,23.3076096 0,22.425293 L0,1.57470703 Z" id="Rectangle-Copy-4" fill="#0742A6"></path>
                <g id="Visa_Inc._logo" transform="translate(5.711685, 8.436630)" fill="#FFFFFF">
                    <polygon id="polygon9" points="9.75437109 7.08197424 7.93089211 7.08197424 9.07142651 0.126087978 10.8948058 0.126087978"></polygon>
                    <path d="M16.3646444,0.29613955 C16.0049742,0.15539704 15.4345076,0 14.7291273,0 C12.9283832,0 11.660314,0.947135126 11.6525362,2.30125313 C11.6375791,3.30031841 12.5604367,3.85522354 13.2506604,4.18834365 C13.9561405,4.52874185 14.1959539,4.75092028 14.1959539,5.05433792 C14.1887744,5.52033233 13.6258861,5.73513432 13.1008893,5.73513432 C12.3728737,5.73513432 11.9827906,5.62438934 11.389988,5.365132 L11.1498755,5.25399361 L10.8947061,6.81543881 C11.3223815,7.0076197 12.1103255,7.17816304 12.9283832,7.18563783 C14.8417049,7.18563783 16.0873384,6.25315724 16.1020962,4.81012852 C16.1093753,4.01829208 15.6220706,3.41155515 14.5714787,2.91575991 C13.9337047,2.59749104 13.5431231,2.38288576 13.5431231,2.05724044 C13.5506016,1.76119924 13.8734772,1.45797831 14.5934158,1.45797831 C15.1862185,1.44312707 15.6217714,1.58367288 15.9517267,1.72431703 L16.1166545,1.7981798 L16.3646444,0.29613955 L16.3646444,0.29613955 L16.3646444,0.29613955 Z" id="path11"></path>
                    <path d="M18.7882052,4.61775092 C18.9383753,4.21814448 19.5162208,2.67155051 19.5162208,2.67155051 C19.5086425,2.68640175 19.6660917,2.26456763 19.7561338,2.00560535 L19.883569,2.60496583 C19.883569,2.60496583 20.2288803,4.26997627 20.3038656,4.61775092 C20.0188815,4.61775092 19.148374,4.61775092 18.7882052,4.61775092 L18.7882052,4.61775092 Z M21.0390605,0.126087978 L19.628599,0.126087978 C19.1936444,0.126087978 18.8631905,0.251782547 18.6755279,0.703220784 L15.966983,7.08187589 L17.8803048,7.08187589 C17.8803048,7.08187589 18.1953028,6.22335641 18.263009,6.03845361 C18.472908,6.03845361 20.3341788,6.03845361 20.6042056,6.03845361 C20.6565557,6.28266301 20.8217827,7.08187589 20.8217827,7.08187589 L22.5101485,7.08187589 L21.0390605,0.126087978 L21.0390605,0.126087978 L21.0390605,0.126087978 Z" id="path13" fill-rule="nonzero"></path>
                    <path d="M6.40785291,0.126087978 L4.62206601,4.86933676 L4.42692474,3.90735039 C4.09677005,2.79734343 3.06133473,1.59134438 1.90584315,0.991688835 L3.54155974,7.0745978 L5.46983865,7.0745978 L8.33603211,0.126087978 L6.40785291,0.126087978 L6.40785291,0.126087978 L6.40785291,0.126087978 Z" id="path15"></path>
                    <path d="M2.96381395,0.126087978 L0.0300140631,0.126087978 L0,0.266633783 C2.28854739,0.843864941 3.80420772,2.23525857 4.42692474,3.90764545 L3.78915083,0.710793931 C3.68415146,0.26653543 3.36147536,0.140742509 2.96381395,0.126087978 L2.96381395,0.126087978 Z" id="path17"></path>
                </g>
            </g>
            <g id="Mastercard" transform="translate(42.000000, 0.000000)">
                <path d="M0,1.57470703 C0,0.705020352 0.710138321,0 1.57170124,0 L32.4282988,0 C33.2963254,0 34,0.692390442 34,1.57470703 L34,22.425293 C34,23.2949796 33.2898617,24 32.4282988,24 L1.57170124,24 C0.703674614,24 0,23.3076096 0,22.425293 L0,1.57470703 Z" id="Rectangle-Copy-4" fill="#262626"></path>
                <g id="mc_symbol" transform="translate(6.696970, 5.217391)">
                    <g id="Group" opacity="0" fill="#FFFFFF">
                        <rect id="Rectangle" x="0" y="0" width="20.5108356" height="13.5496252"></rect>
                    </g>
                    <rect id="Rectangle" fill="#FF5F00" x="7.55087236" y="2.36065967" width="5.41065197" height="8.82674663"></rect>
                    <path d="M8.10817264,6.77481259 C8.10681409,5.0526539 8.89832276,3.42551032 10.2546373,2.36221889 C7.95047232,0.553531312 4.64159903,0.816982299 2.65340463,2.96742558 C0.66521023,5.11786886 0.66521023,8.43331555 2.65340463,10.5837588 C4.64159903,12.7342021 7.95047232,12.9976531 10.2546373,11.1889655 C8.89789114,10.1253364 8.10633411,8.49751845 8.10817264,6.77481259 Z" id="Path" fill="#EB001B"></path>
                    <path d="M18.8231221,10.4778302 L18.8231221,10.1110318 L18.9100787,10.1110318 L18.9100787,10.0351424 L18.7031221,10.0351424 L18.7031221,10.1110318 L18.7848613,10.1110318 L18.7848613,10.4778302 L18.8231221,10.4778302 Z M19.2248613,10.4778302 L19.2248613,10.0351424 L19.1622526,10.0351424 L19.0892091,10.351348 L19.0161656,10.0351424 L18.9535569,10.0351424 L18.9535569,10.4778302 L18.9987743,10.4778302 L18.9987743,10.1426523 L19.0666004,10.4303993 L19.1135569,10.4303993 L19.181383,10.1426523 L19.181383,10.4778302 L19.2248613,10.4778302 Z" id="Shape" fill="#F79E1B" fill-rule="nonzero"></path>
                    <path d="M19.3478421,6.77481259 C19.3478421,8.92394537 18.1191933,10.8843953 16.1838369,11.8235517 C14.2484805,12.7627081 11.9461435,12.5156897 10.2546373,11.1874063 C11.61036,10.1232122 12.4019283,8.49628491 12.4019283,6.77403298 C12.4019283,5.05178105 11.61036,3.42485381 10.2546373,2.36065967 C11.9461435,1.03237622 14.2484805,0.785357883 16.1838369,1.7245143 C18.1191933,2.66367071 19.3478421,4.6241206 19.3478421,6.77325337 L19.3478421,6.77481259 Z" id="Path" fill="#F79E1B"></path>
                </g>
            </g>
            <g id="American-Express" transform="translate(84.000000, 0.000000)">
                <path d="M0,1.57470703 C0,0.705020352 0.710138321,0 1.57170124,0 L32.4282988,0 C33.2963254,0 34,0.692390442 34,1.57470703 L34,22.425293 C34,23.2949796 33.2898617,24 32.4282988,24 L1.57170124,24 C0.703674614,24 0,23.3076096 0,22.425293 L0,1.57470703 Z" id="Rectangle-Copy-4" fill="#016FD0"></path>
                <g id="American_Express_logo_(2018)" transform="translate(0.033932, 5.782794)">
                    <path d="M6.57062385,12.3686478 L6.57062385,7.01505224 L12.1972598,7.01505224 L12.8009369,7.8078701 L13.4245759,7.01505224 L33.8478754,7.01505224 L33.8478754,11.999436 C33.8478754,11.999436 33.3137701,12.3632945 32.6960525,12.3686478 L21.3872501,12.3686478 L20.7066277,11.5247311 L20.7066277,12.3686478 L18.4762803,12.3686478 L18.4762803,10.9280564 C18.4762803,10.9280564 18.1716115,11.129146 17.5129382,11.129146 L16.7537823,11.129146 L16.7537823,12.3686478 L13.376848,12.3686478 L12.7740335,11.5588266 L12.1619632,12.3686478 L6.57062385,12.3686478 Z" id="path3082" fill="#FFFFFF"></path>
                    <path d="M0,2.9800782 L1.26882859,0 L3.46313515,0 L4.18321002,1.66931909 L4.18321002,0 L6.91093535,0 L7.33959629,1.20653434 L7.75516858,0 L19.9998275,0 L19.9998275,0.606564256 C19.9998275,0.606564256 20.6435184,0 21.7013836,0 L25.6743274,0.0139882491 L26.3819715,1.6614601 L26.3819715,0 L28.6646742,0 L29.2929413,0.946339921 L29.2929413,0 L31.5965861,0 L31.5965861,5.35359214 L29.2929413,5.35359214 L28.6908522,4.40418588 L28.6908522,5.35359214 L25.3370558,5.35359214 L24.9997843,4.50967546 L24.0981708,4.50967546 L23.7663889,5.35359214 L21.4919612,5.35359214 C20.5817015,5.35359214 19.9998275,4.75941288 19.9998275,4.75941288 L19.9998275,5.35359214 L16.5705379,5.35359214 L15.8899153,4.50967546 L15.8899153,5.35359214 L3.1380619,5.35359214 L2.80102281,4.50967546 L1.90228439,4.50967546 L1.56762735,5.35359214 L0,5.35359214 L0,2.9800782 Z" id="path3080" fill="#FFFFFF"></path>
                    <path d="M1.71791719,0.65998419 L0.00654445709,4.66858498 L1.1207364,4.66858498 L1.43650594,3.865881 L3.27222311,3.865881 L3.58635665,4.66858498 L4.72509028,4.66858498 L3.01535345,0.65998419 L1.71791719,0.65998419 Z M2.3510922,1.59290674 L2.91064261,2.99559107 L1.78990591,2.99559107 L2.3510922,1.59290674 L2.3510922,1.59290674 Z" id="path3046" fill="#016FD0" fill-rule="nonzero"></path>
                    <polygon id="path3048" fill="#016FD0" points="4.8428901 4.66791155 4.8428901 0.659307339 6.42621886 0.665231492 7.34713669 3.2497246 8.24600236 0.659307339 9.81666934 0.659307339 9.81666934 4.66791155 8.82191349 4.66791155 8.82191349 1.71420318 7.76745134 4.66791155 6.89504832 4.66791155 5.83764595 1.71420318 5.83764595 4.66791155"></polygon>
                    <polygon id="path3050" fill="#016FD0" points="10.4972917 4.66791155 10.4972917 0.659307339 13.7433371 0.659307339 13.7433371 1.55597052 11.5025186 1.55597052 11.5025186 2.24165111 13.6909816 2.24165111 13.6909816 3.08556778 11.5025186 3.08556778 11.5025186 3.79762162 13.7433371 3.79762162 13.7433371 4.66791155"></polygon>
                    <path d="M14.3192483,0.65998419 L14.3192483,4.66858498 L15.3140041,4.66858498 L15.3140041,3.2444773 L15.7328485,3.2444773 L16.9255739,4.66858498 L18.1412049,4.66858498 L16.8323155,3.19173422 C17.3694918,3.1460673 17.9236019,2.68159043 17.9236019,1.96047431 C17.9236019,1.11692341 17.2663951,0.65998419 16.5329072,0.65998419 L14.3192483,0.65998419 L14.3192483,0.65998419 Z M15.3140041,1.55664395 L16.4511016,1.55664395 C16.7238755,1.55664395 16.9223019,1.77160218 16.9223019,1.97860229 C16.9223019,2.24491571 16.6652072,2.40056062 16.4658267,2.40056062 L15.3140041,2.40056062 L15.3140041,1.55664395 L15.3140041,1.55664395 Z" id="path3052" fill="#016FD0" fill-rule="nonzero"></path>
                    <polygon id="path3054" fill="#016FD0" points="19.3453831 4.66791155 18.329685 4.66791155 18.329685 0.659307339 19.3453831 0.659307339"></polygon>
                    <path d="M21.7537392,4.66791155 L21.5345003,4.66791155 C20.4737233,4.66791155 19.8296721,3.82597757 19.8296721,2.68009315 C19.8296721,1.50590065 20.4665124,0.659307339 21.8060948,0.659307339 L22.9055618,0.659307339 L22.9055618,1.6087136 L21.7658977,1.6087136 C21.2221013,1.6087136 20.8375165,2.03624741 20.8375165,2.68998269 C20.8375165,3.46629634 21.2772726,3.79234697 21.9108059,3.79234697 L22.1725836,3.79234697 L21.7537392,4.66791155 Z" id="path3056" fill="#016FD0"></path>
                    <path d="M23.9183146,0.65998419 L22.2069422,4.66858498 L23.3211341,4.66858498 L23.6369035,3.865881 L25.4726208,3.865881 L25.786754,4.66858498 L26.9254877,4.66858498 L25.2157512,0.65998419 L23.9183146,0.65998419 Z M24.5514899,1.59290674 L25.11104,2.99559107 L23.9903036,2.99559107 L24.5514899,1.59290674 Z" id="path3058" fill="#016FD0" fill-rule="nonzero"></path>
                    <polygon id="path3060" fill="#016FD0" points="27.0416516 4.66791155 27.0416516 0.659307339 28.3063658 0.659307339 29.921208 3.17787245 29.921208 0.659307339 30.9159638 0.659307339 30.9159638 4.66791155 29.6921525 4.66791155 28.0364075 2.08341844 28.0364075 4.66791155"></polygon>
                    <polygon id="path3062" fill="#016FD0" points="7.25124651 11.6829672 7.25124651 7.674363 10.4972917 7.674363 10.4972917 8.57102617 8.25647347 8.57102617 8.25647347 9.25670676 10.4449361 9.25670676 10.4449361 10.1006234 8.25647347 10.1006234 8.25647347 10.8126773 10.4972917 10.8126773 10.4972917 11.6829672"></polygon>
                    <polygon id="path3064" fill="#016FD0" points="23.1568683 11.6829672 23.1568683 7.674363 26.4029138 7.674363 26.4029138 8.57102617 24.1620952 8.57102617 24.1620952 9.25670676 26.3400871 9.25670676 26.3400871 10.1006234 24.1620952 10.1006234 24.1620952 10.8126773 26.4029138 10.8126773 26.4029138 11.6829672"></polygon>
                    <polygon id="path3066" fill="#016FD0" points="10.6232722 11.6829672 12.2037561 9.70338724 10.5856418 7.674363 11.8389032 7.674363 12.8025728 8.92869736 13.7695148 7.674363 14.973693 7.674363 13.376848 9.6786651 14.9602413 11.6829672 13.707178 11.6829672 12.7714868 10.4484051 11.8585366 11.6829672"></polygon>
                    <path d="M15.0784042,7.67503985 L15.0784042,11.6836406 L16.0993376,11.6836406 L16.0993376,10.4177656 L17.1464491,10.4177656 C18.0324534,10.4177656 18.7040271,9.94422989 18.7040271,9.02332657 C18.7040271,8.26045422 18.1773084,7.67503985 17.275702,7.67503985 L15.0784042,7.67503985 L15.0784042,7.67503985 Z M16.0993376,8.58158915 L17.2020767,8.58158915 C17.4883099,8.58158915 17.6929102,8.75832582 17.6929102,9.04310565 C17.6929102,9.31063946 17.4893428,9.50462216 17.1988047,9.50462216 L16.0993376,9.50462216 L16.0993376,8.58158915 Z" id="path3068" fill="#016FD0" fill-rule="nonzero"></path>
                    <path d="M19.1359608,7.674363 L19.1359608,11.6829672 L20.1307166,11.6829672 L20.1307166,10.2588561 L20.549561,10.2588561 L21.7422864,11.6829672 L22.9579174,11.6829672 L21.649028,10.206113 C22.1862039,10.1604393 22.7403143,9.69596923 22.7403143,8.9748497 C22.7403143,8.13130221 22.0831076,7.674363 21.3496197,7.674363 L19.1359608,7.674363 L19.1359608,7.674363 Z M20.1307166,8.57102617 L21.267814,8.57102617 C21.540588,8.57102617 21.739014,8.78598098 21.739014,8.99298109 C21.739014,9.25929794 21.4819194,9.41493943 21.2825389,9.41493943 L20.1307166,9.41493943 L20.1307166,8.57102617 L20.1307166,8.57102617 Z" id="path3072" fill="#016FD0" fill-rule="nonzero"></path>
                    <path d="M26.8636426,11.6829672 L26.8636426,10.8126773 L28.8544634,10.8126773 C29.1490334,10.8126773 29.2765802,10.6523115 29.2765802,10.4764294 C29.2765802,10.3079141 29.1494355,10.137546 28.8544634,10.137546 L27.9548343,10.137546 C27.1728441,10.137546 26.737335,9.6575665 26.737335,8.93694263 C26.737335,8.29419763 27.1361557,7.674363 28.2981854,7.674363 L30.2353415,7.674363 L29.8164968,8.5762974 L28.1411186,8.5762974 C27.82086,8.5762974 27.7222739,8.74559897 27.7222739,8.90727401 C27.7222739,9.07345113 27.8441025,9.25670676 28.0887631,9.25670676 L29.0311633,9.25670676 C29.9028897,9.25670676 30.2811526,9.75485525 30.2811526,10.4072026 C30.2811526,11.1085397 29.8596436,11.6829672 28.9837079,11.6829672 L26.8636426,11.6829672 Z" id="path3074" fill="#016FD0"></path>
                    <path d="M30.5146261,11.6829672 L30.5146261,10.8126773 L32.5054455,10.8126773 C32.8000172,10.8126773 32.9275647,10.6523115 32.9275647,10.4764294 C32.9275647,10.3079141 32.8004176,10.137546 32.5054455,10.137546 L31.6058177,10.137546 C30.8238276,10.137546 30.3883181,9.6575665 30.3883181,8.93694263 C30.3883181,8.29419763 30.7871388,7.674363 31.9491685,7.674363 L33.886324,7.674363 L33.4674792,8.5762974 L31.7921018,8.5762974 C31.4718435,8.5762974 31.3732574,8.74559897 31.3732574,8.90727401 C31.3732574,9.07345113 31.4950856,9.25670676 31.7397462,9.25670676 L32.6821471,9.25670676 C33.5538739,9.25670676 33.9321357,9.75485525 33.9321357,10.4072026 C33.9321357,11.1085397 33.5106273,11.6829672 32.6346896,11.6829672 L30.5146261,11.6829672 Z" id="path3076" fill="#016FD0"></path>
                </g>
            </g>
            <g id="Pay-Pal" transform="translate(126.000000, 0.000000)">
                <path d="M0,1.57470703 C0,0.705020352 0.710138321,0 1.57170124,0 L32.4282988,0 C33.2963254,0 34,0.692390442 34,1.57470703 L34,22.425293 C34,23.2949796 33.2898617,24 32.4282988,24 L1.57170124,24 C0.703674614,24 0,23.3076096 0,22.425293 L0,1.57470703 Z" id="Rectangle-Copy-4" fill="#1B3D92"></path>
                <g id="Group" transform="translate(11.848563, 5.739130)" fill="#FFFFFF">
                    <path d="M9.65656554,3.28642951 C9.81085341,2.2801054 9.65553523,1.59552042 9.12351251,0.975230567 C8.53778523,0.292490119 7.47966402,0 6.12584584,0 L2.19601251,0 C1.91937614,0 1.68369432,0.205928854 1.64067917,0.485638999 L0.00417159664,11.1011858 C-0.0280253731,11.3106719 0.13025493,11.5 0.337345839,11.5 L2.7634519,11.5 L2.59602766,12.5862978 C2.56782311,12.7695652 2.70614129,12.9351779 2.88747463,12.9351779 L4.93249735,12.9351779 C5.17448978,12.9351779 5.38055038,12.7550725 5.41828523,12.5104084 L5.43837614,12.4039526 L5.82358069,9.90487484 L5.84843675,9.76679842 C5.8861716,9.52226614 6.0922322,9.34189723 6.33422463,9.34189723 L6.64009584,9.34189723 C8.62123978,9.34189723 10.1724898,8.51857708 10.6256943,6.1372859 C10.8151413,5.14229249 10.7171337,4.31172596 10.2162777,3.72779974 C10.0649519,3.55151515 9.87640645,3.4055336 9.65656554,3.28642951 L9.65656554,3.28642951" id="Path" opacity="0.68"></path>
                    <path d="M9.65656554,3.28642951 C9.81085341,2.2801054 9.65553523,1.59552042 9.12351251,0.975230567 C8.53778523,0.292490119 7.47966402,0 6.12584584,0 L2.19601251,0 C1.91937614,0 1.68369432,0.205928854 1.64067917,0.485638999 L0.00417159664,11.1011858 C-0.0280253731,11.3106719 0.13025493,11.5 0.337345839,11.5 L2.7634519,11.5 L3.37287614,7.54650856 L3.35394432,7.67048748 C3.39708826,7.39090909 3.63058069,7.18484848 3.90734584,7.18484848 L5.06051251,7.18484848 C7.32511857,7.18484848 9.09839887,6.24361001 9.61638372,3.52160738 C9.63183826,3.44123847 9.64484584,3.36310935 9.65656554,3.28642951" id="Path" opacity="0.7"></path>
                    <path d="M4.02763372,3.2997365 C4.05352008,3.13162055 4.15912614,2.99380764 4.30117917,2.92424242 C4.3657019,2.89262187 4.4379519,2.87496706 4.51355038,2.87496706 L7.59402766,2.87496706 C7.95901251,2.87496706 8.29927008,2.89947299 8.61029281,2.95072464 C8.69915645,2.96534914 8.7857019,2.98221344 8.86980038,3.00131752 C8.95377008,3.02042161 9.0354216,3.04163373 9.11436857,3.06534914 C9.15390645,3.0770751 9.1926716,3.08959157 9.2309216,3.10250329 C9.38366402,3.1544137 9.52597463,3.21554677 9.65682311,3.28656126 C9.81111099,2.28023715 9.65579281,1.59565217 9.12377008,0.975362319 C8.53778523,0.292490119 7.47966402,0 6.12584584,0 L2.19601251,0 C1.91937614,0 1.68369432,0.205928854 1.64067917,0.485638999 L0.00417159664,11.1011858 C-0.0280253731,11.3106719 0.13025493,11.5 0.337345839,11.5 L2.7634519,11.5 L3.37287614,7.54650856 L4.02763372,3.2997365 Z" id="Path"></path>
                </g>
            </g>
            <g id="Apple-Pay" transform="translate(168.000000, 0.000000)">
                <path d="M0,1.57470703 C0,0.705020352 0.710138321,0 1.57170124,0 L32.4282988,0 C33.2963254,0 34,0.692390442 34,1.57470703 L34,22.425293 C34,23.2949796 33.2898617,24 32.4282988,24 L1.57170124,24 C0.703674614,24 0,23.3076096 0,22.425293 L0,1.57470703 Z" id="Rectangle-Copy-12" fill="#E6E7E8"></path>
                <g id="Apple_Pay_logo" transform="translate(7.729397, 8.347826)" fill="#000000" fill-rule="nonzero">
                    <path d="M3.38821637,1.00515145 C3.17088683,1.26849372 2.82315955,1.47620029 2.47543228,1.44652792 C2.43196637,1.09045951 2.60220785,0.712136823 2.8014266,0.478466928 C3.01875614,0.207706573 3.39908285,0.0148361838 3.70696637,0 C3.74318796,0.370904595 3.60192376,0.734391098 3.38821637,1.00515145 L3.38821637,1.00515145 Z M3.70334421,1.51699979 C3.1998641,1.48732743 2.76882717,1.81001442 2.52976467,1.81001442 C2.28708001,1.81001442 1.92124194,1.53183598 1.52280444,1.53925407 C1.00483569,1.54667216 0.52308853,1.84710488 0.258670916,2.32557181 C-0.284652948,3.28250567 0.117406711,4.69936122 0.64261978,5.47826087 C0.899793075,5.86400165 1.2076766,6.28683289 1.61335842,6.2719967 C1.99730728,6.25716052 2.14943796,6.01607253 2.61307433,6.01607253 C3.08033285,6.01607253 3.21435273,6.2719967 3.62003455,6.26457861 C4.04020501,6.25716052 4.30462262,5.87883783 4.56179592,5.49309705 C4.8551908,5.05542963 4.97472205,4.62888935 4.98196637,4.60663507 C4.97472205,4.59921698 4.17060273,4.28394807 4.16335842,3.33443231 C4.1561141,2.54069648 4.79723626,2.16237379 4.82621353,2.14011951 C4.46399762,1.59118071 3.8989408,1.53183598 3.70334421,1.51699979 L3.70334421,1.51699979 Z M6.61193796,0.441376468 L6.61193796,6.22377911 L7.48850046,6.22377911 L7.48850046,4.24685761 L8.70192376,4.24685761 C9.81030444,4.24685761 10.5890686,3.46795796 10.5890686,2.340408 C10.5890686,1.21285803 9.82479308,0.441376468 8.73090103,0.441376468 L6.61193796,0.441376468 Z M7.48850046,1.19802184 L8.49908285,1.19802184 C9.25973626,1.19802184 9.69439535,1.61343499 9.69439535,2.34411704 C9.69439535,3.07479909 9.25973626,3.49392129 8.49546069,3.49392129 L7.48850046,3.49392129 L7.48850046,1.19802184 L7.48850046,1.19802184 Z M12.190063,6.26828766 C12.7406311,6.26828766 13.2513556,5.98269112 13.4831738,5.53018751 L13.5012846,5.53018751 L13.5012846,6.22377911 L14.3126482,6.22377911 L14.3126482,3.34555945 C14.3126482,2.51102411 13.6606596,1.97321245 12.6573215,1.97321245 C11.7264266,1.97321245 11.0382164,2.5184422 11.0128613,3.26766948 L11.8024919,3.26766948 C11.8676908,2.91160107 12.190063,2.67793118 12.6319664,2.67793118 C13.1680459,2.67793118 13.4686851,2.93385535 13.4686851,3.40490418 L13.4686851,3.72388213 L12.3747931,3.79064496 C11.3569664,3.85369874 10.8063982,4.28023903 10.8063982,5.02204822 C10.8063982,5.7712755 11.3750772,6.26828766 12.190063,6.26828766 Z M12.4255033,5.58211416 C11.9582448,5.58211416 11.6612277,5.35215331 11.6612277,4.99979394 C11.6612277,4.63630744 11.9473783,4.42489182 12.4943243,4.39151041 L13.4686851,4.32845662 L13.4686851,4.65485267 C13.4686851,5.19637338 13.0195374,5.58211416 12.4255033,5.58211416 Z M15.3956738,7.79641459 C16.2505033,7.79641459 16.652563,7.46260045 17.0039124,6.45003091 L18.54333,2.02884814 L17.6522789,2.02884814 L16.6199635,5.44487946 L16.6018527,5.44487946 L15.5695374,2.02884814 L14.6531311,2.02884814 L16.1382164,6.23861529 L16.0585289,6.49453946 C15.924509,6.92849784 15.7071794,7.0954049 15.3196084,7.0954049 C15.2507874,7.0954049 15.1167675,7.08798681 15.0624351,7.08056872 L15.0624351,7.77416031 C15.1131453,7.7889965 15.3304749,7.79641459 15.3956738,7.79641459 Z" id="XMLID_34_"></path>
                </g>
            </g>
        </g>
    </g>
</svg>