<svg width="64" height="12" xmlns="http://www.w3.org/2000/svg"><g fill="#F8C81C" fill-rule="evenodd"><path d="M6 10.048L3.47 11.375a1.09 1.09 0 01-1.58-1.146l.483-2.81L.33 5.427a1.086 1.086 0 01.603-1.854l2.827-.41L5.024.606a1.09 1.09 0 011.952 0l1.265 2.558 2.827.41a1.087 1.087 0 01.603 1.854l-2.046 1.99.483 2.811a1.087 1.087 0 01-1.58 1.146L6 10.048zM19 10.048l-2.529 1.327a1.09 1.09 0 01-1.58-1.146l.483-2.81-2.045-1.991a1.086 1.086 0 01.603-1.854l2.827-.41L18.024.606a1.09 1.09 0 011.952 0l1.265 2.558 2.827.41a1.087 1.087 0 01.603 1.854l-2.046 1.99.483 2.811a1.087 1.087 0 01-1.58 1.146L19 10.048zM32 10.048l-2.529 1.327a1.09 1.09 0 01-1.58-1.146l.483-2.81-2.045-1.991a1.086 1.086 0 01.603-1.854l2.827-.41L31.024.606a1.09 1.09 0 011.952 0l1.265 2.558 2.827.41a1.087 1.087 0 01.603 1.854l-2.046 1.99.483 2.811a1.087 1.087 0 01-1.58 1.146L32 10.048zM45 10.048l-2.529 1.327a1.09 1.09 0 01-1.58-1.146l.483-2.81-2.045-1.991a1.086 1.086 0 01.603-1.854l2.827-.41L44.024.606a1.09 1.09 0 011.952 0l1.265 2.558 2.827.41a1.087 1.087 0 01.603 1.854l-2.046 1.99.483 2.811a1.087 1.087 0 01-1.58 1.146L45 10.048zM57.493 9.054a1.09 1.09 0 011.014 0l2.49 1.307-.475-2.769c-.06-.353.056-.712.313-.962l2.015-1.96-2.785-.405a1.089 1.089 0 01-.82-.594L58 1.15l-1.245 2.52c-.16.32-.466.543-.82.594l-2.785.404 2.015 1.961c.257.25.374.61.313.962l-.476 2.769 2.491-1.307zm.507.994l-2.529 1.327a1.09 1.09 0 01-1.58-1.146l.483-2.81-2.045-1.991a1.086 1.086 0 01.603-1.854l2.827-.41L57.024.606a1.09 1.09 0 011.952 0l1.265 2.558 2.827.41a1.087 1.087 0 01.603 1.854l-2.046 1.99.483 2.811a1.087 1.087 0 01-1.58 1.146L58 10.048z"/></g></svg>