<svg width="140" height="35" viewBox="0 0 140 35" fill="none" xmlns="http://www.w3.org/2000/svg">
<g clip-path="url(#clip0_1_20)">
<path d="M36.792 12.3277H50.9675V15.0033H45.3937V30.0441H42.3287V15.0033H36.7797V12.3277H36.792ZM50.3619 17.2163H52.982V19.6918H53.0314C53.1179 19.3417 53.2786 19.0042 53.5134 18.6791C53.7482 18.354 54.0325 18.0414 54.3662 17.7789C54.6999 17.5038 55.0706 17.2913 55.4785 17.1162C55.8863 16.9537 56.3065 16.8662 56.7267 16.8662C57.048 16.8662 57.2828 16.8787 57.4064 16.8912C57.53 16.9037 57.6536 16.9287 57.7895 16.9412V19.6668C57.5918 19.6293 57.3941 19.6043 57.184 19.5793C56.9739 19.5543 56.7761 19.5418 56.5784 19.5418C56.1088 19.5418 55.6638 19.6418 55.2436 19.8293C54.8234 20.0169 54.465 20.3044 54.1561 20.667C53.8471 21.0421 53.5999 21.4922 53.4145 22.0423C53.2292 22.5924 53.1427 23.2176 53.1427 23.9302V30.0316H50.3496V17.2163H50.3619ZM70.6303 30.0441H67.8867V28.2562H67.8372C67.4912 28.9063 66.9845 29.4189 66.3047 29.8065C65.625 30.1941 64.9329 30.3941 64.2285 30.3941C62.56 30.3941 61.3489 29.9816 60.6073 29.1439C59.8658 28.3062 59.4951 27.0434 59.4951 25.3555V17.2163H62.2881V25.0805C62.2881 26.2057 62.4982 27.0059 62.9308 27.4685C63.351 27.9311 63.9566 28.1687 64.7228 28.1687C65.316 28.1687 65.798 28.0811 66.1935 27.8936C66.589 27.7061 66.9103 27.4685 67.1451 27.1559C67.3923 26.8559 67.5653 26.4808 67.6766 26.0557C67.7878 25.6306 67.8372 25.168 67.8372 24.6679V17.2288H70.6303V30.0441ZM75.3884 25.9307C75.4749 26.7559 75.7839 27.331 76.3153 27.6686C76.8591 27.9936 77.5018 28.1687 78.2557 28.1687C78.5152 28.1687 78.8118 28.1437 79.1455 28.1061C79.4792 28.0686 79.8005 27.9811 80.0847 27.8686C80.3814 27.7561 80.6162 27.581 80.8139 27.356C80.9993 27.1309 81.0858 26.8434 81.0734 26.4808C81.0611 26.1182 80.9251 25.8181 80.678 25.5931C80.4308 25.3555 80.1218 25.1805 79.7387 25.0305C79.3556 24.8929 78.923 24.7679 78.4287 24.6679C77.9343 24.5679 77.44 24.4553 76.9333 24.3428C76.4142 24.2303 75.9075 24.0803 75.4255 23.9177C74.9435 23.7552 74.5109 23.5301 74.1278 23.2426C73.7447 22.9675 73.4357 22.6049 73.2133 22.1673C72.9785 21.7298 72.8672 21.1921 72.8672 20.542C72.8672 19.8418 73.0403 19.2667 73.3739 18.7916C73.7076 18.3165 74.1402 17.9414 74.6469 17.6539C75.166 17.3663 75.7345 17.1663 76.3648 17.0412C76.9951 16.9287 77.6006 16.8662 78.1691 16.8662C78.8242 16.8662 79.4544 16.9412 80.0477 17.0787C80.6409 17.2163 81.1847 17.4413 81.6667 17.7664C82.1487 18.079 82.5441 18.4915 82.8655 18.9917C83.1868 19.4918 83.3845 20.1044 83.471 20.8171H80.5544C80.4184 20.1419 80.1218 19.6793 79.6398 19.4543C79.1578 19.2167 78.6017 19.1042 77.9838 19.1042C77.786 19.1042 77.5512 19.1167 77.2793 19.1542C77.0074 19.1917 76.7602 19.2542 76.5131 19.3417C76.2782 19.4292 76.0805 19.5668 75.9075 19.7418C75.7468 19.9169 75.6603 20.1419 75.6603 20.4295C75.6603 20.7795 75.7839 21.0546 76.0187 21.2672C76.2535 21.4797 76.5625 21.6547 76.9456 21.8048C77.3287 21.9423 77.7613 22.0673 78.2557 22.1673C78.75 22.2674 79.2567 22.3799 79.7758 22.4924C80.2825 22.6049 80.7768 22.755 81.2712 22.9175C81.7655 23.08 82.1981 23.3051 82.5812 23.5927C82.9643 23.8802 83.2733 24.2303 83.5081 24.6554C83.7429 25.0805 83.8665 25.6181 83.8665 26.2432C83.8665 27.0059 83.6935 27.6435 83.3475 28.1812C83.0014 28.7063 82.5565 29.1439 82.0127 29.4689C81.4689 29.794 80.851 30.0441 80.1836 30.1941C79.5162 30.3441 78.8489 30.4192 78.1939 30.4192C77.3905 30.4192 76.649 30.3316 75.9693 30.1441C75.2895 29.9566 74.6963 29.6815 74.202 29.3189C73.7076 28.9438 73.3121 28.4812 73.0279 27.9311C72.7436 27.381 72.5953 26.7183 72.5706 25.9557H75.3884V25.9307ZM84.608 17.2163H86.7214V13.3654H89.5145V17.2163H92.0357V19.3292H89.5145V26.1807C89.5145 26.4808 89.5268 26.7308 89.5515 26.9559C89.5763 27.1684 89.6381 27.356 89.7246 27.506C89.8111 27.656 89.947 27.7686 90.1324 27.8436C90.3178 27.9186 90.5526 27.9561 90.8739 27.9561C91.0717 27.9561 91.2694 27.9561 91.4672 27.9436C91.6649 27.9311 91.8626 27.9061 92.0604 27.8561V30.0441C91.7514 30.0816 91.4424 30.1066 91.1582 30.1441C90.8616 30.1816 90.565 30.1941 90.256 30.1941C89.5145 30.1941 88.9213 30.1191 88.4763 29.9816C88.0314 29.844 87.673 29.6315 87.4258 29.3564C87.1663 29.0814 87.0056 28.7438 86.9068 28.3312C86.8203 27.9186 86.7585 27.4435 86.7461 26.9184V19.3542H84.6328V17.2163H84.608ZM94.0131 17.2163H96.6578V18.9541H96.7073C97.1028 18.204 97.6465 17.6789 98.351 17.3538C99.0554 17.0287 99.8093 16.8662 100.637 16.8662C101.638 16.8662 102.504 17.0412 103.245 17.4038C103.987 17.7539 104.605 18.2415 105.099 18.8666C105.593 19.4918 105.952 20.2169 106.199 21.0421C106.446 21.8673 106.57 22.755 106.57 23.6927C106.57 24.5554 106.458 25.3931 106.236 26.1932C106.013 27.0059 105.68 27.7186 105.235 28.3437C104.79 28.9688 104.221 29.4564 103.529 29.8315C102.837 30.2066 102.034 30.3941 101.095 30.3941C100.687 30.3941 100.279 30.3566 99.8711 30.2816C99.4633 30.2066 99.0678 30.0816 98.697 29.919C98.3263 29.7565 97.9679 29.544 97.6589 29.2814C97.3376 29.0188 97.078 28.7188 96.8556 28.3812H96.8061V34.7826H94.0131V17.2163ZM103.776 23.6427C103.776 23.0675 103.702 22.5049 103.554 21.9548C103.406 21.4047 103.183 20.9296 102.887 20.5045C102.59 20.0794 102.219 19.7418 101.787 19.4918C101.342 19.2417 100.835 19.1042 100.267 19.1042C99.0925 19.1042 98.2027 19.5168 97.6095 20.3419C97.0162 21.1671 96.7196 22.2674 96.7196 23.6427C96.7196 24.2928 96.7938 24.8929 96.9544 25.4431C97.1151 25.9932 97.3376 26.4683 97.6589 26.8684C97.9679 27.2685 98.3386 27.581 98.7712 27.8061C99.2037 28.0436 99.7105 28.1562 100.279 28.1562C100.922 28.1562 101.453 28.0186 101.898 27.7561C102.343 27.4935 102.701 27.1434 102.986 26.7308C103.27 26.3058 103.48 25.8306 103.603 25.293C103.715 24.7554 103.776 24.2053 103.776 23.6427ZM108.708 12.3277H111.501V15.0033H108.708V12.3277ZM108.708 17.2163H111.501V30.0441H108.708V17.2163ZM113.997 12.3277H116.79V30.0441H113.997V12.3277ZM125.355 30.3941C124.341 30.3941 123.439 30.2191 122.648 29.8815C121.857 29.544 121.19 29.0689 120.634 28.4812C120.09 27.8811 119.67 27.1684 119.386 26.3433C119.101 25.5181 118.953 24.6054 118.953 23.6177C118.953 22.6425 119.101 21.7423 119.386 20.9171C119.67 20.0919 120.09 19.3792 120.634 18.7791C121.178 18.179 121.857 17.7164 122.648 17.3788C123.439 17.0412 124.341 16.8662 125.355 16.8662C126.368 16.8662 127.27 17.0412 128.061 17.3788C128.852 17.7164 129.52 18.1915 130.076 18.7791C130.62 19.3792 131.04 20.0919 131.324 20.9171C131.608 21.7423 131.757 22.6425 131.757 23.6177C131.757 24.6054 131.608 25.5181 131.324 26.3433C131.04 27.1684 130.62 27.8811 130.076 28.4812C129.532 29.0814 128.852 29.544 128.061 29.8815C127.27 30.2191 126.368 30.3941 125.355 30.3941ZM125.355 28.1562C125.973 28.1562 126.517 28.0186 126.974 27.7561C127.431 27.4935 127.802 27.1434 128.099 26.7183C128.395 26.2933 128.605 25.8056 128.754 25.268C128.889 24.7304 128.964 24.1803 128.964 23.6177C128.964 23.0675 128.889 22.5299 128.754 21.9798C128.618 21.4297 128.395 20.9546 128.099 20.5295C127.802 20.1044 127.431 19.7668 126.974 19.5043C126.517 19.2417 125.973 19.1042 125.355 19.1042C124.737 19.1042 124.193 19.2417 123.736 19.5043C123.279 19.7668 122.908 20.1169 122.611 20.5295C122.315 20.9546 122.105 21.4297 121.956 21.9798C121.82 22.5299 121.746 23.0675 121.746 23.6177C121.746 24.1803 121.82 24.7304 121.956 25.268C122.092 25.8056 122.315 26.2933 122.611 26.7183C122.908 27.1434 123.279 27.4935 123.736 27.7561C124.193 28.0311 124.737 28.1562 125.355 28.1562ZM132.572 17.2163H134.686V13.3654H137.479V17.2163H140V19.3292H137.479V26.1807C137.479 26.4808 137.491 26.7308 137.516 26.9559C137.541 27.1684 137.602 27.356 137.689 27.506C137.775 27.656 137.911 27.7686 138.097 27.8436C138.282 27.9186 138.517 27.9561 138.838 27.9561C139.036 27.9561 139.234 27.9561 139.431 27.9436C139.629 27.9311 139.827 27.9061 140.025 27.8561V30.0441C139.716 30.0816 139.407 30.1066 139.123 30.1441C138.826 30.1816 138.529 30.1941 138.22 30.1941C137.479 30.1941 136.886 30.1191 136.441 29.9816C135.996 29.844 135.637 29.6315 135.39 29.3564C135.131 29.0814 134.97 28.7438 134.871 28.3312C134.785 27.9186 134.723 27.4435 134.71 26.9184V19.3542H132.597V17.2163H132.572Z" fill="#191919"/>
<path d="M33.5293 12.3277H20.7256L16.7708 0L12.8037 12.3277L0 12.3152L10.369 19.9419L6.40184 32.2571L16.7708 24.6429L27.1275 32.2571L23.1727 19.9419L33.5293 12.3277Z" fill="#00B67A"/>
<path d="M24.0625 22.7299L23.1727 19.9418L16.7708 24.6429L24.0625 22.7299Z" fill="#005128"/>
</g>
<defs>
<clipPath id="clip0_1_20">
<rect width="140" height="34.7826" fill="white"/>
</clipPath>
</defs>
</svg>
