<?xml version="1.0" encoding="UTF-8"?>
<svg width="24px" height="22px" viewBox="0 0 24 22" version="1.1" xmlns="http://www.w3.org/2000/svg" xmlns:xlink="http://www.w3.org/1999/xlink">
    <title>Icons/Filter/Solid</title>
    <g id="Page-1" stroke="none" stroke-width="1" fill="none" fill-rule="evenodd">
        <g id="Icons/Filter/Solid" transform="translate(0.000000, -1.000000)" fill="#F54D0D">
            <path d="M20,15 C22.209139,15 24,16.790861 24,19 C24,21.209139 22.209139,23 20,23 C17.790861,23 16,21.209139 16,19 C16,16.790861 17.790861,15 20,15 Z M15.1000181,18 C15.0344303,18.3231099 15,18.6575342 15,19 C15,19.3424658 15.0344303,19.6768901 15.1000181,20 L1,20 C0.44771525,20 1.77635684e-15,19.5522847 1.77635684e-15,19 C1.77635684e-15,18.4477153 0.44771525,18 1,18 L15.1000181,18 Z M8,8 C10.209139,8 12,9.790861 12,12 C12,14.209139 10.209139,16 8,16 C5.790861,16 4,14.209139 4,12 C4,9.790861 5.790861,8 8,8 Z M3.10001812,11 C3.03443026,11.3231099 3,11.6575342 3,12 C3,12.3424658 3.03443026,12.6768901 3.10001812,13 L1,13 C0.44771525,13 0,12.5522847 0,12 C0,11.4477153 0.44771525,11 1,11 L3.10001812,11 Z M23,11 C23.5522847,11 24,11.4477153 24,12 C24,12.5522847 23.5522847,13 23,13 L12.8999819,13 C12.9655697,12.6768901 13,12.3424658 13,12 C13,11.6575342 12.9655697,11.3231099 12.8999819,11 L23,11 Z M20,1 C22.209139,1 24,2.790861 24,5 C24,7.209139 22.209139,9 20,9 C17.790861,9 16,7.209139 16,5 C16,2.790861 17.790861,1 20,1 Z M15.1000181,4 C15.0344303,4.32310994 15,4.65753416 15,5 C15,5.34246584 15.0344303,5.67689006 15.1000181,6 L1,6 C0.44771525,6 1.77635684e-15,5.55228475 1.77635684e-15,5 C1.77635684e-15,4.44771525 0.44771525,4 1,4 L15.1000181,4 Z" id="Icon"></path>
        </g>
    </g>
</svg>