<?xml version="1.0" encoding="UTF-8"?>
<svg width="24px" height="22px" viewBox="0 0 24 22" version="1.1" xmlns="http://www.w3.org/2000/svg" xmlns:xlink="http://www.w3.org/1999/xlink">
    <title>icn-wishlist</title>
    <g id="Page-1" stroke="none" stroke-width="1" fill="none" fill-rule="evenodd">
        <path d="M17.1844921,0 C20.9660513,0 24,3.27221593 24,7.2722796 C24,9.13299675 23.3324715,11.0691796 22.1455884,13.004366 L22.0725645,13.0009758 L20.999,13 L21,12.0006669 C21,11.713344 20.9596405,11.4354676 20.8842837,11.1723963 C21.6061522,9.80895693 22,8.48931806 22,7.2722796 C22,4.34442125 19.8262884,2 17.1844921,2 C15.4475353,2 13.8665501,3.02275561 13.0124162,4.65118451 L12.9051764,4.86698882 L12.000504,6.79156624 L11.0952921,4.86724249 C10.270365,3.11359024 8.62810792,2.00037662 6.81539068,2.00037662 C4.17360388,2 2,4.34432328 2,7.2722796 C2,9.85608077 3.79523687,12.9197365 6.74335175,15.8886329 L6.93793851,16.0823656 L7.13561893,16.274905 L7.5382094,16.6551924 L7.94702056,17.0270734 L8.35794976,17.3881262 L8.7668944,17.7359289 L9.16975184,18.0680597 L9.56241946,18.3820967 L9.94079465,18.6756182 L10.4725846,19.0721359 L10.7972797,19.303773 L11.0933232,19.5064181 L11.3566125,19.6776494 L11.5830449,19.815045 L11.7685178,19.9161832 C11.8776015,19.9709847 11.9566438,20 12.0001746,20 C12.0549694,20 12.1651787,19.9548166 12.3201265,19.8707264 L12.4183785,19.8156537 L12.6450444,19.6787003 L12.9085101,19.5080116 L13.204676,19.3059978 L13.6590967,18.9808439 C13.7709817,18.9934991 13.8847317,19 14,19 L15,19 L15,20.0006667 C15,20.151672 15.0111658,20.300075 15.032717,20.4450948 L14.5786201,20.765053 C13.4645976,21.5273993 12.5209468,22 12.0001746,22 C11.4646314,22 10.4815178,21.4982592 9.32495835,20.6950158 L8.85373389,20.358113 L8.85373389,20.358113 L8.62589696,20.1886566 L8.16209663,19.8313339 L7.92695431,19.6440673 L7.69019794,19.4514638 L7.2134852,19.0514455 L6.73524272,18.6336779 L6.25875482,18.2005602 L5.7873058,17.7544915 C5.63136087,17.60391 5.47680314,17.4515698 5.32417999,17.2978708 C2.03860306,13.9891336 0,10.510162 0,7.2722796 C0,3.27206735 3.03393579,0 6.81550794,0.00037662301 C8.72704161,0.00037662301 10.4887434,0.847061479 11.7450347,2.25538876 L11.9210284,2.46036828 L12,2.559 L12.0788318,2.46052114 C13.2279986,1.06937255 14.850988,0.174764632 16.6403784,0.0229987344 L16.9242517,0.00524480957 L17.1844921,0 Z M18,11 C18.5522847,11 19,11.4477153 19,12 L18.999,14.999 L22,15 C22.5522847,15 23,15.4477153 23,16 C23,16.5522847 22.5522847,17 22,17 L18.999,17 L19,20 C19,20.5522847 18.5522847,21 18,21 C17.4477153,21 17,20.5522847 17,20 L16.999,17 L14,17 C13.4477153,17 13,16.5522847 13,16 C13,15.4477153 13.4477153,15 14,15 L16.999,15 L17,12 C17,11.4477153 17.4477153,11 18,11 Z" id="icn-wishlist" fill="#FFFFFF" fill-rule="nonzero"></path>
    </g>
</svg>