<?xml version="1.0" encoding="UTF-8"?>
<svg width="24px" height="24px" viewBox="0 0 24 24" version="1.1" xmlns="http://www.w3.org/2000/svg" xmlns:xlink="http://www.w3.org/1999/xlink">
    <title>icn-social-tw</title>
    <g id="icn-social-tw" stroke="none" stroke-width="1" fill="none" fill-rule="evenodd">
        <g id="Twitter" fill="#000000">
            <path d="M24,5.24925943 C23.1181545,5.63076945 22.1686915,5.88876855 21.1727415,6.00404488 C22.189822,5.41119547 22.970241,4.47114483 23.3379115,3.35131808 C22.3856315,3.90025278 21.3333335,4.29960285 20.209192,4.51368725 C19.3132595,3.58187072 18.032752,3 16.6156015,3 C13.8982215,3 11.693608,5.1477068 11.693608,7.7963163 C11.693608,8.17233675 11.735869,8.53737805 11.820391,8.88869612 C7.728121,8.68833495 4.100722,6.7807872 1.6707165,3.87555088 C1.2466985,4.58642115 1.004402,5.41119547 1.004402,6.2894909 C1.004402,7.95276278 1.8735695,9.42116305 3.1949285,10.281618 C2.389153,10.2582883 1.6284555,10.0400866 0.96355,9.68327898 L0.96355,9.74228965 C0.96355,12.067028 2.661032,14.0061395 4.91495,14.445287 C4.502201,14.5578187 4.066913,14.6140844 3.6175385,14.6140844 C3.300581,14.6140844 2.9906675,14.5852657 2.6906145,14.5289996 C3.3174855,16.4338027 5.134707,17.821235 7.290016,17.8582883 C5.605212,19.1455398 3.4808945,19.9126762 1.1748545,19.9126762 C0.7776015,19.9126762 0.3845745,19.8907188 0,19.8468041 C2.179257,21.2054171 4.768445,22 7.5478075,22 C16.6057405,22 21.5573165,14.6923079 21.5573165,8.35348513 C21.5573165,8.14488982 21.5530905,7.93629453 21.544638,7.73181652 C22.5067795,7.05525455 23.3421375,6.21126742 24,5.24925943"></path>
        </g>
    </g>
</svg>