<?xml version="1.0" encoding="UTF-8"?>
<svg width="24px" height="24px" viewBox="0 0 24 24" version="1.1" xmlns="http://www.w3.org/2000/svg" xmlns:xlink="http://www.w3.org/1999/xlink">
    <title>icn-social-gp</title>
    <g id="icn-social-gp" stroke="none" stroke-width="1" fill="none" fill-rule="evenodd">
        <g id="Group" fill="#000000" fill-rule="nonzero">
            <g id="googleplus-black" transform="translate(0.000000, 4.000000)">
                <path d="M21.3584905,6.27542764 L21.3584905,3.62916291 L19.4716982,3.62916291 L19.4716982,6.27542764 L16.7547171,6.27542764 L16.7547171,8.16561673 L19.4716982,8.16561673 L19.4716982,10.8874887 L21.3584905,10.8874887 L21.3584905,8.16561673 L24,8.16561673 L24,6.27542764 L21.3584905,6.27542764 L21.3584905,6.27542764 Z M7.62264145,6.12421236 L7.62264145,9.14851491 C7.62264145,9.14851491 10.5512455,9.14458327 11.7436982,9.14458327 C11.0979622,11.1051629 10.0938869,12.1728175 7.62264145,12.1728175 C5.121736,12.1728175 3.16981127,10.1417713 3.16981127,7.63636364 C3.16981127,5.130956 5.121736,3.09990982 7.62264145,3.09990982 C8.94490582,3.09990982 9.798868,3.56550145 10.5821887,4.21444109 C11.2092076,3.58629345 11.1568302,3.49677418 12.7520756,1.98757164 C11.3978869,0.752748727 9.59803782,0 7.62264145,0 C3.41275455,0 0,3.41889818 0,7.63636364 C0,11.8537535 3.41275455,15.2727273 7.62264145,15.2727273 C13.9152455,15.2727273 15.4532829,9.78361818 14.9433964,6.12421236 L7.62264145,6.12421236 L7.62264145,6.12421236 Z" id="GooglePlus"></path>
            </g>
        </g>
    </g>
</svg>