<?xml version="1.0" encoding="UTF-8"?>
<svg width="33px" height="33px" viewBox="0 0 33 33" version="1.1" xmlns="http://www.w3.org/2000/svg" xmlns:xlink="http://www.w3.org/1999/xlink">
    <title>icn-search</title>
    <g id="Templates" stroke="none" stroke-width="1" fill="none" fill-rule="evenodd">
        <g id="Templates/Navigation/320-to-767" transform="translate(-323.000000, -16.000000)" fill="#757575">
            <g id="Icons/Search/Line" transform="translate(323.000000, 16.000000)">
                <path d="M22.5167026,20.6310845 L31.7042328,29.8186147 C32.2249318,30.3393138 32.2249318,31.1835337 31.7042328,31.7042328 C31.1835337,32.2249318 30.3393138,32.2249318 29.8186147,31.7042328 L20.6310845,22.5167026 C18.4552793,24.2781784 15.6841953,25.3333333 12.6666667,25.3333333 C5.67105984,25.3333333 0,19.6622735 0,12.6666667 C0,5.67105984 5.67105984,0 12.6666667,0 C19.6622735,0 25.3333333,5.67105984 25.3333333,12.6666667 C25.3333333,15.6841953 24.2781784,18.4552793 22.5167026,20.6310845 Z M12.6666667,22.6666667 C18.1895142,22.6666667 22.6666667,18.1895142 22.6666667,12.6666667 C22.6666667,7.14381917 18.1895142,2.66666667 12.6666667,2.66666667 C7.14381917,2.66666667 2.66666667,7.14381917 2.66666667,12.6666667 C2.66666667,18.1895142 7.14381917,22.6666667 12.6666667,22.6666667 Z" id="Icon"></path>
            </g>
        </g>
    </g>
</svg>