<?xml version="1.0" encoding="UTF-8"?>
<svg width="48px" height="48px" viewBox="0 0 48 48" version="1.1" xmlns="http://www.w3.org/2000/svg" xmlns:xlink="http://www.w3.org/1999/xlink">
    <title>icn-play</title>
    <g id="Page-1" stroke="none" stroke-width="1" fill="none" fill-rule="evenodd">
        <g id="Icons/Play/Line" fill="#FFFFFF">
            <path d="M33.4840141,21.3501567 C34.9262666,22.1863418 35.4273423,24.050462 34.6031981,25.5137859 C34.3367466,25.9868885 33.9503042,26.3789767 33.4840141,26.6493211 L21.4999617,33.5974008 C20.0577092,34.4335858 18.2204316,33.9251894 17.3962873,32.4618656 C17.1365964,32.0007669 17,31.4788895 17,30.9478186 L17,17.0516592 C17,15.3662744 18.3466005,14 20.0077165,14 C20.5311401,14 21.0455027,14.1385921 21.4999617,14.402077 L33.4840141,21.3501567 Z M24,44 C35.045695,44 44,35.045695 44,24 C44,12.954305 35.045695,4 24,4 C12.954305,4 4,12.954305 4,24 C4,35.045695 12.954305,44 24,44 Z M24,48 C10.745166,48 0,37.254834 0,24 C0,10.745166 10.745166,0 24,0 C37.254834,0 48,10.745166 48,24 C48,37.254834 37.254834,48 24,48 Z" id="icn-play"></path>
        </g>
    </g>
</svg>