<?xml version="1.0" encoding="UTF-8"?>
<svg width="24px" height="24px" viewBox="0 0 24 24" version="1.1" xmlns="http://www.w3.org/2000/svg" xmlns:xlink="http://www.w3.org/1999/xlink">
    <title>icn-social-ig</title>
    <g id="icn-social-ig" stroke="none" stroke-width="1" fill="none" fill-rule="evenodd">
        <g id="Group" fill="#000000" fill-rule="nonzero">
            <g id="img-social-icon-instagram">
                <path d="M11.925026,0 C8.76784214,0 8.37196003,0.0133823125 7.13203027,0.0699568281 C5.89468464,0.126392328 5.04962174,0.322926516 4.310186,0.610320734 C3.54573957,0.907359344 2.89744141,1.30485636 2.25112725,1.9511245 C1.60485911,2.59743866 1.2073621,3.24573681 0.910323488,4.01018325 C0.622929269,4.74961898 0.426395082,5.59468189 0.369959582,6.83202752 C0.313385066,8.07195728 0.300002754,8.46783939 0.300002754,11.6250232 C0.300002754,14.7821606 0.313385066,15.1780427 0.369959582,16.4179725 C0.426395082,17.6553181 0.622929269,18.500381 0.910323488,19.2398167 C1.2073621,20.0042632 1.60485911,20.6525613 2.25112725,21.2988755 C2.89744141,21.9451436 3.54573957,22.3426407 4.310186,22.6397258 C5.04962174,22.9270735 5.89468464,23.1236077 7.13203027,23.1800432 C8.37196003,23.2366177 8.76784214,23.25 11.925026,23.25 C15.0821634,23.25 15.4780455,23.2366177 16.7179752,23.1800432 C17.9553209,23.1236077 18.8003838,22.9270735 19.5398195,22.6397258 C20.3042659,22.3426407 20.9525641,21.9451436 21.5988783,21.2988755 C22.2451464,20.6525613 22.6426434,20.0042632 22.9397285,19.2398167 C23.2270762,18.500381 23.4236104,17.6553181 23.4800459,16.4179725 C23.5366204,15.1780427 23.5500028,14.7821606 23.5500028,11.6250232 C23.5500028,8.46783939 23.5366204,8.07195728 23.4800459,6.83202752 C23.4236104,5.59468189 23.2270762,4.74961898 22.9397285,4.01018325 C22.6426434,3.24573681 22.2451464,2.59743866 21.5988783,1.9511245 C20.9525641,1.30485636 20.3042659,0.907359344 19.5398195,0.610320734 C18.8003838,0.322926516 17.9553209,0.126392328 16.7179752,0.0699568281 C15.4780455,0.0133823125 15.0821634,0 11.925026,0 Z M11.925026,2.09459105 C15.0290037,2.09459105 15.3966908,2.10645048 16.6225006,2.16237884 C17.7559264,2.21406166 18.3714615,2.40344259 18.781095,2.56264455 C19.32372,2.7735298 19.7109734,3.02543822 20.1177457,3.43225703 C20.5245645,3.83902934 20.776473,4.2262828 20.9873582,4.76890777 C21.1465602,5.17854128 21.3359411,5.79407631 21.3876239,6.92750219 C21.4435523,8.15331194 21.4554117,8.52099906 21.4554117,11.6250232 C21.4554117,14.7290009 21.4435523,15.0966881 21.3876239,16.3224978 C21.3359411,17.4559237 21.1465602,18.0714587 20.9873582,18.4810922 C20.776473,19.0237172 20.5245645,19.4109707 20.1177457,19.817743 C19.7109734,20.2245618 19.32372,20.4764702 18.781095,20.6873555 C18.3714615,20.8465574 17.7559264,21.0359383 16.6225006,21.0876212 C15.3968754,21.1435495 15.0292343,21.155409 11.925026,21.155409 C8.82077125,21.155409 8.45317616,21.1435495 7.22750494,21.0876212 C6.09407907,21.0359383 5.47854403,20.8465574 5.06891052,20.6873555 C4.52628555,20.4764702 4.1390321,20.2245618 3.73225978,19.817743 C3.32548699,19.4109707 3.07353255,19.0237172 2.8626473,18.4810922 C2.70344535,18.0714587 2.51406441,17.4559237 2.4623816,16.3224978 C2.40645324,15.0966881 2.3945938,14.7290009 2.3945938,11.6250232 C2.3945938,8.52099906 2.40645324,8.15331194 2.4623816,6.92750219 C2.51406441,5.79407631 2.70344535,5.17854128 2.8626473,4.76890777 C3.07353255,4.2262828 3.32544097,3.83902934 3.73225978,3.43225703 C4.1390321,3.02543822 4.52628555,2.7735298 5.06891052,2.56264455 C5.47854403,2.40344259 6.09407907,2.21406166 7.22750494,2.16237884 C8.45331469,2.10645048 8.82100182,2.09459105 11.925026,2.09459105 Z M11.925026,5.65540895 C8.6280675,5.65540895 5.95541171,8.32806475 5.95541171,11.6250232 C5.95541171,14.9219353 8.6280675,17.594591 11.925026,17.594591 C15.221938,17.594591 17.8945938,14.9219353 17.8945938,11.6250232 C17.8945938,8.32806475 15.221938,5.65540895 11.925026,5.65540895 Z M11.925026,15.5 C9.78488918,15.5 8.05000275,13.7651136 8.05000275,11.6250232 C8.05000275,9.48488642 9.78488918,7.75 11.925026,7.75 C14.0651163,7.75 15.8000028,9.48488642 15.8000028,11.6250232 C15.8000028,13.7651136 14.0651163,15.5 11.925026,15.5 Z M19.5254684,5.4195595 C19.5254684,6.19000492 18.9008887,6.81453819 18.1304433,6.81453819 C17.3600438,6.81453819 16.7354646,6.19000492 16.7354646,5.4195595 C16.7354646,4.64911408 17.3600438,4.02453431 18.1304433,4.02453431 C18.9008887,4.02453431 19.5254684,4.64911408 19.5254684,5.4195595 Z" id="Instagram"></path>
            </g>
        </g>
    </g>
</svg>