<?xml version="1.0" encoding="UTF-8"?>
<svg width="24px" height="24px" viewBox="0 0 24 24" version="1.1" xmlns="http://www.w3.org/2000/svg" xmlns:xlink="http://www.w3.org/1999/xlink">
    <title>icn-social-pn</title>
    <g id="icn-social-pn" stroke="none" stroke-width="1" fill="none" fill-rule="evenodd">
        <g id="Group" fill="#000000" fill-rule="nonzero">
            <g id="pinterest-black">
                <path d="M12.0007055,0 C5.3737875,0 0,5.372376 0,12.0007055 C0,16.913036 2.9550185,21.135297 7.184336,22.9910035 C7.1504675,22.154172 7.178691,21.1465865 7.39178,20.234962 C7.623214,19.2612455 8.9356145,13.6969485 8.9356145,13.6969485 C8.9356145,13.6969485 8.553184,12.9306755 8.553184,11.797495 C8.553184,10.019404 9.584759,8.69148 10.867525,8.69148 C11.95837,8.69148 12.486153,9.5113775 12.486153,10.4935615 C12.486153,11.590051 11.7862055,13.2312575 11.426354,14.7511025 C11.1257715,16.0254015 12.064209,17.0626215 13.3201625,17.0626215 C15.593579,17.0626215 17.1247135,14.1428825 17.1247135,10.68266 C17.1247135,8.053625 15.353678,6.085024 12.1319455,6.085024 C8.492503,6.085024 6.224731,8.79873 6.224731,11.8299525 C6.224731,12.8770505 6.532369,13.6136885 7.014994,14.1838065 C7.237961,14.447698 7.2675955,14.5521255 7.187158,14.854119 C7.130711,15.0728525 6.9980595,15.60628 6.9430235,15.816546 C6.862586,16.1199505 6.61704,16.230023 6.3432705,16.117128 C4.665373,15.432704 3.8849885,13.5967545 3.8849885,11.5321925 C3.8849885,8.124184 6.7595695,4.034574 12.4607515,4.034574 C17.0428645,4.034574 20.058564,7.3522665 20.058564,10.9098605 C20.058564,15.617569 17.4422295,19.134239 13.5826425,19.134239 C12.288587,19.134239 11.0693245,18.434292 10.651614,17.6397955 C10.651614,17.6397955 9.9544895,20.404304 9.807726,20.9377315 C9.553713,21.862057 9.0555655,22.7877935 8.599753,23.507497 C9.6793085,23.8264245 10.819545,24 12.0007055,24 C18.627624,24 24,18.627624 24,12.0007055 C24,5.372376 18.627624,0 12.0007055,0" id="Pinterest"></path>
            </g>
        </g>
    </g>
</svg>