<svg xmlns="http://www.w3.org/2000/svg" width="16" height="16" viewBox="0 0 16 16">
  <path fill="#F54D0D" fill-rule="evenodd" d="M8,0 C8.82842712,0 9.5,0.671572875 9.5,1.5 L9.5,6.499 L14.5,6.5 C15.3284271,6.5 16,7.17157288 16,8 C16,8.82842712 15.3284271,9.5 14.5,9.5 L9.5,9.499 L9.5,14.5 C9.5,15.3284271 8.82842712,16 8,16 C7.17157288,16 6.5,15.3284271 6.5,14.5 L6.5,9.499 L1.5,9.5 C0.671572875,9.5 0,8.82842712 0,8 C0,7.17157288 0.671572875,6.5 1.5,6.5 L6.5,6.499 L6.5,1.5 C6.5,0.671572875 7.17157288,0 8,0 Z"/>
</svg>
