<svg width="17" height="15" xmlns="http://www.w3.org/2000/svg"><defs><filter color-interpolation-filters="auto" id="a"><feColorMatrix in="SourceGraphic" values="0 0 0 0 0.698039 0 0 0 0 0.698039 0 0 0 0 0.698039 0 0 0 1.000000 0"/></filter></defs><g transform="translate(.691 -.5)" filter="none" fill="none" fill-rule="evenodd"><path d="M11.456.667C13.977.667 16 2.848 16 5.515c0 1.24-.445 2.531-1.236 3.821l-.049-.002h-.716L14 8.666c0-.191-.027-.377-.077-.552.481-.909.744-1.789.744-2.6 0-1.952-1.45-3.515-3.21-3.515-1.159 0-2.213.682-2.782 1.767l-.072.144L8 5.194l-.603-1.283c-.55-1.169-1.645-1.91-2.853-1.91C2.782 2 1.334 3.562 1.334 5.514c0 1.722 1.196 3.765 3.162 5.744l.13.13.131.128.268.253.273.248.274.24.273.233.268.221.262.21.252.195.355.264.216.155.198.135.175.114.151.092.124.067A.438.438 0 008 14c.037 0 .11-.03.213-.086l.066-.037.151-.091.176-.114.197-.135.303-.216c.075.008.15.012.227.012H10V14c0 .101.007.2.022.297l-.303.213c-.743.508-1.372.823-1.719.823-.357 0-1.012-.334-1.783-.87l-.315-.224-.151-.113-.31-.238-.156-.125-.158-.129-.318-.266-.319-.279-.317-.289-.315-.297a20.65 20.65 0 01-.309-.304C1.36 9.993 0 7.673 0 5.515 0 2.848 2.023.667 4.544.667c1.274 0 2.448.564 3.286 1.503l.117.137.053.066.053-.066C8.819 1.38 9.9.783 11.093.682l.19-.012.173-.003zM12 8c.368 0 .667.298.667.667l-.001 1.999h2a.667.667 0 110 1.334h-2v2a.667.667 0 01-1.333 0v-2h-2a.667.667 0 110-1.333h2v-2c0-.369.299-.667.667-.667z" fill="#B2B2B2" fill-rule="nonzero"/></g></svg>