<?xml version="1.0" encoding="UTF-8"?>
<svg width="21px" height="20px" viewBox="0 0 21 20" version="1.1" xmlns="http://www.w3.org/2000/svg" xmlns:xlink="http://www.w3.org/1999/xlink">
    <title>icn-lm-deals-orange</title>
    <g id="Page-1" stroke="none" stroke-width="1" fill="none" fill-rule="evenodd">
        <path d="M16.3333333,0.833333333 C16.7935706,0.833333333 17.1666667,1.20642938 17.1666667,1.66666667 C17.1666667,2.12690396 16.7935706,2.5 16.3333333,2.5 L13.8325,2.5 L13.8330807,5.04574606 C17.583161,5.46016808 20.5,8.63945192 20.5,12.5 C20.5,16.6421356 17.1421356,20 13,20 C10.3622114,20 8.04247448,18.6382591 6.70542981,16.5794179 C6.59433866,16.6349409 6.46754097,16.6666667 6.33333333,16.6666667 L3.83333333,16.6666667 C3.37309604,16.6666667 3,16.2935706 3,15.8333333 C3,15.373096 3.37309604,15 3.83333333,15 L5.92693453,15.0004817 C5.73933545,14.469831 5.60976192,13.9117667 5.54583807,13.3339129 L3,13.3333333 C2.53976271,13.3333333 2.16666667,12.9602373 2.16666667,12.5 C2.16666667,12.0397627 2.53976271,11.6666667 3,11.6666667 L5.54574606,11.6669193 C5.60960431,11.0890698 5.73911062,10.5310045 5.92664179,10.0003465 L1.33333333,10 C0.873096042,10 0.5,9.62690396 0.5,9.16666667 C0.5,8.70642938 0.873096042,8.33333333 1.33333333,8.33333333 L6.76307786,8.33315357 C7.9626807,6.54115173 9.91410482,5.29495885 12.1660871,5.04583807 L12.1658333,2.5 L9.66666667,2.5 C9.20642938,2.5 8.83333333,2.12690396 8.83333333,1.66666667 C8.83333333,1.20642938 9.20642938,0.833333333 9.66666667,0.833333333 L16.3333333,0.833333333 Z M1.33333333,15 C1.79357062,15 2.16666667,15.373096 2.16666667,15.8333333 C2.16666667,16.2935706 1.79357062,16.6666667 1.33333333,16.6666667 C0.873096042,16.6666667 0.5,16.2935706 0.5,15.8333333 C0.5,15.373096 0.873096042,15 1.33333333,15 Z M13,7.5 C12.5751656,7.5 12.2245817,7.81790432 12.1731595,8.22880177 L12.1666667,8.33333333 L12.1665447,11.0563742 C11.6684442,11.3445661 11.3333333,11.8831484 11.3333333,12.5 C11.3333333,13.4204746 12.0795254,14.1666667 13,14.1666667 C13.9204746,14.1666667 14.6666667,13.4204746 14.6666667,12.5 C14.6666667,11.9345527 14.3850805,11.4348733 13.9544852,11.1335391 L13.8334553,11.0563742 L13.8333333,8.33333333 C13.8333333,7.87309604 13.4602373,7.5 13,7.5 Z" id="icn-lm-deals-orange" fill="#F54D0D"></path>
    </g>
</svg>