<?xml version="1.0" encoding="UTF-8"?>
<svg width="17px" height="16px" viewBox="0 0 17 16" version="1.1" xmlns="http://www.w3.org/2000/svg" xmlns:xlink="http://www.w3.org/1999/xlink">
    <title>icon/call</title>
    <g id="Templates" stroke="none" stroke-width="1" fill="none" fill-rule="evenodd">
        <g id="Templates/Navigation/1140" transform="translate(-775.000000, -33.000000)" fill="#FFFFFF">
            <g id="Group-3" transform="translate(775.564103, 24.000000)">
                <g id="Right-Accessory" transform="translate(0.000000, 8.000000)">
                    <g id="icon/Search" transform="translate(0.000000, 1.000000)">
                        <path d="M10.3529412,16 L15.0588235,16 C15.5792941,16 16,15.5792941 16,15.0588235 L16,11.2941176 C16,10.7736471 15.5792941,10.3529412 15.0588235,10.3529412 L11.2941176,10.3529412 C10.7736471,10.3529412 10.3529412,10.7736471 10.3529412,11.2941176 L10.3529412,12.2352941 C6.58823529,12.2352941 3.824,9.35341176 3.76470588,5.64705882 L4.70588235,5.64705882 C5.22635294,5.64705882 5.64705882,5.22635294 5.64705882,4.70588235 L5.64705882,0.941176471 C5.64705882,0.420705882 5.22635294,0 4.70588235,0 L0.941176471,0 C0.421647059,0 0,0.420705882 0,0.941176471 L0,5.64705882 C0,11.3647059 4.63529412,16 10.3529412,16 Z" id="Path"></path>
                    </g>
                </g>
            </g>
        </g>
    </g>
</svg>