<svg width="16" height="16" xmlns="http://www.w3.org/2000/svg"><path d="M12.37.651a.651.651 0 110 1.302h-1.954v1.989a5.86 5.86 0 11-5.568 9.01.65.65 0 01-.29.069H2.603a.651.651 0 010-1.302H4.24a5.825 5.825 0 01-.298-1.302H1.953a.651.651 0 010-1.302h1.989c.05-.452.151-.888.298-1.302H.65a.651.651 0 110-1.303h4.242a5.857 5.857 0 014.221-2.568V1.953H7.16a.651.651 0 010-1.302h5.209zM9.766 5.208a4.557 4.557 0 100 9.115 4.557 4.557 0 000-9.115zM.65 11.718a.651.651 0 110 1.303.651.651 0 010-1.302zM9.766 5.86c.36 0 .65.292.65.651v2.128a1.302 1.302 0 11-1.302 0V6.51c0-.36.292-.65.652-.65z" fill="#FFF" fill-rule="nonzero"/></svg>