<svg xmlns="http://www.w3.org/2000/svg" width="16" height="24" viewBox="0 0 16 24">
  <path fill="#F54D0D" fill-rule="evenodd" d="M14.8899512,10.3733502 C15.0958286,10.3733502 15.2976485,10.4273009 15.472848,10.5291707 C15.9944857,10.8324771 16.1563849,11.4767698 15.8344599,11.9682385 L8.2785721,23.5034815 C8.07641932,23.8120992 7.71898275,24 7.33406347,24 C6.72108582,24 6.22416926,23.5318226 6.22416926,22.9542966 L6.22416926,13.6266498 L1.11004876,13.6266498 C0.904171439,13.6266498 0.702351502,13.5726991 0.527152007,13.4708293 C0.00551429694,13.1675229 -0.156384854,12.5232302 0.165540133,12.0317615 L7.7214279,0.496518548 C7.92358068,0.187900761 8.28101725,0 8.66593653,0 C9.27891418,0 9.77583074,0.468177381 9.77583074,1.04570345 L9.77583074,10.3733502 L14.8899512,10.3733502 Z"/>
</svg>
