<?xml version="1.0" encoding="UTF-8"?>
<svg width="334px" height="60px" viewBox="0 0 334 60" version="1.1" xmlns="http://www.w3.org/2000/svg" xmlns:xlink="http://www.w3.org/1999/xlink">
    <title>icon-stars</title>
    <g id="Page-1" stroke="none" stroke-width="1" fill="none" fill-rule="evenodd">
        <g id="icon-stars">
            <g id="UI/Star/Full" fill="#F8C81C">
                <path d="M33.7255203,0.581156888 C34.8427311,1.1277392 35.7470223,2.02416748 36.2983988,3.1316642 L42.8767444,16.3449509 L57.5863725,18.4637999 C60.6825532,18.9097894 62.8277865,21.7594617 62.3778851,24.8287211 C62.198732,26.0509163 61.6181414,27.1804819 60.7259954,28.0425479 L50.0820086,38.3276572 L52.594713,52.8504646 C53.1236038,55.9073221 51.052546,58.8104175 47.968876,59.3347096 C46.7409424,59.5434854 45.4778265,59.345167 44.3750735,58.7704564 L31.2183822,51.9137168 L18.0616909,58.7704564 C15.2923826,60.2137087 11.8671653,59.158248 10.4112537,56.4130189 C9.83150214,55.3198543 9.63144425,54.0677213 9.84205134,52.8504646 L12.3547558,38.3276572 L1.71076895,28.0425479 C-0.529648495,25.8776693 -0.575491472,22.3222634 1.60837579,20.1013264 C2.47800319,19.2169377 3.61747646,18.6413953 4.85039188,18.4637999 L19.5600199,16.3449509 L26.1383656,3.1316642 C27.5230197,0.350443369 30.9199046,-0.791457651 33.7255203,0.581156888 Z M101.366145,0.581156888 C102.483356,1.1277392 103.387647,2.02416748 103.939024,3.1316642 L110.517369,16.3449509 L125.226997,18.4637999 C128.323178,18.9097894 130.468412,21.7594617 130.01851,24.8287211 C129.839357,26.0509163 129.258766,27.1804819 128.36662,28.0425479 L117.722634,38.3276572 L120.235338,52.8504646 C120.764229,55.9073221 118.693171,58.8104175 115.609501,59.3347096 C114.381567,59.5434854 113.118452,59.345167 112.015698,58.7704564 L98.8590072,51.9137168 L85.7023159,58.7704564 C82.9330076,60.2137087 79.5077903,59.158248 78.0518787,56.4130189 C77.4721271,55.3198543 77.2720692,54.0677213 77.4826763,52.8504646 L79.9953808,38.3276572 L69.3513939,28.0425479 C67.1109765,25.8776693 67.0651335,22.3222634 69.2490008,20.1013264 C70.1186282,19.2169377 71.2581015,18.6413953 72.4910169,18.4637999 L87.2006449,16.3449509 L93.7789906,3.1316642 C95.1636447,0.350443369 98.5605296,-0.791457651 101.366145,0.581156888 Z M169.00677,0.581156888 C170.123981,1.1277392 171.028272,2.02416748 171.579649,3.1316642 L178.157994,16.3449509 L192.867622,18.4637999 C195.963803,18.9097894 198.109037,21.7594617 197.659135,24.8287211 C197.479982,26.0509163 196.899391,27.1804819 196.007245,28.0425479 L185.363259,38.3276572 L187.875963,52.8504646 C188.404854,55.9073221 186.333796,58.8104175 183.250126,59.3347096 C182.022192,59.5434854 180.759077,59.345167 179.656323,58.7704564 L166.499632,51.9137168 L153.342941,58.7704564 C150.573633,60.2137087 147.148415,59.158248 145.692504,56.4130189 C145.112752,55.3198543 144.912694,54.0677213 145.123301,52.8504646 L147.636006,38.3276572 L136.992019,28.0425479 C134.751602,25.8776693 134.705759,22.3222634 136.889626,20.1013264 C137.759253,19.2169377 138.898726,18.6413953 140.131642,18.4637999 L154.84127,16.3449509 L161.419616,3.1316642 C162.80427,0.350443369 166.201155,-0.791457651 169.00677,0.581156888 Z M236.647395,0.581156888 C237.764606,1.1277392 238.668897,2.02416748 239.220274,3.1316642 L245.798619,16.3449509 L260.508247,18.4637999 C263.604428,18.9097894 265.749662,21.7594617 265.29976,24.8287211 C265.120607,26.0509163 264.540016,27.1804819 263.64787,28.0425479 L253.003884,38.3276572 L255.516588,52.8504646 C256.045479,55.9073221 253.974421,58.8104175 250.890751,59.3347096 C249.662817,59.5434854 248.399702,59.345167 247.296948,58.7704564 L234.140257,51.9137168 L220.983566,58.7704564 C218.214258,60.2137087 214.78904,59.158248 213.333129,56.4130189 C212.753377,55.3198543 212.553319,54.0677213 212.763926,52.8504646 L215.276631,38.3276572 L204.632644,28.0425479 C202.392227,25.8776693 202.346384,22.3222634 204.530251,20.1013264 C205.399878,19.2169377 206.539351,18.6413953 207.772267,18.4637999 L222.481895,16.3449509 L229.060241,3.1316642 C230.444895,0.350443369 233.84178,-0.791457651 236.647395,0.581156888 Z M304.28802,0.581156888 C305.405231,1.1277392 306.309522,2.02416748 306.860899,3.1316642 L313.439244,16.3449509 L328.148872,18.4637999 C331.245053,18.9097894 333.390287,21.7594617 332.940385,24.8287211 C332.761232,26.0509163 332.180641,27.1804819 331.288495,28.0425479 L320.644509,38.3276572 L323.157213,52.8504646 C323.686104,55.9073221 321.615046,58.8104175 318.531376,59.3347096 C317.303442,59.5434854 316.040327,59.345167 314.937573,58.7704564 L301.780882,51.9137168 L288.624191,58.7704564 C285.854883,60.2137087 282.429665,59.158248 280.973754,56.4130189 C280.394002,55.3198543 280.193944,54.0677213 280.404551,52.8504646 L282.917256,38.3276572 L272.273269,28.0425479 C270.032852,25.8776693 269.987009,22.3222634 272.170876,20.1013264 C273.040503,19.2169377 274.179976,18.6413953 275.412892,18.4637999 L290.12252,16.3449509 L296.700866,3.1316642 C298.08552,0.350443369 301.482405,-0.791457651 304.28802,0.581156888 Z M301.78125,5.94955037 L301.78125,46.1320622 C302.68662,46.1321204 303.591978,46.3471448 304.417043,46.7771354 L317.376991,53.5313404 L314.901862,39.2257047 C314.586672,37.4039887 315.195935,35.5451742 316.531099,34.2550278 L327.015917,24.1237203 L312.526254,22.0365562 C310.681104,21.7707714 309.086033,20.6219609 308.260856,18.9645089 L301.78125,5.94955037 Z" id="Shape"></path>
            </g>
            <g id="UI/Star/Full" transform="translate(67.640625, 0.000000)"></g>
            <g id="UI/Star/Full" transform="translate(135.281250, 0.000000)"></g>
            <g id="UI/Star/Full" transform="translate(202.921875, 0.000000)"></g>
            <g id="UI/Star/Half" transform="translate(270.562500, 0.000000)"></g>
        </g>
    </g>
</svg>