<?xml version="1.0" encoding="UTF-8"?>
<svg width="12px" height="12px" viewBox="0 0 12 12" version="1.1" xmlns="http://www.w3.org/2000/svg" xmlns:xlink="http://www.w3.org/1999/xlink">
    <title>icn-time</title>
    <g id="Page-1" stroke="none" stroke-width="1" fill="none" fill-rule="evenodd">
        <path d="M6,0 C9.3137085,0 12,2.6862915 12,6 C12,9.3137085 9.3137085,12 6,12 C2.6862915,12 0,9.3137085 0,6 C0,2.6862915 2.6862915,0 6,0 Z M6,1 C3.23857625,1 1,3.23857625 1,6 C1,8.76142375 3.23857625,11 6,11 C8.76142375,11 11,8.76142375 11,6 C11,3.23857625 8.76142375,1 6,1 Z M7.25427959,6.82297603 L8.83719488,8.71069508 C9.01469578,8.92223241 8.9871038,9.23761021 8.77556647,9.41511111 C8.56402913,9.592612 8.24865134,9.56502002 8.07115044,9.35348269 L6.45585861,7.42947628 C6.7865222,7.32411879 7.0674077,7.10720686 7.25427959,6.82297603 Z M6,5 C6.55228475,5 7,5.44771525 7,6 C7,6.55228475 6.55228475,7 6,7 C5.44771525,7 5,6.55228475 5,6 C5,5.44771525 5.44771525,5 6,5 Z M6,2 C6.27614237,2 6.5,2.22385763 6.5,2.5 L6.50070296,4.58560151 C6.34411489,4.53016732 6.17558042,4.5 6,4.5 C5.82419352,4.5 5.65545115,4.53024505 5.49869228,4.58581575 L5.5,2.5 C5.5,2.22385763 5.72385763,2 6,2 Z" id="icn-time" fill="#FFFFFF"></path>
    </g>
</svg>