<?xml version="1.0" encoding="UTF-8"?>
<svg width="26px" height="24px" viewBox="0 0 26 24" version="1.1" xmlns="http://www.w3.org/2000/svg" xmlns:xlink="http://www.w3.org/1999/xlink">
    <title>Path</title>
    <g id="Atoms" stroke="none" stroke-width="1" fill="none" fill-rule="evenodd">
        <g id="Atoms/Button/Solid/Arrow" transform="translate(-6.000000, -8.000000)" fill="#FFFFFF" fill-rule="nonzero">
            <path d="M21.7118177,8.53036826 L21.7989126,8.61510165 L31.4032622,18.5150133 C32.1704965,19.3058582 32.1978977,20.5705224 31.4854659,21.3952116 L31.4032622,21.4849867 L21.7989126,31.3848984 C21.0032622,32.2050339 19.7132581,32.2050339 18.9176077,31.3848984 C18.1503734,30.5940534 18.1229722,29.3293892 18.835404,28.5047 L18.9176077,28.4149249 L25.1399229,22.0005893 L8.03739022,22.0005893 C6.91217067,22.0005893 6,21.0603477 6,19.9005009 C6,18.7820772 6.84817911,17.8678527 7.91767807,17.8039775 L8.03739022,17.8004125 L24.94705,17.8004125 L18.9176077,11.5850751 C18.1503734,10.7942302 18.1229722,9.52956597 18.835404,8.70487676 L18.9176077,8.61510165 C19.684842,7.82425667 20.9117496,7.79601221 21.7118177,8.53036826 Z" id="Path"></path>
        </g>
    </g>
</svg>