<?xml version="1.0" encoding="UTF-8"?>
<svg width="64px" height="13px" viewBox="0 0 64 13" version="1.1" xmlns="http://www.w3.org/2000/svg" xmlns:xlink="http://www.w3.org/1999/xlink">
    <title>icn-stars-5@3x</title>
    <g id="Page-1" stroke="none" stroke-width="1" fill="none" fill-rule="evenodd">
        <g id="Star-Copy-2" transform="translate(0.000000, 0.721154)" fill="#F8C81C">
            <g>
                <path d="M5.99992931,10.0478162 L3.47131597,11.374927 C2.93907654,11.6542662 2.2807765,11.4499835 2.00096168,10.9186488 C1.88953795,10.7070686 1.85108838,10.4647202 1.89156542,10.2291222 L2.3744876,7.41825623 L0.328796434,5.42758991 C-0.101794305,5.00858116 -0.110604968,4.32043808 0.309117269,3.89057931 C0.476252866,3.71940729 0.695250731,3.60801199 0.932207448,3.5736387 L3.75928311,3.16353888 L5.02358978,0.606128555 C5.28970949,0.0678277489 5.94256424,-0.153185352 6.48178167,0.112481978 C6.69650088,0.218272103 6.87029857,0.391774351 6.97626884,0.606128555 L8.24057551,3.16353888 L11.0676512,3.5736387 C11.6627129,3.65995925 12.07501,4.21150872 11.9885425,4.80555893 C11.9541107,5.04211284 11.8425257,5.26073843 11.6710622,5.42758991 L9.62537102,7.41825623 L10.1082932,10.2291222 C10.2099419,10.820772 9.81190074,11.3826614 9.21924343,11.4841373 C8.98324418,11.5245456 8.74048318,11.4861614 8.52854265,11.374927 L5.99992931,10.0478162 Z"></path>
            </g>
            <g transform="translate(13.000000, 0.000000)">
                <path d="M5.99992931,10.0478162 L3.47131597,11.374927 C2.93907654,11.6542662 2.2807765,11.4499835 2.00096168,10.9186488 C1.88953795,10.7070686 1.85108838,10.4647202 1.89156542,10.2291222 L2.3744876,7.41825623 L0.328796434,5.42758991 C-0.101794305,5.00858116 -0.110604968,4.32043808 0.309117269,3.89057931 C0.476252866,3.71940729 0.695250731,3.60801199 0.932207448,3.5736387 L3.75928311,3.16353888 L5.02358978,0.606128555 C5.28970949,0.0678277489 5.94256424,-0.153185352 6.48178167,0.112481978 C6.69650088,0.218272103 6.87029857,0.391774351 6.97626884,0.606128555 L8.24057551,3.16353888 L11.0676512,3.5736387 C11.6627129,3.65995925 12.07501,4.21150872 11.9885425,4.80555893 C11.9541107,5.04211284 11.8425257,5.26073843 11.6710622,5.42758991 L9.62537102,7.41825623 L10.1082932,10.2291222 C10.2099419,10.820772 9.81190074,11.3826614 9.21924343,11.4841373 C8.98324418,11.5245456 8.74048318,11.4861614 8.52854265,11.374927 L5.99992931,10.0478162 Z"></path>
            </g>
            <g transform="translate(26.000000, 0.000000)">
                <path d="M5.99992931,10.0478162 L3.47131597,11.374927 C2.93907654,11.6542662 2.2807765,11.4499835 2.00096168,10.9186488 C1.88953795,10.7070686 1.85108838,10.4647202 1.89156542,10.2291222 L2.3744876,7.41825623 L0.328796434,5.42758991 C-0.101794305,5.00858116 -0.110604968,4.32043808 0.309117269,3.89057931 C0.476252866,3.71940729 0.695250731,3.60801199 0.932207448,3.5736387 L3.75928311,3.16353888 L5.02358978,0.606128555 C5.28970949,0.0678277489 5.94256424,-0.153185352 6.48178167,0.112481978 C6.69650088,0.218272103 6.87029857,0.391774351 6.97626884,0.606128555 L8.24057551,3.16353888 L11.0676512,3.5736387 C11.6627129,3.65995925 12.07501,4.21150872 11.9885425,4.80555893 C11.9541107,5.04211284 11.8425257,5.26073843 11.6710622,5.42758991 L9.62537102,7.41825623 L10.1082932,10.2291222 C10.2099419,10.820772 9.81190074,11.3826614 9.21924343,11.4841373 C8.98324418,11.5245456 8.74048318,11.4861614 8.52854265,11.374927 L5.99992931,10.0478162 Z"></path>
            </g>
            <g transform="translate(39.000000, 0.000000)">
                <path d="M5.99992931,10.0478162 L3.47131597,11.374927 C2.93907654,11.6542662 2.2807765,11.4499835 2.00096168,10.9186488 C1.88953795,10.7070686 1.85108838,10.4647202 1.89156542,10.2291222 L2.3744876,7.41825623 L0.328796434,5.42758991 C-0.101794305,5.00858116 -0.110604968,4.32043808 0.309117269,3.89057931 C0.476252866,3.71940729 0.695250731,3.60801199 0.932207448,3.5736387 L3.75928311,3.16353888 L5.02358978,0.606128555 C5.28970949,0.0678277489 5.94256424,-0.153185352 6.48178167,0.112481978 C6.69650088,0.218272103 6.87029857,0.391774351 6.97626884,0.606128555 L8.24057551,3.16353888 L11.0676512,3.5736387 C11.6627129,3.65995925 12.07501,4.21150872 11.9885425,4.80555893 C11.9541107,5.04211284 11.8425257,5.26073843 11.6710622,5.42758991 L9.62537102,7.41825623 L10.1082932,10.2291222 C10.2099419,10.820772 9.81190074,11.3826614 9.21924343,11.4841373 C8.98324418,11.5245456 8.74048318,11.4861614 8.52854265,11.374927 L5.99992931,10.0478162 Z"></path>
            </g>
            <g transform="translate(52.000000, 0.000000)">
                <path d="M5.99992931,10.0478162 L3.47131597,11.374927 C2.93907654,11.6542662 2.2807765,11.4499835 2.00096168,10.9186488 C1.88953795,10.7070686 1.85108838,10.4647202 1.89156542,10.2291222 L2.3744876,7.41825623 L0.328796434,5.42758991 C-0.101794305,5.00858116 -0.110604968,4.32043808 0.309117269,3.89057931 C0.476252866,3.71940729 0.695250731,3.60801199 0.932207448,3.5736387 L3.75928311,3.16353888 L5.02358978,0.606128555 C5.28970949,0.0678277489 5.94256424,-0.153185352 6.48178167,0.112481978 C6.69650088,0.218272103 6.87029857,0.391774351 6.97626884,0.606128555 L8.24057551,3.16353888 L11.0676512,3.5736387 C11.6627129,3.65995925 12.07501,4.21150872 11.9885425,4.80555893 C11.9541107,5.04211284 11.8425257,5.26073843 11.6710622,5.42758991 L9.62537102,7.41825623 L10.1082932,10.2291222 C10.2099419,10.820772 9.81190074,11.3826614 9.21924343,11.4841373 C8.98324418,11.5245456 8.74048318,11.4861614 8.52854265,11.374927 L5.99992931,10.0478162 Z"></path>
            </g>
        </g>
    </g>
</svg>