<?xml version="1.0" encoding="UTF-8"?>
<svg width="32px" height="26px" viewBox="0 0 32 26" version="1.1" xmlns="http://www.w3.org/2000/svg" xmlns:xlink="http://www.w3.org/1999/xlink">
    <title>icon-cash-back-lined</title>
    <g id="Symbols" stroke="none" stroke-width="1" fill="none" fill-rule="evenodd">
        <g id="icon-cash-back-lined" transform="translate(0.000000, 0.000000)" fill="#F54D0D" fill-rule="nonzero">
            <g id="Group">
                <path d="M28,0 C30.1302412,0 31.8715478,1.66522662 31.9932097,3.76496962 L32,4 L32,13.3333333 C32,14.5174318 31.4854928,15.5813607 30.6678434,16.3137551 L30.6666667,17.3333333 C30.6666667,18.5174318 30.1521595,19.5813607 29.33451,20.3137551 L29.3333333,21.3333333 C29.3333333,23.4635745 27.6681067,25.2048812 25.5683637,25.3265431 L25.3333333,25.3333333 L6.66666667,25.3333333 C4.53642549,25.3333333 2.79511883,23.6681067 2.67345692,21.5683637 L2.66666667,21.3333333 L2.66679778,20.314926 C1.9113437,19.6388358 1.41436768,18.6798573 1.34237998,17.6045007 L1.33333333,17.3333333 L1.33346445,16.314926 C0.5695583,15.6312717 0.0699463035,14.6583636 0.00679025788,13.5683637 L0,13.3333333 L0,4 C0,1.86975882 1.66522662,0.128452161 3.76496962,0.00679025788 L4,0 L28,0 Z M5.33333333,21.3333333 C5.33333333,22.0171145 5.84805359,22.5806762 6.51117183,22.6576964 L6.66666667,22.6666667 L25.3333333,22.6666667 C26.0171145,22.6666667 26.5806762,22.1519464 26.6576964,21.4888282 L26.6666667,21.3333333 L5.33333333,21.3333333 Z M28,17.3333333 L4,17.3333333 C4,17.9645159 4.4385782,18.493263 5.02761223,18.6314524 L5.1778385,18.6576964 L5.33333333,18.6666667 L26.6666667,18.6666667 C27.3504478,18.6666667 27.9140095,18.1519464 27.9910297,17.4888282 L28,17.3333333 Z M13.0914154,2.66626245 L5.33333333,2.66666667 C5.33333333,4.07248239 4.24549628,5.22422016 2.86568313,5.32601902 L2.66666667,5.33333333 L2.66666667,12 C4.139426,12 5.33333333,13.1939073 5.33333333,14.6666667 L13.0940645,14.6683567 C10.8680682,13.5885656 9.33333333,11.3068444 9.33333333,8.66666667 C9.33333333,6.02753641 10.8668507,3.74657833 13.0914154,2.66626245 Z M18.9085846,2.66626245 C21.1331493,3.74657833 22.6666667,6.02753641 22.6666667,8.66666667 C22.6666667,11.3068444 21.1319318,13.5885656 18.9059355,14.6683567 L26.6666667,14.6666667 C26.6666667,13.2608509 27.7545037,12.1091132 29.1343169,12.0073143 L29.3333333,12 L29.3333333,5.33333333 C27.860574,5.33333333 26.6666667,4.139426 26.6666667,2.66666667 L18.9085846,2.66626245 Z M16.1431065,3.9047619 C15.9280977,3.9047619 15.6642234,4.01019195 15.6642234,4.39861842 L15.6642234,4.72600645 C14.2910995,4.88137705 13.3968586,5.81914954 13.3968586,7.15089746 C13.3968586,8.33837269 14.0125654,9.06528509 15.2586387,9.33718362 L16.0991274,9.52584791 C16.7783595,9.6812185 17.0471204,9.88098069 17.0471204,10.2194666 C17.0471204,10.6411868 16.7441536,10.9297322 16.1431065,10.9297322 C15.8038394,10.9297322 15.4035403,10.7829681 15.0252947,10.5139007 L14.8383944,10.3692883 C14.530541,10.1140366 14.3106457,10.0252534 14.0712042,10.0252534 C13.6656195,10.0252534 13.3333333,10.3027009 13.3333333,10.7965574 C13.3333333,11.1294944 13.4799302,11.4346866 13.7291449,11.7121341 C14.1445026,12.161599 14.8481675,12.4390465 15.6593368,12.5056339 L15.6593368,12.7386898 C15.6593368,13.1215673 15.9232112,13.2380952 16.1431065,13.2380952 C16.3532286,13.2380952 16.6122164,13.1215673 16.6122164,12.7386898 L16.6122164,12.488987 C18.0390925,12.2892248 18.9333333,11.3403545 18.9333333,9.97531284 C18.9333333,8.79893551 18.2980803,8.083121 17.0471204,7.83341827 L16.1870855,7.66140083 C15.5713787,7.53932393 15.3123909,7.32846385 15.3123909,6.97333107 C15.3123909,6.61819829 15.6006981,6.29081026 16.0746946,6.29081026 C16.443281,6.29081026 16.7328846,6.39272974 17.0665954,6.64549006 L17.2376963,6.78466678 C17.5015707,7.01217372 17.7458988,7.11760376 18.0488656,7.11760376 C18.3958115,7.11760376 18.6938918,6.82905838 18.6938918,6.4184361 C18.6938918,6.09659702 18.5570681,5.79140479 18.2931937,5.50285941 C17.921815,5.09223713 17.3109948,4.8314365 16.617103,4.7426533 L16.617103,4.39861842 C16.617103,4.01019195 16.3581152,3.9047619 16.1431065,3.9047619 Z" id="Icon"></path>
            </g>
        </g>
    </g>
</svg>