<svg width="64" height="64" xmlns="http://www.w3.org/2000/svg" xmlns:xlink="http://www.w3.org/1999/xlink"><defs><path d="M54.998 50.917c3.44-4.979 5.46-11.042 5.46-17.584 0-16.936-13.535-30.666-30.23-30.666C13.535 2.667 0 16.397 0 33.333 0 50.27 13.534 64 30.229 64a29.776 29.776 0 0016.346-4.866c4.89 3.031 10.806 3.492 15.642.66A13.8 13.8 0 0064 58.552c-3.506-1.39-6.722-4.008-9.002-7.635zM18.015 40h11.97c1.113 0 2.015.902 2.015 2.015v1.303a2.015 2.015 0 01-2.015 2.015h-11.97A2.015 2.015 0 0116 43.318v-1.303c0-1.113.902-2.015 2.015-2.015zm0-10.667h27.97c1.113 0 2.015.903 2.015 2.016v1.302a2.015 2.015 0 01-2.015 2.016h-27.97A2.015 2.015 0 0116 32.65V31.35c0-1.113.902-2.016 2.015-2.016zm0-10.666h22.636c1.113 0 2.016.902 2.016 2.015v1.303A2.015 2.015 0 0140.65 24H18.015A2.015 2.015 0 0116 21.985v-1.303c0-1.113.902-2.015 2.015-2.015z" id="a"/></defs><use fill="#F54D0D" xlink:href="#a" fill-rule="evenodd"/></svg>