<?xml version="1.0" encoding="UTF-8"?>
<svg width="32px" height="30px" viewBox="0 0 32 30" version="1.1" xmlns="http://www.w3.org/2000/svg" xmlns:xlink="http://www.w3.org/1999/xlink">
    <title>icon-100k-reviews-lined</title>
    <g id="Symbols" stroke="none" stroke-width="1" fill="none" fill-rule="evenodd">
        <g id="icon-100k-reviews-lined" transform="translate(0.000000, 0.333333)" fill="#F54D0D" fill-rule="nonzero">
            <path d="M16.6898054,0.15471218 C16.9972361,0.300220119 17.2460761,0.538862002 17.3978023,0.833693288 L21.1349117,8.0955729 C21.3619812,8.53681006 21.800908,8.84263966 22.3086509,8.91339533 L30.6650815,10.0778919 C31.5170791,10.1966206 32.1073979,10.9552436 31.9835954,11.7723239 C31.9342966,12.0976895 31.7745314,12.3983958 31.5290334,12.62789 L25.4822634,18.280475 C25.1148572,18.6239302 24.947202,19.1187729 25.0339349,19.6037394 L26.4613836,27.5853175 C26.6069222,28.3990962 26.0370148,29.1719412 25.1884599,29.3115152 C24.8505609,29.3670943 24.5029805,29.3142991 24.1995283,29.161303 L16.7253095,25.392913 C16.2711705,25.1639429 15.7286271,25.1639429 15.274488,25.392913 L7.80026926,29.161303 C7.03821946,29.5455172 6.09567859,29.2645386 5.6950453,28.5337198 C5.53551103,28.242704 5.4804597,27.9093684 5.53841392,27.5853175 L6.96586269,19.6037394 C7.05259553,19.1187729 6.8849404,18.6239302 6.5175342,18.280475 L0.47076418,12.62789 C-0.145747057,12.0515687 -0.158361988,11.1050694 0.442587944,10.5138246 C0.681889359,10.2783878 0.995446138,10.1251703 1.33471604,10.0778919 L9.69114668,8.91339533 C10.1988896,8.84263966 10.6378164,8.53681006 10.8648859,8.0955729 L14.6019953,0.833693288 C14.9830202,0.0932929797 15.9177646,-0.210697217 16.6898054,0.15471218 Z M15.9986667,3.944 L13.2359975,9.31579463 C12.6500039,10.4544861 11.5740137,11.252893 10.3285592,11.5082152 L10.0591991,11.5545406 L4.11333333,12.3826667 L8.33858702,16.3324304 C9.29415712,17.2257075 9.77196773,18.5075141 9.63068237,19.7969252 L9.59087947,20.0732051 L8.568,25.7866667 L14.0739528,23.0117733 C15.1968037,22.4456486 16.512987,22.4052111 17.6634568,22.8904609 L17.9258448,23.0117733 L23.4306667,25.7866667 L22.4089181,20.0732051 C22.1784694,18.7846512 22.577212,17.4764928 23.4638097,16.529655 L23.6612105,16.3324304 L27.884,12.3826667 L21.9405985,11.5545406 C20.6725702,11.3778367 19.551111,10.6435623 18.8967533,9.55451759 L18.7638001,9.31579463 L15.9986667,3.944 Z M18.0312412,11.2228125 C18.9258648,11.2228125 19.422878,11.6815939 19.422878,12.4768149 C19.422878,13.2643896 18.9335112,13.7002319 18.0312412,13.7002319 L18.0312412,13.7002319 L14.3533439,13.7002319 L14.246295,15.3059666 L14.4068684,15.3059666 C14.7891862,14.8471853 15.5844073,14.5642701 16.4943236,14.5642701 C18.5588398,14.5642701 19.9198911,15.9253215 19.9198911,18.0051303 C19.9198911,20.3984397 18.2071074,21.8894792 15.4620656,21.8894792 C13.3134395,21.8894792 11.5241922,20.811343 11.5241922,19.4885234 C11.5241922,18.7621195 12.0059126,18.1351184 12.7934873,18.1351184 C13.2216832,18.1351184 13.5657693,18.2651064 13.9098553,18.5862534 C14.4986247,19.136791 14.9650524,19.373828 15.5308828,19.373828 C16.3184574,19.373828 16.8995805,18.8615222 16.8995805,18.0815939 C16.8995805,17.3398973 16.3490429,16.8581769 15.5920536,16.8581769 C15.1944431,16.8581769 14.7050763,17.0263967 14.2310022,17.3169583 C13.9557334,17.4851781 13.6192938,17.5769344 13.2828541,17.5769344 C12.3423523,17.5769344 11.6006558,16.9422868 11.6541803,16.0706022 L11.6541803,16.0706022 L11.8606319,12.6756201 C11.9218027,11.7121793 12.5258648,11.2228125 13.6498792,11.2228125 L13.6498792,11.2228125 Z" id="Combined-Shape"></path>
        </g>
    </g>
</svg>