<?xml version="1.0" encoding="UTF-8"?>
<svg width="32px" height="32px" viewBox="0 0 32 32" version="1.1" xmlns="http://www.w3.org/2000/svg" xmlns:xlink="http://www.w3.org/1999/xlink">
    <title>icon-best-price-lined</title>
    <g id="Symbols" stroke="none" stroke-width="1" fill="none" fill-rule="evenodd">
        <g id="icon-best-price-lined" transform="translate(0.002449, 0.000055)" fill="#F54D0D" fill-rule="nonzero">
            <path d="M26.6642181,21.3332786 C28.0392058,21.3332786 29.2926651,21.8536036 30.2384351,22.7080927 L25.9456175,27.0387516 L24.9058218,26.0346214 L24.8130753,25.9555603 C24.4275675,25.6664626 23.8780783,25.7029473 23.534672,26.0585549 C23.1912657,26.4141626 23.1739801,26.9645903 23.4763558,27.3397739 L23.5586055,27.4297047 L25.2870433,29.0988377 L25.3789147,29.1772371 C25.7289133,29.4402971 26.2149935,29.4349961 26.5591719,29.1643658 L26.6493117,29.0839814 L31.4273086,24.2645909 C31.7920708,24.9864727 31.9975514,25.802546 31.9975514,26.666612 C31.9975514,29.6121306 29.6097367,31.9999453 26.6642181,31.9999453 C23.7186994,31.9999453 21.3308847,29.6121306 21.3308847,26.666612 C21.3308847,23.7210933 23.7186994,21.3332786 26.6642181,21.3332786 Z M22.198993,1.40455363 L22.321845,1.56852012 L22.5205864,1.88118368 L22.9366295,2.61334578 C23.1543087,2.99642254 23.5430906,3.24662585 23.9755512,3.29038737 L24.1211476,3.29722763 L24.9632401,3.29145046 C26.8383358,3.27858638 28.4140754,4.66094652 28.6736271,6.54617401 L28.6957405,6.74295477 L28.7060462,7.03425657 L28.7002691,7.87634909 C28.6972464,8.31694288 28.9088398,8.72801627 29.2614808,8.98214513 L29.3841509,9.0608672 L30.116313,9.47691029 C31.7397359,10.3994025 32.4149308,12.372154 31.7094863,14.1327203 L31.6286002,14.320483 L31.4862751,14.5896785 L31.0602257,15.3160634 C30.8400631,15.6914255 30.8156006,16.1465243 30.9868382,16.5396056 L31.0602257,16.6838271 L31.4862751,17.4102121 C32.0569556,18.3831829 32.1363152,19.5150606 31.780955,20.5171523 C31.0564542,19.9131799 30.2235636,19.4353049 29.3157985,19.1165121 C29.3020396,19.0330279 29.2777104,18.9503054 29.2426606,18.8702671 L29.1860755,18.7593573 L28.7600261,18.0329724 C28.0646263,16.8473637 28.025993,15.3941597 28.6441261,14.1788182 L28.7600261,13.9669182 L29.1541258,13.2982293 L29.2354223,13.1459812 C29.4443496,12.6922036 29.3002864,12.1553528 28.9033096,11.8631644 L28.7988543,11.7954041 L28.0666922,11.379361 C26.8646244,10.6962992 26.1026678,9.44650065 26.0380375,8.07547507 L26.0336652,7.85805488 L26.0405038,7.07908232 L26.0353094,6.91392174 C25.9910627,6.41160484 25.5928511,6.01472901 25.0974629,5.96360519 L24.9815344,5.95805437 L24.1394418,5.96383154 C22.7568896,5.97331653 21.4721166,5.27193757 20.7306323,4.11690973 L20.6181357,3.93080448 L20.2360839,3.25515962 L20.1322181,3.09327863 L20.052727,2.99589725 C19.7510043,2.675371 19.2736001,2.57633536 18.8661633,2.75559086 L18.7569634,2.81142118 L18.0305785,3.23747062 C16.8449698,3.93287039 15.3917658,3.97150371 14.1764243,3.35337058 L13.9645244,3.23747062 L13.2958354,2.84337088 L13.1435873,2.76207441 C12.6898097,2.55314708 12.1529589,2.69721027 11.8607705,3.09418706 L11.7930102,3.19864238 L11.3769672,3.93080448 C10.6939053,5.13287232 9.44410677,5.89482893 8.07308119,5.95945922 L7.85566099,5.96383154 L7.07668844,5.9569929 L6.91152786,5.96218727 C6.40921095,6.00643402 6.01233513,6.40464565 5.96121131,6.90003385 L5.95566049,7.01596235 L5.96143766,7.85805488 C5.97092265,9.2406071 5.26954369,10.5253801 4.11451585,11.2668644 L3.9284106,11.379361 L3.25276574,11.7614128 L3.10623689,11.8526153 C2.6981693,12.1411345 2.5547114,12.6780926 2.75244219,13.1296235 L2.8090273,13.2405333 L3.23507674,13.9669182 C3.93047651,15.1525269 3.96910983,16.6057309 3.3509767,17.8210724 L3.23507674,18.0329724 L2.84097699,18.7016613 L2.75968053,18.8539094 C2.5507532,19.307687 2.69481639,19.8445378 3.09179318,20.1367262 L3.1962485,20.2044865 L3.9284106,20.6205296 C5.13047844,21.3035914 5.89243505,22.5533899 5.95706534,23.9244155 L5.96143766,24.1418357 L5.95459902,24.9208083 L5.95979339,25.0859689 C6.00404014,25.5882858 6.40225177,25.9851616 6.89763997,26.0362854 L7.01356847,26.0418362 L7.85566099,26.036059 C9.23821322,26.0265741 10.5229863,26.727953 11.2644705,27.8829809 L11.3769672,28.0690861 L11.7590189,28.744731 L11.8502214,28.8912598 C12.1387406,29.2993274 12.6756987,29.4427853 13.1272296,29.2450545 L13.2381394,29.1884694 L13.9645244,28.76242 C15.150133,28.0670202 16.603337,28.0283869 17.8186785,28.64652 L18.0305785,28.76242 L18.6992674,29.1565197 L18.8515155,29.2378162 C18.936996,29.2771729 19.0254244,29.3040037 19.1146099,29.3189775 C19.4331019,30.2265586 19.9114819,31.0600786 20.515674,31.7850719 C19.6859656,32.0722205 18.7486321,32.0660339 17.8647764,31.7118801 L17.6770137,31.630994 L17.4078182,31.488669 L16.6814333,31.0626196 C16.3060712,30.842457 15.8509724,30.8179945 15.4578911,30.9892321 L15.3136696,31.0626196 L14.5872846,31.488669 C12.9787259,32.4321434 10.93584,32.032731 9.76313708,30.5461934 L9.63648404,30.3765617 L9.47451641,30.1187069 L9.05847332,29.3865448 C8.84079415,29.0034681 8.45201222,28.7532647 8.01955166,28.7095032 L7.87395521,28.702663 L7.03186269,28.7084401 C5.156767,28.7213042 3.5810274,27.3389441 3.32147574,25.4537166 L3.29936235,25.2569358 L3.28905658,24.965634 L3.29483375,24.1235415 C3.29785644,23.6829477 3.08626307,23.2718743 2.733622,23.0177455 L2.6109519,22.9390234 L1.8787898,22.5229803 C0.25536696,21.6004881 -0.41982801,19.6277366 0.285616561,17.8671702 L0.366502665,17.6794076 L0.50882768,17.4102121 L0.934877117,16.6838271 C1.1550397,16.3084651 1.17950221,15.8533663 1.00826465,15.460285 L0.934877117,15.3160634 L0.50882768,14.5896785 C-0.434646678,12.9811197 -0.0352343015,10.9382339 1.45130335,9.76553097 L1.62093497,9.63887792 L1.8787898,9.47691029 L2.6109519,9.0608672 C2.99402865,8.84318804 3.24423197,8.45440611 3.28799349,8.02194555 L3.29483375,7.87634909 L3.28905658,7.03425657 C3.2761925,5.15916089 4.65855264,3.58342128 6.54378013,3.32386963 L6.74056089,3.30175623 L7.03186269,3.29145046 L7.87395521,3.29722763 C8.314549,3.30025032 8.72562239,3.08865695 8.97975125,2.73601588 L9.05847332,2.61334578 L9.47451641,1.88118368 C10.3970086,0.257760842 12.3697601,-0.417434128 14.1303265,0.288010443 L14.3180891,0.368896548 L14.5872846,0.511221562 L15.3136696,0.937270999 C15.6890316,1.15743359 16.1441304,1.1818961 16.5372117,1.01065853 L16.6814333,0.937270999 L17.4078182,0.511221562 C19.016377,-0.432252795 21.0592629,-0.0328404193 22.198993,1.40455363 Z M15.9975514,5.33327863 C21.8885887,5.33327863 26.6642181,10.108908 26.6642181,15.9999453 C26.6642181,16.9235796 26.5468237,17.8197951 26.3261419,18.6744846 C25.2165094,18.7199033 24.1662292,18.9917276 23.2189415,19.4444357 C23.718327,18.4019824 23.9975514,17.233572 23.9975514,15.9999453 C23.9975514,11.5816673 20.4158294,7.9999453 15.9975514,7.9999453 C11.5792734,7.9999453 7.99755141,11.5816673 7.99755141,15.9999453 C7.99755141,20.4182233 11.5792734,23.9999453 15.9975514,23.9999453 C17.2310988,23.9999453 18.3994382,23.7207568 19.442828,23.2221216 C18.9894217,24.1683706 18.7175722,25.2185949 18.671292,26.3271044 C17.8179046,26.5491517 16.9214452,26.666612 15.9975514,26.666612 C10.1065141,26.666612 5.33088475,21.8909826 5.33088475,15.9999453 C5.33088475,10.108908 10.1065141,5.33327863 15.9975514,5.33327863 Z M16.011513,9.33327863 C16.295041,9.33327863 16.6321023,9.46161275 16.6822802,9.91779638 L16.6886509,10.0387879 L16.6886509,10.5302663 C17.6799249,10.6570995 18.5525252,11.0296718 19.0830662,11.6162751 C19.4600296,12.0284828 19.6554921,12.4644717 19.6554921,12.9242418 C19.6554921,13.510845 19.2296631,13.9230527 18.7340261,13.9230527 C18.3012163,13.9230527 17.9521762,13.7724384 17.5752128,13.4474285 C16.9888254,12.9400959 16.5280924,12.7419191 15.9137818,12.7419191 C15.2366439,12.7419191 14.8247765,13.2096163 14.8247765,13.7169489 C14.8247765,14.1904592 15.1470725,14.4844303 15.9051773,14.663312 L16.0743402,14.6999057 L17.3029615,14.9456449 C19.0900471,15.3023631 19.9975514,16.3249552 19.9975514,18.0054942 C19.9975514,19.8859087 18.8096841,21.213501 16.8971343,21.5618082 L16.6816701,21.5964574 L16.6816701,21.9531756 C16.6816701,22.5001435 16.3116875,22.666612 16.011513,22.666612 C15.7215412,22.666612 15.3780361,22.524769 15.326905,22.0727419 L15.3204135,21.9531756 L15.3204135,21.6202386 C14.1616003,21.5251137 13.1563647,21.1287602 12.5629964,20.4866675 C12.2069755,20.0903139 11.9975514,19.654325 11.9975514,19.1787007 C11.9975514,18.4731914 12.472246,18.0768379 13.0516526,18.0768379 C13.393712,18.0768379 13.7078481,18.203671 14.1476387,18.5683163 C14.7619493,19.0835759 15.446068,19.3689504 16.011513,19.3689504 C16.8701518,19.3689504 17.3029615,18.9567428 17.3029615,18.3542854 C17.3029615,17.9029708 16.9685035,17.6242902 16.1349936,17.4086786 L15.9486858,17.3634015 L14.7479877,17.0938811 C12.967883,16.7054546 12.0883018,15.6670083 12.0883018,13.9706151 C12.0883018,12.1360644 13.2761691,10.8248521 15.1198671,10.534518 L15.3273943,10.5064851 L15.3273943,10.0387879 C15.3273943,9.48389298 15.7043577,9.33327863 16.011513,9.33327863 Z" id="Icon"></path>
        </g>
    </g>
</svg>