<svg width="64" height="64" xmlns="http://www.w3.org/2000/svg"><path d="M24 29.333V32a2.667 2.667 0 002.356 2.649l.31.018a2.667 2.667 0 002.65-2.356l.017-.311v-2.667h5.334V32a2.667 2.667 0 002.355 2.649l.311.018a2.667 2.667 0 002.65-2.356L40 32v-2.667h5.333V64H18.667V29.333H24zm-8 16V64H5.333a2.667 2.667 0 01-2.666-2.667v-16H16zm45.333 0v16a2.667 2.667 0 01-2.355 2.65l-.311.017H48V45.333h13.333zm-24-2.666H26.667a2.667 2.667 0 00-2.65 2.355l-.017.311v5.334a2.667 2.667 0 002.356 2.648l.31.018h10.667a2.667 2.667 0 002.65-2.355l.017-.311v-5.334a2.667 2.667 0 00-2.356-2.648l-.31-.018zm-21.333-8v8H2.667v-5.334a2.667 2.667 0 012.666-2.666H16zm42.667 0a2.667 2.667 0 012.648 2.355l.018.311v5.334H48v-8h10.667zM48 0a8 8 0 017.986 7.53L56 8v10.667a8 8 0 01-7.53 7.986l-.47.014h-8v-5.334a2.667 2.667 0 00-2.356-2.648l-.31-.018a2.667 2.667 0 00-2.65 2.355l-.017.311v5.334h-5.334v-5.334a2.667 2.667 0 00-2.355-2.648l-.311-.018a2.667 2.667 0 00-2.65 2.355l-.017.311v5.334h-8a8 8 0 01-7.986-7.53L8 18.667V8A8 8 0 0115.53.014L16 0h32z" fill="#F54D0D" fill-rule="evenodd"/></svg>