<?xml version="1.0" encoding="UTF-8"?>
<svg width="32px" height="32px" viewBox="0 0 32 32" version="1.1" xmlns="http://www.w3.org/2000/svg" xmlns:xlink="http://www.w3.org/1999/xlink">
    <title>icon-cancellation-lined</title>
    <g id="Symbols" stroke="none" stroke-width="1" fill="none" fill-rule="evenodd">
        <g id="icon-cancellation-lined" fill="#F54D0D" fill-rule="nonzero">
            <path d="M15.7781188,17.9281682 L15.86,18.0696706 L17.1933333,20.7363372 C17.4237333,21.1983372 17.3646933,21.7467372 17.0550933,22.1472852 L16.9426667,22.2750039 L16.552,22.6656706 L26.6666667,22.6656706 C27.172,22.6656706 27.6333333,22.9510039 27.86,23.4030039 C28.0602963,23.8047817 28.0446255,24.2760903 27.8251614,24.6596075 L27.7333333,24.7990039 L23.7333333,30.1323372 C23.5128333,30.4263372 23.1831042,30.6141706 22.82275,30.6565351 L22.6666667,30.6656706 L8,30.6656706 C8,31.3490991 7.48495238,31.9129631 6.82209135,31.9900282 L6.66666667,31.9990039 L1.33333333,31.9990039 C0.649904762,31.9990039 0.0860408163,31.4839563 0.00897570457,30.8210952 L0,30.6656706 L0,19.9990039 C0,19.3155753 0.515047619,18.7517114 1.17790865,18.6746463 L1.33333333,18.6656706 L6.66666667,18.6656706 C7.17426667,18.6656706 7.61166667,18.9529506 7.83598267,19.3710186 L7.90266667,19.5150039 L14.2453333,17.4016706 C14.8246667,17.2097817 15.4499352,17.4335502 15.7781188,17.9281682 Z M5.33333333,21.3323372 L2.66666667,21.3323372 L2.66666667,29.3323372 L5.33333333,29.3323372 L5.33333333,21.3323372 Z M13.992,20.2976706 L8,22.2936706 L8,27.9990039 L22,27.9990039 L24,25.3323372 L13.3333333,25.3323372 C12.7946667,25.3323372 12.3093333,25.0083372 12.1026667,24.5096706 C11.918963,24.0664113 11.9891523,23.5641562 12.2748404,23.1901937 L12.392,23.0563372 L14.3786667,21.0696706 L13.992,20.2976706 Z M19.3333333,0 C26.3289402,0 32,5.67105984 32,12.6666667 C32,15.7108526 30.9207486,18.5920291 28.9895013,20.8647569 C28.512668,21.4259031 27.6712194,21.4942523 27.1100732,21.017419 C26.548927,20.5405858 26.4805778,19.6991372 26.9574111,19.137991 C28.4827505,17.3429432 29.3333333,15.0722217 29.3333333,12.6666667 C29.3333333,7.14381917 24.8561808,2.66666667 19.3333333,2.66666667 C15.7014928,2.66666667 12.4429179,4.62063537 10.6869565,7.63671862 L13.4595869,8.6456368 C13.9785648,8.83452931 14.2461518,9.40837166 14.0572593,9.92734956 C13.96655,10.1765715 13.7805528,10.3795519 13.540185,10.4916372 L8.08976156,13.0332114 C7.58922159,13.266617 6.99424113,13.0500618 6.76083551,12.5495219 L4.21926133,7.09909844 C3.98585571,6.59855847 4.20241088,6.00357801 4.70295085,5.77017239 C4.94331862,5.65808706 5.21836728,5.64607818 5.46758926,5.73678756 L8.1495062,6.71293749 C10.3100555,2.65580985 14.5677666,0 19.3333333,0 Z M19.4806283,5.33333333 C19.7641563,5.33333333 20.1012175,5.46166745 20.1513954,5.91785108 L20.1577661,6.03884265 L20.1577661,6.53032105 C21.1490401,6.65715418 22.0216405,7.02972652 22.5521815,7.61632977 C22.9291449,8.02853746 23.1246073,8.46452636 23.1246073,8.92429647 C23.1246073,9.51089972 22.6987784,9.92310741 22.2031414,9.92310741 C21.7703316,9.92310741 21.4212914,9.77249306 21.0443281,9.44748315 C20.4579407,8.94015061 19.9972077,8.74197384 19.382897,8.74197384 C18.7057592,8.74197384 18.2938918,9.20967103 18.2938918,9.71700357 C18.2938918,10.1905139 18.6161877,10.484485 19.3742925,10.6633667 L19.5434555,10.6999604 L20.7720768,10.9456996 C22.5591623,11.3024178 23.4666667,12.3250099 23.4666667,14.0055489 C23.4666667,15.8859634 22.2787994,17.2135557 20.3662496,17.5618629 L20.1507853,17.5965121 L20.1507853,17.9532303 C20.1507853,18.5001982 19.7808028,18.6666667 19.4806283,18.6666667 C19.1906565,18.6666667 18.8471514,18.5248237 18.7960203,18.0727966 L18.7895288,17.9532303 L18.7895288,17.6202933 C17.6307155,17.5251685 16.6254799,17.1288149 16.0321117,16.4867222 C15.6760908,16.0903686 15.4666667,15.6543797 15.4666667,15.1787554 C15.4666667,14.4732461 15.9413613,14.0768926 16.5207679,14.0768926 C16.8628272,14.0768926 17.1769634,14.2037257 17.6167539,14.568371 C18.2310646,15.0836306 18.9151832,15.3690052 19.4806283,15.3690052 C20.339267,15.3690052 20.7720768,14.9567975 20.7720768,14.3543401 C20.7720768,13.9030255 20.4376188,13.6243449 19.6041088,13.4087333 L19.417801,13.3634562 L18.217103,13.0939358 C16.4369983,12.7055093 15.5574171,11.667063 15.5574171,9.97066984 C15.5574171,8.13611913 16.7452844,6.82490678 18.5889824,6.53457275 L18.7965096,6.50653983 L18.7965096,6.03884265 C18.7965096,5.48394768 19.1734729,5.33333333 19.4806283,5.33333333 Z" id="Combined-Shape"></path>
        </g>
    </g>
</svg>