<?xml version="1.0" encoding="utf-8"?>
<!-- Generator: Adobe Illustrator 26.2.1, SVG Export Plug-In . SVG Version: 6.00 Build 0)  -->
<svg version="1.1" id="Layer_1" xmlns="http://www.w3.org/2000/svg" xmlns:xlink="http://www.w3.org/1999/xlink" x="0px" y="0px"
	 viewBox="0 0 24 24" style="enable-background:new 0 0 24 24;" xml:space="preserve">
<style type="text/css">
	.st0{fill-rule:evenodd;clip-rule:evenodd;fill:#FFFFFF;}
</style>
<path class="st0" d="M20,2c0-0.6-0.4-1-1-1h-8c-0.6,0-1,0.4-1,1s0.4,1,1,1h3l0,3.1C11.3,6.4,9,7.8,7.5,10L1,10c-0.6,0-1,0.4-1,1
	s0.4,1,1,1l5.5,0c-0.2,0.6-0.4,1.3-0.5,2L3,14c-0.6,0-1,0.4-1,1s0.4,1,1,1l3.1,0c0.1,0.7,0.2,1.4,0.5,2L4,18c-0.6,0-1,0.4-1,1
	s0.4,1,1,1h3c0.2,0,0.3,0,0.4-0.1C9.1,22.4,11.8,24,15,24c5,0,9-4,9-9c0-4.6-3.5-8.4-8-8.9L16,3h3C19.6,3,20,2.6,20,2z M2,19
	c0-0.6-0.4-1-1-1c-0.6,0-1,0.4-1,1s0.4,1,1,1C1.6,20,2,19.6,2,19z M14,10v3.3c-0.6,0.3-1,1-1,1.7c0,1.1,0.9,2,2,2s2-0.9,2-2
	c0-0.7-0.4-1.4-1-1.7V10c0-0.6-0.4-1-1-1S14,9.4,14,10z"/>
</svg>
