<svg width="510" height="455" viewBox="0 0 510 455" fill="none" xmlns="http://www.w3.org/2000/svg">
<g clip-path="url(#clip0_2_107)">
<g filter="url(#filter0_d_2_107)">
<path fill-rule="evenodd" clip-rule="evenodd" d="M123.47 80.7795L114.381 91.4954C114.381 91.4954 113.295 92.7843 113.295 95.4977C113.295 98.211 113.295 107.162 113.295 107.162C113.295 107.162 113.499 108.79 112.075 110.555C110.65 112.319 86.9103 132.529 86.9103 132.529C86.9103 132.529 86.1661 133.259 84.8601 133.259C83.554 133.259 83.2896 133.259 81.9122 133.259C80.5337 133.259 79.6861 133.676 78.6796 135.002C77.6732 136.326 74.7029 139.925 74.7029 139.925C74.7029 139.925 73.1495 141.988 70.2666 141.988C67.3848 141.988 61.2801 141.988 57.2682 141.988C53.2541 141.988 52.463 142.44 50.2028 144.474C47.9415 146.51 29.9705 163.692 29.9705 163.692C29.9705 163.692 28.4427 165.104 28.4427 166.8V168.224V168.259V168.324V168.387V168.45V168.511V168.571V168.632V168.69V168.747V168.803V168.858V168.912V168.964V169.016V169.065V169.114V169.161V169.208V169.252V169.295V169.337V169.376V169.415V169.453V169.488V169.522V169.554V169.585V169.615V169.643V169.669V169.693V169.714V169.737V169.757V169.775V169.792V169.806V169.819V169.829V169.839V169.845V169.851V169.854V170.658C28.4427 171.761 27.5408 172.664 26.4362 172.664C25.3328 172.664 24.4298 171.761 24.4298 170.658V169.855V168.227V164.373C24.4298 164.373 24.5854 162.791 23.7805 162.791C22.9745 162.791 22.7218 163.637 21.7601 164.995C20.7995 166.35 20.0927 167.397 20.0927 167.397C20.0927 167.397 19.2728 168.47 19.2728 169.713C19.2728 170.957 19.2728 172.726 19.2728 173.676C19.2728 174.626 19.3965 175.575 19.985 176.118C20.5735 176.66 22.0192 178.152 22.0192 178.152C22.0192 178.152 22.6536 178.695 22.6536 179.961C22.6536 181.227 22.6536 184.392 22.6536 184.392C22.6536 184.392 22.5629 186.2 21.387 187.06C20.211 187.919 18.7109 189.066 18.7109 191.482C18.7109 193.899 18.7109 194.959 18.7109 196.315C18.7109 197.672 19.4317 198.561 20.7878 199.749C22.1439 200.935 24.3071 203.055 24.3071 203.055C24.3071 203.055 24.901 203.734 24.901 204.497C24.901 205.26 24.901 207.718 24.901 207.718C24.901 207.718 24.6046 209.032 26.5962 210.728C28.5888 212.423 31.8118 214.924 31.8118 214.924C31.8118 214.924 32.9131 215.517 32.9131 217.679V219.79V219.811V219.917V220.043V220.17V220.296V220.421V220.546V220.672V220.796V220.919V221.041V221.162V221.282V221.401V221.518V221.634V221.748V221.86V221.971V222.079V222.186V222.289V222.391V222.49V222.586V222.68V222.769V222.856V222.94V223.02V223.095V223.169V223.237V223.302V223.363V223.421V223.474V223.523V223.567V223.606V223.64V223.669V223.693V223.713V223.726V223.735V223.738V223.919C32.9131 224.561 32.3885 225.085 31.7467 225.085C31.1049 225.085 30.5814 224.561 30.5814 223.919V223.738V219.808V219.711C30.5814 219.711 30.5388 218.991 29.9876 218.991C29.4353 218.991 27.7839 220.433 27.7839 220.433C27.7839 220.433 26.7657 220.942 26.7657 222.382C26.7657 223.824 26.7657 225.476 26.7657 225.476C26.7657 225.476 26.5962 227.214 27.7828 228.4C28.9694 229.587 34.0144 235.649 34.0144 235.649C34.0144 235.649 35.329 237.344 35.329 238.702C35.329 240.058 35.329 242.856 35.329 242.856C35.329 242.856 35.0742 244.508 37.1094 246.586C39.1437 248.662 47.9181 257.776 47.9181 257.776C47.9181 257.776 48.7667 258.877 48.7667 262.016C48.7667 265.152 48.7667 268.713 48.7667 268.713C48.7667 268.713 48.5972 272.442 51.141 274.818C53.6848 277.193 60.8899 285.076 60.8899 285.076C60.8899 285.076 62.5019 286.177 62.5019 289.231C62.5019 292.283 62.5019 303.346 62.5019 305.762C62.5019 308.178 61.6543 308.983 60.4677 310.002C59.2811 311.018 57.8396 312.078 57.8396 312.078C57.8396 312.078 56.9494 312.926 56.9494 314.962C56.9494 316.996 56.9494 320.091 56.9494 320.091C56.9494 320.091 56.7799 323.1 59.0689 323.1C61.3579 323.1 61.231 323.1 62.4603 323.1C63.6896 323.1 65.2579 323.1 67.3347 324.966C69.4127 326.832 69.6238 328.143 73.5248 328.143C77.4237 328.143 83.1041 328.143 87.8517 328.143C92.5992 328.143 94.5492 326.743 96.1602 324.455C97.7711 322.166 104.554 313.433 104.554 313.433C104.554 313.433 107.098 309.789 114.728 309.789C122.358 309.789 135.076 309.789 140.587 309.789C146.097 309.789 146.69 308.603 148.216 306.651C149.743 304.703 154.066 297.242 154.066 297.242C154.066 297.242 155.422 294.019 162.036 291.644C168.649 289.272 213.922 272.653 213.922 272.653C213.922 272.653 228.42 268.924 239.102 273.925C249.785 278.926 267.926 289.78 267.926 289.78C267.926 289.78 271.658 292.237 272.252 296.899C272.843 301.564 274.541 314.196 274.541 314.196C274.541 314.196 275.008 316.697 277.083 316.697C279.161 316.697 278.864 316.697 281.279 316.697C283.697 316.697 283.782 314.789 284.502 312.797C285.222 310.804 287.171 304.997 287.171 304.997C287.171 304.997 287.639 303.47 290.437 302.496C293.235 301.521 297.559 300.207 297.559 300.207C297.559 300.207 299.044 299.782 300.145 297.579C301.246 295.374 304.172 286.767 304.172 286.767C304.524 285.509 306.632 285.421 306.632 288.337C306.632 291.25 306.632 291.555 306.632 293.399C306.632 295.244 305.417 298.949 302.873 302.568C300.331 306.186 299.596 307.372 298.86 308.332C298.126 309.293 298.24 310.112 298.24 311.441C298.24 312.769 298.24 313.956 298.24 315.03C298.24 316.105 298.86 316.33 299.596 316.33C300.331 316.33 300.981 316.161 301.829 314.86C302.678 313.56 306.945 306.72 306.945 306.72C307.911 305.175 309.079 306.038 309.079 308.557C309.079 311.074 309.079 309.346 309.079 310.335C309.079 311.324 308.992 312.172 310.264 313.527C311.534 314.884 325.721 330.767 325.721 330.767C325.721 330.767 326.85 332.46 326.85 337.661C326.85 342.861 326.85 343.088 326.85 347.836C326.85 352.583 327.021 353.317 329.45 355.522C331.88 357.724 337.929 363.094 337.929 363.094C337.929 363.094 339.199 364.196 340.444 364.196C341.688 364.196 341.886 364.196 342.732 364.196C343.58 364.196 344.004 364.225 344.004 363.377C344.004 362.529 344.004 361.626 344.004 361.626C344.004 361.626 343.904 360.75 344.612 360.848C345.318 360.948 359.559 370.287 359.559 370.287C359.559 370.287 361.283 371.248 362.895 370.455C364.507 369.664 373.522 362.035 373.522 362.035C373.522 362.035 375.894 359.971 377.843 361.893C379.794 363.815 387.196 372.519 387.196 372.519C387.196 372.519 388.271 373.845 390.078 373.845C391.887 373.845 392.623 373.845 394.205 373.845C395.787 373.845 396.493 373.564 397.426 372.602C398.359 371.643 401.778 364.32 412.631 364.32C412.631 364.32 419.697 364.32 422.351 364.32C425.008 364.32 425.235 363.757 426.366 362.711C427.498 361.664 429.475 359.543 429.475 359.543C429.475 359.543 430.606 358.554 430.013 357.057C429.419 355.56 428.826 354.146 428.826 354.146C428.826 354.146 428.175 352.862 429.659 351.616C431.144 350.373 432.401 349.244 432.401 349.244C432.401 349.244 433.107 348.678 433.107 347.717C433.107 346.756 433.107 339.084 433.107 339.084C433.107 339.084 432.794 337.133 436.299 334.307C439.801 331.482 442.346 329.333 442.346 329.333C442.346 329.333 443.757 328.09 443.757 326.055C443.757 324.021 443.757 322.663 443.757 322.663C443.757 322.663 443.474 321.363 446.187 318.367C448.901 315.373 481.116 268.177 481.116 268.177C481.116 268.177 485.639 262.072 485.639 253.143C485.639 244.211 485.639 226.35 485.639 216.177C485.639 206.004 480.55 201.03 477.272 196.848C473.992 192.664 463.368 178.987 463.368 178.987C463.368 178.987 462.462 178.083 462.462 176.048C462.462 174.014 462.462 170.339 462.462 170.339C462.462 170.339 462.857 168.135 460.71 168.135C458.561 168.135 452.572 168.135 452.572 168.135C452.572 168.135 450.819 168.418 450.819 166.383C450.819 164.347 450.819 161.636 450.819 157.17C450.819 152.705 450.196 151.631 448.557 148.975C446.919 146.318 417.978 117.323 417.978 117.323C417.978 117.323 415.153 115.289 415.153 110.257C415.153 105.227 415.153 100.838 415.153 97.3762C415.153 93.9145 413.247 89.6349 410.805 86.719C408.365 83.8031 406.938 82.5152 406.938 78.3786C406.938 74.2408 406.938 70.5946 406.938 65.6136C406.938 60.6325 402.671 57.4821 390.69 49.4561C390.69 49.4561 387.806 47.6479 387.806 43.2394C387.806 38.8298 387.806 39.6145 387.806 36.8553C387.806 34.095 387.377 31.1152 385.499 27.6918C383.622 24.2694 377.734 9.78154 377.734 9.78154C377.734 9.78154 376.775 7.68976 374.909 8.0853C373.043 8.48084 372.308 11.0247 371.404 14.8671C370.5 18.7105 361.965 43.862 361.965 43.862C361.965 43.862 361.061 47.9315 361.061 53.0192C361.061 58.1058 361.061 59.0098 361.061 62.6273C361.061 66.2447 360.27 70.0882 355.295 78.9052C350.32 87.7233 348.173 91.9048 348.173 91.9048C348.173 91.9048 347.042 94.1661 340.485 94.1661C333.93 94.1661 329.972 89.0795 307.817 72.1235C285.659 55.1674 284.755 53.8102 284.755 53.8102C284.755 53.8102 280.458 50.6448 284.301 45.3333C288.145 40.0207 299.223 23.5167 299.223 23.5167C299.223 23.5167 302.161 18.9387 297.584 18.9387C293.005 18.9387 264.577 18.9387 250.108 18.9387C235.638 18.9387 235.187 20.5774 227.047 24.8729C218.908 29.1684 217.326 29.9595 213.821 31.8807C210.317 33.8029 208.848 36.1762 207.831 40.1326C206.812 44.0891 203.874 54.0373 203.874 54.0373C203.874 54.0373 203.592 57.1462 200.37 57.1462C197.149 57.1462 196.245 57.1462 191.723 57.1462C187.202 57.1462 186.24 55.224 184.036 53.3593C181.833 51.4935 174.767 44.3162 174.767 44.3162C174.767 44.3162 172.79 42.508 170.188 43.4121C167.589 44.3162 155.324 55.112 155.324 55.112C155.324 55.112 153.346 56.6377 153.346 59.802C153.346 62.9685 153.346 63.4194 153.346 65.2287C153.346 67.0369 152.894 71.7855 150.747 74.0468C148.598 76.307 136.503 86.3683 136.503 86.3683C136.503 86.3683 133.225 88.798 130.173 85.6337C127.121 82.4736 125.765 78.4596 123.47 80.7795Z" fill="url(#paint0_linear_2_107)"/>
</g>
<path opacity="0.3" fill-rule="evenodd" clip-rule="evenodd" d="M197.414 278.711L199.977 277.77V203.942H315.353H329.823C334.444 203.942 338.643 205.833 341.691 208.879C344.737 211.924 346.628 216.126 346.628 220.746V243.807V304.397V361.986C347.307 362.403 348.115 362.906 348.994 363.462C349.118 363.264 349.192 363.032 349.192 362.779V305.679H363.735C369.407 305.679 373.614 309.111 379.842 314.196L381.241 315.336C386.497 319.607 414.539 340.404 429.679 351.602C430.454 350.953 431.168 350.335 431.667 349.895C416.658 338.792 388.126 317.635 382.856 313.352L381.455 312.214C374.802 306.783 370.31 303.116 363.736 303.116H349.193V245.09H485.641V242.525H349.191V220.746C349.191 215.419 347.011 210.577 343.502 207.067C339.993 203.558 335.152 201.379 329.823 201.379H316.634V78.9831C315.815 78.337 314.962 77.6654 314.073 76.9681V201.378H199.977V57.1516H197.414V202.659V278.711Z" fill="#F1F1F1"/>
<g filter="url(#filter1_d_2_107)">
<path fill-rule="evenodd" clip-rule="evenodd" d="M367.388 383.784C367.388 383.784 368.745 383.784 372.588 383.784C376.431 383.784 378.014 384.575 382.083 388.532C386.153 392.488 386.83 393.958 392.936 393.958C399.04 393.958 401.188 393.958 403.899 393.958C406.613 393.958 408.987 395.54 408.195 398.931C407.404 402.323 400.734 420.183 399.945 421.878C399.152 423.575 397.346 423.225 396.438 421.653C395.53 420.08 394.348 421.03 393.104 422.386C391.861 423.743 388.13 428.718 388.13 428.718C388.13 428.718 386.435 431.373 384.23 428.999C382.027 426.625 376.43 418.43 376.43 418.43C376.43 418.43 375.187 416.818 376.318 415.179C377.447 413.54 378.098 412.807 377.251 411.45C376.401 410.094 366.51 395.595 365.211 393.448C363.911 391.298 363.457 388.246 363.457 385.987C363.457 383.726 365.238 383.755 367.388 383.784Z" fill="url(#paint1_linear_2_107)"/>
</g>
<path d="M401.999 43C398.005 43 394.756 46.2493 394.756 50.2432C394.756 55.1998 401.238 62.4763 401.514 62.7836C401.773 63.0723 402.226 63.0718 402.484 62.7836C402.76 62.4763 409.242 55.1998 409.242 50.2432C409.242 46.2493 405.993 43 401.999 43ZM401.999 53.8875C399.99 53.8875 398.355 52.2527 398.355 50.2432C398.355 48.2338 399.99 46.599 401.999 46.599C404.009 46.599 405.643 48.2338 405.643 50.2432C405.643 52.2527 404.009 53.8875 401.999 53.8875Z" fill="#0399F0"/>
<path d="M424.207 51.6108H422.878C422.827 51.3267 422.732 51.0767 422.592 50.8608C422.453 50.6449 422.283 50.4616 422.081 50.3111C421.879 50.1605 421.653 50.0469 421.403 49.9702C421.156 49.8935 420.893 49.8551 420.615 49.8551C420.112 49.8551 419.662 49.9815 419.264 50.2344C418.869 50.4872 418.557 50.858 418.327 51.3466C418.099 51.8352 417.986 52.4318 417.986 53.1364C417.986 53.8466 418.099 54.446 418.327 54.9347C418.557 55.4233 418.871 55.7926 419.268 56.0426C419.666 56.2926 420.114 56.4176 420.611 56.4176C420.886 56.4176 421.148 56.3807 421.395 56.3068C421.645 56.2301 421.871 56.1179 422.072 55.9702C422.274 55.8224 422.445 55.642 422.584 55.429C422.726 55.2131 422.824 54.9659 422.878 54.6875L424.207 54.6918C424.136 55.1207 423.999 55.5156 423.794 55.8764C423.592 56.2344 423.332 56.544 423.014 56.8054C422.699 57.0639 422.338 57.2642 421.932 57.4062C421.526 57.5483 421.082 57.6193 420.602 57.6193C419.847 57.6193 419.173 57.4403 418.582 57.0824C417.991 56.7216 417.526 56.206 417.185 55.5355C416.847 54.8651 416.678 54.0653 416.678 53.1364C416.678 52.2045 416.848 51.4048 417.189 50.7372C417.53 50.0668 417.996 49.5526 418.587 49.1946C419.178 48.8338 419.849 48.6534 420.602 48.6534C421.065 48.6534 421.497 48.7202 421.898 48.8537C422.301 48.9844 422.663 49.1776 422.984 49.4332C423.305 49.6861 423.571 49.9957 423.781 50.3622C423.991 50.7259 424.134 51.142 424.207 51.6108ZM426.462 57.5H425.064L428.205 48.7727H429.726L432.866 57.5H431.469L429.001 50.358H428.933L426.462 57.5ZM426.696 54.0824H431.23V55.1903H426.696V54.0824ZM435.444 48.7727V57.5H434.127V48.7727H435.444ZM437.361 57.5V48.7727H440.472C441.148 48.7727 441.709 48.8892 442.155 49.1222C442.604 49.3551 442.939 49.6776 443.161 50.0895C443.382 50.4986 443.493 50.9716 443.493 51.5085C443.493 52.0426 443.381 52.5128 443.157 52.919C442.935 53.3224 442.6 53.6364 442.151 53.8608C441.705 54.0852 441.144 54.1974 440.468 54.1974H438.111V53.0639H440.348C440.775 53.0639 441.121 53.0028 441.388 52.8807C441.658 52.7585 441.855 52.581 441.98 52.348C442.105 52.1151 442.168 51.8352 442.168 51.5085C442.168 51.179 442.104 50.8935 441.976 50.652C441.851 50.4105 441.654 50.2259 441.384 50.098C441.117 49.9673 440.766 49.902 440.331 49.902H438.678V57.5H437.361ZM441.669 53.5625L443.826 57.5H442.326L440.212 53.5625H441.669ZM452.14 48.7727V57.5H450.929L446.493 51.0994H446.412V57.5H445.096V48.7727H446.314L450.755 55.1818H450.836V48.7727H452.14ZM458.82 51.0653C458.775 50.6619 458.587 50.3494 458.258 50.1278C457.928 49.9034 457.513 49.7912 457.013 49.7912C456.656 49.7912 456.346 49.848 456.085 49.9616C455.823 50.0724 455.62 50.2259 455.475 50.4219C455.333 50.6151 455.262 50.8352 455.262 51.0824C455.262 51.2898 455.31 51.4687 455.407 51.6193C455.506 51.7699 455.636 51.8963 455.795 51.9986C455.957 52.098 456.13 52.1818 456.315 52.25C456.499 52.3153 456.677 52.3693 456.847 52.4119L457.7 52.6335C457.978 52.7017 458.263 52.794 458.556 52.9105C458.849 53.027 459.12 53.1804 459.37 53.3707C459.62 53.5611 459.822 53.7969 459.975 54.0781C460.131 54.3594 460.21 54.696 460.21 55.0881C460.21 55.5824 460.082 56.0213 459.826 56.4048C459.573 56.7884 459.205 57.0909 458.722 57.3125C458.242 57.5341 457.661 57.6449 456.979 57.6449C456.326 57.6449 455.761 57.5412 455.283 57.3338C454.806 57.1264 454.433 56.8324 454.163 56.4517C453.893 56.0682 453.744 55.6136 453.715 55.0881H455.036C455.062 55.4034 455.164 55.6662 455.343 55.8764C455.525 56.0838 455.756 56.2386 456.038 56.3409C456.322 56.4403 456.633 56.4901 456.971 56.4901C457.343 56.4901 457.674 56.4318 457.964 56.3153C458.256 56.196 458.487 56.0312 458.654 55.821C458.822 55.608 458.906 55.3594 458.906 55.0753C458.906 54.8168 458.832 54.6051 458.684 54.4403C458.539 54.2756 458.342 54.1392 458.092 54.0312C457.844 53.9233 457.565 53.8281 457.252 53.7457L456.221 53.4645C455.522 53.2741 454.968 52.9943 454.559 52.625C454.153 52.2557 453.95 51.767 453.95 51.1591C453.95 50.6562 454.086 50.2173 454.359 49.8423C454.631 49.4673 455.001 49.1761 455.467 48.9688C455.933 48.7585 456.458 48.6534 457.043 48.6534C457.634 48.6534 458.156 48.7571 458.607 48.9645C459.062 49.1719 459.42 49.4574 459.681 49.821C459.942 50.1818 460.079 50.5966 460.09 51.0653H458.82Z" fill="black"/>
<path d="M326.696 126H325.298L328.439 117.273H329.96L333.101 126H331.703L329.236 118.858H329.168L326.696 126ZM326.93 122.582H331.464V123.69H326.93V122.582ZM335.678 117.273V126H334.361V117.273H335.678ZM337.596 126V117.273H340.706C341.382 117.273 341.944 117.389 342.39 117.622C342.838 117.855 343.174 118.178 343.395 118.589C343.617 118.999 343.728 119.472 343.728 120.009C343.728 120.543 343.615 121.013 343.391 121.419C343.169 121.822 342.834 122.136 342.385 122.361C341.939 122.585 341.378 122.697 340.702 122.697H338.346V121.564H340.583C341.009 121.564 341.355 121.503 341.623 121.381C341.892 121.259 342.09 121.081 342.215 120.848C342.34 120.615 342.402 120.335 342.402 120.009C342.402 119.679 342.338 119.393 342.211 119.152C342.086 118.911 341.888 118.726 341.618 118.598C341.351 118.467 341 118.402 340.566 118.402H338.912V126H337.596ZM341.904 122.062L344.06 126H342.56L340.446 122.062H341.904ZM345.33 126V117.273H346.647V124.866H350.601V126H345.33ZM353.42 117.273V126H352.103V117.273H353.42ZM355.338 126V117.273H360.809V118.406H356.654V121.065H360.524V122.195H356.654V124.866H360.86V126H355.338ZM365.744 126V117.273H368.94C369.559 117.273 370.072 117.375 370.478 117.58C370.885 117.781 371.189 118.055 371.39 118.402C371.592 118.746 371.693 119.134 371.693 119.565C371.693 119.929 371.626 120.236 371.493 120.486C371.359 120.733 371.18 120.932 370.956 121.082C370.734 121.23 370.49 121.338 370.223 121.406V121.491C370.512 121.506 370.795 121.599 371.071 121.773C371.349 121.943 371.579 122.186 371.761 122.501C371.943 122.817 372.034 123.2 372.034 123.652C372.034 124.098 371.929 124.499 371.718 124.854C371.511 125.206 371.19 125.486 370.755 125.693C370.321 125.898 369.765 126 369.089 126H365.744ZM367.061 124.871H368.961C369.592 124.871 370.044 124.749 370.316 124.504C370.589 124.26 370.725 123.955 370.725 123.588C370.725 123.312 370.656 123.06 370.517 122.83C370.377 122.599 370.179 122.416 369.92 122.28C369.664 122.143 369.36 122.075 369.008 122.075H367.061V124.871ZM367.061 121.048H368.825C369.12 121.048 369.386 120.991 369.622 120.878C369.86 120.764 370.049 120.605 370.189 120.401C370.331 120.193 370.402 119.949 370.402 119.668C370.402 119.307 370.275 119.004 370.022 118.76C369.77 118.516 369.382 118.393 368.859 118.393H367.061V121.048ZM373.596 126V117.273H379.067V118.406H374.912V121.065H378.782V122.195H374.912V124.866H379.118V126H373.596ZM381.563 126H380.165L383.306 117.273H384.827L387.968 126H386.57L384.103 118.858H384.035L381.563 126ZM381.798 122.582H386.332V123.69H381.798V122.582ZM396.067 120.111H394.737C394.686 119.827 394.591 119.577 394.452 119.361C394.313 119.145 394.142 118.962 393.94 118.811C393.739 118.661 393.513 118.547 393.263 118.47C393.016 118.393 392.753 118.355 392.474 118.355C391.972 118.355 391.521 118.482 391.124 118.734C390.729 118.987 390.416 119.358 390.186 119.847C389.959 120.335 389.845 120.932 389.845 121.636C389.845 122.347 389.959 122.946 390.186 123.435C390.416 123.923 390.73 124.293 391.128 124.543C391.526 124.793 391.973 124.918 392.47 124.918C392.746 124.918 393.007 124.881 393.254 124.807C393.504 124.73 393.73 124.618 393.932 124.47C394.134 124.322 394.304 124.142 394.443 123.929C394.585 123.713 394.683 123.466 394.737 123.188L396.067 123.192C395.996 123.621 395.858 124.016 395.653 124.376C395.452 124.734 395.192 125.044 394.874 125.305C394.558 125.564 394.197 125.764 393.791 125.906C393.385 126.048 392.942 126.119 392.462 126.119C391.706 126.119 391.033 125.94 390.442 125.582C389.851 125.222 389.385 124.706 389.044 124.036C388.706 123.365 388.537 122.565 388.537 121.636C388.537 120.705 388.707 119.905 389.048 119.237C389.389 118.567 389.855 118.053 390.446 117.695C391.037 117.334 391.709 117.153 392.462 117.153C392.925 117.153 393.357 117.22 393.757 117.354C394.161 117.484 394.523 117.678 394.844 117.933C395.165 118.186 395.43 118.496 395.641 118.862C395.851 119.226 395.993 119.642 396.067 120.111ZM397.642 126V117.273H398.959V121.065H403.31V117.273H404.631V126H403.31V122.195H398.959V126H397.642Z" fill="black"/>
<path d="M419.999 109C416.005 109 412.756 112.249 412.756 116.243C412.756 121.2 419.238 128.476 419.514 128.784C419.773 129.072 420.226 129.072 420.484 128.784C420.76 128.476 427.242 121.2 427.242 116.243C427.242 112.249 423.993 109 419.999 109ZM419.999 119.887C417.99 119.887 416.355 118.253 416.355 116.243C416.355 114.234 417.99 112.599 419.999 112.599C422.009 112.599 423.643 114.234 423.643 116.243C423.643 118.253 422.009 119.887 419.999 119.887Z" fill="#0399F0"/>
<path d="M371.959 157V148.273H375.155C375.774 148.273 376.287 148.375 376.693 148.58C377.099 148.781 377.403 149.055 377.605 149.402C377.807 149.746 377.908 150.134 377.908 150.565C377.908 150.929 377.841 151.236 377.707 151.486C377.574 151.733 377.395 151.932 377.17 152.082C376.949 152.23 376.705 152.338 376.438 152.406V152.491C376.727 152.506 377.01 152.599 377.286 152.773C377.564 152.943 377.794 153.186 377.976 153.501C378.158 153.817 378.249 154.2 378.249 154.652C378.249 155.098 378.143 155.499 377.933 155.854C377.726 156.206 377.405 156.486 376.97 156.693C376.536 156.898 375.98 157 375.304 157H371.959ZM373.276 155.871H375.176C375.807 155.871 376.259 155.749 376.531 155.504C376.804 155.26 376.94 154.955 376.94 154.588C376.94 154.312 376.871 154.06 376.732 153.83C376.592 153.599 376.393 153.416 376.135 153.28C375.879 153.143 375.575 153.075 375.223 153.075H373.276V155.871ZM373.276 152.048H375.04C375.335 152.048 375.601 151.991 375.837 151.878C376.075 151.764 376.264 151.605 376.403 151.401C376.545 151.193 376.616 150.949 376.616 150.668C376.616 150.307 376.49 150.004 376.237 149.76C375.984 149.516 375.597 149.393 375.074 149.393H373.276V152.048ZM379.81 157V148.273H382.921C383.597 148.273 384.158 148.389 384.604 148.622C385.053 148.855 385.388 149.178 385.61 149.589C385.832 149.999 385.942 150.472 385.942 151.009C385.942 151.543 385.83 152.013 385.606 152.419C385.384 152.822 385.049 153.136 384.6 153.361C384.154 153.585 383.593 153.697 382.917 153.697H380.56V152.564H382.798C383.224 152.564 383.57 152.503 383.837 152.381C384.107 152.259 384.305 152.081 384.43 151.848C384.555 151.615 384.617 151.335 384.617 151.009C384.617 150.679 384.553 150.393 384.425 150.152C384.3 149.911 384.103 149.726 383.833 149.598C383.566 149.467 383.215 149.402 382.781 149.402H381.127V157H379.81ZM384.119 153.062L386.275 157H384.775L382.661 153.062H384.119ZM388.862 148.273V157H387.545V148.273H388.862ZM395.539 150.565C395.494 150.162 395.306 149.849 394.977 149.628C394.647 149.403 394.232 149.291 393.732 149.291C393.374 149.291 393.065 149.348 392.803 149.462C392.542 149.572 392.339 149.726 392.194 149.922C392.052 150.115 391.981 150.335 391.981 150.582C391.981 150.79 392.029 150.969 392.126 151.119C392.225 151.27 392.354 151.396 392.513 151.499C392.675 151.598 392.849 151.682 393.033 151.75C393.218 151.815 393.396 151.869 393.566 151.912L394.418 152.134C394.697 152.202 394.982 152.294 395.275 152.411C395.567 152.527 395.839 152.68 396.089 152.871C396.339 153.061 396.54 153.297 396.694 153.578C396.85 153.859 396.928 154.196 396.928 154.588C396.928 155.082 396.8 155.521 396.545 155.905C396.292 156.288 395.924 156.591 395.441 156.812C394.961 157.034 394.38 157.145 393.698 157.145C393.045 157.145 392.479 157.041 392.002 156.834C391.525 156.626 391.151 156.332 390.881 155.952C390.612 155.568 390.462 155.114 390.434 154.588H391.755C391.781 154.903 391.883 155.166 392.062 155.376C392.244 155.584 392.475 155.739 392.756 155.841C393.04 155.94 393.352 155.99 393.69 155.99C394.062 155.99 394.393 155.932 394.683 155.815C394.975 155.696 395.205 155.531 395.373 155.321C395.54 155.108 395.624 154.859 395.624 154.575C395.624 154.317 395.55 154.105 395.403 153.94C395.258 153.776 395.06 153.639 394.81 153.531C394.563 153.423 394.283 153.328 393.971 153.246L392.94 152.964C392.241 152.774 391.687 152.494 391.278 152.125C390.871 151.756 390.668 151.267 390.668 150.659C390.668 150.156 390.805 149.717 391.077 149.342C391.35 148.967 391.719 148.676 392.185 148.469C392.651 148.259 393.177 148.153 393.762 148.153C394.353 148.153 394.874 148.257 395.326 148.464C395.781 148.672 396.138 148.957 396.4 149.321C396.661 149.682 396.798 150.097 396.809 150.565H395.539ZM398.502 157V148.273H401.698C402.317 148.273 402.83 148.375 403.236 148.58C403.642 148.781 403.946 149.055 404.148 149.402C404.35 149.746 404.451 150.134 404.451 150.565C404.451 150.929 404.384 151.236 404.25 151.486C404.117 151.733 403.938 151.932 403.713 152.082C403.492 152.23 403.248 152.338 402.98 152.406V152.491C403.27 152.506 403.553 152.599 403.828 152.773C404.107 152.943 404.337 153.186 404.519 153.501C404.701 153.817 404.792 154.2 404.792 154.652C404.792 155.098 404.686 155.499 404.476 155.854C404.269 156.206 403.948 156.486 403.513 156.693C403.078 156.898 402.523 157 401.847 157H398.502ZM399.819 155.871H401.719C402.35 155.871 402.801 155.749 403.074 155.504C403.347 155.26 403.483 154.955 403.483 154.588C403.483 154.312 403.414 154.06 403.275 153.83C403.135 153.599 402.936 153.416 402.678 153.28C402.422 153.143 402.118 153.075 401.766 153.075H399.819V155.871ZM399.819 152.048H401.583C401.878 152.048 402.144 151.991 402.38 151.878C402.618 151.764 402.807 151.605 402.946 151.401C403.088 151.193 403.159 150.949 403.159 150.668C403.159 150.307 403.033 150.004 402.78 149.76C402.527 149.516 402.14 149.393 401.617 149.393H399.819V152.048ZM407.091 157H405.693L408.833 148.273H410.355L413.495 157H412.098L409.63 149.858H409.562L407.091 157ZM407.325 153.582H411.859V154.69H407.325V153.582ZM421.8 148.273V157H420.589L416.153 150.599H416.072V157H414.756V148.273H415.974L420.415 154.682H420.496V148.273H421.8ZM423.721 157V148.273H429.192V149.406H425.037V152.065H428.907V153.195H425.037V155.866H429.243V157H423.721Z" fill="black"/>
<path d="M443.999 140C440.005 140 436.756 143.249 436.756 147.243C436.756 152.2 443.238 159.476 443.514 159.784C443.773 160.072 444.226 160.072 444.484 159.784C444.76 159.476 451.242 152.2 451.242 147.243C451.242 143.249 447.993 140 443.999 140ZM443.999 150.887C441.99 150.887 440.355 149.253 440.355 147.243C440.355 145.234 441.99 143.599 443.999 143.599C446.009 143.599 447.643 145.234 447.643 147.243C447.643 149.253 446.009 150.887 443.999 150.887Z" fill="#0399F0"/>
<path d="M378.865 181.03C378.783 180.771 378.672 180.54 378.533 180.335C378.396 180.128 378.233 179.952 378.043 179.807C377.852 179.659 377.635 179.547 377.391 179.47C377.149 179.393 376.884 179.355 376.594 179.355C376.102 179.355 375.659 179.482 375.264 179.734C374.869 179.987 374.557 180.358 374.327 180.847C374.099 181.332 373.986 181.928 373.986 182.632C373.986 183.339 374.101 183.937 374.331 184.426C374.561 184.915 374.876 185.286 375.277 185.538C375.678 185.791 376.134 185.918 376.645 185.918C377.119 185.918 377.533 185.821 377.885 185.628C378.24 185.435 378.514 185.162 378.707 184.81C378.903 184.455 379.001 184.037 379.001 183.557L379.342 183.621H376.845V182.534H380.276V183.527C380.276 184.26 380.119 184.896 379.807 185.436C379.497 185.973 379.068 186.388 378.52 186.68C377.974 186.973 377.349 187.119 376.645 187.119C375.855 187.119 375.162 186.938 374.565 186.574C373.972 186.21 373.509 185.695 373.176 185.027C372.844 184.357 372.678 183.561 372.678 182.641C372.678 181.945 372.774 181.32 372.967 180.766C373.161 180.212 373.432 179.741 373.781 179.355C374.134 178.966 374.547 178.669 375.021 178.464C375.499 178.257 376.02 178.153 376.585 178.153C377.057 178.153 377.496 178.223 377.902 178.362C378.311 178.501 378.675 178.699 378.993 178.955C379.314 179.21 379.58 179.514 379.79 179.866C380 180.216 380.142 180.604 380.216 181.03H378.865ZM389.528 182.636C389.528 183.568 389.358 184.369 389.017 185.04C388.676 185.707 388.208 186.222 387.615 186.582C387.024 186.94 386.352 187.119 385.599 187.119C384.843 187.119 384.169 186.94 383.575 186.582C382.984 186.222 382.518 185.706 382.177 185.036C381.836 184.365 381.666 183.565 381.666 182.636C381.666 181.705 381.836 180.905 382.177 180.237C382.518 179.567 382.984 179.053 383.575 178.695C384.169 178.334 384.843 178.153 385.599 178.153C386.352 178.153 387.024 178.334 387.615 178.695C388.208 179.053 388.676 179.567 389.017 180.237C389.358 180.905 389.528 181.705 389.528 182.636ZM388.224 182.636C388.224 181.926 388.109 181.328 387.879 180.842C387.652 180.354 387.339 179.984 386.941 179.734C386.547 179.482 386.099 179.355 385.599 179.355C385.096 179.355 384.647 179.482 384.252 179.734C383.858 179.984 383.545 180.354 383.315 180.842C383.088 181.328 382.974 181.926 382.974 182.636C382.974 183.347 383.088 183.946 383.315 184.435C383.545 184.92 383.858 185.29 384.252 185.543C384.647 185.793 385.096 185.918 385.599 185.918C386.099 185.918 386.547 185.793 386.941 185.543C387.339 185.29 387.652 184.92 387.879 184.435C388.109 183.946 388.224 183.347 388.224 182.636ZM391.17 187V178.273H392.487V185.866H396.441V187H391.17ZM400.768 187H397.943V178.273H400.858C401.713 178.273 402.447 178.447 403.061 178.797C403.675 179.143 404.145 179.642 404.472 180.293C404.801 180.94 404.966 181.717 404.966 182.624C404.966 183.533 404.8 184.314 404.467 184.967C404.138 185.621 403.661 186.124 403.036 186.476C402.411 186.825 401.655 187 400.768 187ZM399.26 185.849H400.696C401.361 185.849 401.913 185.724 402.354 185.474C402.794 185.222 403.124 184.857 403.342 184.379C403.561 183.899 403.67 183.314 403.67 182.624C403.67 181.939 403.561 181.358 403.342 180.881C403.126 180.403 402.804 180.041 402.375 179.794C401.946 179.547 401.413 179.423 400.777 179.423H399.26V185.849ZM417.028 181.111H415.698C415.647 180.827 415.552 180.577 415.413 180.361C415.273 180.145 415.103 179.962 414.901 179.811C414.7 179.661 414.474 179.547 414.224 179.47C413.977 179.393 413.714 179.355 413.435 179.355C412.933 179.355 412.482 179.482 412.085 179.734C411.69 179.987 411.377 180.358 411.147 180.847C410.92 181.335 410.806 181.932 410.806 182.636C410.806 183.347 410.92 183.946 411.147 184.435C411.377 184.923 411.691 185.293 412.089 185.543C412.487 185.793 412.934 185.918 413.431 185.918C413.707 185.918 413.968 185.881 414.215 185.807C414.465 185.73 414.691 185.618 414.893 185.47C415.094 185.322 415.265 185.142 415.404 184.929C415.546 184.713 415.644 184.466 415.698 184.188L417.028 184.192C416.957 184.621 416.819 185.016 416.614 185.376C416.413 185.734 416.153 186.044 415.835 186.305C415.519 186.564 415.158 186.764 414.752 186.906C414.346 187.048 413.903 187.119 413.423 187.119C412.667 187.119 411.994 186.94 411.403 186.582C410.812 186.222 410.346 185.706 410.005 185.036C409.667 184.365 409.498 183.565 409.498 182.636C409.498 181.705 409.668 180.905 410.009 180.237C410.35 179.567 410.816 179.053 411.407 178.695C411.998 178.334 412.67 178.153 413.423 178.153C413.886 178.153 414.317 178.22 414.718 178.354C415.121 178.484 415.484 178.678 415.805 178.933C416.126 179.186 416.391 179.496 416.602 179.862C416.812 180.226 416.954 180.642 417.028 181.111ZM426.184 182.636C426.184 183.568 426.014 184.369 425.673 185.04C425.332 185.707 424.865 186.222 424.271 186.582C423.68 186.94 423.008 187.119 422.255 187.119C421.5 187.119 420.825 186.94 420.231 186.582C419.64 186.222 419.174 185.706 418.833 185.036C418.493 184.365 418.322 183.565 418.322 182.636C418.322 181.705 418.493 180.905 418.833 180.237C419.174 179.567 419.64 179.053 420.231 178.695C420.825 178.334 421.5 178.153 422.255 178.153C423.008 178.153 423.68 178.334 424.271 178.695C424.865 179.053 425.332 179.567 425.673 180.237C426.014 180.905 426.184 181.705 426.184 182.636ZM424.88 182.636C424.88 181.926 424.765 181.328 424.535 180.842C424.308 180.354 423.995 179.984 423.598 179.734C423.203 179.482 422.755 179.355 422.255 179.355C421.752 179.355 421.304 179.482 420.909 179.734C420.514 179.984 420.201 180.354 419.971 180.842C419.744 181.328 419.63 181.926 419.63 182.636C419.63 183.347 419.744 183.946 419.971 184.435C420.201 184.92 420.514 185.29 420.909 185.543C421.304 185.793 421.752 185.918 422.255 185.918C422.755 185.918 423.203 185.793 423.598 185.543C423.995 185.29 424.308 184.92 424.535 184.435C424.765 183.946 424.88 183.347 424.88 182.636ZM428.13 187H426.732L429.873 178.273H431.394L434.534 187H433.137L430.669 179.858H430.601L428.13 187ZM428.364 183.582H432.898V184.69H428.364V183.582ZM440.484 180.565C440.439 180.162 440.251 179.849 439.922 179.628C439.592 179.403 439.178 179.291 438.678 179.291C438.32 179.291 438.01 179.348 437.749 179.462C437.487 179.572 437.284 179.726 437.139 179.922C436.997 180.115 436.926 180.335 436.926 180.582C436.926 180.79 436.974 180.969 437.071 181.119C437.17 181.27 437.3 181.396 437.459 181.499C437.621 181.598 437.794 181.682 437.979 181.75C438.163 181.815 438.341 181.869 438.511 181.912L439.364 182.134C439.642 182.202 439.928 182.294 440.22 182.411C440.513 182.527 440.784 182.68 441.034 182.871C441.284 183.061 441.486 183.297 441.639 183.578C441.795 183.859 441.874 184.196 441.874 184.588C441.874 185.082 441.746 185.521 441.49 185.905C441.237 186.288 440.869 186.591 440.386 186.812C439.906 187.034 439.325 187.145 438.643 187.145C437.99 187.145 437.425 187.041 436.947 186.834C436.47 186.626 436.097 186.332 435.827 185.952C435.557 185.568 435.408 185.114 435.379 184.588H436.7C436.726 184.903 436.828 185.166 437.007 185.376C437.189 185.584 437.42 185.739 437.702 185.841C437.986 185.94 438.297 185.99 438.635 185.99C439.007 185.99 439.338 185.932 439.628 185.815C439.92 185.696 440.151 185.531 440.318 185.321C440.486 185.108 440.57 184.859 440.57 184.575C440.57 184.317 440.496 184.105 440.348 183.94C440.203 183.776 440.006 183.639 439.756 183.531C439.509 183.423 439.229 183.328 438.916 183.246L437.885 182.964C437.186 182.774 436.632 182.494 436.223 182.125C435.817 181.756 435.614 181.267 435.614 180.659C435.614 180.156 435.75 179.717 436.023 179.342C436.295 178.967 436.665 178.676 437.131 178.469C437.597 178.259 438.122 178.153 438.707 178.153C439.298 178.153 439.82 178.257 440.271 178.464C440.726 178.672 441.084 178.957 441.345 179.321C441.607 179.682 441.743 180.097 441.754 180.565H440.484ZM443.017 179.406V178.273H449.771V179.406H447.048V187H445.735V179.406H443.017Z" fill="black"/>
<path d="M464.999 170C461.005 170 457.756 173.249 457.756 177.243C457.756 182.2 464.238 189.476 464.514 189.784C464.773 190.072 465.226 190.072 465.484 189.784C465.76 189.476 472.242 182.2 472.242 177.243C472.242 173.249 468.993 170 464.999 170ZM464.999 180.887C462.99 180.887 461.355 179.253 461.355 177.243C461.355 175.234 462.99 173.599 464.999 173.599C467.009 173.599 468.643 175.234 468.643 177.243C468.643 179.253 467.009 180.887 464.999 180.887Z" fill="#0399F0"/>
<path d="M399.959 220V211.273H403.155C403.774 211.273 404.287 211.375 404.693 211.58C405.099 211.781 405.403 212.055 405.605 212.402C405.807 212.746 405.908 213.134 405.908 213.565C405.908 213.929 405.841 214.236 405.707 214.486C405.574 214.733 405.395 214.932 405.17 215.082C404.949 215.23 404.705 215.338 404.438 215.406V215.491C404.727 215.506 405.01 215.599 405.286 215.773C405.564 215.943 405.794 216.186 405.976 216.501C406.158 216.817 406.249 217.2 406.249 217.652C406.249 218.098 406.143 218.499 405.933 218.854C405.726 219.206 405.405 219.486 404.97 219.693C404.536 219.898 403.98 220 403.304 220H399.959ZM401.276 218.871H403.176C403.807 218.871 404.259 218.749 404.531 218.504C404.804 218.26 404.94 217.955 404.94 217.588C404.94 217.312 404.871 217.06 404.732 216.83C404.592 216.599 404.393 216.416 404.135 216.28C403.879 216.143 403.575 216.075 403.223 216.075H401.276V218.871ZM401.276 215.048H403.04C403.335 215.048 403.601 214.991 403.837 214.878C404.075 214.764 404.264 214.605 404.403 214.401C404.545 214.193 404.616 213.949 404.616 213.668C404.616 213.307 404.49 213.004 404.237 212.76C403.984 212.516 403.597 212.393 403.074 212.393H401.276V215.048ZM407.137 211.273H408.633L410.913 215.24H411.006L413.286 211.273H414.782L411.616 216.574V220H410.303V216.574L407.137 211.273ZM416.025 220V211.273H419.136C419.812 211.273 420.373 211.389 420.819 211.622C421.268 211.855 421.603 212.178 421.825 212.589C422.047 212.999 422.157 213.472 422.157 214.009C422.157 214.543 422.045 215.013 421.821 215.419C421.599 215.822 421.264 216.136 420.815 216.361C420.369 216.585 419.808 216.697 419.132 216.697H416.775V215.564H419.012C419.439 215.564 419.785 215.503 420.052 215.381C420.322 215.259 420.52 215.081 420.645 214.848C420.77 214.615 420.832 214.335 420.832 214.009C420.832 213.679 420.768 213.393 420.64 213.152C420.515 212.911 420.318 212.726 420.048 212.598C419.781 212.467 419.43 212.402 418.995 212.402H417.342V220H416.025ZM420.333 216.062L422.49 220H420.99L418.876 216.062H420.333ZM431.341 215.636C431.341 216.568 431.17 217.369 430.829 218.04C430.488 218.707 430.021 219.222 429.427 219.582C428.836 219.94 428.164 220.119 427.412 220.119C426.656 220.119 425.981 219.94 425.387 219.582C424.797 219.222 424.331 218.706 423.99 218.036C423.649 217.365 423.478 216.565 423.478 215.636C423.478 214.705 423.649 213.905 423.99 213.237C424.331 212.567 424.797 212.053 425.387 211.695C425.981 211.334 426.656 211.153 427.412 211.153C428.164 211.153 428.836 211.334 429.427 211.695C430.021 212.053 430.488 212.567 430.829 213.237C431.17 213.905 431.341 214.705 431.341 215.636ZM430.037 215.636C430.037 214.926 429.922 214.328 429.691 213.842C429.464 213.354 429.152 212.984 428.754 212.734C428.359 212.482 427.912 212.355 427.412 212.355C426.909 212.355 426.46 212.482 426.065 212.734C425.67 212.984 425.358 213.354 425.127 213.842C424.9 214.328 424.787 214.926 424.787 215.636C424.787 216.347 424.9 216.946 425.127 217.435C425.358 217.92 425.67 218.29 426.065 218.543C426.46 218.793 426.909 218.918 427.412 218.918C427.912 218.918 428.359 218.793 428.754 218.543C429.152 218.29 429.464 217.92 429.691 217.435C429.922 216.946 430.037 216.347 430.037 215.636ZM440.026 211.273V220H438.816L434.38 213.599H434.299V220H432.982V211.273H434.201L438.641 217.682H438.722V211.273H440.026ZM445.123 220V211.273H448.319C448.938 211.273 449.451 211.375 449.857 211.58C450.263 211.781 450.567 212.055 450.769 212.402C450.971 212.746 451.072 213.134 451.072 213.565C451.072 213.929 451.005 214.236 450.871 214.486C450.738 214.733 450.559 214.932 450.335 215.082C450.113 215.23 449.869 215.338 449.602 215.406V215.491C449.891 215.506 450.174 215.599 450.45 215.773C450.728 215.943 450.958 216.186 451.14 216.501C451.322 216.817 451.413 217.2 451.413 217.652C451.413 218.098 451.308 218.499 451.097 218.854C450.89 219.206 450.569 219.486 450.134 219.693C449.7 219.898 449.144 220 448.468 220H445.123ZM446.44 218.871H448.34C448.971 218.871 449.423 218.749 449.695 218.504C449.968 218.26 450.104 217.955 450.104 217.588C450.104 217.312 450.035 217.06 449.896 216.83C449.756 216.599 449.558 216.416 449.299 216.28C449.043 216.143 448.739 216.075 448.387 216.075H446.44V218.871ZM446.44 215.048H448.204C448.499 215.048 448.765 214.991 449.001 214.878C449.239 214.764 449.428 214.605 449.567 214.401C449.71 214.193 449.781 213.949 449.781 213.668C449.781 213.307 449.654 213.004 449.401 212.76C449.148 212.516 448.761 212.393 448.238 212.393H446.44V215.048ZM453.712 220H452.314L455.455 211.273H456.976L460.116 220H458.719L456.251 212.858H456.183L453.712 220ZM453.946 216.582H458.48V217.69H453.946V216.582ZM459.813 211.273H461.309L463.588 215.24H463.682L465.962 211.273H467.458L464.292 216.574V220H462.979V216.574L459.813 211.273Z" fill="black"/>
<path d="M481.999 203C478.005 203 474.756 206.249 474.756 210.243C474.756 215.2 481.238 222.476 481.514 222.784C481.773 223.072 482.226 223.072 482.484 222.784C482.76 222.476 489.242 215.2 489.242 210.243C489.242 206.249 485.993 203 481.999 203ZM481.999 213.887C479.99 213.887 478.355 212.253 478.355 210.243C478.355 208.234 479.99 206.599 481.999 206.599C484.009 206.599 485.643 208.234 485.643 210.243C485.643 212.253 484.009 213.887 481.999 213.887Z" fill="#0399F0"/>
<path d="M403.719 278.565C403.673 278.162 403.486 277.849 403.156 277.628C402.827 277.403 402.412 277.291 401.912 277.291C401.554 277.291 401.244 277.348 400.983 277.462C400.722 277.572 400.518 277.726 400.374 277.922C400.232 278.115 400.161 278.335 400.161 278.582C400.161 278.79 400.209 278.969 400.305 279.119C400.405 279.27 400.534 279.396 400.693 279.499C400.855 279.598 401.028 279.682 401.213 279.75C401.398 279.815 401.575 279.869 401.746 279.912L402.598 280.134C402.876 280.202 403.162 280.294 403.455 280.411C403.747 280.527 404.018 280.68 404.268 280.871C404.518 281.061 404.72 281.297 404.874 281.578C405.03 281.859 405.108 282.196 405.108 282.588C405.108 283.082 404.98 283.521 404.724 283.905C404.472 284.288 404.104 284.591 403.621 284.812C403.141 285.034 402.56 285.145 401.878 285.145C401.224 285.145 400.659 285.041 400.182 284.834C399.705 284.626 399.331 284.332 399.061 283.952C398.791 283.568 398.642 283.114 398.614 282.588H399.935C399.96 282.903 400.063 283.166 400.241 283.376C400.423 283.584 400.655 283.739 400.936 283.841C401.22 283.94 401.531 283.99 401.869 283.99C402.241 283.99 402.572 283.932 402.862 283.815C403.155 283.696 403.385 283.531 403.553 283.321C403.72 283.108 403.804 282.859 403.804 282.575C403.804 282.317 403.73 282.105 403.582 281.94C403.438 281.776 403.24 281.639 402.99 281.531C402.743 281.423 402.463 281.328 402.151 281.246L401.119 280.964C400.42 280.774 399.866 280.494 399.457 280.125C399.051 279.756 398.848 279.267 398.848 278.659C398.848 278.156 398.984 277.717 399.257 277.342C399.53 276.967 399.899 276.676 400.365 276.469C400.831 276.259 401.357 276.153 401.942 276.153C402.533 276.153 403.054 276.257 403.506 276.464C403.96 276.672 404.318 276.957 404.58 277.321C404.841 277.682 404.977 278.097 404.989 278.565H403.719ZM406.008 276.273H407.504L409.784 280.24H409.877L412.157 276.273H413.653L410.487 281.574V285H409.174V281.574L406.008 276.273ZM417.722 285H414.896V276.273H417.811C418.666 276.273 419.401 276.447 420.014 276.797C420.628 277.143 421.098 277.642 421.425 278.293C421.754 278.94 421.919 279.717 421.919 280.624C421.919 281.533 421.753 282.314 421.42 282.967C421.091 283.621 420.614 284.124 419.989 284.476C419.364 284.825 418.608 285 417.722 285ZM416.213 283.849H417.649C418.314 283.849 418.866 283.724 419.307 283.474C419.747 283.222 420.077 282.857 420.295 282.379C420.514 281.899 420.624 281.314 420.624 280.624C420.624 279.939 420.514 279.358 420.295 278.881C420.08 278.403 419.757 278.041 419.328 277.794C418.899 277.547 418.366 277.423 417.73 277.423H416.213V283.849ZM430.6 276.273V285H429.39L424.954 278.599H424.873V285H423.556V276.273H424.775L429.216 282.682H429.297V276.273H430.6ZM432.521 285V276.273H437.993V277.406H433.838V280.065H437.707V281.195H433.838V283.866H438.044V285H432.521ZM439.078 276.273H440.574L442.854 280.24H442.948L445.228 276.273H446.723L443.557 281.574V285H442.245V281.574L439.078 276.273Z" fill="black"/>
<path d="M461.999 268C458.005 268 454.756 271.249 454.756 275.243C454.756 280.2 461.238 287.476 461.514 287.784C461.773 288.072 462.226 288.072 462.484 287.784C462.76 287.476 469.242 280.2 469.242 275.243C469.242 271.249 465.993 268 461.999 268ZM461.999 278.887C459.99 278.887 458.355 277.253 458.355 275.243C458.355 273.234 459.99 271.599 461.999 271.599C464.009 271.599 465.643 273.234 465.643 275.243C465.643 277.253 464.009 278.887 461.999 278.887Z" fill="#0399F0"/>
<path d="M378.499 336C374.505 336 371.256 339.249 371.256 343.243C371.256 348.2 377.738 355.476 378.014 355.784C378.273 356.072 378.726 356.072 378.984 355.784C379.26 355.476 385.742 348.2 385.742 343.243C385.742 339.249 382.493 336 378.499 336ZM378.499 346.887C376.49 346.887 374.855 345.253 374.855 343.243C374.855 341.234 376.49 339.599 378.499 339.599C380.509 339.599 382.143 341.234 382.143 343.243C382.143 345.253 380.509 346.887 378.499 346.887Z" fill="#0399F0"/>
<path d="M341.959 363.273H343.557L346.335 370.057H346.438L349.216 363.273H350.814V372H349.561V365.685H349.48L346.906 371.987H345.866L343.293 365.68H343.212V372H341.959V363.273ZM352.728 372V363.273H358.2V364.406H354.045V367.065H357.914V368.195H354.045V370.866H358.251V372H352.728ZM359.959 372V363.273H361.276V370.866H365.23V372H359.959ZM366.732 372V363.273H369.928C370.548 363.273 371.06 363.375 371.467 363.58C371.873 363.781 372.177 364.055 372.379 364.402C372.58 364.746 372.681 365.134 372.681 365.565C372.681 365.929 372.614 366.236 372.481 366.486C372.347 366.733 372.168 366.932 371.944 367.082C371.722 367.23 371.478 367.338 371.211 367.406V367.491C371.501 367.506 371.783 367.599 372.059 367.773C372.337 367.943 372.567 368.186 372.749 368.501C372.931 368.817 373.022 369.2 373.022 369.652C373.022 370.098 372.917 370.499 372.707 370.854C372.499 371.206 372.178 371.486 371.744 371.693C371.309 371.898 370.754 372 370.077 372H366.732ZM368.049 370.871H369.95C370.58 370.871 371.032 370.749 371.305 370.504C371.577 370.26 371.714 369.955 371.714 369.588C371.714 369.312 371.644 369.06 371.505 368.83C371.366 368.599 371.167 368.416 370.908 368.28C370.653 368.143 370.349 368.075 369.996 368.075H368.049V370.871ZM368.049 367.048H369.813C370.109 367.048 370.374 366.991 370.61 366.878C370.849 366.764 371.038 366.605 371.177 366.401C371.319 366.193 371.39 365.949 371.39 365.668C371.39 365.307 371.263 365.004 371.011 364.76C370.758 364.516 370.37 364.393 369.847 364.393H368.049V367.048ZM382.165 367.636C382.165 368.568 381.994 369.369 381.653 370.04C381.313 370.707 380.845 371.222 380.251 371.582C379.661 371.94 378.989 372.119 378.236 372.119C377.48 372.119 376.805 371.94 376.212 371.582C375.621 371.222 375.155 370.706 374.814 370.036C374.473 369.365 374.303 368.565 374.303 367.636C374.303 366.705 374.473 365.905 374.814 365.237C375.155 364.567 375.621 364.053 376.212 363.695C376.805 363.334 377.48 363.153 378.236 363.153C378.989 363.153 379.661 363.334 380.251 363.695C380.845 364.053 381.313 364.567 381.653 365.237C381.994 365.905 382.165 366.705 382.165 367.636ZM380.861 367.636C380.861 366.926 380.746 366.328 380.516 365.842C380.288 365.354 379.976 364.984 379.578 364.734C379.183 364.482 378.736 364.355 378.236 364.355C377.733 364.355 377.284 364.482 376.889 364.734C376.494 364.984 376.182 365.354 375.952 365.842C375.724 366.328 375.611 366.926 375.611 367.636C375.611 368.347 375.724 368.946 375.952 369.435C376.182 369.92 376.494 370.29 376.889 370.543C377.284 370.793 377.733 370.918 378.236 370.918C378.736 370.918 379.183 370.793 379.578 370.543C379.976 370.29 380.288 369.92 380.516 369.435C380.746 368.946 380.861 368.347 380.861 367.636ZM389.419 363.273H390.74V369.013C390.74 369.624 390.596 370.165 390.309 370.636C390.022 371.105 389.619 371.474 389.099 371.744C388.579 372.011 387.97 372.145 387.271 372.145C386.575 372.145 385.967 372.011 385.447 371.744C384.927 371.474 384.524 371.105 384.237 370.636C383.95 370.165 383.806 369.624 383.806 369.013V363.273H385.123V368.906C385.123 369.301 385.21 369.652 385.383 369.959C385.559 370.266 385.808 370.507 386.129 370.683C386.45 370.857 386.831 370.943 387.271 370.943C387.714 370.943 388.096 370.857 388.417 370.683C388.741 370.507 388.988 370.266 389.159 369.959C389.332 369.652 389.419 369.301 389.419 368.906V363.273ZM392.654 372V363.273H395.765C396.441 363.273 397.002 363.389 397.448 363.622C397.897 363.855 398.232 364.178 398.454 364.589C398.675 364.999 398.786 365.472 398.786 366.009C398.786 366.543 398.674 367.013 398.45 367.419C398.228 367.822 397.893 368.136 397.444 368.361C396.998 368.585 396.437 368.697 395.761 368.697H393.404V367.564H395.641C396.067 367.564 396.414 367.503 396.681 367.381C396.951 367.259 397.148 367.081 397.273 366.848C397.398 366.615 397.461 366.335 397.461 366.009C397.461 365.679 397.397 365.393 397.269 365.152C397.144 364.911 396.947 364.726 396.677 364.598C396.41 364.467 396.059 364.402 395.624 364.402H393.971V372H392.654ZM396.962 368.062L399.119 372H397.619L395.505 368.062H396.962ZM407.433 363.273V372H406.222L401.786 365.599H401.705V372H400.388V363.273H401.607L406.048 369.682H406.129V363.273H407.433ZM409.353 372V363.273H414.825V364.406H410.67V367.065H414.539V368.195H410.67V370.866H414.876V372H409.353Z" fill="black"/>
<path d="M386.999 392C383.005 392 379.756 395.249 379.756 399.243C379.756 404.2 386.238 411.476 386.514 411.784C386.773 412.072 387.226 412.072 387.484 411.784C387.76 411.476 394.242 404.2 394.242 399.243C394.242 395.249 390.993 392 386.999 392ZM386.999 402.887C384.99 402.887 383.355 401.253 383.355 399.243C383.355 397.234 384.99 395.599 386.999 395.599C389.009 395.599 390.643 397.234 390.643 399.243C390.643 401.253 389.009 402.887 386.999 402.887Z" fill="#0399F0"/>
<path d="M401.959 409V400.273H403.276V404.065H407.626V400.273H408.947V409H407.626V405.195H403.276V409H401.959ZM418.446 404.636C418.446 405.568 418.276 406.369 417.935 407.04C417.594 407.707 417.126 408.222 416.533 408.582C415.942 408.94 415.27 409.119 414.517 409.119C413.761 409.119 413.087 408.94 412.493 408.582C411.902 408.222 411.436 407.706 411.095 407.036C410.754 406.365 410.584 405.565 410.584 404.636C410.584 403.705 410.754 402.905 411.095 402.237C411.436 401.567 411.902 401.053 412.493 400.695C413.087 400.334 413.761 400.153 414.517 400.153C415.27 400.153 415.942 400.334 416.533 400.695C417.126 401.053 417.594 401.567 417.935 402.237C418.276 402.905 418.446 403.705 418.446 404.636ZM417.142 404.636C417.142 403.926 417.027 403.328 416.797 402.842C416.57 402.354 416.257 401.984 415.859 401.734C415.464 401.482 415.017 401.355 414.517 401.355C414.014 401.355 413.565 401.482 413.17 401.734C412.776 401.984 412.463 402.354 412.233 402.842C412.006 403.328 411.892 403.926 411.892 404.636C411.892 405.347 412.006 405.946 412.233 406.435C412.463 406.92 412.776 407.29 413.17 407.543C413.565 407.793 414.014 407.918 414.517 407.918C415.017 407.918 415.464 407.793 415.859 407.543C416.257 407.29 416.57 406.92 416.797 406.435C417.027 405.946 417.142 405.347 417.142 404.636ZM420.088 409V400.273H423.284C423.903 400.273 424.416 400.375 424.822 400.58C425.228 400.781 425.532 401.055 425.734 401.402C425.936 401.746 426.037 402.134 426.037 402.565C426.037 402.929 425.97 403.236 425.836 403.486C425.703 403.733 425.524 403.932 425.299 404.082C425.078 404.23 424.833 404.338 424.566 404.406V404.491C424.856 404.506 425.139 404.599 425.414 404.773C425.693 404.943 425.923 405.186 426.105 405.501C426.287 405.817 426.377 406.2 426.377 406.652C426.377 407.098 426.272 407.499 426.062 407.854C425.855 408.206 425.534 408.486 425.099 408.693C424.664 408.898 424.109 409 423.433 409H420.088ZM421.404 407.871H423.305C423.936 407.871 424.387 407.749 424.66 407.504C424.933 407.26 425.069 406.955 425.069 406.588C425.069 406.312 425 406.06 424.86 405.83C424.721 405.599 424.522 405.416 424.264 405.28C424.008 405.143 423.704 405.075 423.352 405.075H421.404V407.871ZM421.404 404.048H423.169C423.464 404.048 423.73 403.991 423.966 403.878C424.204 403.764 424.393 403.605 424.532 403.401C424.674 403.193 424.745 402.949 424.745 402.668C424.745 402.307 424.619 402.004 424.366 401.76C424.113 401.516 423.725 401.393 423.203 401.393H421.404V404.048ZM428.676 409H427.279L430.419 400.273H431.941L435.081 409H433.684L431.216 401.858H431.148L428.676 409ZM428.911 405.582H433.445V406.69H428.911V405.582ZM436.342 409V400.273H439.452C440.129 400.273 440.69 400.389 441.136 400.622C441.585 400.855 441.92 401.178 442.141 401.589C442.363 401.999 442.474 402.472 442.474 403.009C442.474 403.543 442.362 404.013 442.137 404.419C441.915 404.822 441.58 405.136 441.131 405.361C440.685 405.585 440.124 405.697 439.448 405.697H437.092V404.564H439.329C439.755 404.564 440.102 404.503 440.369 404.381C440.638 404.259 440.836 404.081 440.961 403.848C441.086 403.615 441.148 403.335 441.148 403.009C441.148 402.679 441.085 402.393 440.957 402.152C440.832 401.911 440.634 401.726 440.364 401.598C440.097 401.467 439.746 401.402 439.312 401.402H437.658V409H436.342ZM440.65 405.062L442.806 409H441.306L439.192 405.062H440.65ZM443.646 401.406V400.273H450.4V401.406H447.677V409H446.364V401.406H443.646Z" fill="black"/>
<path d="M314.999 292C311.005 292 307.756 295.249 307.756 299.243C307.756 304.2 314.238 311.476 314.514 311.784C314.773 312.072 315.226 312.072 315.484 311.784C315.76 311.476 322.242 304.2 322.242 299.243C322.242 295.249 318.993 292 314.999 292ZM314.999 302.887C312.99 302.887 311.355 301.253 311.355 299.243C311.355 297.234 312.99 295.599 314.999 295.599C317.009 295.599 318.643 297.234 318.643 299.243C318.643 301.253 317.009 302.887 314.999 302.887Z" fill="#0399F0"/>
<path d="M330.696 306.5H329.298L332.439 297.773H333.96L337.101 306.5H335.703L333.236 299.358H333.168L330.696 306.5ZM330.93 303.082H335.464V304.19H330.93V303.082ZM341.186 306.5H338.361V297.773H341.276C342.131 297.773 342.865 297.947 343.479 298.297C344.093 298.643 344.563 299.142 344.89 299.793C345.219 300.44 345.384 301.217 345.384 302.124C345.384 303.033 345.218 303.814 344.885 304.467C344.556 305.121 344.078 305.624 343.453 305.976C342.828 306.325 342.073 306.5 341.186 306.5ZM339.678 305.349H341.114C341.779 305.349 342.331 305.224 342.772 304.974C343.212 304.722 343.542 304.357 343.76 303.879C343.979 303.399 344.088 302.814 344.088 302.124C344.088 301.439 343.979 300.858 343.76 300.381C343.544 299.903 343.222 299.541 342.793 299.294C342.364 299.047 341.831 298.923 341.195 298.923H339.678V305.349ZM347.021 306.5V297.773H352.493V298.906H348.338V301.565H352.207V302.695H348.338V305.366H352.544V306.5H347.021ZM354.252 306.5V297.773H355.569V305.366H359.523V306.5H354.252ZM362.208 306.5H360.81L363.951 297.773H365.472L368.613 306.5H367.215L364.748 299.358H364.679L362.208 306.5ZM362.442 303.082H366.976V304.19H362.442V303.082ZM371.19 297.773V306.5H369.873V297.773H371.19ZM375.933 306.5H373.107V297.773H376.022C376.877 297.773 377.612 297.947 378.225 298.297C378.839 298.643 379.309 299.142 379.636 299.793C379.965 300.44 380.13 301.217 380.13 302.124C380.13 303.033 379.964 303.814 379.631 304.467C379.302 305.121 378.825 305.624 378.2 305.976C377.575 306.325 376.819 306.5 375.933 306.5ZM374.424 305.349H375.86C376.525 305.349 377.077 305.224 377.518 304.974C377.958 304.722 378.288 304.357 378.506 303.879C378.725 303.399 378.835 302.814 378.835 302.124C378.835 301.439 378.725 300.858 378.506 300.381C378.29 299.903 377.968 299.541 377.539 299.294C377.11 299.047 376.577 298.923 375.941 298.923H374.424V305.349ZM381.767 306.5V297.773H387.239V298.906H383.084V301.565H386.953V302.695H383.084V305.366H387.29V306.5H381.767Z" fill="black"/>
<path d="M59.9991 259C56.0052 259 52.7559 262.249 52.7559 266.243C52.7559 271.2 59.2379 278.476 59.5138 278.784C59.773 279.072 60.2256 279.072 60.4844 278.784C60.7604 278.476 67.2423 271.2 67.2423 266.243C67.2423 262.249 63.993 259 59.9991 259ZM59.9991 269.887C57.9896 269.887 56.3549 268.253 56.3549 266.243C56.3549 264.234 57.9897 262.599 59.9991 262.599C62.0085 262.599 63.6433 264.234 63.6433 266.243C63.6433 268.253 62.0085 269.887 59.9991 269.887Z" fill="#0399F0"/>
<path d="M74.9588 273.5V264.773H78.0696C78.7486 264.773 79.3111 264.896 79.7571 265.143C80.2031 265.391 80.5369 265.729 80.7585 266.158C80.9801 266.584 81.0909 267.064 81.0909 267.598C81.0909 268.135 80.9787 268.618 80.7543 269.047C80.5327 269.473 80.1974 269.811 79.7486 270.061C79.3026 270.308 78.7415 270.432 78.0653 270.432H75.9261V269.315H77.946C78.375 269.315 78.723 269.241 78.9901 269.094C79.2571 268.943 79.4531 268.739 79.5781 268.48C79.7031 268.222 79.7656 267.928 79.7656 267.598C79.7656 267.268 79.7031 266.976 79.5781 266.72C79.4531 266.464 79.2557 266.264 78.9858 266.119C78.7188 265.974 78.3665 265.902 77.929 265.902H76.2756V273.5H74.9588ZM82.6346 273.5V264.773H88.1062V265.906H83.9513V268.565H87.8207V269.695H83.9513V272.366H88.1573V273.5H82.6346ZM89.8651 273.5V264.773H92.9759C93.652 264.773 94.2131 264.889 94.6591 265.122C95.108 265.355 95.4432 265.678 95.6648 266.089C95.8864 266.499 95.9972 266.972 95.9972 267.509C95.9972 268.043 95.8849 268.513 95.6605 268.919C95.4389 269.322 95.1037 269.636 94.6548 269.861C94.2088 270.085 93.6477 270.197 92.9716 270.197H90.6151V269.064H92.8523C93.2784 269.064 93.625 269.003 93.892 268.881C94.1619 268.759 94.3594 268.581 94.4844 268.348C94.6094 268.115 94.6719 267.835 94.6719 267.509C94.6719 267.179 94.608 266.893 94.4801 266.652C94.3551 266.411 94.1577 266.226 93.8878 266.098C93.6207 265.967 93.2699 265.902 92.8352 265.902H91.1818V273.5H89.8651ZM94.1733 269.562L96.3295 273.5H94.8295L92.7159 269.562H94.1733ZM97.169 265.906V264.773H103.923V265.906H101.2V273.5H99.8878V265.906H97.169ZM105.416 273.5V264.773H106.733V268.565H111.083V264.773H112.404V273.5H111.083V269.695H106.733V273.5H105.416Z" fill="black"/>
<path d="M218.999 114C215.005 114 211.756 117.249 211.756 121.243C211.756 126.2 218.238 133.476 218.514 133.784C218.773 134.072 219.226 134.072 219.484 133.784C219.76 133.476 226.242 126.2 226.242 121.243C226.242 117.249 222.993 114 218.999 114ZM218.999 124.887C216.99 124.887 215.355 123.253 215.355 121.243C215.355 119.234 216.99 117.599 218.999 117.599C221.009 117.599 222.643 119.234 222.643 121.243C222.643 123.253 221.009 124.887 218.999 124.887Z" fill="#0399F0"/>
<path d="M175.696 150H174.298L177.439 141.273H178.96L182.101 150H180.703L178.236 142.858H178.168L175.696 150ZM175.93 146.582H180.464V147.69H175.93V146.582ZM183.361 150V141.273H184.678V148.866H188.632V150H183.361ZM191.451 141.273V150H190.135V141.273H191.451ZM200.618 144.111H199.288C199.237 143.827 199.142 143.577 199.002 143.361C198.863 143.145 198.693 142.962 198.491 142.811C198.289 142.661 198.064 142.547 197.814 142.47C197.566 142.393 197.304 142.355 197.025 142.355C196.522 142.355 196.072 142.482 195.674 142.734C195.279 142.987 194.967 143.358 194.737 143.847C194.51 144.335 194.396 144.932 194.396 145.636C194.396 146.347 194.51 146.946 194.737 147.435C194.967 147.923 195.281 148.293 195.679 148.543C196.076 148.793 196.524 148.918 197.021 148.918C197.297 148.918 197.558 148.881 197.805 148.807C198.055 148.73 198.281 148.618 198.483 148.47C198.684 148.322 198.855 148.142 198.994 147.929C199.136 147.713 199.234 147.466 199.288 147.188L200.618 147.192C200.547 147.621 200.409 148.016 200.204 148.376C200.002 148.734 199.743 149.044 199.424 149.305C199.109 149.564 198.748 149.764 198.342 149.906C197.936 150.048 197.493 150.119 197.012 150.119C196.257 150.119 195.583 149.94 194.993 149.582C194.402 149.222 193.936 148.706 193.595 148.036C193.257 147.365 193.088 146.565 193.088 145.636C193.088 144.705 193.258 143.905 193.599 143.237C193.94 142.567 194.406 142.053 194.997 141.695C195.588 141.334 196.26 141.153 197.012 141.153C197.475 141.153 197.907 141.22 198.308 141.354C198.711 141.484 199.074 141.678 199.395 141.933C199.716 142.186 199.981 142.496 200.191 142.862C200.402 143.226 200.544 143.642 200.618 144.111ZM202.193 150V141.273H207.665V142.406H203.51V145.065H207.379V146.195H203.51V148.866H207.716V150H202.193ZM217.359 143.565C217.314 143.162 217.126 142.849 216.797 142.628C216.467 142.403 216.053 142.291 215.553 142.291C215.195 142.291 214.885 142.348 214.624 142.462C214.362 142.572 214.159 142.726 214.014 142.922C213.872 143.115 213.801 143.335 213.801 143.582C213.801 143.79 213.849 143.969 213.946 144.119C214.045 144.27 214.175 144.396 214.334 144.499C214.496 144.598 214.669 144.682 214.854 144.75C215.038 144.815 215.216 144.869 215.386 144.912L216.239 145.134C216.517 145.202 216.803 145.294 217.095 145.411C217.388 145.527 217.659 145.68 217.909 145.871C218.159 146.061 218.361 146.297 218.514 146.578C218.67 146.859 218.749 147.196 218.749 147.588C218.749 148.082 218.621 148.521 218.365 148.905C218.112 149.288 217.744 149.591 217.261 149.812C216.781 150.034 216.2 150.145 215.518 150.145C214.865 150.145 214.3 150.041 213.822 149.834C213.345 149.626 212.972 149.332 212.702 148.952C212.432 148.568 212.283 148.114 212.254 147.588H213.575C213.601 147.903 213.703 148.166 213.882 148.376C214.064 148.584 214.295 148.739 214.577 148.841C214.861 148.94 215.172 148.99 215.51 148.99C215.882 148.99 216.213 148.932 216.503 148.815C216.795 148.696 217.026 148.531 217.193 148.321C217.361 148.108 217.445 147.859 217.445 147.575C217.445 147.317 217.371 147.105 217.223 146.94C217.078 146.776 216.881 146.639 216.631 146.531C216.384 146.423 216.104 146.328 215.791 146.246L214.76 145.964C214.061 145.774 213.507 145.494 213.098 145.125C212.692 144.756 212.489 144.267 212.489 143.659C212.489 143.156 212.625 142.717 212.898 142.342C213.17 141.967 213.54 141.676 214.006 141.469C214.472 141.259 214.997 141.153 215.582 141.153C216.173 141.153 216.695 141.257 217.146 141.464C217.601 141.672 217.959 141.957 218.22 142.321C218.482 142.682 218.618 143.097 218.629 143.565H217.359ZM220.322 150V141.273H223.433C224.112 141.273 224.674 141.396 225.12 141.643C225.566 141.891 225.9 142.229 226.122 142.658C226.343 143.084 226.454 143.564 226.454 144.098C226.454 144.635 226.342 145.118 226.118 145.547C225.896 145.973 225.561 146.311 225.112 146.561C224.666 146.808 224.105 146.932 223.429 146.932H221.289V145.815H223.309C223.738 145.815 224.086 145.741 224.353 145.594C224.62 145.443 224.816 145.239 224.941 144.98C225.066 144.722 225.129 144.428 225.129 144.098C225.129 143.768 225.066 143.476 224.941 143.22C224.816 142.964 224.619 142.764 224.349 142.619C224.082 142.474 223.73 142.402 223.292 142.402H221.639V150H220.322ZM227.998 150V141.273H231.109C231.785 141.273 232.346 141.389 232.792 141.622C233.241 141.855 233.576 142.178 233.798 142.589C234.019 142.999 234.13 143.472 234.13 144.009C234.13 144.543 234.018 145.013 233.793 145.419C233.572 145.822 233.237 146.136 232.788 146.361C232.342 146.585 231.781 146.697 231.104 146.697H228.748V145.564H230.985C231.411 145.564 231.758 145.503 232.025 145.381C232.295 145.259 232.492 145.081 232.617 144.848C232.742 144.615 232.805 144.335 232.805 144.009C232.805 143.679 232.741 143.393 232.613 143.152C232.488 142.911 232.29 142.726 232.021 142.598C231.754 142.467 231.403 142.402 230.968 142.402H229.315V150H227.998ZM232.306 146.062L234.462 150H232.962L230.849 146.062H232.306ZM237.049 141.273V150H235.732V141.273H237.049ZM246.011 141.273V150H244.8L240.364 143.599H240.283V150H238.967V141.273H240.185L244.626 147.682H244.707V141.273H246.011ZM253.838 144.03C253.755 143.771 253.645 143.54 253.505 143.335C253.369 143.128 253.206 142.952 253.015 142.807C252.825 142.659 252.608 142.547 252.363 142.47C252.122 142.393 251.856 142.355 251.566 142.355C251.075 142.355 250.632 142.482 250.237 142.734C249.842 142.987 249.529 143.358 249.299 143.847C249.072 144.332 248.958 144.928 248.958 145.632C248.958 146.339 249.074 146.937 249.304 147.426C249.534 147.915 249.849 148.286 250.25 148.538C250.65 148.791 251.106 148.918 251.618 148.918C252.092 148.918 252.505 148.821 252.858 148.628C253.213 148.435 253.487 148.162 253.68 147.81C253.876 147.455 253.974 147.037 253.974 146.557L254.315 146.621H251.818V145.534H255.248V146.527C255.248 147.26 255.092 147.896 254.779 148.436C254.47 148.973 254.041 149.388 253.493 149.68C252.947 149.973 252.322 150.119 251.618 150.119C250.828 150.119 250.135 149.938 249.538 149.574C248.944 149.21 248.481 148.695 248.149 148.027C247.816 147.357 247.65 146.561 247.65 145.641C247.65 144.945 247.747 144.32 247.94 143.766C248.133 143.212 248.404 142.741 248.754 142.355C249.106 141.966 249.52 141.669 249.994 141.464C250.471 141.257 250.993 141.153 251.558 141.153C252.029 141.153 252.468 141.223 252.875 141.362C253.284 141.501 253.647 141.699 253.966 141.955C254.287 142.21 254.552 142.514 254.762 142.866C254.973 143.216 255.115 143.604 255.189 144.03H253.838ZM261.68 143.565C261.634 143.162 261.447 142.849 261.117 142.628C260.788 142.403 260.373 142.291 259.873 142.291C259.515 142.291 259.205 142.348 258.944 142.462C258.683 142.572 258.479 142.726 258.335 142.922C258.192 143.115 258.121 143.335 258.121 143.582C258.121 143.79 258.17 143.969 258.266 144.119C258.366 144.27 258.495 144.396 258.654 144.499C258.816 144.598 258.989 144.682 259.174 144.75C259.359 144.815 259.536 144.869 259.707 144.912L260.559 145.134C260.837 145.202 261.123 145.294 261.415 145.411C261.708 145.527 261.979 145.68 262.229 145.871C262.479 146.061 262.681 146.297 262.835 146.578C262.991 146.859 263.069 147.196 263.069 147.588C263.069 148.082 262.941 148.521 262.685 148.905C262.433 149.288 262.065 149.591 261.582 149.812C261.102 150.034 260.521 150.145 259.839 150.145C259.185 150.145 258.62 150.041 258.143 149.834C257.665 149.626 257.292 149.332 257.022 148.952C256.752 148.568 256.603 148.114 256.575 147.588H257.896C257.921 147.903 258.023 148.166 258.202 148.376C258.384 148.584 258.616 148.739 258.897 148.841C259.181 148.94 259.492 148.99 259.83 148.99C260.202 148.99 260.533 148.932 260.823 148.815C261.116 148.696 261.346 148.531 261.513 148.321C261.681 148.108 261.765 147.859 261.765 147.575C261.765 147.317 261.691 147.105 261.543 146.94C261.398 146.776 261.201 146.639 260.951 146.531C260.704 146.423 260.424 146.328 260.112 146.246L259.08 145.964C258.381 145.774 257.827 145.494 257.418 145.125C257.012 144.756 256.809 144.267 256.809 143.659C256.809 143.156 256.945 142.717 257.218 142.342C257.491 141.967 257.86 141.676 258.326 141.469C258.792 141.259 259.317 141.153 259.903 141.153C260.494 141.153 261.015 141.257 261.467 141.464C261.921 141.672 262.279 141.957 262.54 142.321C262.802 142.682 262.938 143.097 262.95 143.565H261.68Z" fill="black"/>
<path d="M148.999 60C145.005 60 141.756 63.2493 141.756 67.2432C141.756 72.1998 148.238 79.4763 148.514 79.7836C148.773 80.0723 149.226 80.0718 149.484 79.7836C149.76 79.4763 156.242 72.1998 156.242 67.2432C156.242 63.2493 152.993 60 148.999 60ZM148.999 70.8875C146.99 70.8875 145.355 69.2527 145.355 67.2432C145.355 65.2338 146.99 63.599 148.999 63.599C151.009 63.599 152.643 65.2338 152.643 67.2432C152.643 69.2527 151.009 70.8875 148.999 70.8875Z" fill="#0399F0"/>
<path d="M163.959 74.5V65.7727H167.155C167.774 65.7727 168.287 65.875 168.693 66.0795C169.099 66.2812 169.403 66.5554 169.605 66.902C169.807 67.2457 169.908 67.6335 169.908 68.0653C169.908 68.429 169.841 68.7358 169.707 68.9858C169.574 69.233 169.395 69.4318 169.17 69.5824C168.949 69.7301 168.705 69.8381 168.438 69.9062V69.9915C168.727 70.0057 169.01 70.0994 169.286 70.2727C169.564 70.4432 169.794 70.6861 169.976 71.0014C170.158 71.3168 170.249 71.7003 170.249 72.152C170.249 72.598 170.143 72.9986 169.933 73.3537C169.726 73.706 169.405 73.9858 168.97 74.1932C168.536 74.3977 167.98 74.5 167.304 74.5H163.959ZM165.276 73.3707H167.176C167.807 73.3707 168.259 73.2486 168.531 73.0043C168.804 72.7599 168.94 72.4545 168.94 72.0881C168.94 71.8125 168.871 71.5597 168.732 71.3295C168.592 71.0994 168.393 70.9162 168.135 70.7798C167.879 70.6435 167.575 70.5753 167.223 70.5753H165.276V73.3707ZM165.276 69.5483H167.04C167.335 69.5483 167.601 69.4915 167.837 69.3778C168.075 69.2642 168.264 69.1051 168.403 68.9006C168.545 68.6932 168.616 68.4489 168.616 68.1676C168.616 67.8068 168.49 67.5043 168.237 67.2599C167.984 67.0156 167.597 66.8935 167.074 66.8935H165.276V69.5483ZM171.81 74.5V65.7727H174.921C175.597 65.7727 176.158 65.8892 176.604 66.1222C177.053 66.3551 177.388 66.6776 177.61 67.0895C177.832 67.4986 177.942 67.9716 177.942 68.5085C177.942 69.0426 177.83 69.5128 177.606 69.919C177.384 70.3224 177.049 70.6364 176.6 70.8608C176.154 71.0852 175.593 71.1974 174.917 71.1974H172.56V70.0639H174.798C175.224 70.0639 175.57 70.0028 175.837 69.8807C176.107 69.7585 176.305 69.581 176.43 69.348C176.555 69.1151 176.617 68.8352 176.617 68.5085C176.617 68.179 176.553 67.8935 176.425 67.652C176.3 67.4105 176.103 67.2259 175.833 67.098C175.566 66.9673 175.215 66.902 174.781 66.902H173.127V74.5H171.81ZM176.119 70.5625L178.275 74.5H176.775L174.661 70.5625H176.119ZM187.126 70.1364C187.126 71.0682 186.955 71.8693 186.614 72.5398C186.273 73.2074 185.806 73.7216 185.212 74.0824C184.621 74.4403 183.95 74.6193 183.197 74.6193C182.441 74.6193 181.766 74.4403 181.173 74.0824C180.582 73.7216 180.116 73.206 179.775 72.5355C179.434 71.8651 179.263 71.0653 179.263 70.1364C179.263 69.2045 179.434 68.4048 179.775 67.7372C180.116 67.0668 180.582 66.5526 181.173 66.1946C181.766 65.8338 182.441 65.6534 183.197 65.6534C183.95 65.6534 184.621 65.8338 185.212 66.1946C185.806 66.5526 186.273 67.0668 186.614 67.7372C186.955 68.4048 187.126 69.2045 187.126 70.1364ZM185.822 70.1364C185.822 69.4261 185.707 68.8281 185.477 68.3423C185.249 67.8537 184.937 67.4844 184.539 67.2344C184.144 66.9815 183.697 66.8551 183.197 66.8551C182.694 66.8551 182.245 66.9815 181.85 67.2344C181.455 67.4844 181.143 67.8537 180.913 68.3423C180.685 68.8281 180.572 69.4261 180.572 70.1364C180.572 70.8466 180.685 71.446 180.913 71.9347C181.143 72.4205 181.455 72.7898 181.85 73.0426C182.245 73.2926 182.694 73.4176 183.197 73.4176C183.697 73.4176 184.144 73.2926 184.539 73.0426C184.937 72.7898 185.249 72.4205 185.477 71.9347C185.707 71.446 185.822 70.8466 185.822 70.1364ZM196.348 70.1364C196.348 71.0682 196.178 71.8693 195.837 72.5398C195.496 73.2074 195.029 73.7216 194.435 74.0824C193.844 74.4403 193.172 74.6193 192.419 74.6193C191.664 74.6193 190.989 74.4403 190.395 74.0824C189.804 73.7216 189.338 73.206 188.998 72.5355C188.657 71.8651 188.486 71.0653 188.486 70.1364C188.486 69.2045 188.657 68.4048 188.998 67.7372C189.338 67.0668 189.804 66.5526 190.395 66.1946C190.989 65.8338 191.664 65.6534 192.419 65.6534C193.172 65.6534 193.844 65.8338 194.435 66.1946C195.029 66.5526 195.496 67.0668 195.837 67.7372C196.178 68.4048 196.348 69.2045 196.348 70.1364ZM195.044 70.1364C195.044 69.4261 194.929 68.8281 194.699 68.3423C194.472 67.8537 194.159 67.4844 193.762 67.2344C193.367 66.9815 192.919 66.8551 192.419 66.8551C191.917 66.8551 191.468 66.9815 191.073 67.2344C190.678 67.4844 190.365 67.8537 190.135 68.3423C189.908 68.8281 189.794 69.4261 189.794 70.1364C189.794 70.8466 189.908 71.446 190.135 71.9347C190.365 72.4205 190.678 72.7898 191.073 73.0426C191.468 73.2926 191.917 73.4176 192.419 73.4176C192.919 73.4176 193.367 73.2926 193.762 73.0426C194.159 72.7898 194.472 72.4205 194.699 71.9347C194.929 71.446 195.044 70.8466 195.044 70.1364ZM197.99 65.7727H199.588L202.366 72.5568H202.469L205.247 65.7727H206.845V74.5H205.592V68.1847H205.511L202.938 74.4872H201.898L199.324 68.1804H199.243V74.5H197.99V65.7727ZM208.76 74.5V65.7727H214.231V66.9062H210.076V69.5653H213.946V70.6946H210.076V73.3665H214.282V74.5H208.76Z" fill="black"/>
<path d="M242.499 8C238.505 8 235.256 11.2493 235.256 15.2432C235.256 20.1998 241.738 27.4763 242.014 27.7836C242.273 28.0723 242.726 28.0718 242.984 27.7836C243.26 27.4763 249.742 20.1998 249.742 15.2432C249.742 11.2493 246.493 8 242.499 8ZM242.499 18.8875C240.49 18.8875 238.855 17.2527 238.855 15.2432C238.855 13.2338 240.49 11.599 242.499 11.599C244.509 11.599 246.143 13.2338 246.143 15.2432C246.143 17.2527 244.509 18.8875 242.499 18.8875Z" fill="#0399F0"/>
<path d="M221.784 44H218.959V35.2727H221.874C222.729 35.2727 223.463 35.4474 224.077 35.7969C224.69 36.1435 225.161 36.642 225.487 37.2926C225.817 37.9403 225.982 38.7173 225.982 39.6236C225.982 40.5327 225.815 41.3139 225.483 41.9673C225.153 42.6207 224.676 43.1236 224.051 43.4759C223.426 43.8253 222.67 44 221.784 44ZM220.276 42.8494H221.712C222.376 42.8494 222.929 42.7244 223.369 42.4744C223.81 42.2216 224.139 41.8565 224.358 41.3793C224.577 40.8991 224.686 40.3139 224.686 39.6236C224.686 38.9389 224.577 38.358 224.358 37.8807C224.142 37.4034 223.82 37.0412 223.391 36.794C222.962 36.5469 222.429 36.4233 221.793 36.4233H220.276V42.8494ZM227.923 44H226.525L229.665 35.2727H231.187L234.327 44H232.93L230.462 36.858H230.394L227.923 44ZM228.157 40.5824H232.691V41.6903H228.157V40.5824ZM235.588 44V35.2727H238.699C239.375 35.2727 239.936 35.3892 240.382 35.6222C240.831 35.8551 241.166 36.1776 241.387 36.5895C241.609 36.9986 241.72 37.4716 241.72 38.0085C241.72 38.5426 241.608 39.0128 241.383 39.419C241.162 39.8224 240.826 40.1364 240.377 40.3608C239.931 40.5852 239.37 40.6974 238.694 40.6974H236.338V39.5639H238.575C239.001 39.5639 239.348 39.5028 239.615 39.3807C239.885 39.2585 240.082 39.081 240.207 38.848C240.332 38.6151 240.395 38.3352 240.395 38.0085C240.395 37.679 240.331 37.3935 240.203 37.152C240.078 36.9105 239.88 36.7259 239.61 36.598C239.343 36.4673 238.993 36.402 238.558 36.402H236.904V44H235.588ZM239.896 40.0625L242.052 44H240.552L238.439 40.0625H239.896ZM245.031 44L242.61 35.2727H243.995L245.696 42.0312H245.777L247.545 35.2727H248.917L250.686 42.0355H250.767L252.463 35.2727H253.852L251.427 44H250.102L248.265 37.4631H248.197L246.36 44H245.031ZM256.369 35.2727V44H255.053V35.2727H256.369ZM265.331 35.2727V44H264.121L259.685 37.5994H259.604V44H258.287V35.2727H259.506L263.946 41.6818H264.027V35.2727H265.331Z" fill="black"/>
</g>
<defs>
<filter id="filter0_d_2_107" x="14.7109" y="8.03552" width="474.928" height="384.81" filterUnits="userSpaceOnUse" color-interpolation-filters="sRGB">
<feFlood flood-opacity="0" result="BackgroundImageFix"/>
<feColorMatrix in="SourceAlpha" type="matrix" values="0 0 0 0 0 0 0 0 0 0 0 0 0 0 0 0 0 0 127 0" result="hardAlpha"/>
<feOffset dy="15"/>
<feGaussianBlur stdDeviation="2"/>
<feComposite in2="hardAlpha" operator="out"/>
<feColorMatrix type="matrix" values="0 0 0 0 0.888151 0 0 0 0 0.888151 0 0 0 0 0.888151 0 0 0 1 0"/>
<feBlend mode="normal" in2="BackgroundImageFix" result="effect1_dropShadow_2_107"/>
<feBlend mode="normal" in="SourceGraphic" in2="effect1_dropShadow_2_107" result="shape"/>
</filter>
<filter id="filter1_d_2_107" x="359.457" y="383.778" width="52.8924" height="65.2082" filterUnits="userSpaceOnUse" color-interpolation-filters="sRGB">
<feFlood flood-opacity="0" result="BackgroundImageFix"/>
<feColorMatrix in="SourceAlpha" type="matrix" values="0 0 0 0 0 0 0 0 0 0 0 0 0 0 0 0 0 0 127 0" result="hardAlpha"/>
<feOffset dy="15"/>
<feGaussianBlur stdDeviation="2"/>
<feComposite in2="hardAlpha" operator="out"/>
<feColorMatrix type="matrix" values="0 0 0 0 0.888151 0 0 0 0 0.888151 0 0 0 0 0.888151 0 0 0 1 0"/>
<feBlend mode="normal" in2="BackgroundImageFix" result="effect1_dropShadow_2_107"/>
<feBlend mode="normal" in="SourceGraphic" in2="effect1_dropShadow_2_107" result="shape"/>
</filter>
<linearGradient id="paint0_linear_2_107" x1="465.999" y1="344" x2="49.499" y2="170" gradientUnits="userSpaceOnUse">
<stop stop-color="#DBDBE7"/>
<stop offset="1" stop-color="#DBDBE7"/>
</linearGradient>
<linearGradient id="paint1_linear_2_107" x1="406.461" y1="426.216" x2="363.747" y2="412.634" gradientUnits="userSpaceOnUse">
<stop stop-color="#DBDBE7"/>
<stop offset="1" stop-color="#DBDBE7"/>
</linearGradient>
<clipPath id="clip0_2_107">
<rect width="510" height="455" rx="16" fill="white"/>
</clipPath>
</defs>
</svg>
