<svg width="25" height="24" viewBox="0 0 25 24" fill="none" xmlns="http://www.w3.org/2000/svg">
<path fill-rule="evenodd" clip-rule="evenodd" d="M19.9951 6.50439C19.6067 6.11595 19.1375 5.91743 18.6097 5.79065L15.1696 5.3423C14.3299 5.24814 13.6751 5.17471 13.0613 5.39001C12.4475 5.60531 11.982 6.07175 11.3852 6.66979L11.284 6.77113L6.02109 12.034L6.02109 12.034C5.35647 12.6986 4.8046 13.2504 4.42584 13.7468C4.02687 14.2698 3.75 14.8184 3.75 15.4808C3.75 16.1433 4.02687 16.6919 4.42584 17.2148C4.8046 17.7112 5.35645 18.263 6.02105 18.9276L6.02107 18.9276L6.02109 18.9276L7.57187 20.4784L7.5719 20.4784L7.57191 20.4784C8.23648 21.1431 8.7883 21.6949 9.28472 22.0737C9.80764 22.4726 10.3562 22.7495 11.0187 22.7495C11.6811 22.7495 12.2298 22.4726 12.7527 22.0737C13.2491 21.6949 13.8009 21.143 14.4655 20.4784L14.4655 20.4784L19.8297 15.1143C20.4278 14.5175 20.8942 14.052 21.1095 13.4382C21.3248 12.8245 21.2514 12.1696 21.1572 11.3299L20.9886 9.81359C20.9044 9.05569 20.8339 8.42055 20.7144 7.91325C20.588 7.37607 20.3894 6.89868 19.9951 6.50439ZM10.9986 12.2499C10.5844 12.2499 10.2486 12.5857 10.2486 12.9999C10.2486 13.4141 10.5844 13.7499 10.9986 13.7499L11.0079 13.7499C11.4222 13.7499 11.7579 13.4141 11.7579 12.9999C11.7579 12.5857 11.4222 12.2499 11.0079 12.2499L10.9986 12.2499ZM8.5 14.7499C8.08579 14.7499 7.75 15.0857 7.75 15.4999C7.75 15.9141 8.08579 16.2499 8.5 16.2499H13.5C13.9142 16.2499 14.25 15.9141 14.25 15.4999C14.25 15.0857 13.9142 14.7499 13.5 14.7499H8.5ZM11.0009 17.2499C10.5867 17.2499 10.2509 17.5857 10.2509 17.9999C10.2509 18.4141 10.5867 18.7499 11.0009 18.7499H11.0103C11.4245 18.7499 11.7603 18.4141 11.7603 17.9999C11.7603 17.5857 11.4245 17.2499 11.0103 17.2499H11.0009Z" fill="#FAFAFA"/>
<path fill-rule="evenodd" clip-rule="evenodd" d="M14.9845 1.42051C16.0267 1.13257 17.2206 1.13058 18.2445 2.04238C19.3593 3.03512 19.6476 4.53968 19.434 5.94126C19.2184 7.35569 18.4819 8.81711 17.3227 9.96099C16.9296 10.3489 16.2965 10.3447 15.9086 9.9516C15.5206 9.55849 15.5248 8.92534 15.9179 8.53742C16.7855 7.68129 17.3093 6.60786 17.4568 5.63985C17.6063 4.659 17.3609 3.93355 16.9144 3.536C16.5816 3.23966 16.1848 3.16382 15.5172 3.34828C14.8468 3.53349 14.1117 3.92606 13.2385 4.39236C13.1716 4.42811 13.1038 4.4643 13.0352 4.50086C12.1427 4.97648 11.0858 5.52685 10.0405 5.71165C9.49747 5.80765 8.91675 5.81425 8.33531 5.64149C7.74612 5.46642 7.21622 5.12479 6.75721 4.61554C6.38745 4.2053 6.42026 3.57299 6.83049 3.20322C7.24073 2.83346 7.87305 2.86627 8.24281 3.27651C8.47894 3.53848 8.70058 3.6636 8.90496 3.72433C9.11711 3.78737 9.37202 3.79881 9.69231 3.74219C10.3736 3.62175 11.154 3.23706 12.0946 2.73583C12.1741 2.69349 12.2549 2.65019 12.3369 2.60625C13.1526 2.16915 14.0867 1.66856 14.9845 1.42051Z" fill="#FAFAFA"/>
</svg>
