<svg width="33" height="32" viewBox="0 0 33 32" fill="none" xmlns="http://www.w3.org/2000/svg">
<path d="M16.8 30C9.08005 30 2.80005 23.72 2.80005 16C2.80005 8.28 9.08005 2 16.8 2C24.52 2 30.8 8.28 30.8 16C30.8 23.72 24.52 30 16.8 30ZM16.8 4C10.183 4 4.80005 9.383 4.80005 16C4.80005 22.617 10.183 28 16.8 28C23.417 28 28.8 22.617 28.8 16C28.8 9.383 23.417 4 16.8 4Z" fill="#F05A29"/>
<path d="M20.8 18C20.8 19.654 19.454 21 17.8 21V23C17.8 23.552 17.352 24 16.8 24C16.248 24 15.8 23.552 15.8 23V21H13.8C13.248 21 12.8 20.552 12.8 20C12.8 19.448 13.248 19 13.8 19H17.8C18.351 19 18.8 18.551 18.8 18C18.8 17.449 18.351 17 17.8 17H15.8C14.146 17 12.8 15.654 12.8 14C12.8 12.346 14.146 11 15.8 11V9C15.8 8.448 16.248 8 16.8 8C17.352 8 17.8 8.448 17.8 9V11H19.8C20.352 11 20.8 11.448 20.8 12C20.8 12.552 20.352 13 19.8 13H15.8C15.249 13 14.8 13.449 14.8 14C14.8 14.551 15.249 15 15.8 15H17.8C19.454 15 20.8 16.346 20.8 18Z" fill="#F05A29"/>
</svg>
