<svg width="33" height="32" viewBox="0 0 33 32" fill="none" xmlns="http://www.w3.org/2000/svg">
<path fill-rule="evenodd" clip-rule="evenodd" d="M12.7181 11.4772C13.8421 8.67717 14.7361 4.96717 15.2211 2.74617C15.2221 2.74217 15.2221 2.73817 15.2231 2.73417C15.3941 1.99217 15.9731 1.41217 16.7151 1.23917C17.4571 1.06617 18.2321 1.33117 18.7141 1.92117C20.3711 3.92917 23.2111 7.59817 25.2191 11.4122C26.6171 14.0672 27.6001 16.7992 27.6001 19.1252C27.6001 25.7012 22.6471 31.0002 16.6001 31.0002C10.5531 31.0002 5.6001 25.7012 5.6001 19.1252V18.0892C5.6001 15.6502 7.1941 11.2342 8.4811 8.13117C8.7921 7.31716 9.6171 6.79717 10.5021 6.87117C11.3931 6.94617 12.1261 7.60616 12.2921 8.48517C12.2951 8.50317 12.2981 8.52017 12.3011 8.53817C12.4301 9.50517 12.5731 10.5442 12.7181 11.4772ZM17.1701 3.19317C16.6611 5.52517 15.7051 9.45617 14.5131 12.3732C14.5001 12.4052 14.4851 12.4372 14.4691 12.4682C14.0841 13.1842 13.3031 13.5962 12.4951 13.5072C11.6871 13.4192 11.0131 12.8492 10.7921 12.0662C10.7821 12.0282 10.7731 11.9892 10.7671 11.9502C10.6161 10.9912 10.4661 9.90617 10.3301 8.89317V8.89517C9.1391 11.7652 7.6001 15.8322 7.6001 18.0892V19.1252C7.6001 24.5532 11.6091 29.0002 16.6001 29.0002C21.5911 29.0002 25.6001 24.5532 25.6001 19.1252C25.6001 17.0752 24.6811 14.6842 23.4491 12.3442C21.5141 8.66717 18.7721 5.13417 17.1701 3.19317Z" fill="#F05A29"/>
<path fill-rule="evenodd" clip-rule="evenodd" d="M13.856 24.1713L20.856 17.1713C21.246 16.7813 21.246 16.1473 20.856 15.7573C20.466 15.3673 19.832 15.3673 19.442 15.7573L12.442 22.7573C12.052 23.1473 12.052 23.7813 12.442 24.1713C12.832 24.5623 13.466 24.5623 13.856 24.1713Z" fill="#F05A29"/>
<path d="M13.9974 18.5C14.6878 18.5 15.2474 17.9404 15.2474 17.25C15.2474 16.5596 14.6878 16 13.9974 16C13.3071 16 12.7474 16.5596 12.7474 17.25C12.7474 17.9404 13.3071 18.5 13.9974 18.5Z" fill="#F05A29"/>
<path d="M19.3992 23.9644C20.0895 23.9644 20.6492 23.4047 20.6492 22.7144C20.6492 22.024 20.0895 21.4644 19.3992 21.4644C18.7088 21.4644 18.1492 22.024 18.1492 22.7144C18.1492 23.4047 18.7088 23.9644 19.3992 23.9644Z" fill="#F05A29"/>
</svg>
