<svg width="33" height="32" viewBox="0 0 33 32" fill="none" xmlns="http://www.w3.org/2000/svg">
<path d="M11.4973 8.96423L12.6285 10.0954C14.712 8.01255 18.0884 8.01255 20.1709 10.0954L21.3031 8.96423C18.5946 6.25639 14.2058 6.25575 11.4973 8.96423Z" fill="#F05A29"/>
<path d="M27.0667 13.8668C27.0667 7.9746 22.2929 3.2002 16.4001 3.2002C10.5089 3.2002 5.73354 7.9746 5.73354 13.8668C4.5553 13.8668 3.6001 14.822 3.6001 16.0002V22.4002C3.6001 23.5784 4.5553 24.5336 5.73354 24.5336H8.93354C9.52266 24.5336 10.0001 24.0565 10.0001 23.4668V18.1336C10.0001 17.5471 9.73386 16.6668 9.40842 16.1794L7.86698 13.8671C7.86698 9.15348 11.6871 5.33364 16.4004 5.33364C21.115 5.33364 24.9339 9.15348 24.9339 13.8671L23.3921 16.1794C23.0667 16.6668 22.8001 17.5471 22.8001 18.1336V23.765C21.2366 25.541 18.9524 26.6668 16.4001 26.6668H14.2667V28.8002H16.4001C19.8875 28.8002 22.9729 27.1199 24.9188 24.5336H27.0667C28.2449 24.5336 29.2001 23.5784 29.2001 22.4002V16.0002C29.2001 14.822 28.2449 13.8668 27.0667 13.8668ZM7.86666 22.4002H5.73322V16.0002H6.7249L7.63306 17.3628C7.72906 17.5138 7.86218 17.9557 7.86634 18.1356L7.86666 22.4002ZM27.0667 22.4002H24.9335V18.1356C24.9377 17.9554 25.0711 17.5138 25.1668 17.3628L26.075 16.0002H27.0667V22.4002Z" fill="#F05A29"/>
</svg>
