<svg width="33" height="32" viewBox="0 0 33 32" fill="none" xmlns="http://www.w3.org/2000/svg">
<g clip-path="url(#clip0_142_4742)">
<path d="M24.368 19.0254C22.1438 19.0254 20.3344 20.8348 20.3344 23.059C20.3344 25.2832 22.1438 27.0926 24.368 27.0926C26.5925 27.0926 28.4016 25.2832 28.4016 23.059C28.4016 20.8348 26.5922 19.0254 24.368 19.0254ZM24.368 25.0758C23.2557 25.0758 22.3512 24.1713 22.3512 23.059C22.3512 21.9468 23.2557 21.0422 24.368 21.0422C25.4802 21.0422 26.3848 21.9468 26.3848 23.059C26.3848 24.1713 25.4802 25.0758 24.368 25.0758Z" fill="#F05A29"/>
<path d="M10.5866 19.0254C8.36242 19.0254 6.55298 20.8348 6.55298 23.059C6.55298 25.2832 8.36242 27.0926 10.5866 27.0926C12.8108 27.0926 14.6202 25.2832 14.6202 23.059C14.6202 20.8348 12.8108 19.0254 10.5866 19.0254ZM10.5866 25.0758C9.47435 25.0758 8.56979 24.1713 8.56979 23.059C8.56979 21.9468 9.47435 21.0422 10.5866 21.0422C11.6985 21.0422 12.6034 21.9468 12.6034 23.059C12.6034 24.1713 11.6989 25.0758 10.5866 25.0758Z" fill="#F05A29"/>
<path d="M27.0843 7.47963C26.9129 7.13913 26.5643 6.92432 26.1831 6.92432H20.8722V8.94113H25.5613L28.3071 14.4026L30.1095 13.4964L27.0843 7.47963Z" fill="#F05A29"/>
<path d="M21.3429 22.084H13.7126V24.1008H21.3429V22.084Z" fill="#F05A29"/>
<path d="M7.56138 22.084H4.06563C3.50863 22.084 3.05725 22.5354 3.05725 23.0924C3.05725 23.6494 3.50869 24.1007 4.06563 24.1007H7.56144C8.11844 24.1007 8.56981 23.6493 8.56981 23.0924C8.56981 22.5354 8.11838 22.084 7.56138 22.084Z" fill="#F05A29"/>
<path d="M31.9883 15.9195L30.0048 13.3648C29.8143 13.1188 29.5201 12.9749 29.2085 12.9749H21.8808V5.91609C21.8808 5.35909 21.4293 4.90771 20.8724 4.90771H4.06563C3.50863 4.90771 3.05725 5.35915 3.05725 5.91609C3.05725 6.47303 3.50869 6.92446 4.06563 6.92446H19.8639V13.9833C19.8639 14.5403 20.3154 14.9917 20.8723 14.9917H28.7147L30.1833 16.8834V22.0841H27.3933C26.8363 22.0841 26.3849 22.5355 26.3849 23.0925C26.3849 23.6495 26.8364 24.1008 27.3933 24.1008H31.1916C31.7486 24.1008 32.2 23.6494 32.2001 23.0925V16.538C32.2001 16.3141 32.1254 16.0963 31.9883 15.9195Z" fill="#F05A29"/>
<path d="M7.49399 16.9746H2.8553C2.2983 16.9746 1.84692 17.426 1.84692 17.983C1.84692 18.54 2.29836 18.9914 2.8553 18.9914H7.49392C8.05092 18.9914 8.5023 18.5399 8.5023 17.983C8.50236 17.426 8.05092 16.9746 7.49399 16.9746Z" fill="#F05A29"/>
<path d="M9.81339 13.0083H1.20833C0.651389 13.0083 0.199951 13.4597 0.199951 14.0167C0.199951 14.5737 0.651389 15.0251 1.20833 15.0251H9.81339C10.3704 15.0251 10.8218 14.5737 10.8218 14.0167C10.8218 13.4598 10.3704 13.0083 9.81339 13.0083Z" fill="#F05A29"/>
<path d="M11.4604 9.04199H2.8553C2.2983 9.04199 1.84692 9.49343 1.84692 10.0504C1.84692 10.6074 2.29836 11.0587 2.8553 11.0587H11.4604C12.0174 11.0587 12.4687 10.6073 12.4687 10.0504C12.4688 9.49343 12.0174 9.04199 11.4604 9.04199Z" fill="#F05A29"/>
</g>
<defs>
<clipPath id="clip0_142_4742">
<rect width="32" height="32" fill="white" transform="translate(0.199951)"/>
</clipPath>
</defs>
</svg>
