<svg width="49" height="49" viewBox="0 0 49 49" fill="none" xmlns="http://www.w3.org/2000/svg">
<path fill-rule="evenodd" clip-rule="evenodd" d="M20.523 18.6108V16.9078C19.932 16.8241 19.3359 16.7807 18.739 16.7778C11.439 16.7778 5.5 22.7178 5.5 30.0178C5.5 34.4958 7.738 38.4598 11.152 40.8568C8.86604 38.4122 7.59516 35.1898 7.597 31.8428C7.597 24.6468 13.367 18.7788 20.523 18.6108Z" fill="#00F2EA"/>
<path fill-rule="evenodd" clip-rule="evenodd" d="M20.8346 37.8889C24.0916 37.8889 26.7486 35.2979 26.8696 32.0689L26.8806 3.24395H32.1466C32.0342 2.6421 31.9773 2.0312 31.9766 1.41895H24.7846L24.7726 30.2449C24.6526 33.4729 21.9946 36.0629 18.7386 36.0629C17.761 36.0633 16.7982 35.8251 15.9336 35.3689C16.4919 36.1478 17.2275 36.7826 18.0798 37.2208C18.932 37.659 19.8763 37.888 20.8346 37.8889ZM41.9836 13.0279V11.4259C40.0483 11.4277 38.1546 10.8647 36.5346 9.80595C37.9549 11.4412 39.8662 12.5718 41.9836 13.0279Z" fill="#00F2EA"/>
<path fill-rule="evenodd" clip-rule="evenodd" d="M36.5354 9.80512C34.9478 7.98858 34.0733 5.65764 34.0744 3.24512H32.1474C32.3969 4.57857 32.9144 5.84751 33.6687 6.97509C34.4229 8.10268 35.3982 9.06546 36.5354 9.80512ZM18.7394 23.9711C17.1364 23.973 15.5997 24.6106 14.4662 25.744C13.3328 26.8774 12.6952 28.4142 12.6934 30.0171C12.6944 31.1198 12.9968 32.2012 13.5679 33.1444C14.1389 34.0877 14.9569 34.857 15.9334 35.3691C15.1898 34.3438 14.7894 33.1097 14.7894 31.8431C14.7909 30.24 15.4284 28.703 16.5619 27.5694C17.6954 26.4357 19.2323 25.798 20.8354 25.7961C21.4584 25.7961 22.0554 25.8991 22.6194 26.0761V18.7331C22.0283 18.6494 21.4323 18.606 20.8354 18.6031C20.7304 18.6031 20.6274 18.6091 20.5234 18.6111V24.2511C19.9464 24.0675 19.3448 23.973 18.7394 23.9711Z" fill="#FF004F"/>
<path fill-rule="evenodd" clip-rule="evenodd" d="M41.9843 13.0279V18.6179C38.2543 18.6179 34.7993 17.4249 31.9773 15.3999V30.0169C31.9773 37.3169 26.0393 43.2559 18.7393 43.2559C15.9183 43.2559 13.3023 42.3659 11.1523 40.8559C12.3884 42.1889 13.8865 43.2522 15.5528 43.9792C17.219 44.7063 19.0174 45.0813 20.8353 45.0809C28.1353 45.0809 34.0743 39.1419 34.0743 31.8429V17.2259C36.9896 19.3222 40.4906 20.448 44.0813 20.4439V13.2499C43.3613 13.2499 42.6613 13.1729 41.9843 13.0279Z" fill="#FF004F"/>
<path fill-rule="evenodd" clip-rule="evenodd" d="M31.9767 30.0171V15.4001C34.8918 17.4967 38.3929 18.6225 41.9837 18.6181V13.0281C39.8665 12.5715 37.9546 11.4406 36.5347 9.80512C35.3975 9.06546 34.4222 8.10268 33.668 6.97509C32.9137 5.84751 32.3962 4.57857 32.1467 3.24512H26.8807L26.8697 32.0701C26.7487 35.2981 24.0917 37.8891 20.8347 37.8891C19.8764 37.8881 18.9321 37.6591 18.0799 37.2209C17.2277 36.7827 16.492 36.1479 15.9337 35.3691C14.957 34.8571 14.1388 34.0879 13.5676 33.1446C12.9964 32.2013 12.6938 31.1199 12.6927 30.0171C12.6945 28.4142 13.3321 26.8774 14.4656 25.744C15.599 24.6106 17.1357 23.973 18.7387 23.9711C19.3607 23.9711 19.9577 24.0731 20.5227 24.2511V18.6111C13.3667 18.7791 7.59668 24.6471 7.59668 31.8431C7.59668 35.3231 8.94868 38.4911 11.1517 40.8571C13.3725 42.4205 16.0227 43.2585 18.7387 43.2561C26.0387 43.2561 31.9767 37.3171 31.9767 30.0171Z" fill="#141414"/>
</svg>
