<?xml version="1.0" encoding="utf-8"?>
<!-- Generator: Adobe Illustrator 26.2.0, SVG Export Plug-In . SVG Version: 6.00 Build 0)  -->
<svg version="1.1" id="Layer_1" xmlns="http://www.w3.org/2000/svg" xmlns:xlink="http://www.w3.org/1999/xlink" x="0px" y="0px"
	 viewBox="0 0 289 68" style="enable-background:new 0 0 289 68;" xml:space="preserve" xlink:href="data:image/png;base64">
<style type="text/css">
	.st0{fill:#F05A2A;}
	.st1{fill:#00933E;}
	.st2{fill:#58595B;stroke:#58595B;stroke-width:0.75;stroke-miterlimit:10;}
	.st3{fill:#58595B;}
	.st4{enable-background:new    ;}
	.st5{fill:#455B7D;}
	.st6{fill-rule:evenodd;clip-rule:evenodd;fill:#0072BE;}
	.st7{fill-rule:evenodd;clip-rule:evenodd;fill:#10ABE4;}
	.st8{fill-rule:evenodd;clip-rule:evenodd;fill:url(#Oval_00000141440306165563496800000006211466166407724979_);}
	.st9{fill-rule:evenodd;clip-rule:evenodd;fill:url(#Oval-Copy_00000058553655671467262440000014452835309532991149_);}
	.st10{fill-rule:evenodd;clip-rule:evenodd;fill:#FFFFFF;}
	.st11{fill-rule:evenodd;clip-rule:evenodd;fill:#0674BB;}
</style>
<metadata><?xpacket begin="﻿" id="W5M0MpCehiHzreSzNTczkc9d"?>
<x:xmpmeta xmlns:x="adobe:ns:meta/" x:xmptk="Adobe XMP Core 7.1-c000 79.b0f8be9, 2021/12/08-19:11:22        ">
   <rdf:RDF xmlns:rdf="http://www.w3.org/1999/02/22-rdf-syntax-ns#">
      <rdf:Description rdf:about=""
            xmlns:xmp="http://ns.adobe.com/xap/1.0/"
            xmlns:xmpGImg="http://ns.adobe.com/xap/1.0/g/img/"
            xmlns:dc="http://purl.org/dc/elements/1.1/"
            xmlns:xmpTPg="http://ns.adobe.com/xap/1.0/t/pg/"
            xmlns:stDim="http://ns.adobe.com/xap/1.0/sType/Dimensions#"
            xmlns:xmpG="http://ns.adobe.com/xap/1.0/g/"
            xmlns:xmpMM="http://ns.adobe.com/xap/1.0/mm/"
            xmlns:stRef="http://ns.adobe.com/xap/1.0/sType/ResourceRef#"
            xmlns:stEvt="http://ns.adobe.com/xap/1.0/sType/ResourceEvent#">
         <xmp:CreatorTool>Adobe Illustrator 26.2 (Macintosh)</xmp:CreatorTool>
         <xmp:CreateDate>2022-03-30T15:12:01+10:00</xmp:CreateDate>
         <xmp:MetadataDate>2022-03-30T15:12:01+10:00</xmp:MetadataDate>
         <xmp:ModifyDate>2022-03-30T15:12:01+10:00</xmp:ModifyDate>
         <xmp:Thumbnails>
            <rdf:Alt>
               <rdf:li rdf:parseType="Resource">
                  <xmpGImg:width>256</xmpGImg:width>
                  <xmpGImg:height>56</xmpGImg:height>
                  <xmpGImg:format>JPEG</xmpGImg:format>
                  <xmpGImg:image>/9j/4AAQSkZJRgABAgEASABIAAD/7QAsUGhvdG9zaG9wIDMuMAA4QklNA+0AAAAAABAASAAAAAEA&#xA;AQBIAAAAAQAB/+4ADkFkb2JlAGTAAAAAAf/bAIQABgQEBAUEBgUFBgkGBQYJCwgGBggLDAoKCwoK&#xA;DBAMDAwMDAwQDA4PEA8ODBMTFBQTExwbGxscHx8fHx8fHx8fHwEHBwcNDA0YEBAYGhURFRofHx8f&#xA;Hx8fHx8fHx8fHx8fHx8fHx8fHx8fHx8fHx8fHx8fHx8fHx8fHx8fHx8fHx8f/8AAEQgAOAEAAwER&#xA;AAIRAQMRAf/EAaIAAAAHAQEBAQEAAAAAAAAAAAQFAwIGAQAHCAkKCwEAAgIDAQEBAQEAAAAAAAAA&#xA;AQACAwQFBgcICQoLEAACAQMDAgQCBgcDBAIGAnMBAgMRBAAFIRIxQVEGE2EicYEUMpGhBxWxQiPB&#xA;UtHhMxZi8CRygvElQzRTkqKyY3PCNUQnk6OzNhdUZHTD0uIIJoMJChgZhJRFRqS0VtNVKBry4/PE&#xA;1OT0ZXWFlaW1xdXl9WZ2hpamtsbW5vY3R1dnd4eXp7fH1+f3OEhYaHiImKi4yNjo+Ck5SVlpeYmZ&#xA;qbnJ2en5KjpKWmp6ipqqusra6voRAAICAQIDBQUEBQYECAMDbQEAAhEDBCESMUEFURNhIgZxgZEy&#xA;obHwFMHR4SNCFVJicvEzJDRDghaSUyWiY7LCB3PSNeJEgxdUkwgJChgZJjZFGidkdFU38qOzwygp&#xA;0+PzhJSktMTU5PRldYWVpbXF1eX1RlZmdoaWprbG1ub2R1dnd4eXp7fH1+f3OEhYaHiImKi4yNjo&#xA;+DlJWWl5iZmpucnZ6fkqOkpaanqKmqq6ytrq+v/aAAwDAQACEQMRAD8AmVp5z1/yV5iv9N5G8sIL&#xA;iRTaTMaceXwtG2/AlaHpT2zQR1M8EzHmLexnocWqxRn9MiOY/T3spn/PXSlgU2+lzyT/ALSSOkaD&#xA;5OOZP/A5lntSNbRLro+z873kKVNJ/PDR7idY9RsZbFGNPWRxOq+7AKjU+QOHH2nEn1CvtY5uwckR&#xA;cJCX2PRra5t7qCO4t5FmglUNHKhDKynoQRmyjIEWHRyiYmiKKphYuxV2KuxV2KuxV2KuxV2KuxV2&#xA;KuxV2KuxV2KuxV2KuxV2KuxV2KuxV2KuxV2KuxV2KuxV4d+dOlfVfM8V+oomoQKWPjJF8Df8LwzQ&#xA;9pY6yX3h67sLNxYTH+afv/BQ35a+QLfzK9xd38jx6fasE4RkB5JCK05EGgUdfnkdFpBlsnkGztTt&#xA;E4KjEeopn+Yv5YafomlHV9Jkk9CFlW6glPKgchVdWoD9ogEHxy3WaEQjxRcfsztWWWfBPmeRTL8j&#xA;tbnkjvtGlYtFCBcWwP7IY8ZAPYkg/flvZeU7xaO3sABjkHXY/oeq5tnnGMfmdfGy8ga5ODQm1aIG&#xA;tP74iL3/AJ8VYX+S3mDQNF8jj9LapbWk13dyzRxzzRq5SixBuJblSsR3pir1IapphsP0iLuA6fx5&#xA;/XBIno8B+16leNPeuKpbaeePJ15cra22t2Utw54pEs8fJmJoAu+59hiqa3l7Z2Vu1zezx21slOc0&#xA;zrGi1NBVmIAxVLrDzf5W1F5I9P1W1u5o1Z2hhlR34qKkhQammKvKf+ccg89z5hvJXLyf6OoLGv2z&#xA;Kzbnf9kYVeqT+c/KFu0iTa3YJJCSJYzcw81KmjAryrUHrgVTbz55KWKKVtcsVSb+6JnjHIAlagV6&#xA;VUiuKpp+k9N+ofpH63D+j+HqfXPUX0eH83qV48feuKpbaed/J13ci1ttbspbhm4pEs8ZZmJoAu/x&#xA;H5Yqmt5e2Vlbvc3txHbW0dOc8zrGi1NBVmIAxVLdO84+VdSlaGw1a1upkUuYopUZ+KipIUGpoBvT&#xA;FXlf/OOge4vfMV7K7PJ/o61Yk19RpWY1P+qMKvVrfzb5YudT/RdvqltNqPJk+qxyq0nJASw4g9Vo&#xA;a4FU7nzt5OtbtrS41uyiuVPF4muIwVYGhDb/AAn54qi9T8waJpdtFdajfQWttOQsM0rqqOSOQ4sd&#xA;jtviqEHnbycZo4Brdj6stDGn1iKp5dP2uprsMVTrFUhm84eVLn6xY22s2Ut6VdFgS4jLl+J+FQG+&#xA;I+wxVgH/ADjnNNLousGWRpCLmOhYk/7r98VelP5o8tJefUn1ayW8rx+rNcRCWvhwLcq/RiqPuLm3&#xA;toXnuJUhgjFXlkYIijxLGgGKoCw80eWtQnEFhq1ldznpFBcRSv8A8CjE4q81/NSaZPzP8kIkjKjX&#xA;NvyUEgH/AEtOoxV6te39jYwG4vrmK1gXrLM6xoP9kxAxVD6d5h0DUnKadqdpeuOq288cpFPZGbFW&#xA;K/m95en1Xy2t1axmS505zNwAqxiYUkp8tm+QzA7QwmcLHOLt+xtSMeWjylt8ejzPyD5+m8rTzo8H&#xA;1mwuuJliB4urLsHQnbodxmr0mrOInawXf9o9nDUAUakEw8//AJo/4hsBptlbNa2RZXmeQgySFdwv&#xA;FagAHfqcu1OsOUcMRs4On0eLRfvc0x5fjmSu/KXzF5a0O6vrjVbv6vPcBIYAUdhxB5MSyqwFTTJ6&#xA;DhxkmR5uq7W7ZwZ+GMDsPIvbrS7tby3S5tJknt5BWOWNgysPYjbNyCDuHVgg7hg/54XawflxqCHr&#xA;cyQRL16+ssnb2Q4UvPvK/wCUGh6h+W0vmG9mn/SUttcXNsEdVij9Ln6YYcW5V4VbfvTbrhVIvKLe&#xA;Wb/yJd6d5n1mXTbW2v45rBY+UjOWT98ohXlyBUCjU+BjXuQVUN54h/KpdJtz5SnuX1JJQsyzCXi8&#xA;RU1Y81A5BgPs064qmSTan+YXmzy/5avbyQafa2duJmQmpKWyyzyHnWsjH4ORGKs0178kvLGi2V5r&#xA;ljdXSDTrK5nFs7g85kiLRtzAUgAjdf2vbuFeV+X/AD3e+X/K2o6VpfKHUNVmHr3wNDHAiUCxU3Ds&#xA;Wardh03NQVZ7rXkjSPKP5P310JI73VdZW1D3yGq8HlSYRwmn2OK1r+118AFVDyp+Uehah+Ws2vXz&#xA;zHU57e4uLUq/FIhDz9McaHlyKVavY7U64qkHlD/DV/5EvtP8y6zLplrb38c9ksZZ2dmSkyiFa86q&#xA;BvT4Dv3IKqF87wflUmkW58pXF1JqaShZhMJOLxFWJY81Ucg3GnGnyxVMhNq35g+avL3lm8vHFhbW&#xA;dv6rqSSStsss0jVqDI32Ax/rirONe/JPyvo9rc67p9xdRfouzuLgWxevOaGItG/McWX4lqwHX27h&#xA;Xk/l7z3e+X/K+o6XpdYb/VZV9e9BoY4EWgWOm/NizfF+yOm5qCrOtW0S3/L38slvtOuFn13zCYoJ&#xA;NUjr8FvKhmZbckVClVAr1Na9hRVitrZ/lOPJz/WtQum80PC0qsscoiWehKQgcOJXorMT7gjFUrv9&#xA;YvrryFo+nTOXittQu1g5GvFBFAwUewaVj9OKvZdP/wCce/KMUNk15PdT3EJV7wB1WOY8fiQAKGVO&#xA;Xga0798Cpz+cWoy6R+XV6tifQMvpWkfp/DxjdgGUUpQFAVxViXl38mPLN5+XcF9cpIdbvLP63FeC&#xA;R1EbSIZIlCA8OIBWtRX5YVYJ5d8yXuiflhrQsZTDc6hqENp6qGjrG0Lu5U9qhOP04qmFvpn5Inyo&#xA;sM2sTDzC0Adrr0rvitwVrw4CP0ygb4fH3xVMPK91oPmX8vI7Tzlq8tja6LeqltMJDWWJkDeiU+Lm&#xA;VAPE8SVHTauKpV57j/KCPSIp/Jt3LHrMEqEIBdjmndi06gKy7EcSMVT3zLqNxqXmX8rr+5blcXKW&#xA;Mkzn9pzcR8m+k74qs/N2WH/lZ+nr5oE58rpEhiSHlQpxPqcaEb+rs9Pi409sVTby3pP5E3vmOwuN&#xA;FvpIL6GQPBYu9xGjyV+Acp1qxB6Kr7++KvZsCsG8yflR5Uv3mv1MmmuA0kzQU9I03ZjGwNP9jTMD&#xA;NoMct/pdtp+2c2IUfUPN4TFbPd3y21kjyvPII7aM05sWaiLttXfNfCHQPMa3WZNVlM5deQ7vJnVz&#xA;+SnmmHTTdJLbzXKryazRm59K0ViApb2/HMs6OYFsTo5VaF/KzzXeaN5ih06Rz+j9QkEM0LdElY8U&#xA;kA7HlQH2+QyOmymMq6FjpspjKuhZd/zkPI3+DLOFQxaS/jOwrssUvX7xm2dqwGH81dYsvIg8mDR3&#xA;W/a3Nmt27NUxT1pSEpWpjfivxe/thVILzyfrflSTQtX1vS3nsJmS4ntHFFqshJt5dm4M8ag0Yd6d&#xA;iMVRXn7zXpvmGzs10byzFo1pFIxe4iiQNK4UDhyjjTZQ1SKnqMVTnUtP138tfO9p5gFg15pjQoiN&#xA;8SoecAjkiL0bg6sDSvb6cVTPWfzb8x+ZfL+vRw6E1voptBE10pLmKSSRU+ORgqNzDcQqryHXxxVD&#xA;+VPyutda/Ka7v47euvzyPPZSmvIi2JUQgGn958Y+dCemyrF7vzjPdfljH5ZvCwubDUI3tSwI5Wxj&#xA;lJU/8Y5KdexHhiqcWv5qatZeQl8mx6O4vZbdraO7ZjVorklgVh4VJaOSi/F74qkF75Q1zypJoWra&#xA;3pbz2EzJczWjii1WQk28uzcGeNVNCO9OoIxVF+fvNmmeYbO0XR/LMWjWkMjGS5iiQNK/EfByjjQA&#xA;KGrSp6jFU41LTte/LfznY+YUsmvNNMESh9wjF7cRyxM4X4GDAlajw98VTXV/zc8y+ZNC12ODQGh0&#xA;RrIxSXKlpDFI7BKtIQiNy5U4BajruAcVUPJ/5X2WuflTe3iW9deuJHlspjXl/oxKrEAaACT4h8yC&#xA;egxVILKbWvM/5et5aihkn1HQLgXtrBQmSS0YMkiIKbtE7g0r9k7dMVRum/mTpcOjW+lJ5IsbrW4o&#xA;lt1uXhR/UkUBQ7RelzZj+0OfXFVTz3a3t9rHk/TZ9Ei0W5uY43urG2RVjEtzcekXpF0LLEp4n4l6&#xA;dsVfRmBWJfmr5evNe8j39jYxma9X057eIdWMThmUe5TlT3xV5v5f/N68s/KcflVdFu5vMVtbtZwK&#xA;q/D8IKIzofjBRaVFO3bsVY75Q8p3/mP8tNctrCP1L+yv4bqGHoz8IWR0Fe/FyQO5GKsh0z82fLNj&#xA;osOma55VMmt2qLC8RghCSOg4hn9QB0ZiNxwOKpZ5yttSnTy55rvvKn1DSIXpf6XEiojBZA/N1UAo&#xA;syfD8a/s+FKqqf5g+ePKWv8Altrfy55ca0EcsbXWoNbQwiMb8UDQl/tnxIxVEea49Q07Rvy78zR2&#xA;zT2Wm21s8rKDQPE6ShXI+zzA2OKsh1H88NLunjmvPLE115ZkX93cXCIzGdTRqK3OKgO1OVe/emKs&#xA;P8xyaT571rTbTyJ5dbTmiYi4ukhSAfEVo0ggLRosdCeRNd8VfSmBWN/mNqf6O8l6pMDSSWL6unjW&#xA;ciM0+SsTlOolUC06iVQLwLyrrEejeYbDU5E9SK2lDSIOvEgqxHuAajNTinwyBdXjnwyBe93P5keT&#xA;IdNN+NThlXjVLeM1nY0qF9L7YJ/ygBm2OogBdu0OogBdvEfLUNxrXnmzeCPi9xfC5dF3CIJPVf6F&#xA;UHNZjHFkHvdbjHFMe99KZuXcOxV2KuxV2KuxV2KvLvzz8r+ZfMNto8Gi2TXiwvO9xxZF4khAlebL&#xA;1+LFXpWn2otLC2tB0t4kiHfZFC/wxVXxV2KuxV2KuxV2KuxV2KuZgoLMQFAqSegGKoW11bS7uRor&#xA;W8hnkX7SRyKxH0A5ZPDOIsghrhlhI0CCisrbHYq7FXYq7FVryRpx5sF5HitTSpPYe+EBBLaujFgr&#xA;AlDRwDWhpWh+g40tt4EuxV5j+eupGPSdO01TvczNM4H8sK8RX6ZPwzC1stgHC1stgGHaH+UPmzVL&#xA;RbpxFYRuKxJclhIwPQ8FVio/1t/bMaGknIXyceGlnIXyV4/yU84tP6bNapH/AL+MrFfoAXl+GS/J&#xA;z8mX5Ofk9N8j/l7pvleNpQ/1rUpl4y3TDiAvXhGu9Fr17nM3DpxD3uZhwCHvZXl7e7FXYq7FXYq7&#xA;FXYq7FXYq7FXYql/mDV10bQ77VWiMy2ULzmIHiWCCtK0NMlEWaQTQYzpn5seXri3Ml8DaOszREwk&#xA;3kPFFjZpfWhUr6a+soZjSh2yZwnoxEwif+VqeSA0itflXiBaVDFJyUBHc1HGuwjI+dB1IweFJPGH&#xA;f8rT8mcC4uZiqRiWSltPVQZTCFYcKhzKpUKd64+FJeMNR/mXoF3q+l6bpZa+bUXVZJQsiJCrwvKv&#xA;IslOZ9P7BIPftj4RAJK8YU7H80/Lshmj1DnYTxXMtvxZJHRljmaESCXgqkFlANPskheuE4j0RxhF&#xA;eZr+G/0DTbqJiNLvp7d52krFWCQclElaFVZuPLpmTohUz/OETXvcbWH0j+bxC/c808vN54+tXsup&#xA;2LwG1aM2L/V1g4XTTxxpHEyKtY2RiCu60+iu1MsZoA2Dd73tR+37XX8MxvW4qtutsg8y6r53i/Nm&#xA;zs9MMBDWlbS1lkkEDwMWMjygEUflGen8q9cwsOPEdOTK+fxtzckp+MAO5G6b+YfmnU/NuoaLYaVB&#xA;JbadeSR3V08jIqW8RMZLNT7bOvIUHTan7WVz0eOOMSMjZH2s46icpmIHIpSPzY81WGoWx1aLSptP&#xA;nmEM0dhcLNPFU9Twml/FaGlNsu/IY5RPDxX5jb7mv81MHfhryTi1/NOZNE8x3Gp2sdvqmhzmFbQM&#xA;eL+o5SEV6mjCjEdt9sploRxQETcZD+1sGq9MiRvFu18/+Yb6G0ggt7S1vzbJcXjXD8I+TqGVU5Mt&#xA;Kqw2JPWnauT/ACWONkkkXQpx5a2ZPDGga3tDaz5jfW9M0e4dPRuIb8RzopPHkoUhl+g5bh0/hykO&#xA;Y4WnNqPFjE8jxKmn+YV0S8813joZnN8sUEZNAXaSelT4ALgyYPFGMf0f1Jx5/COSX9L9aaJ5q80a&#xA;beWf6fs4Y7K+YIrxVDRs3ZvibpXcZQdNimD4ZNxbxqssCPEA4ZM0zWuyQN5oek3t9a313bJPdWdf&#xA;qsj1PAtQkha8a7DemRMATZ6MTAE2eiOyTJ2KuxV2KuxV2KuxV2KuxV2KuxV2KuxV2KobU9NtNT06&#xA;50+8Uva3UbRTICVJRhQio3GEGjakIDVfKHl/VUtUvbYulmCkKo8kYKMVLRuI2XmjFFJVqg0wiZCD&#xA;EII/lx5NM11M2nqz3ouBc1Z/i+tOry9DseSjjT7PbJeLJHCGovy58px2dxafVpHiukjjmLzSs5EU&#xA;rTxsHLcgyyOTUH8MfEK8IX2X5feV7K/tb62glS5s+JiJnmZSyo0Yd0ZyrPwcjkRXAchK8IQOqflb&#xA;5du7S9t4A8B1FwbuR2knpGZxcSJCrvxi5yAGqj6MkMpCmAZTdafaXVjJYzRg2siek0Y2AWlNvCnb&#xA;IwyGMhIcws4CQo8ixDyj+Xsmk6xPfX0wuVgJTTVqT8B/bYdmHQD6fDNnrO0hkxiMRV/U4Gm0PhzM&#xA;jv3KXm/yn5suPOumeZfL81sr2tuLaSO5LAU5yFqgK1VZZabbjKdPqMYxGE73N7N2XFMzEot6d+Xu&#xA;oW486CS7jH+JXc2rKG/dhxK3x/7Kfjt2HvgnqwfD2+j9n6kx05HHv9TE4Pyl83z6ZZ6dcR6TbJYX&#xA;AkF3Eh+tTKW35yhalVBNAaV2r0zMOvxiRkOI2OXRxxpZkAHh2T/zd+VMutecIdUgnSLS7oxtq9uS&#xA;ys5hP7IXY81236HfMfT68QxcJ+ocm3LpeKd9OqZ+YPJl++svqmmRWtwJ0Cy2l0oKqQAoZO3RcGDV&#xA;xEOGViuoatRpJGfHGjfQr5PJmpz6VplvJJbRT2t0bicQpwTg2+wULVhSnQYBq4iciLoiknRyMIg1&#xA;YNrLn8v5rlNbElwga/ulurMgGilTIaP8/WK7fP2wx14jwbfSKP2fqRLQGXHv9Rsfb+tpfLPmvVbq&#xA;zXX7iE2Ni4fhFu0pXudh16V/DH8zigD4YPFL7EflsuQjxCOGP2v/2Q==</xmpGImg:image>
               </rdf:li>
            </rdf:Alt>
         </xmp:Thumbnails>
         <dc:format>image/svg+xml</dc:format>
         <xmpTPg:MaxPageSize rdf:parseType="Resource">
            <stDim:w>289.000000</stDim:w>
            <stDim:h>68.000000</stDim:h>
            <stDim:unit>Pixels</stDim:unit>
         </xmpTPg:MaxPageSize>
         <xmpTPg:NPages>1</xmpTPg:NPages>
         <xmpTPg:HasVisibleTransparency>False</xmpTPg:HasVisibleTransparency>
         <xmpTPg:HasVisibleOverprint>False</xmpTPg:HasVisibleOverprint>
         <xmpTPg:PlateNames>
            <rdf:Seq>
               <rdf:li>Cyan</rdf:li>
               <rdf:li>Magenta</rdf:li>
               <rdf:li>Yellow</rdf:li>
               <rdf:li>Black</rdf:li>
            </rdf:Seq>
         </xmpTPg:PlateNames>
         <xmpTPg:SwatchGroups>
            <rdf:Seq>
               <rdf:li rdf:parseType="Resource">
                  <xmpG:groupName>Default Swatch Group</xmpG:groupName>
                  <xmpG:groupType>0</xmpG:groupType>
               </rdf:li>
            </rdf:Seq>
         </xmpTPg:SwatchGroups>
         <xmpMM:DerivedFrom rdf:parseType="Resource">
            <stRef:instanceID>xmp.iid:89790a33-aedd-429b-9851-a19bf35c4e6d</stRef:instanceID>
            <stRef:documentID>xmp.did:89790a33-aedd-429b-9851-a19bf35c4e6d</stRef:documentID>
            <stRef:originalDocumentID>xmp.did:953b2012-e38d-4b30-aeac-b287114119c8</stRef:originalDocumentID>
         </xmpMM:DerivedFrom>
         <xmpMM:DocumentID>xmp.did:70d52571-8139-4772-9f70-2399fc9c839d</xmpMM:DocumentID>
         <xmpMM:InstanceID>xmp.iid:70d52571-8139-4772-9f70-2399fc9c839d</xmpMM:InstanceID>
         <xmpMM:OriginalDocumentID>xmp.did:953b2012-e38d-4b30-aeac-b287114119c8</xmpMM:OriginalDocumentID>
         <xmpMM:History>
            <rdf:Seq>
               <rdf:li rdf:parseType="Resource">
                  <stEvt:action>saved</stEvt:action>
                  <stEvt:instanceID>xmp.iid:953b2012-e38d-4b30-aeac-b287114119c8</stEvt:instanceID>
                  <stEvt:when>2022-03-30T13:29:33+10:00</stEvt:when>
                  <stEvt:softwareAgent>Adobe Illustrator 26.2 (Macintosh)</stEvt:softwareAgent>
                  <stEvt:changed>/</stEvt:changed>
               </rdf:li>
               <rdf:li rdf:parseType="Resource">
                  <stEvt:action>saved</stEvt:action>
                  <stEvt:instanceID>xmp.iid:70d52571-8139-4772-9f70-2399fc9c839d</stEvt:instanceID>
                  <stEvt:when>2022-03-30T15:12:01+10:00</stEvt:when>
                  <stEvt:softwareAgent>Adobe Illustrator 26.2 (Macintosh)</stEvt:softwareAgent>
                  <stEvt:changed>/</stEvt:changed>
               </rdf:li>
            </rdf:Seq>
         </xmpMM:History>
      </rdf:Description>
   </rdf:RDF>
</x:xmpmeta>
                                                                                                    
                                                                                                    
                                                                                                    
                                                                                                    
                                                                                                    
                                                                                                    
                                                                                                    
                                                                                                    
                                                                                                    
                                                                                                    
                                                                                                    
                                                                                                    
                                                                                                    
                                                                                                    
                                                                                                    
                                                                                                    
                                                                                                    
                                                                                                    
                                                                                                    
                                                                                                    
                           
<?xpacket end="w"?>
	</metadata>
<g id="Symbols">
	<g id="Group-4">
		<path id="Shape" class="st0" d="M15.2,8.8C14.8,9,14.4,9.1,14,9.2l0,0c-3.6,1-7.5-1.9-7.5-1.9c-2.4-1.6-4-2.8-4-2.8
			C2,4.2,1.2,3.5,0.4,3.8c-0.8,0.3,0,2.2,0,2.2l0.1,0.3l4.8,17.5v0c0,0,0.2,0.7,0.3,1c2,7.1,9.4,11.2,16.7,9.3
			c7.2-1.9,11.5-9.1,9.6-16.1C29.9,11.1,22.4,6.9,15.2,8.8z M20.9,27c-3.2,1.1-6.7-0.5-7.9-3.6s0.5-6.5,3.7-7.6
			c3.2-1.1,6.7,0.5,7.9,3.6C25.7,22.4,24,25.9,20.9,27z"/>
		<path id="Shape_00000153685076320735291530000018271771650910322602_" class="st1" d="M43.9,44.7c1.7-7.1-2.8-14.3-10.1-16
			s-14.5,2.8-16.1,10c-0.1,0.4-0.2,1.1-0.2,1.1v0l-4.2,17.8l-0.1,0.3c0,0-0.7,1.9,0.1,2.2s1.7-0.4,2.1-0.8c0,0,1.5-1.3,3.8-3
			c0,0,3.8-3.1,7.4-2.1l0,0c0.4,0.1,0.8,0.2,1.2,0.3C35,56.3,42.2,51.8,43.9,44.7z M36.6,44.4c-1.4,3-5,4.4-8.1,2.9
			c-3.1-1.4-4.4-5-3-8s5-4.4,8.1-2.9C36.6,37.7,38,41.3,36.6,44.4z"/>
		<g id="Group" transform="translate(27.624176, 5.331562)">
			<path id="Shape_00000103960121669129244250000005218604867705792672_" class="st2" d="M36.2,32.5c-1.2,1.1-2.7,1.6-4.6,1.6
				c-1,0-1.9-0.2-2.7-0.5c-0.7-0.3-1.4-0.9-1.9-1.7l-0.2,1.9h-3.6l2.6-25.7h3.6l-0.9,9.3c0.7-0.7,1.5-1.3,2.3-1.6
				c0.8-0.3,1.7-0.5,2.7-0.5c1.9,0,3.3,0.5,4.1,1.4c0.8,1,1.4,2.1,1.5,3.4c0.2,1.3,0.1,2.8,0,4.5c-0.2,1.8-0.5,3.3-0.8,4.6
				C37.8,30.6,37.2,31.7,36.2,32.5z M32.2,18.7c-1.5,0-2.6,0.5-3.2,1.6c-0.6,1-1,2.5-1.2,4.4c-0.2,1.9-0.1,3.4,0.3,4.5
				c0.4,1,1.4,1.6,2.9,1.6c1.5,0,2.6-0.5,3.2-1.6c0.6-1,1-2.5,1.2-4.5c0.2-1.9,0.1-3.4-0.3-4.5C34.7,19.3,33.7,18.7,32.2,18.7z"/>
			<path id="Shape_00000112625355078972144020000007218860308166771383_" class="st2" d="M49.7,34l0.2-1.7c-0.8,0.7-1.5,1.2-2.2,1.4
				c-0.7,0.3-1.7,0.4-2.8,0.4c-2.1,0-3.7-0.5-4.6-1.6c-0.9-1-1.3-2.4-1.1-4c0.2-1.6,0.8-2.9,2-3.8s2.8-1.5,4.8-1.5h4.8l0.1-1.3
				c0.1-1.2-0.1-2.1-0.7-2.6c-0.6-0.6-1.6-0.8-3-0.8c-1,0-1.8,0.1-2.4,0.4c-0.6,0.2-1.2,0.7-1.8,1.4L40.9,18c0.9-1,1.9-1.7,2.9-2
				c1-0.4,2.3-0.6,3.8-0.6c5,0,7.3,2.1,6.9,6.3l-1.2,12.2L49.7,34z M50.5,25.9h-4.3c-2.2,0-3.4,0.9-3.6,2.6
				c-0.2,1.7,0.8,2.6,3.1,2.6c0.9,0,1.5-0.1,2-0.2s1-0.4,1.6-0.9c0.6-0.5,0.9-1.4,1-2.7L50.5,25.9z"/>
			<path id="Path" class="st2" d="M62.9,34.2c-2.3,0-4.2-0.8-5.6-2.3c-1.4-1.5-1.9-3.9-1.6-7.1c0.3-3.2,1.3-5.5,3.1-7.1
				c1.7-1.5,3.7-2.3,6-2.3c1.3,0,2.4,0.2,3.2,0.6c0.9,0.4,1.7,1,2.5,2l-2.7,2.5c-0.9-1.2-2.1-1.7-3.3-1.7c-1.5,0-2.6,0.5-3.5,1.5
				c-0.8,1-1.4,2.5-1.6,4.6c-0.2,2.1,0,3.6,0.7,4.6c0.6,1,1.7,1.5,3.1,1.5c0.7,0,1.4-0.1,1.9-0.4s1.1-0.7,1.8-1.4l2.3,2.4
				C67.4,33.3,65.3,34.2,62.9,34.2z"/>
			<polygon id="Path_00000139268941306278630010000005914985788125544611_" class="st2" points="81.4,34 77.2,25.5 74.2,28.6 
				73.7,34 70,34 72.6,8.3 76.2,8.3 74.7,24.1 82.6,15.7 87.1,15.7 80,22.8 86,34 			"/>
			<path id="Shape_00000178173685897548902840000006151463239969282232_" class="st2" d="M99.5,32.5c-1.2,1.1-2.7,1.6-4.6,1.6
				c-1,0-1.9-0.2-2.7-0.4c-0.7-0.3-1.4-0.8-1.9-1.7l-0.9,9.3h-3.6l2.6-25.7h3.6l-0.2,1.9c0.7-0.8,1.5-1.3,2.3-1.7
				c0.8-0.3,1.7-0.5,2.7-0.5c0.9,0,1.7,0.1,2.5,0.4c0.7,0.3,1.4,0.8,2,1.4c0.6,0.7,1,1.7,1.1,3c0.1,1.3,0.1,2.8,0,4.5
				c-0.2,1.8-0.4,3.3-0.8,4.6C101.1,30.6,100.4,31.7,99.5,32.5z M95.5,18.7c-1.5,0-2.6,0.5-3.2,1.6c-0.6,1.1-1,2.5-1.2,4.5
				c-0.2,1.9-0.1,3.5,0.3,4.5c0.4,1,1.4,1.6,2.9,1.6c1.5,0,2.6-0.5,3.2-1.6c0.6-1,1-2.6,1.2-4.5c0.2-1.9,0.1-3.4-0.3-4.5
				C98,19.2,97,18.7,95.5,18.7z"/>
			<path id="Shape_00000181788513831358894240000014838656972149562792_" class="st2" d="M113,34l0.2-1.7c-0.8,0.7-1.5,1.2-2.2,1.5
				c-0.7,0.3-1.7,0.4-2.8,0.4c-2.1,0-3.7-0.5-4.6-1.6c-0.9-1-1.3-2.4-1.1-4c0.2-1.6,0.8-2.9,2-3.8s2.8-1.5,4.8-1.5h4.8l0.1-1.3
				c0.1-1.2-0.1-2.1-0.7-2.6c-0.6-0.6-1.6-0.8-3-0.8c-1,0-1.8,0.1-2.4,0.4c-0.6,0.2-1.2,0.7-1.8,1.4l-2.2-2.3c0.9-1,1.9-1.7,2.9-2
				c1-0.4,2.3-0.6,3.8-0.6c5,0,7.3,2.1,6.9,6.3L116.6,34H113z M113.8,25.8h-4.3c-2.2,0-3.4,0.9-3.6,2.6c-0.2,1.7,0.8,2.6,3.1,2.6
				c0.9,0,1.5-0.1,2-0.2c0.5-0.1,1-0.4,1.6-0.9c0.6-0.5,0.9-1.4,1-2.7L113.8,25.8z"/>
			<path id="Path_00000155112973787053444430000009029819042029319601_" class="st2" d="M126.2,34.1c-2.3,0-4.2-0.8-5.6-2.3
				c-1.4-1.5-1.9-3.9-1.6-7.1c0.3-3.2,1.3-5.5,3.1-7.1c1.7-1.5,3.7-2.3,6-2.3c1.3,0,2.4,0.2,3.3,0.6c0.9,0.4,1.7,1,2.5,2l-2.7,2.5
				c-0.9-1.2-2.1-1.7-3.3-1.7c-1.5,0-2.6,0.5-3.5,1.5c-0.9,1-1.4,2.5-1.6,4.6s0,3.6,0.7,4.6c0.7,1,1.7,1.5,3.1,1.5
				c0.7,0,1.4-0.1,1.9-0.4c0.5-0.2,1.1-0.7,1.8-1.4l2.3,2.4C130.7,33.2,128.6,34.1,126.2,34.1z"/>
			<polygon id="Path_00000124147126299989270030000011164421331252776068_" class="st2" points="144.7,34 140.5,25.5 137.5,28.6 
				136.9,33.9 133.3,33.9 135.9,8.2 139.5,8.2 137.9,24.1 145.8,15.6 150.3,15.6 143.3,22.8 149.3,33.9 			"/>
			<path id="Shape_00000001656027943750415820000018193110594953243569_" class="st2" d="M153.3,25.8c-0.2,1.6,0.1,2.9,0.8,3.8
				c0.7,0.9,1.8,1.3,3.3,1.3c1,0,1.8-0.1,2.5-0.4c0.6-0.3,1.4-0.8,2.1-1.5l2.1,2.2c-1.1,1-2.1,1.7-3.2,2.2c-1,0.4-2.4,0.7-3.9,0.7
				c-2.5,0-4.4-0.7-5.8-2.2c-1.3-1.5-1.9-3.8-1.5-7.2c0.3-2.9,1.2-5.2,2.8-6.9c1.6-1.7,3.5-2.5,5.9-2.5s4.2,0.8,5.4,2.4
				c1.2,1.6,1.7,3.8,1.4,6.3l-0.2,1.6H153.3z M161.5,20.8c-0.2-0.7-0.6-1.3-1.2-1.7c-0.6-0.4-1.3-0.6-2.1-0.6s-1.6,0.2-2.3,0.6
				s-1.2,1-1.6,1.7c-0.4,0.7-0.6,1.5-0.7,2.5h8.2C161.8,22.4,161.7,21.5,161.5,20.8z"/>
			<path id="Path_00000111152024887977158530000011610674258231029388_" class="st2" d="M177.3,19.9c-0.4-0.4-0.8-0.7-1.1-0.9
				c-0.4-0.2-0.9-0.3-1.5-0.3c-1,0-1.9,0.4-2.7,1.1c-0.8,0.7-1.2,1.7-1.3,3l-1.1,11.1H166l1.9-18.3h3.6l-0.2,2
				c0.5-0.6,1.2-1.2,2.1-1.6c0.9-0.4,1.9-0.6,2.9-0.6c1,0,1.7,0.1,2.3,0.4c0.6,0.2,1.2,0.7,1.8,1.4L177.3,19.9z"/>
		</g>
		<g id="Group_00000026850115850978586740000017152519060262437511_" transform="translate(116.315615, 5.156250)">
			<path id="Shape_00000073690334508340151490000007605158487279955124_" class="st3" d="M109.4,34.4v-2c-0.7,0.8-1.4,1.4-2.2,1.7
				c-0.8,0.3-1.7,0.5-2.8,0.5c-0.9,0-1.8-0.2-2.6-0.4c-0.8-0.3-1.5-0.8-2.2-1.5c-0.7-0.7-1.2-1.7-1.5-3.1c-0.3-1.4-0.4-2.9-0.4-4.6
				c0-2.3,0.2-4,0.6-5.2c0.4-1.1,1-2.2,1.9-3.1c0.9-0.9,2.3-1.3,4.2-1.3c1,0,2,0.2,2.8,0.4c0.8,0.3,1.5,0.8,2.2,1.7V8.1h3.7v26.4
				L109.4,34.4L109.4,34.4z M105.5,18.8c-1.6,0-2.6,0.6-3.1,1.7c-0.5,1.1-0.8,2.6-0.8,4.6c0,2,0.3,3.6,0.8,4.6
				c0.5,1.1,1.6,1.6,3.1,1.6c1.6,0,2.6-0.5,3.1-1.6c0.5-1.1,0.8-2.6,0.8-4.6c0-2-0.3-3.5-0.8-4.6C108.1,19.4,107,18.8,105.5,18.8z"
				/>
			<path id="Shape_00000160191249170733118770000016013919078039581592_" class="st3" d="M118.9,26.2c0,1.7,0.4,2.9,1.3,3.8
				c0.8,0.9,2.1,1.4,3.6,1.4c1,0,1.9-0.1,2.6-0.4c0.6-0.3,1.4-0.8,2.1-1.5l2.5,2.2c-1,1-2.1,1.7-3.2,2.2c-1.1,0.5-2.4,0.7-4,0.7
				c-2.7,0-4.8-0.7-6.3-2.2c-1.6-1.5-2.3-3.9-2.3-7.3c0-3,0.7-5.3,2.2-6.9c1.5-1.7,3.5-2.5,6-2.5c2.5,0,4.5,0.8,6,2.5
				c1.5,1.7,2.2,3.8,2.2,6.5v1.7L118.9,26.2L118.9,26.2z M127,21.1c-0.3-0.7-0.8-1.3-1.5-1.7c-0.7-0.4-1.5-0.6-2.3-0.6
				c-0.9,0-1.7,0.2-2.3,0.6c-0.6,0.4-1.1,1-1.5,1.7c-0.3,0.7-0.5,1.6-0.5,2.5h8.6C127.5,22.8,127.3,21.9,127,21.1z"/>
			<path id="Shape_00000090274033419947151770000017547878706608853386_" class="st3" d="M143,34.5v-1.7c-0.7,0.7-1.5,1.2-2.2,1.5
				c-0.7,0.3-1.7,0.4-2.9,0.4c-2.3,0-3.9-0.5-5-1.6c-1.1-1.1-1.6-2.4-1.6-4.1c0-1.6,0.6-2.9,1.7-3.9c1.1-1,2.7-1.5,4.9-1.5h5v-1.3
				c0-1.2-0.3-2.1-1-2.6c-0.6-0.6-1.7-0.8-3.2-0.8c-1,0-1.9,0.1-2.5,0.4c-0.6,0.2-1.2,0.7-1.7,1.4l-2.5-2.3c0.9-1,1.8-1.7,2.9-2.1
				c1-0.4,2.3-0.6,4-0.6c5.2,0,7.8,2.1,7.8,6.4v12.4L143,34.5L143,34.5z M143,26.3h-4.5c-2.3,0-3.4,0.9-3.4,2.7s1.2,2.6,3.5,2.6
				c0.9,0,1.6-0.1,2.1-0.2c0.5-0.1,1-0.4,1.5-0.9c0.5-0.5,0.8-1.4,0.8-2.7L143,26.3L143,26.3z"/>
			<path id="Path_00000088842664811272398180000009568875668205431691_" class="st3" d="M154.9,34.7c-1.7,0-3.1-0.5-4-1.5
				c-0.9-1-1.3-2.2-1.3-3.8V8.1h3.9v21.1c0,0.7,0.2,1.3,0.5,1.7c0.3,0.4,0.8,0.5,1.6,0.5h1.7v3.2L154.9,34.7L154.9,34.7z"/>
			<path id="Path_00000029027128423273684940000001905294884123113386_" class="st3" d="M164.5,34.7c-1.8,0-3.3-0.2-4.6-0.6
				c-1.3-0.4-2.5-1.1-3.6-2.1l2.6-2.5c0.7,0.7,1.6,1.2,2.5,1.5c1,0.3,2,0.4,3.1,0.4c1.3,0,2.3-0.2,3.1-0.6s1.2-1,1.2-1.9
				c0-0.7-0.2-1.2-0.6-1.6s-1.1-0.6-2-0.6l-3.1-0.2c-1.9-0.2-3.4-0.6-4.3-1.5c-1-0.8-1.5-2.1-1.5-3.7c0-1.8,0.7-3.2,2.1-4.2
				c1.4-1,3.1-1.5,5.3-1.5c1.5,0,2.9,0.2,4.1,0.5c1.2,0.3,2.3,0.8,3.1,1.6l-2.5,2.4c-0.6-0.5-1.3-0.8-2.1-1s-1.7-0.3-2.7-0.3
				c-1.2,0-2,0.2-2.6,0.6c-0.6,0.4-0.9,1-0.9,1.7c0,0.6,0.2,1.1,0.6,1.5c0.4,0.4,1.1,0.6,2.1,0.7l3.1,0.2c1.9,0.2,3.4,0.6,4.3,1.5
				c1,0.8,1.5,2.1,1.5,3.7c0,1.9-0.8,3.3-2.3,4.4C168.9,34.1,166.9,34.7,164.5,34.7z"/>
		</g>
		<g id="Group-3" transform="translate(82.411960, 23.718750)">
			<g class="st4">
				<path class="st5" d="M71.2,34.3v2.3h-1.3v-6.5h2.5c0.5,0,0.9,0.1,1.3,0.3c0.4,0.2,0.6,0.4,0.8,0.8c0.2,0.3,0.3,0.7,0.3,1.1
					c0,0.6-0.2,1.1-0.6,1.5c-0.4,0.4-1,0.6-1.8,0.6L71.2,34.3L71.2,34.3z M71.2,33.2h1.2c0.4,0,0.6-0.1,0.8-0.2
					c0.2-0.2,0.3-0.4,0.3-0.7c0-0.3-0.1-0.6-0.3-0.8c-0.2-0.2-0.4-0.3-0.8-0.3h-1.3V33.2z"/>
				<path class="st5" d="M75.4,34.2c0-0.5,0.1-0.9,0.3-1.3s0.4-0.7,0.8-0.9s0.8-0.3,1.2-0.3c0.6,0,1.2,0.2,1.6,0.6
					c0.4,0.4,0.6,0.9,0.7,1.6v0.3c0,0.7-0.2,1.3-0.6,1.8c-0.4,0.4-1,0.7-1.7,0.7c-0.7,0-1.3-0.2-1.7-0.7
					C75.7,35.5,75.4,34.9,75.4,34.2L75.4,34.2z M76.7,34.3c0,0.4,0.1,0.8,0.2,1c0.2,0.2,0.4,0.4,0.7,0.4c0.3,0,0.6-0.1,0.7-0.4
					c0.2-0.2,0.3-0.6,0.3-1.2c0-0.4-0.1-0.8-0.3-1c-0.2-0.2-0.4-0.4-0.7-0.4c-0.3,0-0.6,0.1-0.7,0.4C76.8,33.4,76.7,33.7,76.7,34.3z
					"/>
				<path class="st5" d="M85,34.9l0.6-3.1h1.3l-1.3,4.8h-1.1l-0.9-3.1l-0.9,3.1h-1.1l-1.3-4.8h1.3l0.6,3.1l0.9-3.1h0.9L85,34.9z"/>
				<path class="st5" d="M89.8,36.7c-0.7,0-1.3-0.2-1.7-0.6c-0.4-0.4-0.7-1-0.7-1.7v-0.1c0-0.5,0.1-0.9,0.3-1.3
					c0.2-0.4,0.4-0.7,0.8-0.9c0.4-0.2,0.7-0.3,1.2-0.3c0.6,0,1.2,0.2,1.6,0.6c0.4,0.4,0.6,1,0.6,1.8v0.5h-3.1c0,0.3,0.2,0.6,0.4,0.8
					c0.2,0.2,0.5,0.3,0.8,0.3c0.5,0,0.9-0.2,1.2-0.5l0.6,0.7c-0.2,0.3-0.4,0.5-0.8,0.6C90.6,36.6,90.2,36.7,89.8,36.7z M89.7,32.8
					c-0.2,0-0.5,0.1-0.6,0.2c-0.2,0.2-0.2,0.4-0.3,0.8h1.8v-0.1c0-0.3-0.1-0.5-0.2-0.7C90.2,32.8,89.9,32.8,89.7,32.8z"/>
				<path class="st5" d="M95.3,33c-0.2,0-0.3,0-0.5,0c-0.5,0-0.8,0.2-1,0.5v3.2h-1.3v-4.8h1.2l0,0.6c0.2-0.4,0.6-0.7,1.1-0.7
					c0.2,0,0.3,0,0.4,0V33z"/>
				<path class="st5" d="M98.1,36.7c-0.7,0-1.3-0.2-1.7-0.6c-0.4-0.4-0.7-1-0.7-1.7v-0.1c0-0.5,0.1-0.9,0.3-1.3
					c0.2-0.4,0.4-0.7,0.8-0.9s0.7-0.3,1.2-0.3c0.6,0,1.2,0.2,1.6,0.6c0.4,0.4,0.6,1,0.6,1.8v0.5H97c0,0.3,0.2,0.6,0.4,0.8
					c0.2,0.2,0.5,0.3,0.8,0.3c0.5,0,0.9-0.2,1.2-0.5l0.6,0.7c-0.2,0.3-0.4,0.5-0.8,0.6C98.9,36.6,98.5,36.7,98.1,36.7z M98,32.8
					c-0.2,0-0.5,0.1-0.6,0.2s-0.2,0.4-0.3,0.8h1.8v-0.1c0-0.3-0.1-0.5-0.2-0.7C98.5,32.8,98.3,32.8,98,32.8z"/>
				<path class="st5" d="M100.7,34.2c0-0.8,0.2-1.4,0.5-1.8c0.3-0.4,0.8-0.7,1.4-0.7c0.5,0,0.8,0.2,1.2,0.5v-2.5h1.3v6.9h-1.2
					l-0.1-0.5c-0.3,0.4-0.7,0.6-1.3,0.6c-0.6,0-1-0.2-1.4-0.7C100.8,35.6,100.7,35,100.7,34.2z M101.9,34.3c0,0.4,0.1,0.8,0.2,1
					c0.2,0.2,0.4,0.4,0.7,0.4c0.4,0,0.7-0.2,0.8-0.5v-1.9c-0.2-0.3-0.4-0.5-0.8-0.5C102.3,32.8,101.9,33.2,101.9,34.3z"/>
				<path class="st5" d="M112.7,34.3c0,0.8-0.2,1.4-0.5,1.8c-0.3,0.4-0.8,0.6-1.4,0.6c-0.5,0-0.9-0.2-1.3-0.6l0,0.5h-1.2v-6.9h1.3
					v2.5c0.3-0.4,0.7-0.5,1.2-0.5c0.6,0,1,0.2,1.4,0.6C112.5,32.8,112.7,33.4,112.7,34.3L112.7,34.3L112.7,34.3z M111.4,34.2
					c0-0.5-0.1-0.8-0.2-1.1c-0.2-0.2-0.4-0.3-0.7-0.3c-0.4,0-0.7,0.2-0.8,0.5v1.9c0.2,0.3,0.4,0.5,0.8,0.5s0.7-0.2,0.8-0.6
					C111.4,34.9,111.4,34.6,111.4,34.2z"/>
				<path class="st5" d="M115.3,34.8l0.9-3h1.4l-1.9,5.6l-0.1,0.2c-0.3,0.6-0.8,1-1.5,1c-0.2,0-0.4,0-0.6-0.1v-1h0.2
					c0.2,0,0.4,0,0.6-0.1c0.1-0.1,0.2-0.2,0.3-0.4l0.2-0.4l-1.7-4.9h1.4L115.3,34.8z"/>
			</g>
			<g id="Branding_x2F_Travello_x2F_Icon_x2F_Pin-_x2B_-Text-_x28_Color_x29_" transform="translate(28.607241, 0.169931)">
				<g id="logo_x2F_NoTagline-or-Pin" transform="translate(7.818520, 0.232376)">
					<path id="travello" class="st6" d="M104.5,39.7c-1.9,0-3.2-0.8-3.2-3.4V31h-0.1c-0.7,0-1.3-0.6-1.3-1.4c0-0.8,0.6-1.4,1.3-1.4
						h0.1v-1.4c0-0.9,0.7-1.6,1.5-1.6s1.5,0.7,1.5,1.6v1.4h1.4c0.7,0,1.3,0.6,1.3,1.4c0,0.8-0.6,1.4-1.3,1.4h-1.4v4.8
						c0,0.7,0.3,1.1,1,1.1c0.1,0,0.3,0,0.4,0c0.7,0,1.3,0.6,1.3,1.3c0,0.6-0.4,1-0.8,1.2C105.7,39.7,105.1,39.7,104.5,39.7z
						 M108.2,38.1v-8.4c0-0.9,0.7-1.6,1.5-1.6s1.5,0.7,1.5,1.6v0.5c0.4-1.1,1.2-2.1,2.1-2.1c1,0,1.5,0.6,1.5,1.6
						c0,0.8-0.5,1.3-1.2,1.5c-1.6,0.4-2.5,1.6-2.5,3.9v3c0,0.9-0.7,1.6-1.5,1.6S108.2,39,108.2,38.1z M118.3,39.8
						c-2.1,0-3.8-1.2-3.8-3.5v0c0-2.5,1.8-3.6,4.4-3.6c1.1,0,1.9,0.2,2.7,0.5V33c0-1.3-0.8-2.1-2.3-2.1c-0.8,0-1.5,0.1-2.1,0.3
						c-0.2,0.1-0.3,0.1-0.4,0.1c-0.7,0-1.3-0.6-1.3-1.3c0-0.6,0.4-1,0.8-1.3c1-0.4,2-0.6,3.5-0.6c1.7,0,2.9,0.5,3.7,1.3
						c0.8,0.8,1.2,2.1,1.2,3.6v5.2c0,0.8-0.7,1.5-1.5,1.5c-0.9,0-1.5-0.6-1.5-1.3v0C120.9,39.2,119.8,39.8,118.3,39.8z M119.3,37.6
						c1.5,0,2.4-0.8,2.4-2V35c-0.5-0.2-1.2-0.4-2-0.4c-1.3,0-2.1,0.6-2.1,1.6v0C117.6,37,118.3,37.6,119.3,37.6z M132.4,38.4
						c-0.4,0.8-0.9,1.4-1.7,1.4h-0.2c-0.8,0-1.4-0.6-1.7-1.4l-3.4-8c-0.1-0.2-0.2-0.5-0.2-0.8c0-0.8,0.7-1.5,1.5-1.5
						s1.3,0.5,1.5,1.1l2.3,6.6l2.4-6.6c0.2-0.6,0.6-1.1,1.5-1.1s1.5,0.6,1.5,1.5c0,0.3-0.1,0.6-0.2,0.8L132.4,38.4z"/>
					<path id="Path_00000106107497753060669910000012128084528446261159_" class="st7" d="M141.5,28c3.6,0,5.2,3.1,5.2,5.4
						c0,0.9-0.6,1.5-1.5,1.5h-6.1c0.3,1.5,1.3,2.2,2.7,2.2c0.8,0,1.6-0.3,2.2-0.8c0.2-0.2,0.4-0.2,0.8-0.2c0.7,0,1.2,0.6,1.2,1.3
						c0,0.4-0.2,0.7-0.4,1c-1,0.8-2.2,1.4-3.8,1.4c-3.3,0-5.7-2.4-5.7-5.9v0C136.1,30.7,138.3,28,141.5,28z M141.5,30.6
						c-1.3,0-2.1,1-2.4,2.4h4.7C143.6,31.6,142.8,30.6,141.5,30.6z"/>
					<path id="Path_00000134217262153778376930000011723119873394255540_" class="st7" d="M148.2,38.1V25.6c0-0.9,0.7-1.6,1.5-1.6
						s1.5,0.7,1.5,1.6V38c0,0.9-0.7,1.6-1.5,1.6S148.2,39,148.2,38.1z"/>
					<path id="Path_00000062889710433375364590000016071704322775262101_" class="st7" d="M153.3,38.1V25.6c0-0.9,0.7-1.6,1.5-1.6
						s1.5,0.7,1.5,1.6V38c0,0.9-0.7,1.6-1.5,1.6S153.3,39,153.3,38.1z"/>
					<path id="Path_00000060710304782869947050000016838884312681457558_" class="st7" d="M163.8,28c3.4,0,5.9,2.6,5.9,5.9v0
						c0,3.3-2.5,5.9-5.9,5.9s-5.9-2.6-5.9-5.9v0C157.8,30.7,160.4,28,163.8,28z M163.7,30.8c-1.8,0-2.8,1.4-2.8,3.1v0
						c0,1.7,1.2,3.1,2.9,3.1c1.8,0,2.8-1.4,2.8-3.1v0C166.6,32.2,165.4,30.8,163.7,30.8z"/>
				</g>
				<g id="MapPin">
					
						<linearGradient id="Oval_00000102507855137387886720000017288589846194804617_" gradientUnits="userSpaceOnUse" x1="-725.3748" y1="-51.8173" x2="-724.6528" y2="-50.4654" gradientTransform="matrix(6.6227 0 0 8.9856 4901.562 490.9513)">
						<stop  offset="0" style="stop-color:#00B0EF"/>
						<stop  offset="1" style="stop-color:#008DEF"/>
					</linearGradient>
					
						<path id="Oval" style="fill-rule:evenodd;clip-rule:evenodd;fill:url(#Oval_00000102507855137387886720000017288589846194804617_);" d="
						M99.4,40.4c4.1-4.7,6.1-8.2,6.1-10.5c0-3.4-2.7-6.1-6.1-6.1s-6.1,2.7-6.1,6.1C93.3,32.1,95.3,35.6,99.4,40.4z"/>
					<g id="Group_00000127022991079708233930000012606456536356080009_" transform="translate(0.632320, 0.632320)">
						
							<linearGradient id="Oval-Copy_00000063629510633077951530000009426908698439640206_" gradientUnits="userSpaceOnUse" x1="-701.7999" y1="15.1373" x2="-700.5577" y2="16.3796" gradientTransform="matrix(5.3581 0 0 5.3581 3855.845 -55.0458)">
							<stop  offset="0" style="stop-color:#008DEF"/>
							<stop  offset="1" style="stop-color:#00B0EF"/>
						</linearGradient>
						
							<circle id="Oval-Copy" style="fill-rule:evenodd;clip-rule:evenodd;fill:url(#Oval-Copy_00000063629510633077951530000009426908698439640206_);" cx="98.8" cy="29.3" r="4.9"/>
						<path id="Combined-Shape" class="st10" d="M98.8,25c2.4,0,4.3,1.9,4.3,4.3c0,1-0.3,1.8-0.8,2.5c0,0,0,0.1,0,0.2
							c0,0.6,0.2,1.2,0.6,1.6c-0.1,0-0.2,0-0.3,0c-0.6,0-1.2-0.2-1.6-0.6c-0.6,0.4-1.4,0.6-2.2,0.6c-2.4,0-4.3-1.9-4.3-4.3
							C94.4,26.9,96.4,25,98.8,25z"/>
						<ellipse id="Oval_00000008128583460224844880000006324110372855005840_" class="st11" cx="98.8" cy="29.3" rx="3" ry="3"/>
					</g>
				</g>
			</g>
		</g>
	</g>
</g>
</svg>
