<svg version="1.1" id="Layer_1" xmlns="http://www.w3.org/2000/svg" xmlns:xlink="http://www.w3.org/1999/xlink" x="0px" y="0px"
	 width="100%" viewBox="0 0 3660 992" enable-background="new 0 0 3660 992" xml:space="preserve">
<path fill="#FFFFFF" opacity="1.000000" stroke="none" 
	d="
M1.000001,264.000000 
	C1.000000,176.342941 1.000000,88.685898 1.000000,1.000000 
	C1090.037598,1.000000 2179.075195,1.000000 3268.350098,1.380877 
	C3249.016602,2.286169 3229.747559,5.081667 3210.561768,8.907022 
	C3181.329346,14.735581 3153.393799,24.318340 3126.440186,36.904427 
	C3107.302246,45.840858 3088.905518,56.170761 3071.964355,68.755188 
	C3057.762451,79.304909 3043.642334,90.147408 3030.720947,102.186089 
	C3018.297119,113.761452 3007.054932,126.694603 2996.016846,139.647614 
	C2978.999756,159.617386 2965.035400,181.736740 2953.050537,205.043137 
	C2941.918457,226.691254 2933.397949,249.387436 2926.554688,272.767517 
	C2919.267578,297.663422 2915.100342,323.099518 2913.175537,348.858276 
	C2912.182373,362.150757 2912.483887,375.603729 2913.135986,388.938416 
	C2913.874023,404.027740 2914.841064,419.196350 2917.213623,434.090759 
	C2919.794434,450.293457 2923.385986,466.422424 2927.821533,482.222931 
	C2935.291748,508.833038 2945.819824,534.336243 2959.800049,558.229797 
	C2967.122070,570.744507 2975.149902,582.881226 2983.451416,594.775208 
	C2988.501465,602.010803 2992.869141,608.583984 2990.534912,618.300110 
	C2986.465332,635.240173 2983.441162,652.431885 2980.003174,669.523010 
	C2976.146729,688.693298 2972.337158,707.872925 2968.471680,727.041321 
	C2964.670898,745.887451 2960.789062,764.717346 2957.008789,783.567566 
	C2953.195312,802.583862 2949.509033,821.625671 2945.682129,840.639221 
	C2941.503418,861.400940 2937.237793,882.145142 2932.990723,902.893066 
	C2928.808594,923.322083 2924.552002,943.736084 2920.429199,964.177124 
	C2918.496826,973.760010 2916.802246,983.390869 2915.000000,993.000000 
	C1943.771240,993.000000 972.542480,993.000000 1.000000,993.000000 
	C1.000000,765.295837 1.000000,537.591492 1.380077,309.557648 
	C2.150068,309.741455 2.745458,310.200165 2.898845,310.776489 
	C4.961621,318.526733 6.434541,326.477936 9.070691,334.024017 
	C20.480215,366.684296 43.210991,389.637390 72.973824,405.865601 
	C90.836647,415.605347 109.986214,422.332062 130.304306,425.042206 
	C144.027832,426.872742 157.758942,429.153473 171.554840,429.818420 
	C193.588715,430.880493 215.549088,429.305206 237.288849,425.055481 
	C252.341187,422.113068 266.936768,417.821838 280.910583,411.542938 
	C299.633453,403.130157 315.541962,391.085388 328.568817,375.067627 
	C337.622772,363.934937 343.969147,351.394287 350.078186,338.593842 
	C349.512451,338.310669 349.244141,338.058899 348.975555,338.058594 
	C321.144958,338.026947 293.314270,337.996796 265.483826,338.063843 
	C264.362793,338.066559 262.740479,338.684692 262.199127,339.547699 
	C252.961670,354.272736 238.713837,362.117340 222.971588,367.400543 
	C206.192276,373.031769 188.899414,373.962067 171.201706,372.224976 
	C159.798340,371.105713 148.720062,369.236420 138.234924,364.892456 
	C123.486771,358.782349 111.616425,349.122864 106.080482,333.615570 
	C102.827988,324.504639 100.783546,314.962433 98.006096,304.929169 
	C184.827972,304.929169 270.263397,304.929169 355.759186,304.929169 
	C356.198761,301.035156 357.137604,297.449371 356.899292,293.943604 
	C356.178925,283.346039 355.521912,272.699005 353.898895,262.216980 
	C350.001343,237.045532 338.890778,215.030075 322.299683,195.949844 
	C307.784790,179.257248 289.859528,167.053604 269.589050,158.082047 
	C248.023315,148.537201 225.341629,143.446960 202.051498,142.226410 
	C174.802963,140.798386 147.512024,141.604691 120.887680,148.998123 
	C86.418152,158.570114 55.442158,173.984314 31.703674,201.752136 
	C18.043631,217.730835 8.465678,235.690063 3.941308,256.298584 
	C3.358556,258.953033 1.999465,261.437042 1.000001,264.000000 
M390.042114,289.448425 
	C379.050110,296.912445 369.738068,306.196320 364.468048,318.367310 
	C358.313416,332.581207 357.410400,347.884979 360.139160,363.048279 
	C364.066833,384.873962 376.986359,400.486053 395.895844,411.401886 
	C418.819702,424.635101 444.150452,428.689728 470.018219,429.886902 
	C489.433563,430.785461 508.783661,429.388611 528.008423,426.077118 
	C545.054993,423.140808 561.799500,419.391296 577.225769,411.274780 
	C584.895142,407.239532 592.345825,402.788666 599.637634,398.671326 
	C601.381470,405.215332 603.157471,412.049500 605.038330,418.854706 
	C605.786987,421.563385 607.099854,423.118713 610.548523,423.099945 
	C641.871460,422.929291 673.195740,423.004089 704.519592,422.976105 
	C705.361572,422.975342 706.203369,422.625946 707.096680,422.427734 
	C705.580688,420.038055 704.118896,418.089020 703.025696,415.951477 
	C697.131653,404.426971 695.490417,391.687103 695.229553,379.226471 
	C694.056580,323.202179 696.296875,267.145477 694.007690,211.119446 
	C693.677856,203.046143 691.423584,195.433731 687.112000,188.763275 
	C676.556091,172.432144 661.070557,162.462784 643.062256,155.962769 
	C629.517273,151.073761 615.703674,147.393021 601.332642,145.976837 
	C588.162964,144.679016 575.006531,142.330856 561.830078,142.226151 
	C540.339478,142.055374 518.813904,142.928329 497.349731,144.168106 
	C486.376221,144.801941 475.326721,146.441223 464.632843,148.979584 
	C452.505035,151.858337 440.392975,155.417252 428.883331,160.159241 
	C404.621185,170.155258 384.427856,185.180496 374.799591,210.844971 
	C372.091064,218.064728 371.081757,225.921936 369.201355,233.874542 
	C403.155792,233.874542 435.778717,233.874542 468.682007,233.874542 
	C469.121948,231.540619 469.360138,229.147385 470.037170,226.885483 
	C472.630981,218.219635 476.527100,210.438934 484.205902,204.938141 
	C495.558838,196.805344 508.680267,193.771988 522.056580,193.259949 
	C535.502869,192.745209 549.092896,193.733490 562.505920,195.145798 
	C580.961426,197.089050 590.935730,206.166702 595.447632,223.977631 
	C597.543701,232.252014 595.488220,242.141815 585.278992,247.364365 
	C574.484558,252.886383 563.109131,255.864578 551.112549,257.065247 
	C536.180908,258.559631 521.283813,260.396332 506.360748,261.981445 
	C495.956146,263.086639 485.485138,263.674133 475.130981,265.118164 
	C463.759491,266.704071 452.518402,269.204590 441.165985,270.952454 
	C423.140045,273.727814 406.321899,279.718842 390.042114,289.448425 
M2080.792236,268.086700 
	C2070.135986,270.392609 2059.379883,272.320068 2048.847168,275.095490 
	C2034.033325,278.999146 2020.160400,285.307495 2008.393555,295.233917 
	C1983.425171,316.297150 1980.378906,345.455231 1988.657837,372.876434 
	C1994.744873,393.037598 2009.950439,405.953491 2028.351807,415.004883 
	C2049.573242,425.443512 2072.542236,428.746643 2095.824463,429.919159 
	C2115.993164,430.934937 2136.103760,429.328857 2155.975342,425.887512 
	C2171.705078,423.163483 2187.330322,419.630615 2201.615234,412.039978 
	C2209.755615,407.714233 2217.706299,403.031677 2225.385986,398.710388 
	C2227.600342,406.612335 2229.905762,414.838654 2232.164795,422.900085 
	C2266.037598,422.900085 2299.168457,422.900085 2332.566895,422.900085 
	C2330.650391,418.948853 2328.537354,415.288940 2327.043457,411.391693 
	C2320.374023,393.993622 2320.497314,375.528870 2320.237305,357.440552 
	C2319.541260,308.962524 2320.127441,260.467346 2319.906250,211.980331 
	C2319.854004,200.539322 2315.429443,190.217651 2307.973633,181.616440 
	C2296.746094,168.664261 2282.247559,160.614258 2266.216797,154.923325 
	C2240.746094,145.881332 2214.209961,143.227066 2187.543701,142.191879 
	C2169.986816,141.510284 2152.346924,142.382538 2134.766602,143.105774 
	C2124.281982,143.537079 2113.734131,144.402618 2103.402344,146.169464 
	C2082.132812,149.806747 2061.309326,155.175446 2042.301758,165.944717 
	C2025.160767,175.656555 2010.582153,187.971451 2002.296997,206.395309 
	C1998.415161,215.027573 1996.404663,224.144974 1996.068115,233.668427 
	C2029.357910,233.668427 2062.086914,233.668427 2094.606201,233.668427 
	C2096.749268,220.717224 2101.603027,209.911148 2113.071777,202.957809 
	C2123.865723,196.413544 2135.896973,193.627914 2148.111816,193.248932 
	C2161.603516,192.830338 2175.232910,193.646622 2188.661377,195.167923 
	C2207.601562,197.313599 2216.888428,206.454590 2221.243164,224.420563 
	C2223.852295,235.184937 2219.276855,244.010147 2210.146729,247.769989 
	C2201.494873,251.332764 2192.370850,254.406311 2183.166260,255.828659 
	C2165.363037,258.579651 2147.357178,260.020660 2129.434814,261.999146 
	C2122.423096,262.773254 2115.396973,263.432983 2108.400146,264.323547 
	C2099.479736,265.458984 2090.582520,266.775513 2080.792236,268.086700 
M1854.446289,146.999298 
	C1842.293091,145.333298 1830.170898,142.581558 1817.980103,142.232788 
	C1794.379028,141.557587 1770.768799,141.422333 1747.287109,145.807556 
	C1727.588989,149.486221 1708.591187,154.985764 1690.712280,163.844330 
	C1672.673462,172.782043 1656.499512,184.256134 1643.362305,199.964478 
	C1624.983765,221.940063 1615.179077,247.226013 1613.164062,275.455933 
	C1612.073486,290.735901 1613.116577,306.029236 1616.915771,321.106873 
	C1624.088379,349.572174 1639.587036,372.579865 1662.356323,390.564911 
	C1679.252808,403.911133 1698.509033,412.893707 1719.197632,419.242065 
	C1740.190186,425.683807 1761.637329,428.821289 1783.366943,429.850616 
	C1806.640381,430.953125 1829.864746,429.476685 1852.820435,425.004730 
	C1869.827393,421.691620 1886.346191,416.730865 1902.026489,409.397644 
	C1922.516113,399.815277 1940.820801,386.957672 1954.445068,368.727966 
	C1961.619263,359.128632 1968.023926,348.584351 1972.735596,337.592072 
	C1982.252808,315.387695 1983.779297,291.859131 1981.063599,267.944946 
	C1979.426880,253.531769 1975.642334,239.798096 1969.321289,226.783875 
	C1961.171875,210.005280 1949.955933,195.654617 1935.419800,183.839905 
	C1921.215942,172.295044 1905.719971,163.051453 1888.437988,157.077164 
	C1877.538208,153.309204 1866.362671,150.339615 1854.446289,146.999298 
M2460.052979,196.454498 
	C2466.468506,195.305206 2472.855713,193.398788 2479.304932,193.159866 
	C2493.978760,192.616241 2508.783691,192.154144 2523.129639,196.106506 
	C2530.300781,198.082199 2537.536865,200.442703 2544.100098,203.863190 
	C2554.251221,209.153366 2557.595703,219.222137 2559.280518,229.799042 
	C2590.615234,229.799042 2621.559814,229.799042 2652.575928,229.799042 
	C2652.738770,229.176743 2653.010254,228.702866 2652.948242,228.277542 
	C2652.689941,226.505493 2652.262695,224.757385 2652.020264,222.983749 
	C2650.213379,209.747040 2645.357666,197.657425 2636.809326,187.482941 
	C2623.829102,172.033478 2607.055176,161.920853 2588.246094,154.955338 
	C2565.603760,146.570297 2541.909424,143.187576 2518.090088,142.306641 
	C2496.781494,141.518555 2475.372070,143.201233 2454.016357,144.031647 
	C2438.923828,144.618500 2424.252441,147.741547 2409.748535,151.912003 
	C2388.828613,157.927383 2369.996826,167.056549 2355.368652,183.963333 
	C2341.996582,199.418304 2338.511963,217.690918 2340.321289,236.840668 
	C2342.260010,257.358337 2355.701416,270.488770 2373.055176,280.011597 
	C2397.359863,293.348785 2424.356445,297.618530 2451.004150,302.925232 
	C2469.555176,306.619537 2488.330078,309.226715 2506.812500,313.211578 
	C2519.971191,316.048553 2532.906250,320.065826 2545.752441,324.149750 
	C2552.766602,326.379608 2558.631104,331.018341 2561.926758,337.745209 
	C2567.912842,349.964142 2559.812256,360.876648 2550.787109,366.994202 
	C2538.789551,375.126404 2524.889404,377.790131 2510.891357,378.817505 
	C2495.760010,379.928070 2480.561035,379.214111 2465.771729,374.995392 
	C2451.916992,371.043304 2439.033447,365.178162 2431.262451,352.426300 
	C2427.845215,346.818878 2426.648926,339.858002 2424.352051,333.245789 
	C2394.307129,333.245789 2363.375488,333.245789 2331.689941,333.245789 
	C2332.149902,337.252441 2332.521729,340.954956 2333.007324,344.642548 
	C2334.865479,358.754089 2340.332031,371.365112 2349.652832,382.067657 
	C2363.785645,398.295593 2381.621338,408.934937 2401.809570,416.089935 
	C2428.514160,425.554443 2456.319336,428.629578 2484.272949,429.744598 
	C2501.915039,430.448334 2519.664062,428.826019 2537.351074,427.960022 
	C2553.231934,427.182373 2568.813721,424.504364 2584.133301,420.099854 
	C2607.790527,413.298218 2629.339844,403.204926 2645.687012,383.895294 
	C2660.976562,365.835052 2665.174072,344.930115 2661.527832,322.307556 
	C2658.951660,306.322845 2648.686035,295.014587 2635.820801,285.991364 
	C2623.522461,277.365936 2609.769043,271.669586 2595.315186,268.115631 
	C2578.091797,263.880737 2560.674316,260.382812 2543.253418,257.019409 
	C2524.518311,253.402283 2505.636719,250.541199 2486.904785,246.908447 
	C2474.753418,244.551895 2462.750000,241.514420 2451.753174,235.377655 
	C2440.761230,229.243301 2436.279053,220.997620 2440.123535,211.394516 
	C2443.500732,202.958450 2450.940430,199.071289 2460.052979,196.454498 
M933.660522,352.865021 
	C929.785522,357.575348 926.669556,363.338898 921.885010,366.787262 
	C910.194458,375.213074 896.143982,377.790100 882.149231,378.822113 
	C866.914307,379.945587 851.607300,379.240417 836.730530,374.984924 
	C824.897400,371.600128 813.889221,366.700287 805.615723,357.111542 
	C799.722595,350.281677 796.443115,342.421326 796.912231,333.245819 
	C765.429382,333.245819 734.351746,333.245819 702.600525,333.245819 
	C703.093750,337.088531 703.592102,340.607666 703.990295,344.138092 
	C705.592590,358.340546 711.231506,370.957550 720.361145,381.690918 
	C734.374023,398.165344 752.302673,409.065369 772.699097,416.009125 
	C786.937134,420.856354 801.414612,424.641815 816.449707,426.013000 
	C830.787048,427.320557 845.105225,429.513519 859.460083,429.776855 
	C875.777832,430.076202 892.139709,428.883118 908.457458,427.917053 
	C917.730103,427.368042 927.076111,426.607208 936.172119,424.830719 
	C954.998657,421.153778 973.292358,415.592316 990.076721,405.972473 
	C1005.008362,397.414520 1017.544373,386.246399 1025.549805,370.803070 
	C1032.486328,357.421814 1034.661255,343.162140 1033.187134,327.999084 
	C1031.963257,315.413116 1027.049438,305.044434 1018.568298,296.084045 
	C1003.400940,280.059570 983.593811,272.553040 963.023071,267.178497 
	C946.815186,262.943756 930.220703,260.146423 913.742554,257.000275 
	C897.059692,253.815002 880.291992,251.076340 863.592773,247.973175 
	C848.708435,245.207275 834.023499,241.903122 820.618469,234.254517 
	C807.202942,226.599899 806.264648,210.536026 818.934265,201.974991 
	C828.421570,195.564224 839.312744,193.801361 850.202332,193.178726 
	C864.976135,192.333969 879.863220,192.430283 894.393860,196.047989 
	C902.960205,198.180756 911.564331,200.440140 918.644165,206.171951 
	C926.139771,212.240479 928.992249,220.702011 930.235840,229.748505 
	C961.667542,229.748505 992.770203,229.748505 1023.974487,229.748505 
	C1023.974487,228.340408 1024.101074,227.164536 1023.938477,226.030167 
	C1023.780029,224.925568 1023.182800,223.884094 1023.022949,222.779510 
	C1021.113770,209.585007 1016.264709,197.522049 1007.710999,187.359085 
	C994.734863,171.941544 978.045471,161.757416 959.188232,154.986450 
	C933.487122,145.758041 906.764282,142.515915 879.681091,142.107758 
	C863.106689,141.857986 846.465149,141.981537 829.949036,143.213974 
	C816.401733,144.224869 802.828613,146.384399 789.571716,149.382736 
	C775.678284,152.525070 761.967224,156.884811 749.803101,164.732986 
	C744.508362,168.149139 739.618347,172.187653 734.489319,175.866531 
	C726.604431,181.522018 721.158020,189.329163 717.221252,197.825851 
	C712.112244,208.852539 710.003723,220.735367 710.971558,233.042908 
	C711.855652,244.284500 715.231812,254.497223 722.657654,263.155090 
	C735.077332,277.635498 751.806335,285.288452 769.314697,290.808594 
	C797.856689,299.807526 827.621460,303.452332 856.940063,309.029907 
	C877.008911,312.847778 897.074036,316.663757 916.312927,323.929321 
	C930.030701,329.109833 935.859924,337.958740 933.660522,352.865021 
M1490.742676,424.091614 
	C1500.114502,421.416840 1509.630615,419.160309 1518.829712,415.985291 
	C1542.153687,407.935272 1562.436279,395.238464 1578.476196,376.106995 
	C1588.944336,363.621399 1596.046753,349.437042 1600.863037,334.040436 
	C1602.435913,329.011993 1603.171631,323.721710 1604.267456,318.656586 
	C1603.216797,318.277954 1602.912231,318.072327 1602.607422,318.071991 
	C1572.445190,318.038239 1542.282837,318.054138 1512.120850,317.950470 
	C1508.945557,317.939575 1508.549927,319.756317 1507.949829,322.164917 
	C1503.208008,341.194885 1492.491089,356.035156 1474.759399,364.436005 
	C1455.083984,373.757812 1434.099854,375.215057 1412.731201,371.053650 
	C1384.786499,365.611633 1366.195190,349.289886 1356.938232,322.541534 
	C1351.566895,307.021149 1349.996094,291.084198 1351.838013,274.564819 
	C1354.431519,251.305496 1362.842651,231.339264 1381.252319,216.320633 
	C1388.759888,210.196045 1397.116333,205.609879 1406.580688,202.895996 
	C1422.893066,198.218552 1439.290894,197.998947 1455.810181,201.040466 
	C1468.995850,203.468201 1481.371826,207.862335 1491.114014,217.643402 
	C1498.926758,225.487305 1503.115601,235.282043 1505.406494,245.728790 
	C1537.757202,245.728790 1569.692139,245.728790 1602.500000,245.728790 
	C1601.551270,239.732132 1601.097290,234.019745 1599.702881,228.546967 
	C1593.997925,206.155624 1579.999634,189.488815 1561.916504,176.065948 
	C1546.306152,164.478592 1528.681396,156.816605 1510.018677,151.489365 
	C1491.869263,146.308670 1473.319580,143.023239 1454.537109,142.204895 
	C1439.148804,141.534470 1423.677979,142.537048 1408.251221,143.031937 
	C1390.477417,143.602112 1373.281006,147.427353 1356.466553,153.020050 
	C1325.992065,163.156250 1299.359375,178.926941 1279.493286,204.930283 
	C1261.452026,228.545059 1253.434570,255.548920 1252.160400,284.740845 
	C1251.782715,293.392029 1252.963135,302.172668 1254.054932,310.814941 
	C1257.236206,335.995483 1268.618774,357.434021 1285.541748,375.902466 
	C1300.020752,391.703735 1317.634277,403.194916 1337.301147,411.811646 
	C1363.275879,423.192078 1390.615601,428.222931 1418.632812,429.834778 
	C1430.174927,430.498810 1441.856812,429.783691 1453.411865,428.883209 
	C1465.642090,427.930115 1477.796875,426.010468 1490.742676,424.091614 
M2710.000000,246.500000 
	C2710.000000,283.986237 2709.964111,321.472595 2710.046387,358.958649 
	C2710.056641,363.557129 2710.390625,368.202423 2711.099854,372.743927 
	C2714.588379,395.076447 2728.443604,408.273682 2748.873291,416.126129 
	C2769.502197,424.055023 2791.169434,424.840668 2812.701660,425.782745 
	C2829.749023,426.528625 2846.885986,425.469757 2863.973877,424.920929 
	C2869.607910,424.739990 2875.212646,423.648712 2880.620605,422.998932 
	C2880.620605,402.922089 2880.620605,383.540894 2880.620605,364.999847 
	C2864.456055,364.999847 2848.655762,365.419586 2832.891846,364.840698 
	C2823.601807,364.499512 2814.900146,361.465454 2811.798340,351.199005 
	C2810.304688,346.254822 2809.143311,340.985657 2809.118896,335.857513 
	C2808.911133,292.374298 2809.000000,248.889648 2809.000000,205.405426 
	C2809.000000,203.659439 2809.000000,201.913452 2809.000000,199.827026 
	C2833.375244,199.827026 2856.973877,199.827026 2880.686523,199.827026 
	C2880.686523,182.758987 2880.686523,166.042664 2880.686523,148.801819 
	C2856.658936,148.801819 2832.940186,148.801819 2808.881592,148.801819 
	C2808.881592,121.346024 2808.881592,94.415108 2808.881592,67.279297 
	C2775.820312,67.279297 2743.108398,67.279297 2709.871094,67.279297 
	C2709.871094,94.604797 2709.871094,121.656021 2709.871094,149.227432 
	C2689.962891,149.227432 2670.574707,149.227432 2651.252930,149.227432 
	C2651.252930,166.356033 2651.252930,182.954941 2651.252930,200.079224 
	C2670.886475,200.079224 2690.274658,200.079224 2710.000000,200.079224 
	C2710.000000,215.570084 2710.000000,230.535049 2710.000000,246.500000 
M1180.000000,242.500000 
	C1180.000000,228.406494 1180.000000,214.312988 1180.000000,199.830872 
	C1204.303589,199.830872 1228.038452,199.830872 1251.717529,199.830872 
	C1251.717529,182.698547 1251.717529,165.964081 1251.717529,148.837036 
	C1227.702637,148.837036 1203.967896,148.837036 1179.843994,148.837036 
	C1179.843994,121.375984 1179.843994,94.308937 1179.843994,67.269470 
	C1147.051392,67.269470 1114.654541,67.269470 1081.864258,67.269470 
	C1081.864258,94.603477 1081.864258,121.670525 1081.864258,149.130249 
	C1061.736328,149.130249 1041.999756,149.130249 1022.263794,149.130249 
	C1022.263794,166.263626 1022.263794,182.997818 1022.263794,200.127106 
	C1042.260620,200.127106 1061.997070,200.127106 1082.000000,200.127106 
	C1082.000000,202.326172 1082.000000,204.130325 1082.000000,205.934479 
	C1082.000000,260.248718 1081.973999,314.563019 1082.062500,368.877136 
	C1082.067993,372.249390 1082.688965,375.690826 1083.506226,378.980133 
	C1088.339111,398.430450 1102.125732,409.054749 1119.839844,416.071381 
	C1140.082275,424.089478 1161.472534,424.791992 1182.667236,425.766998 
	C1200.194946,426.573303 1217.820923,425.462341 1235.394775,424.922791 
	C1240.860596,424.754974 1246.298340,423.678497 1251.802856,423.011505 
	C1251.802856,403.155334 1251.802856,383.716858 1251.802856,364.005096 
	C1245.633911,364.685822 1239.682739,365.843597 1233.723389,365.887878 
	C1223.649658,365.962708 1213.536133,365.738373 1203.504272,364.880005 
	C1194.362793,364.097778 1185.664551,361.473114 1182.787598,351.171906 
	C1181.321045,345.920654 1180.165527,340.384491 1180.120850,334.966858 
	C1179.870117,304.479645 1180.000000,273.989288 1180.000000,242.500000 
M2677.000000,536.182495 
	C2676.961426,539.631958 2675.435303,542.215271 2672.161133,543.328552 
	C2667.172852,545.024658 2662.183350,546.924927 2657.035645,547.903931 
	C2644.963135,550.199890 2632.572510,551.142212 2620.727295,554.230957 
	C2607.491699,557.682129 2597.245361,568.029724 2596.981934,583.668335 
	C2596.756104,597.055298 2599.482910,594.746582 2585.287354,594.997925 
	C2584.621338,595.009705 2583.883789,595.177612 2583.300049,594.955933 
	C2579.944336,593.681335 2575.687256,593.377197 2575.055908,588.701721 
	C2574.509033,584.655029 2574.073242,580.559448 2574.046143,576.482422 
	C2573.935059,559.823730 2573.994141,543.163940 2574.010010,526.504517 
	C2574.011475,525.068970 2574.153564,523.633484 2574.250732,521.819580 
	C2582.647705,521.819580 2590.724609,521.819580 2598.706543,521.819580 
	C2598.706543,514.010437 2598.706543,506.605957 2598.706543,498.809814 
	C2590.342529,498.809814 2582.265869,498.809814 2573.807129,498.809814 
	C2573.807129,486.672791 2573.807129,474.932587 2573.807129,463.297241 
	C2562.335693,463.297241 2551.266357,463.297241 2539.804199,463.297241 
	C2539.804199,475.330231 2539.804199,487.070343 2539.804199,499.199677 
	C2532.999756,499.199677 2526.591064,499.199677 2520.303223,499.199677 
	C2520.303223,507.010040 2520.303223,514.414917 2520.303223,522.210938 
	C2527.011963,522.210938 2533.422119,522.210938 2540.000000,522.210938 
	C2540.000000,547.084717 2539.631104,571.564758 2540.151123,596.025818 
	C2540.422607,608.790710 2546.700684,616.927734 2559.271484,619.996155 
	C2572.378418,623.195435 2585.546631,622.401733 2599.129395,620.833496 
	C2599.129395,615.152100 2599.129395,609.793396 2599.129395,603.035645 
	C2607.892578,619.030457 2621.410889,623.772034 2637.161133,623.968445 
	C2652.529785,624.160034 2666.943359,621.106018 2678.499023,610.377380 
	C2679.034180,612.725281 2679.756104,614.753601 2679.899902,616.822144 
	C2680.065430,619.203308 2680.196045,621.056335 2683.341309,621.031616 
	C2694.068359,620.947083 2704.796631,620.999207 2714.392578,620.999207 
	C2713.239746,612.130798 2711.341064,603.533997 2711.153564,594.900024 
	C2710.687012,573.419495 2710.462891,551.904236 2711.177979,530.437378 
	C2711.704102,514.648315 2701.874756,504.410583 2688.811035,500.117981 
	C2683.803711,498.472534 2678.442627,497.800537 2673.193604,497.011963 
	C2657.946533,494.721283 2642.882324,495.488678 2628.170166,500.392120 
	C2620.040771,503.101685 2613.232178,507.787933 2607.939941,514.578186 
	C2602.858398,521.098633 2600.795654,528.640137 2600.403564,536.779541 
	C2611.964600,536.779541 2623.412354,536.779541 2633.354980,536.779541 
	C2635.630127,532.369080 2636.831543,528.139343 2639.492188,525.256714 
	C2646.191162,517.998596 2654.950684,518.040100 2663.910889,519.959290 
	C2674.091797,522.140015 2676.976318,525.504333 2677.000000,536.182495 
M2261.971191,529.019226 
	C2268.908203,528.554016 2275.845215,528.088806 2283.382080,527.583374 
	C2281.947510,531.028259 2280.860107,533.338440 2280.009033,535.732605 
	C2275.066162,549.638794 2274.861572,563.743896 2277.954834,578.091980 
	C2281.067139,592.528015 2288.313965,604.320374 2300.197998,612.948425 
	C2311.910400,621.452148 2325.438232,624.329529 2339.728271,623.991272 
	C2358.637451,623.543701 2375.386719,618.170532 2386.556641,601.756409 
	C2390.311035,596.239502 2392.739258,589.820068 2396.184326,583.000000 
	C2387.545410,583.000000 2380.547607,583.232300 2373.573730,582.924744 
	C2368.224365,582.688782 2363.505859,582.917786 2361.438965,589.001831 
	C2361.201660,589.700134 2360.314941,590.203857 2359.677734,590.736145 
	C2352.398926,596.818787 2343.920654,599.114868 2334.655029,597.928955 
	C2326.974121,596.945740 2319.494141,594.721069 2315.739014,587.118835 
	C2313.016846,581.608337 2311.292236,575.605225 2308.814453,569.000000 
	C2311.907227,569.000000 2313.704346,569.000000 2315.501709,569.000000 
	C2341.000244,569.000000 2366.500488,568.844238 2391.995850,569.131104 
	C2397.114746,569.188721 2398.444580,567.202576 2397.986328,562.828979 
	C2397.375244,556.995422 2396.989746,551.112732 2395.932129,545.356812 
	C2393.710205,533.266846 2389.093750,522.179810 2380.558350,513.080383 
	C2368.796387,500.541199 2354.145508,495.689606 2337.096191,495.867004 
	C2318.098145,496.064636 2302.792969,503.407471 2290.248047,517.254272 
	C2289.087646,518.535217 2288.025879,519.905396 2286.000000,522.335632 
	C2286.000000,513.875122 2285.837646,507.065033 2286.078613,500.269257 
	C2286.178223,497.466431 2284.927979,496.219940 2282.589111,496.059235 
	C2270.644775,495.238281 2259.545410,497.527985 2250.554932,506.027985 
	C2246.684082,509.687469 2243.308350,513.870117 2239.011719,518.577515 
	C2239.011719,511.612579 2239.011719,505.317780 2239.011719,499.195251 
	C2227.978516,499.195251 2217.691162,499.195251 2207.203857,499.195251 
	C2207.203857,539.793518 2207.203857,580.196533 2207.203857,620.795715 
	C2218.468750,620.795715 2229.539551,620.795715 2241.000000,620.795715 
	C2241.000000,618.986328 2241.000000,617.357422 2241.000000,615.728516 
	C2241.000000,598.062805 2240.619385,580.386414 2241.118164,562.734802 
	C2241.531006,548.107849 2246.128662,535.410095 2261.971191,529.019226 
M2015.407959,546.004211 
	C2014.503906,546.331177 2013.624390,546.820435 2012.692261,546.960449 
	C2001.303589,548.670044 1989.859985,550.061768 1978.526733,552.076965 
	C1967.784790,553.987061 1958.274414,558.205078 1951.681396,567.710449 
	C1945.735474,576.282837 1946.419434,585.889221 1947.236816,595.212402 
	C1947.879639,602.545288 1951.461914,609.193054 1957.462524,614.127197 
	C1971.516113,625.683105 1987.667236,625.304443 2004.220337,622.314270 
	C2013.456665,620.645691 2021.623901,616.512878 2028.500488,610.430786 
	C2029.037354,612.786499 2029.772461,614.815552 2029.899658,616.882080 
	C2030.049316,619.313660 2030.298828,621.061584 2033.401123,621.034363 
	C2043.874268,620.942200 2054.348877,620.999268 2065.246826,620.999268 
	C2059.125244,602.490601 2061.367188,583.786072 2061.042480,565.273438 
	C2060.820557,552.617249 2061.005615,539.953918 2060.997803,527.293823 
	C2060.993652,520.153198 2058.478027,513.945679 2053.426025,508.985779 
	C2043.562988,499.302673 2030.809814,496.655853 2017.807373,496.207764 
	C2007.355347,495.847565 1996.646729,496.307953 1986.396362,498.235260 
	C1970.081909,501.302765 1957.023315,509.491730 1952.037720,526.717407 
	C1951.106567,529.934082 1950.735352,533.312744 1950.084106,536.729736 
	C1961.753174,536.729736 1973.331299,536.729736 1983.466553,536.729736 
	C1985.608154,532.429810 1986.777222,528.438416 1989.217651,525.504761 
	C1995.433228,518.033386 2004.259399,518.262024 2012.731201,519.508667 
	C2016.600098,520.078064 2021.399902,521.828186 2023.605103,524.706909 
	C2028.978149,531.721008 2030.492432,542.277954 2015.407959,546.004211 
M2485.000000,613.439148 
	C2485.000000,615.875916 2485.000000,618.312683 2485.000000,620.730408 
	C2496.607666,620.730408 2507.676514,620.730408 2519.000000,620.730408 
	C2519.000000,603.329529 2519.256104,586.192017 2518.920654,569.066101 
	C2518.643311,554.902527 2518.401123,540.668457 2516.790771,526.620667 
	C2515.226807,512.978760 2507.461914,503.314087 2494.096924,498.471466 
	C2486.291992,495.643463 2478.303223,495.837006 2470.298096,496.054382 
	C2461.890869,496.282684 2454.103760,498.774139 2447.467529,504.097443 
	C2444.036865,506.849579 2440.892822,509.958923 2436.968262,513.493042 
	C2436.968262,508.265076 2436.968262,503.730621 2436.968262,499.285156 
	C2425.694336,499.285156 2414.958252,499.285156 2404.273682,499.285156 
	C2404.273682,539.964050 2404.273682,580.357239 2404.273682,620.725342 
	C2415.951660,620.725342 2427.353760,620.725342 2439.000000,620.725342 
	C2439.000000,596.487122 2438.544434,572.510620 2439.185303,548.563416 
	C2439.523926,535.906921 2443.616699,526.095825 2458.279541,523.403381 
	C2468.900391,521.453064 2480.580078,523.948730 2482.932129,538.535828 
	C2484.020264,545.285400 2484.804932,552.152649 2484.908691,558.978943 
	C2485.180176,576.800842 2485.000000,594.629700 2485.000000,613.439148 
M2809.533936,538.022156 
	C2805.778809,535.980042 2803.023193,532.460083 2804.301758,528.647339 
	C2805.401611,525.367065 2808.567871,521.669922 2811.709229,520.455505 
	C2815.946777,518.817383 2821.066162,518.846558 2825.753662,519.108765 
	C2836.634277,519.717529 2842.428223,524.826111 2844.551025,534.770264 
	C2855.331543,534.770264 2866.105957,534.770264 2877.184082,534.770264 
	C2876.738525,533.087341 2876.206299,531.718628 2876.027832,530.305237 
	C2874.041260,514.578857 2864.540771,505.244324 2850.271484,500.001343 
	C2835.542236,494.589325 2820.329834,495.118500 2805.191406,497.151367 
	C2796.382324,498.334229 2788.062256,501.670624 2781.087158,507.448883 
	C2770.471436,516.242981 2768.814941,528.384888 2770.260254,540.888977 
	C2770.937012,546.743774 2774.268555,552.054688 2779.334717,556.149353 
	C2788.109375,563.241638 2798.714844,565.195557 2809.085693,568.020813 
	C2818.515137,570.589661 2828.000977,573.018311 2837.272217,576.082214 
	C2846.353271,579.083191 2848.220459,588.170837 2841.664551,594.877686 
	C2836.115234,600.554871 2829.030762,601.493408 2821.824219,600.891846 
	C2811.015137,599.989624 2799.902344,593.782043 2799.716553,581.328918 
	C2788.833252,581.328918 2777.952393,581.328918 2766.812500,581.328918 
	C2767.748047,591.554871 2770.363037,600.483154 2777.423584,608.096619 
	C2788.512207,620.053406 2803.072266,622.813843 2818.020996,623.773010 
	C2826.931152,624.344666 2836.049561,623.121643 2844.958252,621.875122 
	C2854.559570,620.531677 2863.299316,616.408752 2869.992188,609.325867 
	C2878.393555,600.434448 2881.188965,589.299500 2879.911133,577.327209 
	C2879.041992,569.182312 2875.255371,562.637268 2868.327393,557.567017 
	C2860.096436,551.543030 2850.525146,549.664795 2841.144531,547.024170 
	C2830.811035,544.115173 2820.426758,541.386597 2809.533936,538.022156 
M1941.500610,590.996887 
	C1943.159302,585.520325 1944.817871,580.043762 1946.648071,574.000732 
	C1935.638062,574.000732 1925.499878,573.900818 1915.369629,574.138977 
	C1914.223389,574.166016 1912.505493,575.903259 1912.102905,577.178833 
	C1909.996948,583.853821 1907.559448,590.174683 1901.295654,594.218140 
	C1891.338501,600.645691 1874.389893,599.711060 1867.326416,587.747437 
	C1857.126465,570.471924 1856.926636,552.570374 1866.134644,534.983032 
	C1872.021851,523.738464 1880.163208,520.785645 1892.282471,522.132751 
	C1902.108643,523.224915 1908.475342,529.447449 1911.107178,539.797241 
	C1911.427490,541.056763 1913.202148,542.832825 1914.338379,542.859741 
	C1924.450928,543.099487 1934.571411,542.999268 1944.650879,542.999268 
	C1945.850830,527.382507 1935.949707,511.122772 1920.426880,503.116547 
	C1906.136353,495.746033 1891.006226,494.714508 1875.309082,496.936493 
	C1855.744751,499.705902 1841.950073,510.310242 1833.010986,527.461853 
	C1824.567383,543.662781 1823.990723,561.161072 1827.430054,578.496338 
	C1830.974487,596.361450 1841.444336,610.079712 1858.122192,617.857178 
	C1875.648071,626.030029 1894.031006,626.267578 1912.147095,619.853638 
	C1925.886108,614.989441 1935.901367,605.653687 1941.500610,590.996887 
M2743.497070,621.000000 
	C2748.595703,621.000000 2753.694336,621.000000 2758.714600,621.000000 
	C2758.714600,564.689758 2758.714600,508.958008 2758.714600,453.289459 
	C2747.355713,453.289459 2736.284424,453.289459 2725.285645,453.289459 
	C2725.285645,509.311066 2725.285645,565.042725 2725.285645,621.000000 
	C2731.212402,621.000000 2736.855957,621.000000 2743.497070,621.000000 
M2124.791016,531.019653 
	C2133.771729,526.774170 2143.146973,527.572815 2152.998291,528.906189 
	C2152.998291,518.891052 2153.089600,508.925964 2152.858154,498.968353 
	C2152.834717,497.962402 2150.938232,496.255920 2149.781006,496.136688 
	C2139.415039,495.068390 2129.638428,497.042786 2121.214355,503.394409 
	C2116.128906,507.228729 2111.524902,511.701691 2107.086426,515.556152 
	C2107.086426,511.006012 2107.086426,505.156860 2107.086426,499.232330 
	C2095.800537,499.232330 2085.066162,499.232330 2074.216309,499.232330 
	C2074.216309,539.854797 2074.216309,580.244690 2074.216309,620.783997 
	C2085.833740,620.783997 2097.234131,620.783997 2109.000000,620.783997 
	C2109.000000,618.948303 2109.000000,617.322937 2109.000000,615.697632 
	C2109.000000,596.873962 2108.713867,578.044373 2109.105713,559.228882 
	C2109.346680,547.643066 2113.832275,537.818726 2124.791016,531.019653 
z"/>
<path fill="#FAC809" opacity="1.000000" stroke="none" 
	d="
M2915.333252,993.000000 
	C2916.802246,983.390869 2918.496826,973.760010 2920.429199,964.177124 
	C2924.552002,943.736084 2928.808594,923.322083 2932.990723,902.893066 
	C2937.237793,882.145142 2941.503418,861.400940 2945.682129,840.639221 
	C2949.509033,821.625671 2953.195312,802.583862 2957.008789,783.567566 
	C2960.789062,764.717346 2964.670898,745.887451 2968.471680,727.041321 
	C2972.337158,707.872925 2976.146729,688.693298 2980.003174,669.523010 
	C2983.441162,652.431885 2986.465332,635.240173 2990.534912,618.300110 
	C2992.869141,608.583984 2988.501465,602.010803 2983.451416,594.775208 
	C2975.149902,582.881226 2967.122070,570.744507 2959.800049,558.229797 
	C2945.819824,534.336243 2935.291748,508.833038 2927.821533,482.222931 
	C2923.385986,466.422424 2919.794434,450.293457 2917.213623,434.090759 
	C2914.841064,419.196350 2913.874023,404.027740 2913.135986,388.938416 
	C2912.483887,375.603729 2912.182373,362.150757 2913.175537,348.858276 
	C2915.100342,323.099518 2919.267578,297.663422 2926.554688,272.767517 
	C2933.397949,249.387436 2941.918457,226.691254 2953.050537,205.043137 
	C2965.035400,181.736740 2978.999756,159.617386 2996.016846,139.647614 
	C3007.054932,126.694603 3018.297119,113.761452 3030.720947,102.186089 
	C3043.642334,90.147408 3057.762451,79.304909 3071.964355,68.755188 
	C3088.905518,56.170761 3107.302246,45.840858 3126.440186,36.904427 
	C3153.393799,24.318340 3181.329346,14.735581 3210.561768,8.907022 
	C3229.747559,5.081667 3249.016602,2.286169 3268.793945,1.380877 
	C3280.354248,1.000000 3291.708252,1.000000 3303.737793,1.381225 
	C3318.625977,3.171932 3333.033203,3.562768 3347.004639,6.233696 
	C3367.105957,10.076538 3387.203857,14.568925 3406.728516,20.634146 
	C3429.763428,27.789736 3451.575684,38.178890 3472.639404,50.135090 
	C3500.911377,66.182747 3526.443359,85.825218 3549.635498,108.411369 
	C3560.463379,118.956528 3570.046387,130.818024 3579.822510,142.396423 
	C3595.164062,160.566467 3607.721924,180.657272 3618.829834,201.613968 
	C3631.079346,224.723587 3640.871582,248.944168 3647.420898,274.240295 
	C3651.903320,291.553284 3654.573730,309.337341 3657.992676,326.922729 
	C3659.095703,332.595642 3660.002930,338.306519 3661.000000,344.000000 
	C3661.000000,365.354218 3661.000000,386.708466 3660.637207,408.707153 
	C3659.851562,411.258453 3659.328125,413.149323 3659.022705,415.074799 
	C3657.003418,427.810730 3655.295898,440.602356 3652.988281,453.285156 
	C3647.917480,481.156525 3638.966309,507.925201 3626.623779,533.284485 
	C3617.506592,552.016968 3606.697266,570.018738 3595.503418,587.622253 
	C3583.496582,606.504883 3568.931152,623.590149 3552.988281,639.289673 
	C3542.321777,649.793274 3530.798828,659.460938 3519.316162,669.094055 
	C3501.612305,683.946411 3482.159180,696.290710 3461.728516,706.987976 
	C3428.911621,724.170227 3394.509766,737.090881 3357.798340,742.993713 
	C3340.202148,745.822998 3322.508301,748.491821 3304.753662,749.741333 
	C3291.083008,750.703491 3277.211914,749.848022 3263.496582,748.867188 
	C3248.305664,747.780884 3233.195068,745.590393 3218.035400,744.014832 
	C3216.573242,743.862915 3214.640137,744.201904 3213.556885,745.086243 
	C3204.903076,752.150269 3196.444580,759.453430 3187.842285,766.581543 
	C3174.833008,777.361511 3161.706055,787.999512 3148.723145,798.810791 
	C3137.737305,807.959229 3126.917480,817.307007 3115.963623,826.494507 
	C3104.142090,836.409668 3092.236816,846.224792 3080.393799,856.114380 
	C3071.818604,863.275024 3063.313965,870.520203 3054.726318,877.665527 
	C3043.375732,887.109619 3031.951904,896.466064 3020.602295,905.911316 
	C3011.887695,913.163452 3003.260986,920.521179 2994.555176,927.783875 
	C2983.089355,937.348755 2971.594482,946.879028 2960.092529,956.400513 
	C2950.869385,964.035461 2941.556641,971.563171 2932.401611,979.278687 
	C2927.145996,983.708008 2922.125977,988.416931 2917.000000,993.000000 
	C2916.555420,993.000000 2916.111084,993.000000 2915.333252,993.000000 
M3142.042480,155.481949 
	C3120.314941,170.159195 3100.842529,187.436493 3084.098877,207.566116 
	C3067.098389,228.004852 3053.515625,250.619949 3043.283203,275.247131 
	C3030.122070,306.922943 3023.931885,340.037903 3023.200195,374.128937 
	C3022.943604,386.066528 3024.443848,398.132172 3026.138672,409.996887 
	C3027.956543,422.720703 3030.093506,435.519501 3033.597900,447.857605 
	C3041.946777,477.250763 3055.078369,504.502960 3073.072021,529.297058 
	C3087.908447,549.740417 3105.348389,567.818481 3125.135742,583.385010 
	C3144.316406,598.474182 3165.447266,610.461365 3188.160400,619.703857 
	C3215.829834,630.963196 3244.617432,637.139465 3274.274902,638.830566 
	C3293.053955,639.901367 3311.784180,638.264587 3330.470459,635.212341 
	C3354.495605,631.288208 3377.374756,624.003967 3399.282959,613.801697 
	C3422.991455,602.761108 3444.557373,588.157104 3463.855957,570.503052 
	C3479.457275,556.231201 3493.320068,540.341431 3505.103027,522.681213 
	C3516.479248,505.630646 3525.879639,487.615875 3533.219971,468.468964 
	C3542.767334,443.565918 3548.181396,417.740021 3549.811035,391.234985 
	C3550.581299,378.704285 3549.988037,365.989166 3548.827148,353.467529 
	C3547.562500,339.824707 3545.927979,326.063721 3542.680908,312.788116 
	C3535.384521,282.957520 3523.266602,255.007050 3505.944336,229.542145 
	C3493.128662,210.702026 3478.347656,193.592255 3461.155762,178.432877 
	C3443.711426,163.051025 3424.761475,150.033707 3404.065186,139.714447 
	C3385.244629,130.330353 3365.511719,123.330505 3344.833008,118.711182 
	C3328.097412,114.972832 3311.255371,112.972191 3294.248291,112.128029 
	C3286.018799,111.719551 3277.678467,112.244362 3269.465820,113.095451 
	C3256.123535,114.478127 3242.646973,115.563835 3229.578857,118.396599 
	C3198.391602,125.157021 3169.499512,137.791580 3142.042480,155.481949 
z"/>
<path fill="#FFFFFF" opacity="1.000000" stroke="none" 
	d="
M2917.468750,993.000000 
	C2922.125977,988.416931 2927.145996,983.708008 2932.401611,979.278687 
	C2941.556641,971.563171 2950.869385,964.035461 2960.092529,956.400513 
	C2971.594482,946.879028 2983.089355,937.348755 2994.555176,927.783875 
	C3003.260986,920.521179 3011.887695,913.163452 3020.602295,905.911316 
	C3031.951904,896.466064 3043.375732,887.109619 3054.726318,877.665527 
	C3063.313965,870.520203 3071.818604,863.275024 3080.393799,856.114380 
	C3092.236816,846.224792 3104.142090,836.409668 3115.963623,826.494507 
	C3126.917480,817.307007 3137.737305,807.959229 3148.723145,798.810791 
	C3161.706055,787.999512 3174.833008,777.361511 3187.842285,766.581543 
	C3196.444580,759.453430 3204.903076,752.150269 3213.556885,745.086243 
	C3214.640137,744.201904 3216.573242,743.862915 3218.035400,744.014832 
	C3233.195068,745.590393 3248.305664,747.780884 3263.496582,748.867188 
	C3277.211914,749.848022 3291.083008,750.703491 3304.753662,749.741333 
	C3322.508301,748.491821 3340.202148,745.822998 3357.798340,742.993713 
	C3394.509766,737.090881 3428.911621,724.170227 3461.728516,706.987976 
	C3482.159180,696.290710 3501.612305,683.946411 3519.316162,669.094055 
	C3530.798828,659.460938 3542.321777,649.793274 3552.988281,639.289673 
	C3568.931152,623.590149 3583.496582,606.504883 3595.503418,587.622253 
	C3606.697266,570.018738 3617.506592,552.016968 3626.623779,533.284485 
	C3638.966309,507.925201 3647.917480,481.156525 3652.988281,453.285156 
	C3655.295898,440.602356 3657.003418,427.810730 3659.022705,415.074799 
	C3659.328125,413.149323 3659.851562,411.258453 3660.637207,409.175812 
	C3661.000000,603.602539 3661.000000,798.205017 3661.000000,993.000000 
	C3413.312500,993.000000 3165.625000,993.000000 2917.468750,993.000000 
z"/>
<path fill="#040707" opacity="1.000000" stroke="none" 
	d="
M1.000001,264.468658 
	C1.999465,261.437042 3.358556,258.953033 3.941308,256.298584 
	C8.465678,235.690063 18.043631,217.730835 31.703674,201.752136 
	C55.442158,173.984314 86.418152,158.570114 120.887680,148.998123 
	C147.512024,141.604691 174.802963,140.798386 202.051498,142.226410 
	C225.341629,143.446960 248.023315,148.537201 269.589050,158.082047 
	C289.859528,167.053604 307.784790,179.257248 322.299683,195.949844 
	C338.890778,215.030075 350.001343,237.045532 353.898895,262.216980 
	C355.521912,272.699005 356.178925,283.346039 356.899292,293.943604 
	C357.137604,297.449371 356.198761,301.035156 355.759186,304.929169 
	C270.263397,304.929169 184.827972,304.929169 98.006096,304.929169 
	C100.783546,314.962433 102.827988,324.504639 106.080482,333.615570 
	C111.616425,349.122864 123.486771,358.782349 138.234924,364.892456 
	C148.720062,369.236420 159.798340,371.105713 171.201706,372.224976 
	C188.899414,373.962067 206.192276,373.031769 222.971588,367.400543 
	C238.713837,362.117340 252.961670,354.272736 262.199127,339.547699 
	C262.740479,338.684692 264.362793,338.066559 265.483826,338.063843 
	C293.314270,337.996796 321.144958,338.026947 348.975555,338.058594 
	C349.244141,338.058899 349.512451,338.310669 350.078186,338.593842 
	C343.969147,351.394287 337.622772,363.934937 328.568817,375.067627 
	C315.541962,391.085388 299.633453,403.130157 280.910583,411.542938 
	C266.936768,417.821838 252.341187,422.113068 237.288849,425.055481 
	C215.549088,429.305206 193.588715,430.880493 171.554840,429.818420 
	C157.758942,429.153473 144.027832,426.872742 130.304306,425.042206 
	C109.986214,422.332062 90.836647,415.605347 72.973824,405.865601 
	C43.210991,389.637390 20.480215,366.684296 9.070691,334.024017 
	C6.434541,326.477936 4.961621,318.526733 2.898845,310.776489 
	C2.745458,310.200165 2.150068,309.741455 1.380077,309.114044 
	C1.000000,294.312439 1.000000,279.624878 1.000001,264.468658 
M203.255081,201.002121 
	C199.013931,200.664413 194.723099,200.626892 190.540680,199.934464 
	C176.219772,197.563477 162.124069,199.266541 148.429642,203.127304 
	C120.459007,211.012833 101.954521,229.761856 99.755394,255.743164 
	C152.099457,255.743164 204.454346,255.743164 257.008301,255.743164 
	C256.273438,253.325012 255.690308,251.174545 254.969528,249.071243 
	C249.579590,233.342850 242.289795,218.682175 227.282822,210.096512 
	C220.167374,206.025696 211.888474,203.988510 203.255081,201.002121 
z"/>
<path fill="#FFFFFF" opacity="1.000000" stroke="none" 
	d="
M3661.000000,343.531342 
	C3660.002930,338.306519 3659.095703,332.595642 3657.992676,326.922729 
	C3654.573730,309.337341 3651.903320,291.553284 3647.420898,274.240295 
	C3640.871582,248.944168 3631.079346,224.723587 3618.829834,201.613968 
	C3607.721924,180.657272 3595.164062,160.566467 3579.822510,142.396423 
	C3570.046387,130.818024 3560.463379,118.956528 3549.635498,108.411369 
	C3526.443359,85.825218 3500.911377,66.182747 3472.639404,50.135090 
	C3451.575684,38.178890 3429.763428,27.789736 3406.728516,20.634146 
	C3387.203857,14.568925 3367.105957,10.076538 3347.004639,6.233696 
	C3333.033203,3.562768 3318.625977,3.171932 3304.206543,1.381225 
	C3422.925537,1.000000 3541.851318,1.000000 3661.000000,1.000000 
	C3661.000000,115.020798 3661.000000,229.041733 3661.000000,343.531342 
z"/>
<path fill="#040707" opacity="1.000000" stroke="none" 
	d="
M390.353149,289.239655 
	C406.321899,279.718842 423.140045,273.727814 441.165985,270.952454 
	C452.518402,269.204590 463.759491,266.704071 475.130981,265.118164 
	C485.485138,263.674133 495.956146,263.086639 506.360748,261.981445 
	C521.283813,260.396332 536.180908,258.559631 551.112549,257.065247 
	C563.109131,255.864578 574.484558,252.886383 585.278992,247.364365 
	C595.488220,242.141815 597.543701,232.252014 595.447632,223.977631 
	C590.935730,206.166702 580.961426,197.089050 562.505920,195.145798 
	C549.092896,193.733490 535.502869,192.745209 522.056580,193.259949 
	C508.680267,193.771988 495.558838,196.805344 484.205902,204.938141 
	C476.527100,210.438934 472.630981,218.219635 470.037170,226.885483 
	C469.360138,229.147385 469.121948,231.540619 468.682007,233.874542 
	C435.778717,233.874542 403.155792,233.874542 369.201355,233.874542 
	C371.081757,225.921936 372.091064,218.064728 374.799591,210.844971 
	C384.427856,185.180496 404.621185,170.155258 428.883331,160.159241 
	C440.392975,155.417252 452.505035,151.858337 464.632843,148.979584 
	C475.326721,146.441223 486.376221,144.801941 497.349731,144.168106 
	C518.813904,142.928329 540.339478,142.055374 561.830078,142.226151 
	C575.006531,142.330856 588.162964,144.679016 601.332642,145.976837 
	C615.703674,147.393021 629.517273,151.073761 643.062256,155.962769 
	C661.070557,162.462784 676.556091,172.432144 687.112000,188.763275 
	C691.423584,195.433731 693.677856,203.046143 694.007690,211.119446 
	C696.296875,267.145477 694.056580,323.202179 695.229553,379.226471 
	C695.490417,391.687103 697.131653,404.426971 703.025696,415.951477 
	C704.118896,418.089020 705.580688,420.038055 707.096680,422.427734 
	C706.203369,422.625946 705.361572,422.975342 704.519592,422.976105 
	C673.195740,423.004089 641.871460,422.929291 610.548523,423.099945 
	C607.099854,423.118713 605.786987,421.563385 605.038330,418.854706 
	C603.157471,412.049500 601.381470,405.215332 599.637634,398.671326 
	C592.345825,402.788666 584.895142,407.239532 577.225769,411.274780 
	C561.799500,419.391296 545.054993,423.140808 528.008423,426.077118 
	C508.783661,429.388611 489.433563,430.785461 470.018219,429.886902 
	C444.150452,428.689728 418.819702,424.635101 395.895844,411.401886 
	C376.986359,400.486053 364.066833,384.873962 360.139160,363.048279 
	C357.410400,347.884979 358.313416,332.581207 364.468048,318.367310 
	C369.738068,306.196320 379.050110,296.912445 390.353149,289.239655 
M472.436890,370.041748 
	C475.720581,371.690948 478.845367,373.883972 482.314758,374.897522 
	C499.580872,379.941681 517.176941,379.605927 534.938477,378.176849 
	C546.441162,377.251373 557.239014,374.618317 567.205322,368.940948 
	C580.057373,361.619781 589.419006,351.645691 593.198547,336.641968 
	C597.054443,321.335327 595.497009,305.926941 596.044128,290.861267 
	C591.164001,292.600677 586.516357,295.077698 581.597839,295.867523 
	C560.930420,299.186249 540.212891,302.239838 519.452637,304.917053 
	C505.160767,306.760101 490.963623,309.043884 477.884979,315.176453 
	C468.960175,319.361267 461.480988,325.822845 459.059540,336.074982 
	C455.759125,350.048767 458.947784,361.853821 472.436890,370.041748 
z"/>
<path fill="#FAC809" opacity="1.000000" stroke="none" 
	d="
M2081.233887,268.050354 
	C2090.582520,266.775513 2099.479736,265.458984 2108.400146,264.323547 
	C2115.396973,263.432983 2122.423096,262.773254 2129.434814,261.999146 
	C2147.357178,260.020660 2165.363037,258.579651 2183.166260,255.828659 
	C2192.370850,254.406311 2201.494873,251.332764 2210.146729,247.769989 
	C2219.276855,244.010147 2223.852295,235.184937 2221.243164,224.420563 
	C2216.888428,206.454590 2207.601562,197.313599 2188.661377,195.167923 
	C2175.232910,193.646622 2161.603516,192.830338 2148.111816,193.248932 
	C2135.896973,193.627914 2123.865723,196.413544 2113.071777,202.957809 
	C2101.603027,209.911148 2096.749268,220.717224 2094.606201,233.668427 
	C2062.086914,233.668427 2029.357910,233.668427 1996.068115,233.668427 
	C1996.404663,224.144974 1998.415161,215.027573 2002.296997,206.395309 
	C2010.582153,187.971451 2025.160767,175.656555 2042.301758,165.944717 
	C2061.309326,155.175446 2082.132812,149.806747 2103.402344,146.169464 
	C2113.734131,144.402618 2124.281982,143.537079 2134.766602,143.105774 
	C2152.346924,142.382538 2169.986816,141.510284 2187.543701,142.191879 
	C2214.209961,143.227066 2240.746094,145.881332 2266.216797,154.923325 
	C2282.247559,160.614258 2296.746094,168.664261 2307.973633,181.616440 
	C2315.429443,190.217651 2319.854004,200.539322 2319.906250,211.980331 
	C2320.127441,260.467346 2319.541260,308.962524 2320.237305,357.440552 
	C2320.497314,375.528870 2320.374023,393.993622 2327.043457,411.391693 
	C2328.537354,415.288940 2330.650391,418.948853 2332.566895,422.900085 
	C2299.168457,422.900085 2266.037598,422.900085 2232.164795,422.900085 
	C2229.905762,414.838654 2227.600342,406.612335 2225.385986,398.710388 
	C2217.706299,403.031677 2209.755615,407.714233 2201.615234,412.039978 
	C2187.330322,419.630615 2171.705078,423.163483 2155.975342,425.887512 
	C2136.103760,429.328857 2115.993164,430.934937 2095.824463,429.919159 
	C2072.542236,428.746643 2049.573242,425.443512 2028.351807,415.004883 
	C2009.950439,405.953491 1994.744873,393.037598 1988.657837,372.876434 
	C1980.378906,345.455231 1983.425171,316.297150 2008.393555,295.233917 
	C2020.160400,285.307495 2034.033325,278.999146 2048.847168,275.095490 
	C2059.379883,272.320068 2070.135986,270.392609 2081.233887,268.050354 
M2164.412598,377.999908 
	C2175.227295,376.725250 2185.441650,373.622803 2194.843994,368.031372 
	C2207.182617,360.693634 2216.696777,350.603790 2219.027344,336.289581 
	C2221.469482,321.291687 2221.831787,305.955170 2223.201660,289.588715 
	C2218.294922,291.907013 2215.212158,294.117920 2211.814453,294.834198 
	C2199.231445,297.486786 2186.597656,300.006165 2173.881836,301.894775 
	C2159.802490,303.985870 2145.537598,304.867920 2131.492188,307.136719 
	C2118.647461,309.211609 2106.225586,312.445953 2095.337402,320.723511 
	C2079.831299,332.511841 2079.788086,358.023285 2095.880615,369.003937 
	C2106.435791,376.206085 2118.551758,378.178406 2130.751953,378.811310 
	C2141.625977,379.375427 2152.583740,378.333466 2164.412598,377.999908 
z"/>
<path fill="#FAC809" opacity="1.000000" stroke="none" 
	d="
M1854.878540,147.005585 
	C1866.362671,150.339615 1877.538208,153.309204 1888.437988,157.077164 
	C1905.719971,163.051453 1921.215942,172.295044 1935.419800,183.839905 
	C1949.955933,195.654617 1961.171875,210.005280 1969.321289,226.783875 
	C1975.642334,239.798096 1979.426880,253.531769 1981.063599,267.944946 
	C1983.779297,291.859131 1982.252808,315.387695 1972.735596,337.592072 
	C1968.023926,348.584351 1961.619263,359.128632 1954.445068,368.727966 
	C1940.820801,386.957672 1922.516113,399.815277 1902.026489,409.397644 
	C1886.346191,416.730865 1869.827393,421.691620 1852.820435,425.004730 
	C1829.864746,429.476685 1806.640381,430.953125 1783.366943,429.850616 
	C1761.637329,428.821289 1740.190186,425.683807 1719.197632,419.242065 
	C1698.509033,412.893707 1679.252808,403.911133 1662.356323,390.564911 
	C1639.587036,372.579865 1624.088379,349.572174 1616.915771,321.106873 
	C1613.116577,306.029236 1612.073486,290.735901 1613.164062,275.455933 
	C1615.179077,247.226013 1624.983765,221.940063 1643.362305,199.964478 
	C1656.499512,184.256134 1672.673462,172.782043 1690.712280,163.844330 
	C1708.591187,154.985764 1727.588989,149.486221 1747.287109,145.807556 
	C1770.768799,141.422333 1794.379028,141.557587 1817.980103,142.232788 
	C1830.170898,142.581558 1842.293091,145.333298 1854.878540,147.005585 
M1879.989990,315.368805 
	C1884.577148,295.787842 1884.391846,276.197479 1879.973877,256.629608 
	C1876.875610,242.906906 1870.453979,230.676834 1860.345703,221.115967 
	C1843.606812,205.283417 1822.673706,199.390289 1800.109375,199.124008 
	C1791.761353,199.025497 1783.303223,199.773270 1775.060669,201.135498 
	C1761.491089,203.378098 1749.219604,208.991516 1738.626953,217.902969 
	C1720.557495,233.104858 1713.712280,253.703003 1712.242432,276.196075 
	C1711.517212,287.290436 1712.601929,298.655884 1714.181152,309.711060 
	C1716.368896,325.025421 1722.713135,338.818146 1733.620728,350.054443 
	C1749.122925,366.023926 1768.964844,371.949707 1790.430054,372.820953 
	C1800.075928,373.212463 1809.847656,372.062866 1819.478516,370.911652 
	C1834.665039,369.096344 1847.870850,362.533020 1859.151978,352.292084 
	C1869.906982,342.528564 1876.008301,329.971344 1879.989990,315.368805 
z"/>
<path fill="#FAC809" opacity="1.000000" stroke="none" 
	d="
M2459.709961,196.677094 
	C2450.940430,199.071289 2443.500732,202.958450 2440.123535,211.394516 
	C2436.279053,220.997620 2440.761230,229.243301 2451.753174,235.377655 
	C2462.750000,241.514420 2474.753418,244.551895 2486.904785,246.908447 
	C2505.636719,250.541199 2524.518311,253.402283 2543.253418,257.019409 
	C2560.674316,260.382812 2578.091797,263.880737 2595.315186,268.115631 
	C2609.769043,271.669586 2623.522461,277.365936 2635.820801,285.991364 
	C2648.686035,295.014587 2658.951660,306.322845 2661.527832,322.307556 
	C2665.174072,344.930115 2660.976562,365.835052 2645.687012,383.895294 
	C2629.339844,403.204926 2607.790527,413.298218 2584.133301,420.099854 
	C2568.813721,424.504364 2553.231934,427.182373 2537.351074,427.960022 
	C2519.664062,428.826019 2501.915039,430.448334 2484.272949,429.744598 
	C2456.319336,428.629578 2428.514160,425.554443 2401.809570,416.089935 
	C2381.621338,408.934937 2363.785645,398.295593 2349.652832,382.067657 
	C2340.332031,371.365112 2334.865479,358.754089 2333.007324,344.642548 
	C2332.521729,340.954956 2332.149902,337.252441 2331.689941,333.245789 
	C2363.375488,333.245789 2394.307129,333.245789 2424.352051,333.245789 
	C2426.648926,339.858002 2427.845215,346.818878 2431.262451,352.426300 
	C2439.033447,365.178162 2451.916992,371.043304 2465.771729,374.995392 
	C2480.561035,379.214111 2495.760010,379.928070 2510.891357,378.817505 
	C2524.889404,377.790131 2538.789551,375.126404 2550.787109,366.994202 
	C2559.812256,360.876648 2567.912842,349.964142 2561.926758,337.745209 
	C2558.631104,331.018341 2552.766602,326.379608 2545.752441,324.149750 
	C2532.906250,320.065826 2519.971191,316.048553 2506.812500,313.211578 
	C2488.330078,309.226715 2469.555176,306.619537 2451.004150,302.925232 
	C2424.356445,297.618530 2397.359863,293.348785 2373.055176,280.011597 
	C2355.701416,270.488770 2342.260010,257.358337 2340.321289,236.840668 
	C2338.511963,217.690918 2341.996582,199.418304 2355.368652,183.963333 
	C2369.996826,167.056549 2388.828613,157.927383 2409.748535,151.912003 
	C2424.252441,147.741547 2438.923828,144.618500 2454.016357,144.031647 
	C2475.372070,143.201233 2496.781494,141.518555 2518.090088,142.306641 
	C2541.909424,143.187576 2565.603760,146.570297 2588.246094,154.955338 
	C2607.055176,161.920853 2623.829102,172.033478 2636.809326,187.482941 
	C2645.357666,197.657425 2650.213379,209.747040 2652.020264,222.983749 
	C2652.262695,224.757385 2652.689941,226.505493 2652.948242,228.277542 
	C2653.010254,228.702866 2652.738770,229.176743 2652.575928,229.799042 
	C2621.559814,229.799042 2590.615234,229.799042 2559.280518,229.799042 
	C2557.595703,219.222137 2554.251221,209.153366 2544.100098,203.863190 
	C2537.536865,200.442703 2530.300781,198.082199 2523.129639,196.106506 
	C2508.783691,192.154144 2493.978760,192.616241 2479.304932,193.159866 
	C2472.855713,193.398788 2466.468506,195.305206 2459.709961,196.677094 
z"/>
<path fill="#040707" opacity="1.000000" stroke="none" 
	d="
M933.818604,352.477753 
	C935.859924,337.958740 930.030701,329.109833 916.312927,323.929321 
	C897.074036,316.663757 877.008911,312.847778 856.940063,309.029907 
	C827.621460,303.452332 797.856689,299.807526 769.314697,290.808594 
	C751.806335,285.288452 735.077332,277.635498 722.657654,263.155090 
	C715.231812,254.497223 711.855652,244.284500 710.971558,233.042908 
	C710.003723,220.735367 712.112244,208.852539 717.221252,197.825851 
	C721.158020,189.329163 726.604431,181.522018 734.489319,175.866531 
	C739.618347,172.187653 744.508362,168.149139 749.803101,164.732986 
	C761.967224,156.884811 775.678284,152.525070 789.571716,149.382736 
	C802.828613,146.384399 816.401733,144.224869 829.949036,143.213974 
	C846.465149,141.981537 863.106689,141.857986 879.681091,142.107758 
	C906.764282,142.515915 933.487122,145.758041 959.188232,154.986450 
	C978.045471,161.757416 994.734863,171.941544 1007.710999,187.359085 
	C1016.264709,197.522049 1021.113770,209.585007 1023.022949,222.779510 
	C1023.182800,223.884094 1023.780029,224.925568 1023.938477,226.030167 
	C1024.101074,227.164536 1023.974487,228.340408 1023.974487,229.748505 
	C992.770203,229.748505 961.667542,229.748505 930.235840,229.748505 
	C928.992249,220.702011 926.139771,212.240479 918.644165,206.171951 
	C911.564331,200.440140 902.960205,198.180756 894.393860,196.047989 
	C879.863220,192.430283 864.976135,192.333969 850.202332,193.178726 
	C839.312744,193.801361 828.421570,195.564224 818.934265,201.974991 
	C806.264648,210.536026 807.202942,226.599899 820.618469,234.254517 
	C834.023499,241.903122 848.708435,245.207275 863.592773,247.973175 
	C880.291992,251.076340 897.059692,253.815002 913.742554,257.000275 
	C930.220703,260.146423 946.815186,262.943756 963.023071,267.178497 
	C983.593811,272.553040 1003.400940,280.059570 1018.568298,296.084045 
	C1027.049438,305.044434 1031.963257,315.413116 1033.187134,327.999084 
	C1034.661255,343.162140 1032.486328,357.421814 1025.549805,370.803070 
	C1017.544373,386.246399 1005.008362,397.414520 990.076721,405.972473 
	C973.292358,415.592316 954.998657,421.153778 936.172119,424.830719 
	C927.076111,426.607208 917.730103,427.368042 908.457458,427.917053 
	C892.139709,428.883118 875.777832,430.076202 859.460083,429.776855 
	C845.105225,429.513519 830.787048,427.320557 816.449707,426.013000 
	C801.414612,424.641815 786.937134,420.856354 772.699097,416.009125 
	C752.302673,409.065369 734.374023,398.165344 720.361145,381.690918 
	C711.231506,370.957550 705.592590,358.340546 703.990295,344.138092 
	C703.592102,340.607666 703.093750,337.088531 702.600525,333.245819 
	C734.351746,333.245819 765.429382,333.245819 796.912231,333.245819 
	C796.443115,342.421326 799.722595,350.281677 805.615723,357.111542 
	C813.889221,366.700287 824.897400,371.600128 836.730530,374.984924 
	C851.607300,379.240417 866.914307,379.945587 882.149231,378.822113 
	C896.143982,377.790100 910.194458,375.213074 921.885010,366.787262 
	C926.669556,363.338898 929.785522,357.575348 933.818604,352.477753 
z"/>
<path fill="#FAC809" opacity="1.000000" stroke="none" 
	d="
M1490.363647,424.302307 
	C1477.796875,426.010468 1465.642090,427.930115 1453.411865,428.883209 
	C1441.856812,429.783691 1430.174927,430.498810 1418.632812,429.834778 
	C1390.615601,428.222931 1363.275879,423.192078 1337.301147,411.811646 
	C1317.634277,403.194916 1300.020752,391.703735 1285.541748,375.902466 
	C1268.618774,357.434021 1257.236206,335.995483 1254.054932,310.814941 
	C1252.963135,302.172668 1251.782715,293.392029 1252.160400,284.740845 
	C1253.434570,255.548920 1261.452026,228.545059 1279.493286,204.930283 
	C1299.359375,178.926941 1325.992065,163.156250 1356.466553,153.020050 
	C1373.281006,147.427353 1390.477417,143.602112 1408.251221,143.031937 
	C1423.677979,142.537048 1439.148804,141.534470 1454.537109,142.204895 
	C1473.319580,143.023239 1491.869263,146.308670 1510.018677,151.489365 
	C1528.681396,156.816605 1546.306152,164.478592 1561.916504,176.065948 
	C1579.999634,189.488815 1593.997925,206.155624 1599.702881,228.546967 
	C1601.097290,234.019745 1601.551270,239.732132 1602.500000,245.728790 
	C1569.692139,245.728790 1537.757202,245.728790 1505.406494,245.728790 
	C1503.115601,235.282043 1498.926758,225.487305 1491.114014,217.643402 
	C1481.371826,207.862335 1468.995850,203.468201 1455.810181,201.040466 
	C1439.290894,197.998947 1422.893066,198.218552 1406.580688,202.895996 
	C1397.116333,205.609879 1388.759888,210.196045 1381.252319,216.320633 
	C1362.842651,231.339264 1354.431519,251.305496 1351.838013,274.564819 
	C1349.996094,291.084198 1351.566895,307.021149 1356.938232,322.541534 
	C1366.195190,349.289886 1384.786499,365.611633 1412.731201,371.053650 
	C1434.099854,375.215057 1455.083984,373.757812 1474.759399,364.436005 
	C1492.491089,356.035156 1503.208008,341.194885 1507.949829,322.164917 
	C1508.549927,319.756317 1508.945557,317.939575 1512.120850,317.950470 
	C1542.282837,318.054138 1572.445190,318.038239 1602.607422,318.071991 
	C1602.912231,318.072327 1603.216797,318.277954 1604.267456,318.656586 
	C1603.171631,323.721710 1602.435913,329.011993 1600.863037,334.040436 
	C1596.046753,349.437042 1588.944336,363.621399 1578.476196,376.106995 
	C1562.436279,395.238464 1542.153687,407.935272 1518.829712,415.985291 
	C1509.630615,419.160309 1500.114502,421.416840 1490.363647,424.302307 
z"/>
<path fill="#FAC809" opacity="1.000000" stroke="none" 
	d="
M2710.000000,246.000000 
	C2710.000000,230.535049 2710.000000,215.570084 2710.000000,200.079224 
	C2690.274658,200.079224 2670.886475,200.079224 2651.252930,200.079224 
	C2651.252930,182.954941 2651.252930,166.356033 2651.252930,149.227432 
	C2670.574707,149.227432 2689.962891,149.227432 2709.871094,149.227432 
	C2709.871094,121.656021 2709.871094,94.604797 2709.871094,67.279297 
	C2743.108398,67.279297 2775.820312,67.279297 2808.881592,67.279297 
	C2808.881592,94.415108 2808.881592,121.346024 2808.881592,148.801819 
	C2832.940186,148.801819 2856.658936,148.801819 2880.686523,148.801819 
	C2880.686523,166.042664 2880.686523,182.758987 2880.686523,199.827026 
	C2856.973877,199.827026 2833.375244,199.827026 2809.000000,199.827026 
	C2809.000000,201.913452 2809.000000,203.659439 2809.000000,205.405426 
	C2809.000000,248.889648 2808.911133,292.374298 2809.118896,335.857513 
	C2809.143311,340.985657 2810.304688,346.254822 2811.798340,351.199005 
	C2814.900146,361.465454 2823.601807,364.499512 2832.891846,364.840698 
	C2848.655762,365.419586 2864.456055,364.999847 2880.620605,364.999847 
	C2880.620605,383.540894 2880.620605,402.922089 2880.620605,422.998932 
	C2875.212646,423.648712 2869.607910,424.739990 2863.973877,424.920929 
	C2846.885986,425.469757 2829.749023,426.528625 2812.701660,425.782745 
	C2791.169434,424.840668 2769.502197,424.055023 2748.873291,416.126129 
	C2728.443604,408.273682 2714.588379,395.076447 2711.099854,372.743927 
	C2710.390625,368.202423 2710.056641,363.557129 2710.046387,358.958649 
	C2709.964111,321.472595 2710.000000,283.986237 2710.000000,246.000000 
z"/>
<path fill="#040707" opacity="1.000000" stroke="none" 
	d="
M1180.000000,243.000000 
	C1180.000000,273.989288 1179.870117,304.479645 1180.120850,334.966858 
	C1180.165527,340.384491 1181.321045,345.920654 1182.787598,351.171906 
	C1185.664551,361.473114 1194.362793,364.097778 1203.504272,364.880005 
	C1213.536133,365.738373 1223.649658,365.962708 1233.723389,365.887878 
	C1239.682739,365.843597 1245.633911,364.685822 1251.802856,364.005096 
	C1251.802856,383.716858 1251.802856,403.155334 1251.802856,423.011505 
	C1246.298340,423.678497 1240.860596,424.754974 1235.394775,424.922791 
	C1217.820923,425.462341 1200.194946,426.573303 1182.667236,425.766998 
	C1161.472534,424.791992 1140.082275,424.089478 1119.839844,416.071381 
	C1102.125732,409.054749 1088.339111,398.430450 1083.506226,378.980133 
	C1082.688965,375.690826 1082.067993,372.249390 1082.062500,368.877136 
	C1081.973999,314.563019 1082.000000,260.248718 1082.000000,205.934479 
	C1082.000000,204.130325 1082.000000,202.326172 1082.000000,200.127106 
	C1061.997070,200.127106 1042.260620,200.127106 1022.263794,200.127106 
	C1022.263794,182.997818 1022.263794,166.263626 1022.263794,149.130249 
	C1041.999756,149.130249 1061.736328,149.130249 1081.864258,149.130249 
	C1081.864258,121.670525 1081.864258,94.603477 1081.864258,67.269470 
	C1114.654541,67.269470 1147.051392,67.269470 1179.843994,67.269470 
	C1179.843994,94.308937 1179.843994,121.375984 1179.843994,148.837036 
	C1203.967896,148.837036 1227.702637,148.837036 1251.717529,148.837036 
	C1251.717529,165.964081 1251.717529,182.698547 1251.717529,199.830872 
	C1228.038452,199.830872 1204.303589,199.830872 1180.000000,199.830872 
	C1180.000000,214.312988 1180.000000,228.406494 1180.000000,243.000000 
z"/>
<path fill="#040707" opacity="1.000000" stroke="none" 
	d="
M2677.000000,535.752319 
	C2676.976318,525.504333 2674.091797,522.140015 2663.910889,519.959290 
	C2654.950684,518.040100 2646.191162,517.998596 2639.492188,525.256714 
	C2636.831543,528.139343 2635.630127,532.369080 2633.354980,536.779541 
	C2623.412354,536.779541 2611.964600,536.779541 2600.403564,536.779541 
	C2600.795654,528.640137 2602.858398,521.098633 2607.939941,514.578186 
	C2613.232178,507.787933 2620.040771,503.101685 2628.170166,500.392120 
	C2642.882324,495.488678 2657.946533,494.721283 2673.193604,497.011963 
	C2678.442627,497.800537 2683.803711,498.472534 2688.811035,500.117981 
	C2701.874756,504.410583 2711.704102,514.648315 2711.177979,530.437378 
	C2710.462891,551.904236 2710.687012,573.419495 2711.153564,594.900024 
	C2711.341064,603.533997 2713.239746,612.130798 2714.392578,620.999207 
	C2704.796631,620.999207 2694.068359,620.947083 2683.341309,621.031616 
	C2680.196045,621.056335 2680.065430,619.203308 2679.899902,616.822144 
	C2679.756104,614.753601 2679.034180,612.725281 2678.499023,610.377380 
	C2666.943359,621.106018 2652.529785,624.160034 2637.161133,623.968445 
	C2621.410889,623.772034 2607.892578,619.030457 2599.129395,603.035645 
	C2599.129395,609.793396 2599.129395,615.152100 2599.129395,620.833496 
	C2585.546631,622.401733 2572.378418,623.195435 2559.271484,619.996155 
	C2546.700684,616.927734 2540.422607,608.790710 2540.151123,596.025818 
	C2539.631104,571.564758 2540.000000,547.084717 2540.000000,522.210938 
	C2533.422119,522.210938 2527.011963,522.210938 2520.303223,522.210938 
	C2520.303223,514.414917 2520.303223,507.010040 2520.303223,499.199677 
	C2526.591064,499.199677 2532.999756,499.199677 2539.804199,499.199677 
	C2539.804199,487.070343 2539.804199,475.330231 2539.804199,463.297241 
	C2551.266357,463.297241 2562.335693,463.297241 2573.807129,463.297241 
	C2573.807129,474.932587 2573.807129,486.672791 2573.807129,498.809814 
	C2582.265869,498.809814 2590.342529,498.809814 2598.706543,498.809814 
	C2598.706543,506.605957 2598.706543,514.010437 2598.706543,521.819580 
	C2590.724609,521.819580 2582.647705,521.819580 2574.250732,521.819580 
	C2574.153564,523.633484 2574.011475,525.068970 2574.010010,526.504517 
	C2573.994141,543.163940 2573.935059,559.823730 2574.046143,576.482422 
	C2574.073242,580.559448 2574.509033,584.655029 2575.055908,588.701721 
	C2575.687256,593.377197 2579.944336,593.681335 2583.300049,594.955933 
	C2583.883789,595.177612 2584.621338,595.009705 2585.287354,594.997925 
	C2599.482910,594.746582 2596.756104,597.055298 2596.981934,583.668335 
	C2597.245361,568.029724 2607.491699,557.682129 2620.727295,554.230957 
	C2632.572510,551.142212 2644.963135,550.199890 2657.035645,547.903931 
	C2662.183350,546.924927 2667.172852,545.024658 2672.161133,543.328552 
	C2675.435303,542.215271 2676.961426,539.631958 2677.000000,535.752319 
M2677.000000,572.502197 
	C2677.000000,569.513550 2677.000000,566.524841 2677.000000,563.814758 
	C2671.623291,564.886169 2666.273926,565.775940 2661.015137,567.041870 
	C2653.417236,568.870972 2645.528809,570.134888 2638.410645,573.160156 
	C2628.440186,577.397461 2628.976074,591.751709 2635.278809,596.657349 
	C2643.393066,602.972961 2658.136963,602.133789 2666.106689,597.320496 
	C2675.061035,591.912415 2677.122559,583.126099 2677.000000,572.502197 
z"/>
<path fill="#040707" opacity="1.000000" stroke="none" 
	d="
M2261.577881,529.153931 
	C2246.128662,535.410095 2241.531006,548.107849 2241.118164,562.734802 
	C2240.619385,580.386414 2241.000000,598.062805 2241.000000,615.728516 
	C2241.000000,617.357422 2241.000000,618.986328 2241.000000,620.795715 
	C2229.539551,620.795715 2218.468750,620.795715 2207.203857,620.795715 
	C2207.203857,580.196533 2207.203857,539.793518 2207.203857,499.195251 
	C2217.691162,499.195251 2227.978516,499.195251 2239.011719,499.195251 
	C2239.011719,505.317780 2239.011719,511.612579 2239.011719,518.577515 
	C2243.308350,513.870117 2246.684082,509.687469 2250.554932,506.027985 
	C2259.545410,497.527985 2270.644775,495.238281 2282.589111,496.059235 
	C2284.927979,496.219940 2286.178223,497.466431 2286.078613,500.269257 
	C2285.837646,507.065033 2286.000000,513.875122 2286.000000,522.335632 
	C2288.025879,519.905396 2289.087646,518.535217 2290.248047,517.254272 
	C2302.792969,503.407471 2318.098145,496.064636 2337.096191,495.867004 
	C2354.145508,495.689606 2368.796387,500.541199 2380.558350,513.080383 
	C2389.093750,522.179810 2393.710205,533.266846 2395.932129,545.356812 
	C2396.989746,551.112732 2397.375244,556.995422 2397.986328,562.828979 
	C2398.444580,567.202576 2397.114746,569.188721 2391.995850,569.131104 
	C2366.500488,568.844238 2341.000244,569.000000 2315.501709,569.000000 
	C2313.704346,569.000000 2311.907227,569.000000 2308.814453,569.000000 
	C2311.292236,575.605225 2313.016846,581.608337 2315.739014,587.118835 
	C2319.494141,594.721069 2326.974121,596.945740 2334.655029,597.928955 
	C2343.920654,599.114868 2352.398926,596.818787 2359.677734,590.736145 
	C2360.314941,590.203857 2361.201660,589.700134 2361.438965,589.001831 
	C2363.505859,582.917786 2368.224365,582.688782 2373.573730,582.924744 
	C2380.547607,583.232300 2387.545410,583.000000 2396.184326,583.000000 
	C2392.739258,589.820068 2390.311035,596.239502 2386.556641,601.756409 
	C2375.386719,618.170532 2358.637451,623.543701 2339.728271,623.991272 
	C2325.438232,624.329529 2311.910400,621.452148 2300.197998,612.948425 
	C2288.313965,604.320374 2281.067139,592.528015 2277.954834,578.091980 
	C2274.861572,563.743896 2275.066162,549.638794 2280.009033,535.732605 
	C2280.860107,533.338440 2281.947510,531.028259 2283.382080,527.583374 
	C2275.845215,528.088806 2268.908203,528.554016 2261.577881,529.153931 
M2354.435059,547.000000 
	C2357.233887,547.000000 2360.032715,547.000000 2362.897461,547.000000 
	C2359.842529,530.703064 2353.250977,523.375732 2341.276367,521.979370 
	C2326.765381,520.287354 2311.699707,528.451965 2310.155273,547.000000 
	C2324.606201,547.000000 2339.028320,547.000000 2354.435059,547.000000 
z"/>
<path fill="#040707" opacity="1.000000" stroke="none" 
	d="
M2015.826416,546.001587 
	C2030.492432,542.277954 2028.978149,531.721008 2023.605103,524.706909 
	C2021.399902,521.828186 2016.600098,520.078064 2012.731201,519.508667 
	C2004.259399,518.262024 1995.433228,518.033386 1989.217651,525.504761 
	C1986.777222,528.438416 1985.608154,532.429810 1983.466553,536.729736 
	C1973.331299,536.729736 1961.753174,536.729736 1950.084106,536.729736 
	C1950.735352,533.312744 1951.106567,529.934082 1952.037720,526.717407 
	C1957.023315,509.491730 1970.081909,501.302765 1986.396362,498.235260 
	C1996.646729,496.307953 2007.355347,495.847565 2017.807373,496.207764 
	C2030.809814,496.655853 2043.562988,499.302673 2053.426025,508.985779 
	C2058.478027,513.945679 2060.993652,520.153198 2060.997803,527.293823 
	C2061.005615,539.953918 2060.820557,552.617249 2061.042480,565.273438 
	C2061.367188,583.786072 2059.125244,602.490601 2065.246826,620.999268 
	C2054.348877,620.999268 2043.874268,620.942200 2033.401123,621.034363 
	C2030.298828,621.061584 2030.049316,619.313660 2029.899658,616.882080 
	C2029.772461,614.815552 2029.037354,612.786499 2028.500488,610.430786 
	C2021.623901,616.512878 2013.456665,620.645691 2004.220337,622.314270 
	C1987.667236,625.304443 1971.516113,625.683105 1957.462524,614.127197 
	C1951.461914,609.193054 1947.879639,602.545288 1947.236816,595.212402 
	C1946.419434,585.889221 1945.735474,576.282837 1951.681396,567.710449 
	C1958.274414,558.205078 1967.784790,553.987061 1978.526733,552.076965 
	C1989.859985,550.061768 2001.303589,548.670044 2012.692261,546.960449 
	C2013.624390,546.820435 2014.503906,546.331177 2015.826416,546.001587 
M2021.033081,593.446228 
	C2028.397583,584.517944 2026.974365,573.877563 2026.941895,563.782837 
	C2021.764404,564.857300 2016.568481,565.796448 2011.443848,567.031433 
	C2003.676636,568.903137 1995.690796,570.293518 1988.302368,573.179993 
	C1981.977051,575.651306 1980.298462,581.818481 1981.019165,588.372498 
	C1981.627808,593.908630 1984.704712,597.869812 1989.955078,599.357605 
	C2000.902954,602.459656 2011.421997,601.970764 2021.033081,593.446228 
z"/>
<path fill="#040707" opacity="1.000000" stroke="none" 
	d="
M2485.000000,612.947449 
	C2485.000000,594.629700 2485.180176,576.800842 2484.908691,558.978943 
	C2484.804932,552.152649 2484.020264,545.285400 2482.932129,538.535828 
	C2480.580078,523.948730 2468.900391,521.453064 2458.279541,523.403381 
	C2443.616699,526.095825 2439.523926,535.906921 2439.185303,548.563416 
	C2438.544434,572.510620 2439.000000,596.487122 2439.000000,620.725342 
	C2427.353760,620.725342 2415.951660,620.725342 2404.273682,620.725342 
	C2404.273682,580.357239 2404.273682,539.964050 2404.273682,499.285156 
	C2414.958252,499.285156 2425.694336,499.285156 2436.968262,499.285156 
	C2436.968262,503.730621 2436.968262,508.265076 2436.968262,513.493042 
	C2440.892822,509.958923 2444.036865,506.849579 2447.467529,504.097443 
	C2454.103760,498.774139 2461.890869,496.282684 2470.298096,496.054382 
	C2478.303223,495.837006 2486.291992,495.643463 2494.096924,498.471466 
	C2507.461914,503.314087 2515.226807,512.978760 2516.790771,526.620667 
	C2518.401123,540.668457 2518.643311,554.902527 2518.920654,569.066101 
	C2519.256104,586.192017 2519.000000,603.329529 2519.000000,620.730408 
	C2507.676514,620.730408 2496.607666,620.730408 2485.000000,620.730408 
	C2485.000000,618.312683 2485.000000,615.875916 2485.000000,612.947449 
z"/>
<path fill="#040707" opacity="1.000000" stroke="none" 
	d="
M2809.799316,538.300781 
	C2820.426758,541.386597 2830.811035,544.115173 2841.144531,547.024170 
	C2850.525146,549.664795 2860.096436,551.543030 2868.327393,557.567017 
	C2875.255371,562.637268 2879.041992,569.182312 2879.911133,577.327209 
	C2881.188965,589.299500 2878.393555,600.434448 2869.992188,609.325867 
	C2863.299316,616.408752 2854.559570,620.531677 2844.958252,621.875122 
	C2836.049561,623.121643 2826.931152,624.344666 2818.020996,623.773010 
	C2803.072266,622.813843 2788.512207,620.053406 2777.423584,608.096619 
	C2770.363037,600.483154 2767.748047,591.554871 2766.812500,581.328918 
	C2777.952393,581.328918 2788.833252,581.328918 2799.716553,581.328918 
	C2799.902344,593.782043 2811.015137,599.989624 2821.824219,600.891846 
	C2829.030762,601.493408 2836.115234,600.554871 2841.664551,594.877686 
	C2848.220459,588.170837 2846.353271,579.083191 2837.272217,576.082214 
	C2828.000977,573.018311 2818.515137,570.589661 2809.085693,568.020813 
	C2798.714844,565.195557 2788.109375,563.241638 2779.334717,556.149353 
	C2774.268555,552.054688 2770.937012,546.743774 2770.260254,540.888977 
	C2768.814941,528.384888 2770.471436,516.242981 2781.087158,507.448883 
	C2788.062256,501.670624 2796.382324,498.334229 2805.191406,497.151367 
	C2820.329834,495.118500 2835.542236,494.589325 2850.271484,500.001343 
	C2864.540771,505.244324 2874.041260,514.578857 2876.027832,530.305237 
	C2876.206299,531.718628 2876.738525,533.087341 2877.184082,534.770264 
	C2866.105957,534.770264 2855.331543,534.770264 2844.551025,534.770264 
	C2842.428223,524.826111 2836.634277,519.717529 2825.753662,519.108765 
	C2821.066162,518.846558 2815.946777,518.817383 2811.709229,520.455505 
	C2808.567871,521.669922 2805.401611,525.367065 2804.301758,528.647339 
	C2803.023193,532.460083 2805.778809,535.980042 2809.799316,538.300781 
z"/>
<path fill="#040707" opacity="1.000000" stroke="none" 
	d="
M1941.270874,591.324341 
	C1935.901367,605.653687 1925.886108,614.989441 1912.147095,619.853638 
	C1894.031006,626.267578 1875.648071,626.030029 1858.122192,617.857178 
	C1841.444336,610.079712 1830.974487,596.361450 1827.430054,578.496338 
	C1823.990723,561.161072 1824.567383,543.662781 1833.010986,527.461853 
	C1841.950073,510.310242 1855.744751,499.705902 1875.309082,496.936493 
	C1891.006226,494.714508 1906.136353,495.746033 1920.426880,503.116547 
	C1935.949707,511.122772 1945.850830,527.382507 1944.650879,542.999268 
	C1934.571411,542.999268 1924.450928,543.099487 1914.338379,542.859741 
	C1913.202148,542.832825 1911.427490,541.056763 1911.107178,539.797241 
	C1908.475342,529.447449 1902.108643,523.224915 1892.282471,522.132751 
	C1880.163208,520.785645 1872.021851,523.738464 1866.134644,534.983032 
	C1856.926636,552.570374 1857.126465,570.471924 1867.326416,587.747437 
	C1874.389893,599.711060 1891.338501,600.645691 1901.295654,594.218140 
	C1907.559448,590.174683 1909.996948,583.853821 1912.102905,577.178833 
	C1912.505493,575.903259 1914.223389,574.166016 1915.369629,574.138977 
	C1925.499878,573.900818 1935.638062,574.000732 1946.648071,574.000732 
	C1944.817871,580.043762 1943.159302,585.520325 1941.270874,591.324341 
z"/>
<path fill="#040707" opacity="1.000000" stroke="none" 
	d="
M2742.998291,621.000000 
	C2736.855957,621.000000 2731.212402,621.000000 2725.285645,621.000000 
	C2725.285645,565.042725 2725.285645,509.311066 2725.285645,453.289459 
	C2736.284424,453.289459 2747.355713,453.289459 2758.714600,453.289459 
	C2758.714600,508.958008 2758.714600,564.689758 2758.714600,621.000000 
	C2753.694336,621.000000 2748.595703,621.000000 2742.998291,621.000000 
z"/>
<path fill="#040707" opacity="1.000000" stroke="none" 
	d="
M2124.446533,531.196289 
	C2113.832275,537.818726 2109.346680,547.643066 2109.105713,559.228882 
	C2108.713867,578.044373 2109.000000,596.873962 2109.000000,615.697632 
	C2109.000000,617.322937 2109.000000,618.948303 2109.000000,620.783997 
	C2097.234131,620.783997 2085.833740,620.783997 2074.216309,620.783997 
	C2074.216309,580.244690 2074.216309,539.854797 2074.216309,499.232330 
	C2085.066162,499.232330 2095.800537,499.232330 2107.086426,499.232330 
	C2107.086426,505.156860 2107.086426,511.006012 2107.086426,515.556152 
	C2111.524902,511.701691 2116.128906,507.228729 2121.214355,503.394409 
	C2129.638428,497.042786 2139.415039,495.068390 2149.781006,496.136688 
	C2150.938232,496.255920 2152.834717,497.962402 2152.858154,498.968353 
	C2153.089600,508.925964 2152.998291,518.891052 2152.998291,528.906189 
	C2143.146973,527.572815 2133.771729,526.774170 2124.446533,531.196289 
z"/>
<path fill="#FFFFFF" opacity="1.000000" stroke="none" 
	d="
M3142.349854,155.276367 
	C3169.499512,137.791580 3198.391602,125.157021 3229.578857,118.396599 
	C3242.646973,115.563835 3256.123535,114.478127 3269.465820,113.095451 
	C3277.678467,112.244362 3286.018799,111.719551 3294.248291,112.128029 
	C3311.255371,112.972191 3328.097412,114.972832 3344.833008,118.711182 
	C3365.511719,123.330505 3385.244629,130.330353 3404.065186,139.714447 
	C3424.761475,150.033707 3443.711426,163.051025 3461.155762,178.432877 
	C3478.347656,193.592255 3493.128662,210.702026 3505.944336,229.542145 
	C3523.266602,255.007050 3535.384521,282.957520 3542.680908,312.788116 
	C3545.927979,326.063721 3547.562500,339.824707 3548.827148,353.467529 
	C3549.988037,365.989166 3550.581299,378.704285 3549.811035,391.234985 
	C3548.181396,417.740021 3542.767334,443.565918 3533.219971,468.468964 
	C3525.879639,487.615875 3516.479248,505.630646 3505.103027,522.681213 
	C3493.320068,540.341431 3479.457275,556.231201 3463.855957,570.503052 
	C3444.557373,588.157104 3422.991455,602.761108 3399.282959,613.801697 
	C3377.374756,624.003967 3354.495605,631.288208 3330.470459,635.212341 
	C3311.784180,638.264587 3293.053955,639.901367 3274.274902,638.830566 
	C3244.617432,637.139465 3215.829834,630.963196 3188.160400,619.703857 
	C3165.447266,610.461365 3144.316406,598.474182 3125.135742,583.385010 
	C3105.348389,567.818481 3087.908447,549.740417 3073.072021,529.297058 
	C3055.078369,504.502960 3041.946777,477.250763 3033.597900,447.857605 
	C3030.093506,435.519501 3027.956543,422.720703 3026.138672,409.996887 
	C3024.443848,398.132172 3022.943604,386.066528 3023.200195,374.128937 
	C3023.931885,340.037903 3030.122070,306.922943 3043.283203,275.247131 
	C3053.515625,250.619949 3067.098389,228.004852 3084.098877,207.566116 
	C3100.842529,187.436493 3120.314941,170.159195 3142.349854,155.276367 
M3391.490967,195.993088 
	C3384.067871,192.310165 3376.802979,188.255890 3369.191650,185.014709 
	C3347.453125,175.757233 3324.830811,170.520538 3301.144531,168.695450 
	C3285.938232,167.523773 3270.896240,168.019180 3256.132568,170.437225 
	C3241.420410,172.846786 3226.885742,177.093582 3212.706299,181.831070 
	C3188.723633,189.843826 3167.507080,203.156387 3148.777832,219.961090 
	C3131.706787,235.278198 3116.896240,252.579315 3105.398438,272.763214 
	C3089.899170,299.971313 3080.366211,329.000549 3078.310303,360.047516 
	C3077.231689,376.329834 3078.717041,392.874603 3080.139893,409.205444 
	C3081.757324,427.771088 3087.679688,445.395966 3095.217773,462.353088 
	C3108.471436,492.167450 3127.681152,517.527649 3152.845459,538.436707 
	C3172.149658,554.476807 3193.478760,566.819031 3217.135254,575.101990 
	C3234.663574,581.239319 3252.726562,584.488159 3271.262451,586.243530 
	C3286.957520,587.729919 3302.422363,586.765686 3317.803223,584.713196 
	C3335.343262,582.372559 3352.255127,577.261658 3368.622559,570.288025 
	C3390.620605,560.915405 3410.528809,548.374634 3428.162354,532.285645 
	C3445.944092,516.062134 3460.379639,497.148651 3471.901123,476.051178 
	C3475.101318,470.190704 3477.579102,463.935577 3480.786865,457.000000 
	C3477.736084,457.000000 3475.932617,457.000000 3474.128906,457.000000 
	C3446.965820,457.000000 3419.800293,457.208221 3392.641602,456.867371 
	C3384.946289,456.770813 3378.171631,456.855530 3374.960938,465.423492 
	C3374.528320,466.577087 3373.145996,467.345215 3372.324951,468.387451 
	C3363.010986,480.210602 3351.422607,489.048157 3337.598877,494.984009 
	C3315.673340,504.398743 3292.865479,505.220459 3269.887695,500.841003 
	C3248.497559,496.764191 3230.454346,485.984039 3216.792725,469.028961 
	C3201.939453,450.595337 3195.077148,429.023560 3194.596191,404.827942 
	C3294.738525,404.827942 3394.637451,404.827942 3494.545410,404.827942 
	C3495.069824,400.224274 3496.031982,396.124878 3495.910645,392.057739 
	C3495.481934,377.652649 3495.205078,363.211243 3493.904053,348.871277 
	C3491.882812,326.590393 3484.847656,305.587524 3475.139404,285.556793 
	C3467.176514,269.127777 3457.025146,254.108582 3444.969727,240.269394 
	C3429.685791,222.723465 3412.205566,208.032410 3391.490967,195.993088 
z"/>
<path fill="#FFFFFF" opacity="1.000000" stroke="none" 
	d="
M203.695892,201.016068 
	C211.888474,203.988510 220.167374,206.025696 227.282822,210.096512 
	C242.289795,218.682175 249.579590,233.342850 254.969528,249.071243 
	C255.690308,251.174545 256.273438,253.325012 257.008301,255.743164 
	C204.454346,255.743164 152.099457,255.743164 99.755394,255.743164 
	C101.954521,229.761856 120.459007,211.012833 148.429642,203.127304 
	C162.124069,199.266541 176.219772,197.563477 190.540680,199.934464 
	C194.723099,200.626892 199.013931,200.664413 203.695892,201.016068 
z"/>
<path fill="#FFFFFF" opacity="1.000000" stroke="none" 
	d="
M472.063477,370.006958 
	C458.947784,361.853821 455.759125,350.048767 459.059540,336.074982 
	C461.480988,325.822845 468.960175,319.361267 477.884979,315.176453 
	C490.963623,309.043884 505.160767,306.760101 519.452637,304.917053 
	C540.212891,302.239838 560.930420,299.186249 581.597839,295.867523 
	C586.516357,295.077698 591.164001,292.600677 596.044128,290.861267 
	C595.497009,305.926941 597.054443,321.335327 593.198547,336.641968 
	C589.419006,351.645691 580.057373,361.619781 567.205322,368.940948 
	C557.239014,374.618317 546.441162,377.251373 534.938477,378.176849 
	C517.176941,379.605927 499.580872,379.941681 482.314758,374.897522 
	C478.845367,373.883972 475.720581,371.690948 472.063477,370.006958 
z"/>
<path fill="#FFFFFF" opacity="1.000000" stroke="none" 
	d="
M2163.958496,378.000061 
	C2152.583740,378.333466 2141.625977,379.375427 2130.751953,378.811310 
	C2118.551758,378.178406 2106.435791,376.206085 2095.880615,369.003937 
	C2079.788086,358.023285 2079.831299,332.511841 2095.337402,320.723511 
	C2106.225586,312.445953 2118.647461,309.211609 2131.492188,307.136719 
	C2145.537598,304.867920 2159.802490,303.985870 2173.881836,301.894775 
	C2186.597656,300.006165 2199.231445,297.486786 2211.814453,294.834198 
	C2215.212158,294.117920 2218.294922,291.907013 2223.201660,289.588715 
	C2221.831787,305.955170 2221.469482,321.291687 2219.027344,336.289581 
	C2216.696777,350.603790 2207.182617,360.693634 2194.843994,368.031372 
	C2185.441650,373.622803 2175.227295,376.725250 2163.958496,378.000061 
z"/>
<path fill="#FFFFFF" opacity="1.000000" stroke="none" 
	d="
M1879.955566,315.789520 
	C1876.008301,329.971344 1869.906982,342.528564 1859.151978,352.292084 
	C1847.870850,362.533020 1834.665039,369.096344 1819.478516,370.911652 
	C1809.847656,372.062866 1800.075928,373.212463 1790.430054,372.820953 
	C1768.964844,371.949707 1749.122925,366.023926 1733.620728,350.054443 
	C1722.713135,338.818146 1716.368896,325.025421 1714.181152,309.711060 
	C1712.601929,298.655884 1711.517212,287.290436 1712.242432,276.196075 
	C1713.712280,253.703003 1720.557495,233.104858 1738.626953,217.902969 
	C1749.219604,208.991516 1761.491089,203.378098 1775.060669,201.135498 
	C1783.303223,199.773270 1791.761353,199.025497 1800.109375,199.124008 
	C1822.673706,199.390289 1843.606812,205.283417 1860.345703,221.115967 
	C1870.453979,230.676834 1876.875610,242.906906 1879.973877,256.629608 
	C1884.391846,276.197479 1884.577148,295.787842 1879.955566,315.789520 
z"/>
<path fill="#FFFFFF" opacity="1.000000" stroke="none" 
	d="
M2677.000000,572.978149 
	C2677.122559,583.126099 2675.061035,591.912415 2666.106689,597.320496 
	C2658.136963,602.133789 2643.393066,602.972961 2635.278809,596.657349 
	C2628.976074,591.751709 2628.440186,577.397461 2638.410645,573.160156 
	C2645.528809,570.134888 2653.417236,568.870972 2661.015137,567.041870 
	C2666.273926,565.775940 2671.623291,564.886169 2677.000000,563.814758 
	C2677.000000,566.524841 2677.000000,569.513550 2677.000000,572.978149 
z"/>
<path fill="#FFFFFF" opacity="1.000000" stroke="none" 
	d="
M2353.942871,547.000000 
	C2339.028320,547.000000 2324.606201,547.000000 2310.155273,547.000000 
	C2311.699707,528.451965 2326.765381,520.287354 2341.276367,521.979370 
	C2353.250977,523.375732 2359.842529,530.703064 2362.897461,547.000000 
	C2360.032715,547.000000 2357.233887,547.000000 2353.942871,547.000000 
z"/>
<path fill="#FFFFFF" opacity="1.000000" stroke="none" 
	d="
M2020.775879,593.717163 
	C2011.421997,601.970764 2000.902954,602.459656 1989.955078,599.357605 
	C1984.704712,597.869812 1981.627808,593.908630 1981.019165,588.372498 
	C1980.298462,581.818481 1981.977051,575.651306 1988.302368,573.179993 
	C1995.690796,570.293518 2003.676636,568.903137 2011.443848,567.031433 
	C2016.568481,565.796448 2021.764404,564.857300 2026.941895,563.782837 
	C2026.974365,573.877563 2028.397583,584.517944 2020.775879,593.717163 
z"/>
<path fill="#F9DE8F" opacity="1.000000" stroke="none" 
	d="
M3391.771484,196.231659 
	C3412.205566,208.032410 3429.685791,222.723465 3444.969727,240.269394 
	C3457.025146,254.108582 3467.176514,269.127777 3475.139404,285.556793 
	C3484.847656,305.587524 3491.882812,326.590393 3493.904053,348.871277 
	C3495.205078,363.211243 3495.481934,377.652649 3495.910645,392.057739 
	C3496.031982,396.124878 3495.069824,400.224274 3494.545410,404.827942 
	C3394.637451,404.827942 3294.738525,404.827942 3194.596191,404.827942 
	C3195.077148,429.023560 3201.939453,450.595337 3216.792725,469.028961 
	C3230.454346,485.984039 3248.497559,496.764191 3269.887695,500.841003 
	C3292.865479,505.220459 3315.673340,504.398743 3337.598877,494.984009 
	C3351.422607,489.048157 3363.010986,480.210602 3372.324951,468.387451 
	C3373.145996,467.345215 3374.528320,466.577087 3374.960938,465.423492 
	C3378.171631,456.855530 3384.946289,456.770813 3392.641602,456.867371 
	C3419.800293,457.208221 3446.965820,457.000000 3474.128906,457.000000 
	C3475.932617,457.000000 3477.736084,457.000000 3480.786865,457.000000 
	C3477.579102,463.935577 3475.101318,470.190704 3471.901123,476.051178 
	C3460.379639,497.148651 3445.944092,516.062134 3428.162354,532.285645 
	C3410.528809,548.374634 3390.620605,560.915405 3368.622559,570.288025 
	C3352.255127,577.261658 3335.343262,582.372559 3317.803223,584.713196 
	C3302.422363,586.765686 3286.957520,587.729919 3271.262451,586.243530 
	C3252.726562,584.488159 3234.663574,581.239319 3217.135254,575.101990 
	C3193.478760,566.819031 3172.149658,554.476807 3152.845459,538.436707 
	C3127.681152,517.527649 3108.471436,492.167450 3095.217773,462.353088 
	C3087.679688,445.395966 3081.757324,427.771088 3080.139893,409.205444 
	C3078.717041,392.874603 3077.231689,376.329834 3078.310303,360.047516 
	C3080.366211,329.000549 3089.899170,299.971313 3105.398438,272.763214 
	C3116.896240,252.579315 3131.706787,235.278198 3148.777832,219.961090 
	C3167.507080,203.156387 3188.723633,189.843826 3212.706299,181.831070 
	C3226.885742,177.093582 3241.420410,172.846786 3256.132568,170.437225 
	C3270.896240,168.019180 3285.938232,167.523773 3301.144531,168.695450 
	C3324.830811,170.520538 3347.453125,175.757233 3369.191650,185.014709 
	C3376.802979,188.255890 3384.067871,192.310165 3391.771484,196.231659 
M3363.488770,335.000000 
	C3367.568848,335.000000 3371.648926,335.000000 3376.405273,335.000000 
	C3374.472656,302.136902 3359.212646,278.173981 3331.683350,263.169861 
	C3296.330811,243.901642 3261.386475,247.133789 3229.519043,271.522400 
	C3209.210449,287.064972 3198.333740,308.514374 3197.222900,335.000000 
	C3252.660400,335.000000 3307.575928,335.000000 3363.488770,335.000000 
z"/>
<path fill="#FFFFFF" opacity="1.000000" stroke="none" 
	d="
M3362.990234,335.000000 
	C3307.575928,335.000000 3252.660400,335.000000 3197.222900,335.000000 
	C3198.333740,308.514374 3209.210449,287.064972 3229.519043,271.522400 
	C3261.386475,247.133789 3296.330811,243.901642 3331.683350,263.169861 
	C3359.212646,278.173981 3374.472656,302.136902 3376.405273,335.000000 
	C3371.648926,335.000000 3367.568848,335.000000 3362.990234,335.000000 
z"/>
</svg>