<svg width="510" height="484" viewBox="0 0 510 484" fill="none" xmlns="http://www.w3.org/2000/svg">
<g filter="url(#filter0_d_2_192)">
<path fill-rule="evenodd" clip-rule="evenodd" d="M294.288 251.366C295.117 250.634 296.351 251.42 297.371 250.466C297.218 251.685 297.58 252.781 295.887 252.685C295.081 252.639 294.54 253.044 294.392 254.294C294.229 255.666 292.847 256.591 291.264 257.009C288.892 257.637 287.762 259.848 288.448 262.058C288.515 262.275 288.517 262.647 288.642 262.693C291.501 263.726 291.536 266.184 291.809 268.622C291.949 269.861 292.725 270.79 294.418 270.292C291.832 273.651 289.881 277.165 286.406 279.442C285.082 280.306 284.552 282.017 284.59 283.621C284.628 285.253 283.777 286.09 282.665 287.092C280.724 288.846 277.965 290.073 277.965 293.36C277.965 293.916 277.315 293.395 277.037 293.5C274.997 294.278 273.317 295.089 272.567 297.667C271.06 302.848 268.658 307.826 264.616 311.462C262.298 313.548 259.452 315.387 256.196 316.157C252.929 316.927 252.108 319.696 251.155 322.389C249.964 325.745 250.206 328.942 251.996 332.007C252.34 332.594 252.2 332.818 251.642 333.01C250.836 333.285 250.04 333.578 249.247 333.864C249.339 334.382 249.612 334.659 250.058 334.519C251.994 333.917 253.924 332.943 255.485 335.322C255.711 335.669 255.926 334.545 256.652 334.565C258.274 334.603 261.291 337.092 261.311 338.586C261.337 340.634 258.723 342.789 256.489 342.564C256.173 341.687 256.489 340.8 256.594 339.504C255.405 340.807 255.209 341.715 256.382 342.659C256.237 343.493 255.691 343.653 255.008 343.386C254.138 343.049 253.077 342.84 252.488 342.213C250.135 339.688 247.34 339.93 244.458 340.711C232.886 343.842 222.38 349.003 213.435 357.11C212.29 358.147 211.441 359.28 211.732 360.975C211.964 362.347 210.77 363.219 210.339 364.377C209.182 367.506 209.536 370.681 209.605 373.853C209.681 377.377 208.85 380.31 205.752 382.541C204.487 383.451 203.908 385.318 203.008 386.743C201.588 388.992 201.445 391.356 201.516 394.016C201.555 395.4 200.897 397.438 199.316 398.881C197.523 400.518 196.128 402.772 195.1 405.006C194.358 406.618 196.664 406.146 197.367 407.046C196.312 408.245 194.297 408.546 193.846 410.563C195.855 410.32 196.671 408.439 198.211 407.689C198.908 408.474 198.444 409.275 198.474 410.002C198.5 410.606 197.944 411.193 197.421 410.726C196.274 409.698 196.544 410.037 196.488 411.231C196.449 412.009 195.437 412.901 194.198 412.399C191.737 411.399 188.07 413.029 186.39 414.936C185.094 416.407 184.628 417.897 184.373 419.628C184.268 420.332 183.944 420.778 183.302 421.028C180.882 421.977 178.949 423.519 177.551 425.728C177.442 425.904 177.187 426.064 176.983 426.092C174.53 426.406 173.594 427.487 175.001 429.846C175.259 430.279 175.269 430.965 174.678 430.958C172.717 430.93 171.987 432.625 170.725 433.566C169.787 434.268 168.922 435.035 167.566 434.558C166.757 434.275 166.005 434.76 165.498 435.344C163.919 437.159 161.507 436.726 159.592 437.618C159.148 437.825 158.929 437.338 158.773 436.986C158.62 436.639 158.35 436.483 158.039 436.631C154.323 438.422 154.331 438.391 150.71 437.792C150.045 437.682 149.532 437.391 149.563 436.876C149.695 434.755 148.323 434.749 147.008 435.15C145.437 435.624 144.753 433.801 143.369 434.023C143.965 436.04 143.241 436.371 139.125 435.938C139.518 434.897 140.62 435.851 141.196 435.099C140.135 434.148 138.636 434.464 137.455 434.181C135.68 433.752 137.417 435.298 137.009 435.884C135.889 435.708 135.351 434.885 134.974 433.949C134.793 433.503 134.864 433.092 135.484 432.88C138.381 431.886 138.376 431.871 136.782 428.93C136.139 429.818 136.925 431.202 135.55 431.786C134.813 430.162 134.584 427.997 132.541 427.449C131.526 427.176 129.645 425.014 129.369 428.255C129.359 428.372 128.869 428.591 128.818 428.54C127.008 426.814 125.315 429.032 123.616 428.68C122.267 428.403 121.112 427.683 121.013 425.972C120.85 423.206 118.524 422.277 116.561 421.186C115.199 420.426 113.75 420.357 112.603 421.887C112.282 422.316 111.81 422.395 112.149 423.132C112.503 423.904 111.708 424.407 111.152 424.343C109.548 424.159 107.901 425.238 106.534 424.736C102.987 423.43 99.3098 424.621 95.7474 423.797C94.6841 423.55 94.3322 423.02 93.9471 422.339C93.483 421.52 94.3016 421.155 94.6943 420.602C95.6327 419.274 97.4406 418.404 97.0275 416.252C96.5864 417.838 94.7861 417.613 93.9318 418.725C93.6564 419.082 92.537 419.154 92.0448 418.896C91.3334 418.524 92.1851 418.024 92.2998 417.56C92.412 417.109 92.4171 416.629 92.4707 416.163C93.2637 415.484 94.2837 415.367 95.6301 414.939C94.0491 414.859 92.7971 413.959 91.8179 415.433C91.6674 415.477 91.517 415.52 91.3665 415.566C90.4485 415.831 89.4362 417.078 88.6967 416.254C88.1102 415.604 88.1382 414.176 88.2657 413.141C88.6992 409.614 88.9262 410.218 92.2871 409.272C94.5897 408.627 97.1678 409.29 99.1287 407.829C99.858 407.286 101.602 407.939 101.235 406.373C101.159 406.049 99.3353 406.082 98.3153 406.052C97.8716 406.039 97.4202 406.289 96.974 406.419C96.6858 406.506 96.3773 406.707 96.1172 406.656C95.6301 406.559 95.5383 405.84 95.7041 405.741C97.3055 404.784 93.7712 403.578 95.9718 402.484C97.5707 401.689 99.042 401.097 100.822 401.388C101.227 401.454 101.801 401.666 101.903 400.921C99.5418 400.169 97.3284 400.786 95.166 401.696C93.3504 402.461 93.2969 401.079 93.8247 400.281C94.8345 398.749 93.3759 396.038 96.1682 395.439C95.1609 394.296 96.2268 393.641 96.6705 392.733C97.0352 391.983 97.2035 391.66 97.9353 392.205C99.1185 393.088 100.373 393.743 101.811 394.233C103.209 394.709 104.586 395.717 103.974 397.706C105.682 397.568 106.154 396.997 104.978 395.765C104.336 395.092 103.673 394.431 102.972 393.817C102.579 393.475 101.814 393.376 101.972 392.692C102.11 392.096 102.785 392.07 103.313 391.912C104.382 391.591 105.414 391.461 106.646 392.682C106.361 391.55 106.208 390.935 106.039 390.28C105.529 390.504 105.047 390.831 104.527 390.92C103.525 391.094 102.255 392.101 101.546 390.986C100.62 389.528 99.8453 387.712 100.641 385.971C101.426 384.244 103.114 383.076 103.943 381.286C104.292 380.529 105.172 381.919 105.902 381.115C104.874 380.33 104.655 379.723 106.19 379.024C107.258 378.537 108.092 377.454 108.918 376.536C109.686 375.679 110.339 375.893 111.223 376.775C111.027 374.904 110.767 373.139 113.332 373.58C113.47 372.711 114.406 372.218 114.63 371.731C115.714 369.385 118.425 369.008 119.738 367.027C120.271 366.223 120.518 367.353 120.936 367.501C122.094 368.098 122.581 369.441 123.963 370.467C123.583 368.577 122.754 367.631 121.472 367.032C120.865 364.573 121.031 362.564 123.968 361.638C124.705 361.406 125.409 360.399 125.7 359.596C126.085 358.517 126.516 358.104 127.684 358.285C128.293 358.38 129.203 357.643 128.757 357.196C127.207 355.643 128.928 355.391 129.573 354.794C131.588 352.93 133.092 350.656 134.615 348.427C135.132 347.672 135.26 347.175 136.239 347.55C136.545 347.667 136.991 347.481 137.353 347.369C139.516 346.698 141.545 345.663 144.011 346.43C145.251 346.815 146.546 345.971 147.63 345.086C152.046 341.491 156.096 337.37 161.259 334.812C163.062 333.92 165.288 333.905 167.147 333.096C168.269 332.607 169.412 331.714 170.062 330.521C171.426 328.024 172.88 325.831 175.97 324.982C178.12 324.391 179.196 322.111 180.675 320.504C181.28 319.849 181.723 318.87 182.955 319.324C183.661 319.581 184.072 318.906 184.135 318.472C184.686 314.792 188.177 313.877 190.556 312.959C195.909 310.896 199.843 307.612 202.886 302.945C203.306 302.302 203.878 301.696 204.51 301.26C207.848 298.959 209.442 295.624 210.217 291.802C210.406 290.871 211.344 290.557 211.65 289.713C212.42 287.584 213.466 285.546 213.455 283.193C213.45 282.086 213.784 281.089 214.358 280.092C216.046 277.157 217.543 274.128 217.255 270.578C217.201 269.917 217.314 269.576 218.135 269.683C224.222 270.481 227.646 266.893 230.415 262.204C231.135 260.987 231.8 259.809 232.937 258.782C234.738 257.157 234.924 254.592 235.095 252.292C235.347 248.86 235.286 245.402 235.317 241.954C235.334 239.746 236.706 238.142 238.262 237.153C241.008 235.403 243.443 233.31 245.963 231.298C246.34 230.994 246.682 230.533 247.373 230.92C248.533 231.568 249.242 230.586 250.117 230.097C249.436 229.061 248.857 230.665 248.255 229.979C247.812 228.993 250.818 227.417 253.085 227.587C252.667 228.595 252.333 229.589 251.856 230.51C250.328 233.442 252.524 238.379 255.737 238.856C257.213 239.075 258.318 238.022 259.215 236.773C260.258 237.823 259.939 239.825 261.791 240.065C261.582 241.465 261.717 243.048 261.092 244.226C259.832 246.6 260.702 248.531 261.627 250.624C262.035 251.542 262.783 252.277 262.405 253.633C261.956 255.258 264.101 254.681 264.833 255.564C265.465 256.331 265.455 255.148 265.766 254.857C267.541 253.21 269.196 250.512 271.175 250.244C273.488 249.931 274.092 248.186 275.642 247.426C276.213 247.146 276.547 247.355 277.047 247.753C278.126 248.605 279.199 247.661 279.975 247.146C280.625 246.718 280.107 246.256 279.347 246.539C279.138 246.616 278.886 246.661 278.751 246.09C280.286 245.017 281.336 242.893 284.037 243.864C284.702 244.104 285.085 242.842 285.641 242.311C286.73 241.273 287.39 241.533 287.91 243.056C286.396 242.89 285.847 243.788 285.149 244.871C284.475 245.914 283.127 246.31 281.772 245.264C281.642 246.299 281.54 247.126 281.375 248.467C282.637 246.868 283.892 246.957 285.386 247.358C284.116 248.454 282.981 249.428 281.834 250.418C283.858 251.675 283.739 252.631 281.5 254.192C284.09 253.437 286.513 252.167 289.417 251.66C288.079 250.795 287.002 250.803 285.903 251.45C285.284 251.815 284.794 251.797 284.305 251.132C283.575 250.135 284.628 249.752 284.937 249.16C285.131 248.791 285.559 247.898 286.227 248.877C286.707 249.579 287.428 248.579 287.867 248.605C287.898 248.768 287.982 248.885 288.158 248.923C288.091 248.694 287.989 248.61 287.867 248.605C287.709 247.786 288.841 245.805 286.309 246.539C287.191 244.527 288.821 244.157 290.134 245.491C290.649 246.011 291.088 245.307 291.162 245.218C291.878 244.323 292.505 245.154 292.975 245.381C293.916 245.838 292.763 246.055 292.722 246.429C292.699 246.628 292.699 246.899 292.809 247.029C293.033 247.294 293.349 247.276 293.648 247.085C294.29 246.672 294.594 245.815 295.458 245.692C293.569 250.053 293.533 250.091 291.955 249.168C291.434 250.211 293.344 250.9 292.569 251.611C291.774 252.338 290.499 252.552 289.417 252.955C288.17 253.424 286.602 253.062 285.529 254.584C287.273 254.589 288.721 254.166 290.267 253.837C292.123 253.442 293.089 252.422 294.29 251.361L294.288 251.366ZM133.385 449.147C131.965 449.471 131.203 448.491 130.341 448.02C128.966 447.267 128.227 447.658 127.357 448.614C128.002 447.04 128.895 445.929 130.825 446.413C131.33 446.541 132.238 446.76 132.422 445.934C132.59 445.169 131.98 444.643 131.302 444.325C129.958 443.692 129.119 442.57 128.489 441.303C127.584 439.48 124.654 438.6 122.772 439.648C121.426 440.398 121.367 442.31 122.41 444.274C123.038 445.457 123.639 447.395 122.346 447.92C120.556 448.644 121.482 450.366 121.079 450.6C120.011 451.22 118.748 451.442 118.226 452.778C118.116 453.058 117.841 453.438 117.935 453.614C118.84 455.305 117.884 456.147 116.601 457.003C115.864 457.493 115.974 458.373 116.214 459.161C116.39 459.734 116.892 459.793 117.348 459.755C118.062 459.699 118.646 459.464 118.942 458.653C119.592 456.871 120.541 455.555 122.851 456.042C124.532 456.396 126.245 456.496 127.5 454.757C127.99 454.078 128.75 453.767 129.902 453.964C131.328 454.209 132.768 453.293 133.906 452.352C134.813 451.602 134.252 448.95 133.383 449.147H133.385ZM331.605 82.926C333.879 82.7985 333.581 85.5627 335.371 86.1084C335.822 86.2461 336.447 87.544 337.192 86.9652C337.959 86.3685 337.237 85.3816 336.86 84.6574C336.521 84.0046 335.175 83.793 336.062 82.6455C336.016 82.0666 336.062 81.0186 335.906 80.9854C334.065 80.6157 334.685 78.9786 334.208 77.928C334.017 77.5098 334.228 76.6351 333.367 76.8672C332.686 77.0508 332.234 77.5021 332.209 78.3921C332.178 79.5013 332.232 80.682 331.434 81.6484C331.051 82.1125 330.939 82.9642 331.605 82.9285V82.926ZM90.1961 405.756C90.9891 404.591 91.3716 405.2 91.721 406.085C91.9632 406.699 91.3665 407.906 93.075 407.373C94.5311 406.919 94.9059 406.286 94.6739 404.945C94.5107 404.007 94.5566 403.288 93.0495 403.377C90.2343 403.54 89.6096 403.843 88.4901 407.283C89.4285 406.937 89.8034 406.335 90.1961 405.756ZM282.308 242.548C284.169 241.896 286.345 238.389 286.248 236.209C285.001 236.538 285.564 238.412 284.073 238.759C283.996 238.058 283.932 237.471 283.835 236.589C283.379 236.946 283.193 237.066 283.04 237.219C281.974 238.298 283.144 240.404 281.25 241.153C281.168 241.187 281.334 242.041 281.502 242.462C281.658 242.849 282.03 242.648 282.308 242.548ZM322.725 102.543C324.396 102.411 325.913 102.393 325.875 104.736C325.87 105.042 326.306 105.114 326.54 105.042C327.479 103.558 325.717 101.987 326.831 100.503C326.943 100.353 326.071 99.8529 325.956 100.067C324.704 102.411 322.504 100.592 320.543 101.393C321.287 102.212 321.92 102.607 322.728 102.543H322.725ZM99.4602 391.996C99.7535 392.228 100.179 392.483 100.442 392.009C100.853 391.275 100.378 390.619 99.9677 390.107C99.3608 389.344 99.4704 388.413 99.2562 387.554C97.892 387.949 98.0169 389.24 97.7721 390.066C97.4814 391.058 98.7615 391.445 99.4602 391.994V391.996ZM350.311 130.708C350.265 131.052 351.846 131.707 352.747 132.034C353.172 132.189 353.448 131.656 353.099 131.287C351.653 129.767 350.265 128.201 349.047 126.5C348.932 128.163 350.531 129.03 350.311 130.705V130.708ZM420.809 139.697C422.456 137.784 422.081 136.797 419.585 136.244C418.006 135.892 416.196 135.41 415.706 134.074C415.097 132.416 413.776 132.386 412.85 132.386C410.838 132.386 408.839 132.661 406.847 132.098C406.677 132.047 406.314 132.161 406.256 132.291C405.096 134.941 402.505 135.3 400.197 135.867C398.208 136.356 397.224 137.445 396.262 139.187C395.196 141.117 393.712 143.047 391.93 144.287C389.589 145.911 386.802 146.875 383.747 146.028C383.058 145.837 381.911 145.475 381.577 146.245C380.853 147.913 380.33 147.094 379.718 146.296C377.869 143.874 375.38 142.637 372.438 142.012C369.515 141.392 366.728 140.388 364.551 138.141C363.48 137.037 362.34 135.956 360.539 136.231C358.938 136.476 357.821 135.729 356.901 134.41C356.439 133.75 355.684 133.156 354.713 133.25C353.675 133.35 355.039 134.637 353.958 134.78C353.152 132.875 351.166 132.669 349.641 131.853C347.682 130.807 346.746 129.479 347.664 127.329C347.871 126.842 347.741 126.528 347.736 126.103C347.705 123.805 347.394 121.638 346.458 119.475C345.581 117.45 345.737 115.298 346.134 113.019C346.497 110.958 345.846 108.648 345.306 106.531C345.028 105.44 345.377 103.094 342.817 104.088C342.644 103.591 341.272 103.515 342.36 102.551C343.248 101.765 343.852 100.643 345.28 100.59C344.324 99.0904 343.406 99.1567 342.256 100.057C341.315 100.794 340.119 100.886 338.943 100.868C339.326 99.529 337.885 98.7895 337.857 97.5936C337.783 94.3678 334.767 93.3325 333.099 91.3053C332.688 90.808 331.735 91.1727 331.508 92.0728C331.255 93.0699 331.477 93.9088 332.331 94.5693C335.075 96.6909 334.216 99.7101 334.323 102.507C334.374 103.821 332.265 104.907 333.647 106.159C336.439 108.686 334.611 112.343 336.118 115.138C336.174 115.242 335.94 115.548 335.789 115.714C334.333 117.308 330.103 116.887 329.427 114.928C329.044 113.817 329.335 112.455 329.394 111.211C329.501 109.01 328.18 106.251 325.349 106.766C323.154 107.164 321.83 106.159 320.39 105.096C319.696 104.581 318.982 104.201 318.079 103.823C317.998 104.32 317.954 104.757 317.852 105.177C317.763 105.547 317.457 105.675 317.143 105.509C316.998 105.432 316.837 105.08 316.896 104.961C317.73 103.278 316.409 103.747 315.593 103.51C315.065 103.357 313.905 102.546 314.295 102.449C315.718 102.102 315.075 101.566 314.831 100.842C314.119 98.7258 313.125 96.52 316.633 94.8727C313.199 95.4541 312.48 94.8651 313.418 92.5471C314.053 90.9738 315.639 89.7294 314.321 87.8245C314.576 87.6562 314.81 87.4471 315.086 87.3298C315.769 87.0442 316.468 86.7994 317.184 86.5291C316.633 85.8967 315.555 86.3787 315.18 85.4989C316.09 84.7492 317.154 84.3922 315.264 83.1121C313.772 82.0998 312.074 80.9344 311.34 78.7848C310.965 77.6832 310.819 76.0563 309.509 75.3295C306.801 73.8276 305.954 71.9278 307.219 69.2452C307.757 68.1028 307.397 67.8759 306.492 67.6846C305.679 67.5163 304.753 67.5801 304.07 67.1976C303.649 66.9604 303.205 68.7327 303.136 67.1364C303.116 66.6493 302.769 65.9175 303.723 65.9634C305.148 66.0348 306.602 65.9736 307.765 67.1287C308.507 67.8657 308.825 69.8139 310.105 69.0055C310.876 68.521 309.312 67.167 309.131 66.1291C308.874 64.6629 307.65 63.0054 308.632 61.7559C309.975 60.0499 309.422 59.392 307.849 58.6704C307.42 58.474 306.834 58.3236 306.966 57.5637C307.252 55.9342 306.717 54.8989 305.314 54.4935C304.735 54.3252 304.126 54.1824 304.271 53.5092C304.822 50.9643 301.683 48.8044 303.955 46.1422C302.188 47.1265 300.867 48.4423 299.337 48.7636C298.166 49.0084 297.526 49.0084 297.815 50.263C298.034 51.2167 297.335 51.153 296.685 51.6069C297.261 48.5239 295.053 46.7211 293.89 44.4924C295.344 43.9518 296.012 46.7823 297.57 44.9947C296.858 43.939 295.979 43.2352 294.563 43.2964C293.701 43.3347 292.702 43.2403 292.391 42.2535C291.59 39.7239 290.093 38.5177 287.36 39.2164C286.829 39.3516 286.128 39.2419 285.924 38.6707C285.335 37.0285 283.476 37.3983 282.458 36.3681C281.867 35.7714 280.633 36.2508 280.602 37.0183C280.548 38.3443 279.794 38.3902 279.054 38.1174C277.991 37.7221 276.555 37.7119 276.303 36.1003C276.129 35.0064 276.249 34.3102 277.613 34.3332C277.945 34.3383 278.534 33.9124 278.335 33.3234C278.139 32.7496 277.542 32.8261 277.126 32.9205C276.147 33.1449 274.977 33.2341 274.286 33.841C273.533 34.5015 274.673 35.3481 274.783 36.159C274.793 36.2355 274.811 36.3145 274.836 36.3885C275.25 37.5717 274.321 38.0409 273.653 38.6784C272.985 39.3159 272.659 38.5968 272.325 38.3265C271.488 37.6558 272.008 36.9418 272.399 36.2482C272.74 35.6413 273.531 35.1517 272.317 34.4301C268.882 32.3799 267.951 28.333 265.463 25.5051C265.373 25.4005 265.391 25.2042 265.361 25.0512C264.94 25.1277 264.483 25.9054 264.241 25.4439C263.958 24.9084 263.622 24.0006 264.593 23.5288C264.461 22.9882 265.157 21.5296 263.662 22.4451C262.846 22.9423 262.811 22.2946 262.418 22.1136C262.028 21.9351 261.939 21.7795 262.28 21.499C262.612 21.2313 262.831 20.6575 263.423 21.0273C265.065 22.06 265.312 20.9304 265.284 19.7268C265.261 18.7578 266.164 18.49 266.465 17.5873C264.453 19.1479 261.747 16.9065 259.881 19.1199C259.44 19.6401 258.695 19.2295 258.106 19.0179C257.371 18.7552 256.627 18.5206 255.91 18.2146C254.809 17.7454 255.166 18.8878 254.778 19.2066C254.487 19.4463 254.123 19.6834 254.691 20.0557C257.519 21.8917 259.623 24.4213 261.528 27.1575C264.157 30.9366 266.865 34.6647 269.471 38.4591C270.491 39.9432 270.264 41.6389 269.685 43.2072C269.04 44.9565 267.577 42.9598 266.5 43.8345C269.142 48.0088 271.766 52.1857 275.178 56.1841C275.316 55.2457 276.081 54.7408 275.856 53.7744C275.681 53.017 276.553 52.1424 276.746 52.2061C278.044 52.6345 276.933 53.397 276.708 53.7948C275.316 56.2887 276.229 58.2496 277.71 60.3508C278.603 61.6156 279.567 62.8192 280.48 64.0611C282.917 67.3812 285.452 70.6375 287.757 74.0469C290.147 77.5837 293.066 80.8681 293.76 85.3204C293.984 86.7637 294.487 87.6384 296.221 86.983C298.003 86.3098 297.718 85.3485 297.167 83.8873C296.598 82.3803 295.568 81.3348 294.535 80.2663C293.885 79.5931 293.355 79.0321 293.816 78.081C295.129 78.3513 296.058 79.1545 296.894 80.1261C297.506 80.835 298.161 81.5158 298.868 82.1304C299.546 82.722 300.229 82.4338 300.678 81.8014C301.183 81.09 300.584 80.9548 300.036 80.7126C299.153 80.3224 298.936 79.3738 297.99 78.1524C299.773 79.1749 301.005 79.7716 301.864 80.8783C302.134 81.2277 302.812 81.7555 301.915 82.1049C299.76 82.9438 301.226 85.0552 300.377 86.343C300.347 86.3889 300.744 86.8122 300.775 86.7918C301.785 86.1594 304.557 88.7935 303.965 85.0705C303.889 84.5962 304.467 83.7573 305.421 83.8669C306.092 83.9434 306.752 84.1092 306.859 84.8181C306.997 85.7182 306.023 86.0497 305.531 86.088C304.455 86.1747 304.738 86.7382 304.766 87.3553C304.855 89.4769 304.965 91.6036 304.929 93.7252C304.921 94.2123 304.934 95.4312 303.85 94.8804C303.424 94.6662 302.221 95.3011 302.529 94.1256C303.261 91.3614 300.25 90.6576 299.602 88.6303C299.35 87.8424 298.126 88.1203 297.529 88.3881C296.963 88.6431 297.144 89.556 297.371 90.1068C297.664 90.8157 298.189 91.4277 298.572 92.1034C300.632 95.7321 303.891 98.7844 304.238 103.239C304.427 105.641 305.304 107.715 306.464 109.742C310.241 107.505 315.795 108.123 317.233 110.93C315.027 111.736 312.184 111.82 312.268 115.403C312.061 113.735 310.955 112.588 310.644 111.149C310.562 110.772 311.452 110.145 310.427 109.989C309.598 109.864 308.693 109.484 307.91 109.959C307.262 110.354 307.448 111.154 307.696 111.675C309.764 116.012 311.536 120.408 312.745 125.113C313.647 128.63 314.754 132.103 315.458 135.68C317.082 136.295 317.141 134.181 318.498 133.898C318.528 135.879 317.738 136.749 315.851 136.581C315.244 136.527 314.629 136.542 314.02 136.527C313.841 136.779 313.502 137.037 313.512 137.282C313.599 139.666 313.721 142.053 313.897 144.432C313.92 144.763 314.211 145.141 314.729 145.077C315.17 145.021 315.71 143.845 316.05 145.182C316.371 146.444 314.316 146.311 314.588 147.653C314.619 147.801 313.752 147.377 313.645 147.02C313.143 145.327 311.975 146.413 311.276 146.564C310.047 146.834 310.83 147.788 310.995 148.464C311.597 150.901 311.768 153.24 309.698 155.173C309.2 155.637 308.833 156.131 308.792 156.95C308.652 159.686 308.328 162.412 308.124 165.146C307.795 169.598 305.967 173.025 302.025 175.448C300.525 176.371 299.296 176.812 297.715 176.233C296.315 175.723 295.106 176.083 293.967 176.924C291.914 178.441 289.468 179.183 287.153 180.106C282.917 181.795 280.806 186.861 283.323 190.115C285.771 193.275 288.504 195.939 292.896 196.35C295.874 196.628 298.268 198.227 299.89 200.932C301.359 203.38 303.884 204.635 306.398 205.652C307.436 206.073 308.489 207.129 309.522 206.864C312.834 206.012 314.894 207.848 316.888 209.901C324.941 218.191 323.218 225.917 320.048 234.585C319.54 235.972 317.766 237.066 317.827 238.017C317.954 240.009 316.728 240.804 315.708 241.837C315.193 242.357 314.644 242.75 314.66 243.535C314.685 244.831 313.785 245.621 313.115 246.562C312.576 247.314 310.46 247.449 312.028 249.15C312.148 249.28 311.712 249.974 311.131 249.997C309.223 250.071 308.226 251.234 307.706 252.922C307.527 253.506 307.153 253.814 306.615 254.046C304.274 255.059 304.108 255.594 305.607 257.606C306.462 258.751 307.91 259.205 309.035 258.784C309.764 258.511 311.618 257.387 309.532 255.875C308.948 255.451 309.924 254.294 310.669 254.434C311.192 254.531 311.954 254.161 312.35 254.834C312.773 255.553 312.219 255.974 311.85 256.471C310.74 257.971 310.771 259.45 312.135 260.753C313.566 262.114 314.418 260.454 315.254 259.873C317.33 258.425 318.373 260.541 319.88 260.964C321.282 261.357 320.568 262.471 320.451 263.313C320.229 264.917 320.487 266.643 321.568 267.594C322.662 268.553 324.051 267.495 325.133 266.674C325.258 266.58 325.388 266.465 325.533 266.429C330.281 265.271 333.726 261.839 337.776 259.462C338.992 258.748 339.012 257.155 340.359 256.535C342.99 255.321 344.451 253.003 345.612 250.474C346.43 248.686 347.272 246.883 348.748 245.56C349.396 244.981 349.773 244.489 350.1 243.63C351.915 238.866 355.169 235.1 358.938 231.752C359.224 231.497 359.644 231.022 359.843 231.094C361.483 231.67 361.327 230.502 361.651 229.513C362.63 226.522 362.416 222.709 366.672 221.807C367.037 221.728 367.345 221.174 367.595 220.789C368.715 219.055 369.531 217.347 369.974 215.169C370.617 212.017 372.955 209.309 373.697 206.014C374.003 204.655 375.906 204.296 376.207 202.768C373.659 202.248 371.92 200.468 371.461 198.788C370.423 194.976 370.829 191.793 374.468 189.554C374.832 189.33 375.092 188.838 375.261 188.412C375.873 186.887 377.155 186.186 378.545 185.586C382.449 183.909 386.478 183.166 390.77 183.33C393.062 183.416 395.242 184.107 397.458 184.151C399.452 184.189 399.225 185.107 398.616 186.068C397.956 187.101 397.961 187.989 398.172 189.098C398.282 189.674 398.361 190.342 398.82 190.47C399.437 190.643 399.621 189.896 399.871 189.437C400.207 188.825 400.386 188.06 400.865 187.606C401.944 186.586 403.201 185.747 400.704 184.959C400.233 184.809 399.623 184.245 399.858 183.687C400.962 181.053 400.092 178.028 401.436 175.496C402.395 173.693 401.832 171.64 402.729 169.792C403.415 170.243 404.129 170.649 404.596 171.419C404.772 171.707 405.195 171.844 405.506 172.051C405.919 170.381 407.832 171.034 408.671 170.001C410.218 168.096 412.896 167.022 412.929 164.003C412.939 163.169 414.413 163.287 414.296 162.134C414.044 159.612 414.523 157.22 415.155 154.739C415.451 153.584 415.214 152.156 416.017 150.95C416.132 150.774 415.846 150.205 415.607 149.943C415.171 149.463 415.058 149.012 415.42 148.471C417.325 145.613 418.516 142.333 420.804 139.681L420.809 139.697ZM318.207 101.86C319.4 101.327 319.594 100.358 319.296 99.0063C318.398 99.7534 317.449 100.302 317.493 101.559C317.506 101.911 317.909 101.992 318.204 101.86H318.207ZM142.127 440.755C141.571 440.984 140.956 441.341 140.969 442.025C140.972 442.262 141.517 442.489 141.946 442.82C142.132 442.188 143.103 442.213 142.897 441.4C142.823 441.112 142.616 440.551 142.127 440.752V440.755ZM324.88 82.4313C325.686 82.7194 325.757 82.0437 325.91 81.5694C326.056 81.118 326.063 80.6463 325.464 80.4168C324.837 80.58 324.411 81.0186 324.24 81.6204C324.118 82.059 324.51 82.2987 324.88 82.4313ZM317.676 89.9742C317.745 90.0201 318.148 89.7906 318.186 89.635C318.441 88.6201 317.898 88.0846 316.44 87.6052C317.049 88.6482 316.962 89.4897 317.679 89.9742H317.676ZM344.115 98.2132C344.319 98.226 344.77 97.7772 344.732 97.6522C344.533 96.9918 344.214 96.3696 343.097 96.5889C343.781 96.9637 343.031 98.1495 344.117 98.2132H344.115Z" fill="#DBDBE7"/>
</g>
<path d="M238.696 100H237.298L240.439 91.2727H241.96L245.101 100H243.703L241.236 92.858H241.168L238.696 100ZM238.93 96.5824H243.464V97.6903H238.93V96.5824ZM251.973 91.2727H253.294V97.0128C253.294 97.6236 253.151 98.1648 252.864 98.6364C252.577 99.1051 252.174 99.4744 251.654 99.7443C251.134 100.011 250.525 100.145 249.826 100.145C249.13 100.145 248.522 100.011 248.002 99.7443C247.482 99.4744 247.078 99.1051 246.792 98.6364C246.505 98.1648 246.361 97.6236 246.361 97.0128V91.2727H247.678V96.9062C247.678 97.3011 247.765 97.652 247.938 97.9588C248.114 98.2656 248.363 98.5071 248.684 98.6832C249.005 98.8565 249.385 98.9432 249.826 98.9432C250.269 98.9432 250.651 98.8565 250.972 98.6832C251.296 98.5071 251.543 98.2656 251.713 97.9588C251.887 97.652 251.973 97.3011 251.973 96.9062V91.2727ZM262.457 94.1108H261.128C261.077 93.8267 260.982 93.5767 260.842 93.3608C260.703 93.1449 260.533 92.9616 260.331 92.8111C260.129 92.6605 259.903 92.5469 259.653 92.4702C259.406 92.3935 259.143 92.3551 258.865 92.3551C258.362 92.3551 257.912 92.4815 257.514 92.7344C257.119 92.9872 256.807 93.358 256.577 93.8466C256.349 94.3352 256.236 94.9318 256.236 95.6364C256.236 96.3466 256.349 96.946 256.577 97.4347C256.807 97.9233 257.121 98.2926 257.518 98.5426C257.916 98.7926 258.364 98.9176 258.861 98.9176C259.136 98.9176 259.398 98.8807 259.645 98.8068C259.895 98.7301 260.121 98.6179 260.322 98.4702C260.524 98.3224 260.695 98.142 260.834 97.929C260.976 97.7131 261.074 97.4659 261.128 97.1875L262.457 97.1918C262.386 97.6207 262.249 98.0156 262.044 98.3764C261.842 98.7344 261.582 99.044 261.264 99.3054C260.949 99.5639 260.588 99.7642 260.182 99.9062C259.776 100.048 259.332 100.119 258.852 100.119C258.097 100.119 257.423 99.9403 256.832 99.5824C256.241 99.2216 255.776 98.706 255.435 98.0355C255.097 97.3651 254.928 96.5653 254.928 95.6364C254.928 94.7045 255.098 93.9048 255.439 93.2372C255.78 92.5668 256.246 92.0526 256.837 91.6946C257.428 91.3338 258.099 91.1534 258.852 91.1534C259.315 91.1534 259.747 91.2202 260.148 91.3537C260.551 91.4844 260.913 91.6776 261.234 91.9332C261.555 92.1861 261.821 92.4957 262.031 92.8622C262.241 93.2259 262.384 93.642 262.457 94.1108ZM264.033 100V91.2727H265.35V95.4403H265.456L269.117 91.2727H270.775L267.255 95.2017L270.787 100H269.202L266.381 96.1009L265.35 97.2855V100H264.033ZM272.002 100V91.2727H273.319V98.8665H277.273V100H272.002ZM279.958 100H278.56L281.701 91.2727H283.222L286.363 100H284.965L282.498 92.858H282.429L279.958 100ZM280.192 96.5824H284.726V97.6903H280.192V96.5824ZM294.667 91.2727V100H293.457L289.021 93.5994H288.94V100H287.623V91.2727H288.842L293.282 97.6818H293.363V91.2727H294.667ZM299.413 100H296.588V91.2727H299.502C300.358 91.2727 301.092 91.4474 301.706 91.7969C302.319 92.1435 302.789 92.642 303.116 93.2926C303.446 93.9403 303.61 94.7173 303.61 95.6236C303.61 96.5327 303.444 97.3139 303.112 97.9673C302.782 98.6207 302.305 99.1236 301.68 99.4759C301.055 99.8253 300.299 100 299.413 100ZM297.904 98.8494H299.341C300.005 98.8494 300.558 98.7244 300.998 98.4744C301.439 98.2216 301.768 97.8565 301.987 97.3793C302.206 96.8991 302.315 96.3139 302.315 95.6236C302.315 94.9389 302.206 94.358 301.987 93.8807C301.771 93.4034 301.449 93.0412 301.02 92.794C300.591 92.5469 300.058 92.4233 299.422 92.4233H297.904V98.8494Z" fill="black"/>
<g clip-path="url(#clip0_2_192)">
<path d="M318.999 85.5C315.005 85.5 311.756 88.7493 311.756 92.7432C311.756 97.6998 318.238 104.976 318.514 105.284C318.773 105.572 319.226 105.572 319.484 105.284C319.76 104.976 326.242 97.6998 326.242 92.7432C326.242 88.7493 322.993 85.5 318.999 85.5ZM318.999 96.3875C316.99 96.3875 315.355 94.7527 315.355 92.7432C315.355 90.7338 316.99 89.099 318.999 89.099C321.009 89.099 322.643 90.7338 322.643 92.7432C322.643 94.7527 321.009 96.3875 318.999 96.3875Z" fill="#0399F0"/>
</g>
<g clip-path="url(#clip1_2_192)">
<path d="M231.999 313.5C228.005 313.5 224.756 316.749 224.756 320.743C224.756 325.7 231.238 332.976 231.514 333.284C231.773 333.572 232.226 333.572 232.484 333.284C232.76 332.976 239.242 325.7 239.242 320.743C239.242 316.749 235.993 313.5 231.999 313.5ZM231.999 324.387C229.99 324.387 228.355 322.753 228.355 320.743C228.355 318.734 229.99 317.099 231.999 317.099C234.009 317.099 235.643 318.734 235.643 320.743C235.643 322.753 234.009 324.387 231.999 324.387Z" fill="#0399F0"/>
</g>
<path d="M254.207 322.111H252.878C252.827 321.827 252.732 321.577 252.592 321.361C252.453 321.145 252.283 320.962 252.081 320.811C251.879 320.661 251.653 320.547 251.403 320.47C251.156 320.393 250.893 320.355 250.615 320.355C250.112 320.355 249.662 320.482 249.264 320.734C248.869 320.987 248.557 321.358 248.327 321.847C248.099 322.335 247.986 322.932 247.986 323.636C247.986 324.347 248.099 324.946 248.327 325.435C248.557 325.923 248.871 326.293 249.268 326.543C249.666 326.793 250.114 326.918 250.611 326.918C250.886 326.918 251.148 326.881 251.395 326.807C251.645 326.73 251.871 326.618 252.072 326.47C252.274 326.322 252.445 326.142 252.584 325.929C252.726 325.713 252.824 325.466 252.878 325.188L254.207 325.192C254.136 325.621 253.999 326.016 253.794 326.376C253.592 326.734 253.332 327.044 253.014 327.305C252.699 327.564 252.338 327.764 251.932 327.906C251.526 328.048 251.082 328.119 250.602 328.119C249.847 328.119 249.173 327.94 248.582 327.582C247.991 327.222 247.526 326.706 247.185 326.036C246.847 325.365 246.678 324.565 246.678 323.636C246.678 322.705 246.848 321.905 247.189 321.237C247.53 320.567 247.996 320.053 248.587 319.695C249.178 319.334 249.849 319.153 250.602 319.153C251.065 319.153 251.497 319.22 251.898 319.354C252.301 319.484 252.663 319.678 252.984 319.933C253.305 320.186 253.571 320.496 253.781 320.862C253.991 321.226 254.134 321.642 254.207 322.111ZM255.783 328V319.273H257.1V323.065H261.451V319.273H262.772V328H261.451V324.195H257.1V328H255.783ZM264.689 328V319.273H267.8C268.476 319.273 269.037 319.389 269.483 319.622C269.932 319.855 270.267 320.178 270.489 320.589C270.711 320.999 270.821 321.472 270.821 322.009C270.821 322.543 270.709 323.013 270.485 323.419C270.263 323.822 269.928 324.136 269.479 324.361C269.033 324.585 268.472 324.697 267.796 324.697H265.439V323.564H267.676C268.103 323.564 268.449 323.503 268.716 323.381C268.986 323.259 269.184 323.081 269.309 322.848C269.434 322.615 269.496 322.335 269.496 322.009C269.496 321.679 269.432 321.393 269.304 321.152C269.179 320.911 268.982 320.726 268.712 320.598C268.445 320.467 268.094 320.402 267.659 320.402H266.006V328H264.689ZM268.998 324.062L271.154 328H269.654L267.54 324.062H268.998ZM273.74 319.273V328H272.424V319.273H273.74ZM280.418 321.565C280.373 321.162 280.185 320.849 279.855 320.628C279.526 320.403 279.111 320.291 278.611 320.291C278.253 320.291 277.944 320.348 277.682 320.462C277.421 320.572 277.218 320.726 277.073 320.922C276.931 321.115 276.86 321.335 276.86 321.582C276.86 321.79 276.908 321.969 277.005 322.119C277.104 322.27 277.233 322.396 277.392 322.499C277.554 322.598 277.728 322.682 277.912 322.75C278.097 322.815 278.275 322.869 278.445 322.912L279.297 323.134C279.576 323.202 279.861 323.294 280.154 323.411C280.446 323.527 280.718 323.68 280.968 323.871C281.218 324.061 281.419 324.297 281.573 324.578C281.729 324.859 281.807 325.196 281.807 325.588C281.807 326.082 281.679 326.521 281.424 326.905C281.171 327.288 280.803 327.591 280.32 327.812C279.84 328.034 279.259 328.145 278.577 328.145C277.924 328.145 277.358 328.041 276.881 327.834C276.404 327.626 276.03 327.332 275.76 326.952C275.49 326.568 275.341 326.114 275.313 325.588H276.634C276.659 325.903 276.762 326.166 276.941 326.376C277.123 326.584 277.354 326.739 277.635 326.841C277.919 326.94 278.23 326.99 278.569 326.99C278.941 326.99 279.272 326.932 279.561 326.815C279.854 326.696 280.084 326.531 280.252 326.321C280.419 326.108 280.503 325.859 280.503 325.575C280.503 325.317 280.429 325.105 280.282 324.94C280.137 324.776 279.939 324.639 279.689 324.531C279.442 324.423 279.162 324.328 278.85 324.246L277.819 323.964C277.12 323.774 276.566 323.494 276.157 323.125C275.75 322.756 275.547 322.267 275.547 321.659C275.547 321.156 275.684 320.717 275.956 320.342C276.229 319.967 276.598 319.676 277.064 319.469C277.53 319.259 278.056 319.153 278.641 319.153C279.232 319.153 279.753 319.257 280.205 319.464C280.659 319.672 281.017 319.957 281.279 320.321C281.54 320.682 281.676 321.097 281.688 321.565H280.418ZM282.95 320.406V319.273H289.705V320.406H286.982V328H285.669V320.406H282.95ZM298.071 322.111H296.741C296.69 321.827 296.595 321.577 296.456 321.361C296.316 321.145 296.146 320.962 295.944 320.811C295.743 320.661 295.517 320.547 295.267 320.47C295.02 320.393 294.757 320.355 294.478 320.355C293.975 320.355 293.525 320.482 293.127 320.734C292.733 320.987 292.42 321.358 292.19 321.847C291.963 322.335 291.849 322.932 291.849 323.636C291.849 324.347 291.963 324.946 292.19 325.435C292.42 325.923 292.734 326.293 293.132 326.543C293.529 326.793 293.977 326.918 294.474 326.918C294.75 326.918 295.011 326.881 295.258 326.807C295.508 326.73 295.734 326.618 295.936 326.47C296.137 326.322 296.308 326.142 296.447 325.929C296.589 325.713 296.687 325.466 296.741 325.188L298.071 325.192C298 325.621 297.862 326.016 297.657 326.376C297.456 326.734 297.196 327.044 296.877 327.305C296.562 327.564 296.201 327.764 295.795 327.906C295.389 328.048 294.946 328.119 294.466 328.119C293.71 328.119 293.037 327.94 292.446 327.582C291.855 327.222 291.389 326.706 291.048 326.036C290.71 325.365 290.541 324.565 290.541 323.636C290.541 322.705 290.711 321.905 291.052 321.237C291.393 320.567 291.859 320.053 292.45 319.695C293.041 319.334 293.713 319.153 294.466 319.153C294.929 319.153 295.36 319.22 295.761 319.354C296.164 319.484 296.527 319.678 296.848 319.933C297.169 320.186 297.434 320.496 297.645 320.862C297.855 321.226 297.997 321.642 298.071 322.111ZM299.646 328V319.273H300.963V323.065H305.314V319.273H306.635V328H305.314V324.195H300.963V328H299.646ZM314.165 319.273H315.486V325.013C315.486 325.624 315.342 326.165 315.055 326.636C314.768 327.105 314.365 327.474 313.845 327.744C313.325 328.011 312.716 328.145 312.017 328.145C311.321 328.145 310.713 328.011 310.193 327.744C309.673 327.474 309.27 327.105 308.983 326.636C308.696 326.165 308.553 325.624 308.553 325.013V319.273H309.869V324.906C309.869 325.301 309.956 325.652 310.129 325.959C310.305 326.266 310.554 326.507 310.875 326.683C311.196 326.857 311.577 326.943 312.017 326.943C312.46 326.943 312.842 326.857 313.163 326.683C313.487 326.507 313.734 326.266 313.905 325.959C314.078 325.652 314.165 325.301 314.165 324.906V319.273ZM317.4 328V319.273H320.511C321.187 319.273 321.748 319.389 322.194 319.622C322.643 319.855 322.978 320.178 323.2 320.589C323.422 320.999 323.532 321.472 323.532 322.009C323.532 322.543 323.42 323.013 323.196 323.419C322.974 323.822 322.639 324.136 322.19 324.361C321.744 324.585 321.183 324.697 320.507 324.697H318.15V323.564H320.387C320.814 323.564 321.16 323.503 321.427 323.381C321.697 323.259 321.895 323.081 322.02 322.848C322.145 322.615 322.207 322.335 322.207 322.009C322.207 321.679 322.143 321.393 322.015 321.152C321.89 320.911 321.693 320.726 321.423 320.598C321.156 320.467 320.805 320.402 320.37 320.402H318.717V328H317.4ZM321.708 324.062L323.865 328H322.365L320.251 324.062H321.708ZM332.383 322.111H331.054C331.002 321.827 330.907 321.577 330.768 321.361C330.629 321.145 330.458 320.962 330.257 320.811C330.055 320.661 329.829 320.547 329.579 320.47C329.332 320.393 329.069 320.355 328.791 320.355C328.288 320.355 327.838 320.482 327.44 320.734C327.045 320.987 326.733 321.358 326.502 321.847C326.275 322.335 326.162 322.932 326.162 323.636C326.162 324.347 326.275 324.946 326.502 325.435C326.733 325.923 327.047 326.293 327.444 326.543C327.842 326.793 328.289 326.918 328.787 326.918C329.062 326.918 329.324 326.881 329.571 326.807C329.821 326.73 330.047 326.618 330.248 326.47C330.45 326.322 330.62 326.142 330.76 325.929C330.902 325.713 331 325.466 331.054 325.188L332.383 325.192C332.312 325.621 332.174 326.016 331.97 326.376C331.768 326.734 331.508 327.044 331.19 327.305C330.875 327.564 330.514 327.764 330.108 327.906C329.701 328.048 329.258 328.119 328.778 328.119C328.022 328.119 327.349 327.94 326.758 327.582C326.167 327.222 325.701 326.706 325.36 326.036C325.022 325.365 324.853 324.565 324.853 323.636C324.853 322.705 325.024 321.905 325.365 321.237C325.706 320.567 326.172 320.053 326.762 319.695C327.353 319.334 328.025 319.153 328.778 319.153C329.241 319.153 329.673 319.22 330.074 319.354C330.477 319.484 330.839 319.678 331.16 319.933C331.481 320.186 331.747 320.496 331.957 320.862C332.167 321.226 332.309 321.642 332.383 322.111ZM333.959 328V319.273H335.276V323.065H339.626V319.273H340.947V328H339.626V324.195H335.276V328H333.959Z" fill="black"/>
<path d="M139.999 382C136.005 382 132.756 385.249 132.756 389.243C132.756 394.2 139.238 401.476 139.514 401.784C139.773 402.072 140.226 402.072 140.484 401.784C140.76 401.476 147.242 394.2 147.242 389.243C147.242 385.249 143.993 382 139.999 382ZM139.999 392.887C137.99 392.887 136.355 391.253 136.355 389.243C136.355 387.234 137.99 385.599 139.999 385.599C142.009 385.599 143.643 387.234 143.643 389.243C143.643 391.253 142.009 392.887 139.999 392.887Z" fill="#0399F0"/>
<path d="M100.668 415.17H101.963L102.875 416.359L103.305 416.888L104.759 418.784H103.412L102.44 417.518L102.108 417.058L100.668 415.17ZM105.04 413.636C105.04 414.568 104.869 415.369 104.528 416.04C104.188 416.707 103.72 417.222 103.126 417.582C102.536 417.94 101.864 418.119 101.111 418.119C100.355 418.119 99.6804 417.94 99.0866 417.582C98.4957 417.222 98.0298 416.706 97.6889 416.036C97.348 415.365 97.1776 414.565 97.1776 413.636C97.1776 412.705 97.348 411.905 97.6889 411.237C98.0298 410.567 98.4957 410.053 99.0866 409.695C99.6804 409.334 100.355 409.153 101.111 409.153C101.864 409.153 102.536 409.334 103.126 409.695C103.72 410.053 104.188 410.567 104.528 411.237C104.869 411.905 105.04 412.705 105.04 413.636ZM103.736 413.636C103.736 412.926 103.621 412.328 103.391 411.842C103.163 411.354 102.851 410.984 102.453 410.734C102.058 410.482 101.611 410.355 101.111 410.355C100.608 410.355 100.159 410.482 99.7642 410.734C99.3693 410.984 99.0568 411.354 98.8267 411.842C98.5994 412.328 98.4858 412.926 98.4858 413.636C98.4858 414.347 98.5994 414.946 98.8267 415.435C99.0568 415.92 99.3693 416.29 99.7642 416.543C100.159 416.793 100.608 416.918 101.111 416.918C101.611 416.918 102.058 416.793 102.453 416.543C102.851 416.29 103.163 415.92 103.391 415.435C103.621 414.946 103.736 414.347 103.736 413.636ZM112.294 409.273H113.615V415.013C113.615 415.624 113.471 416.165 113.184 416.636C112.897 417.105 112.494 417.474 111.974 417.744C111.454 418.011 110.845 418.145 110.146 418.145C109.45 418.145 108.842 418.011 108.322 417.744C107.802 417.474 107.399 417.105 107.112 416.636C106.825 416.165 106.681 415.624 106.681 415.013V409.273H107.998V414.906C107.998 415.301 108.085 415.652 108.258 415.959C108.434 416.266 108.683 416.507 109.004 416.683C109.325 416.857 109.706 416.943 110.146 416.943C110.589 416.943 110.971 416.857 111.292 416.683C111.616 416.507 111.863 416.266 112.034 415.959C112.207 415.652 112.294 415.301 112.294 414.906V409.273ZM115.529 418V409.273H121.001V410.406H116.846V413.065H120.715V414.195H116.846V416.866H121.052V418H115.529ZM122.76 418V409.273H128.231V410.406H124.076V413.065H127.946V414.195H124.076V416.866H128.282V418H122.76ZM137.034 409.273V418H135.824L131.388 411.599H131.307V418H129.99V409.273H131.209L135.649 415.682H135.73V409.273H137.034ZM143.715 411.565C143.669 411.162 143.482 410.849 143.152 410.628C142.823 410.403 142.408 410.291 141.908 410.291C141.55 410.291 141.24 410.348 140.979 410.462C140.718 410.572 140.515 410.726 140.37 410.922C140.228 411.115 140.157 411.335 140.157 411.582C140.157 411.79 140.205 411.969 140.301 412.119C140.401 412.27 140.53 412.396 140.689 412.499C140.851 412.598 141.025 412.682 141.209 412.75C141.394 412.815 141.571 412.869 141.742 412.912L142.594 413.134C142.873 413.202 143.158 413.294 143.451 413.411C143.743 413.527 144.015 413.68 144.265 413.871C144.515 414.061 144.716 414.297 144.87 414.578C145.026 414.859 145.104 415.196 145.104 415.588C145.104 416.082 144.976 416.521 144.721 416.905C144.468 417.288 144.1 417.591 143.617 417.812C143.137 418.034 142.556 418.145 141.874 418.145C141.221 418.145 140.655 418.041 140.178 417.834C139.701 417.626 139.327 417.332 139.057 416.952C138.787 416.568 138.638 416.114 138.61 415.588H139.931C139.956 415.903 140.059 416.166 140.238 416.376C140.419 416.584 140.651 416.739 140.932 416.841C141.216 416.94 141.527 416.99 141.865 416.99C142.238 416.99 142.569 416.932 142.858 416.815C143.151 416.696 143.381 416.531 143.549 416.321C143.716 416.108 143.8 415.859 143.8 415.575C143.8 415.317 143.726 415.105 143.578 414.94C143.434 414.776 143.236 414.639 142.986 414.531C142.739 414.423 142.459 414.328 142.147 414.246L141.115 413.964C140.417 413.774 139.863 413.494 139.453 413.125C139.047 412.756 138.844 412.267 138.844 411.659C138.844 411.156 138.98 410.717 139.253 410.342C139.526 409.967 139.895 409.676 140.361 409.469C140.827 409.259 141.353 409.153 141.938 409.153C142.529 409.153 143.05 409.257 143.502 409.464C143.956 409.672 144.314 409.957 144.576 410.321C144.837 410.682 144.973 411.097 144.985 411.565H143.715ZM146.247 410.406V409.273H153.001V410.406H150.278V418H148.966V410.406H146.247ZM161.7 413.636C161.7 414.568 161.529 415.369 161.189 416.04C160.848 416.707 160.38 417.222 159.787 417.582C159.196 417.94 158.524 418.119 157.771 418.119C157.015 418.119 156.341 417.94 155.747 417.582C155.156 417.222 154.69 416.706 154.349 416.036C154.008 415.365 153.838 414.565 153.838 413.636C153.838 412.705 154.008 411.905 154.349 411.237C154.69 410.567 155.156 410.053 155.747 409.695C156.341 409.334 157.015 409.153 157.771 409.153C158.524 409.153 159.196 409.334 159.787 409.695C160.38 410.053 160.848 410.567 161.189 411.237C161.529 411.905 161.7 412.705 161.7 413.636ZM160.396 413.636C160.396 412.926 160.281 412.328 160.051 411.842C159.824 411.354 159.511 410.984 159.113 410.734C158.718 410.482 158.271 410.355 157.771 410.355C157.268 410.355 156.819 410.482 156.424 410.734C156.029 410.984 155.717 411.354 155.487 411.842C155.26 412.328 155.146 412.926 155.146 413.636C155.146 414.347 155.26 414.946 155.487 415.435C155.717 415.92 156.029 416.29 156.424 416.543C156.819 416.793 157.268 416.918 157.771 416.918C158.271 416.918 158.718 416.793 159.113 416.543C159.511 416.29 159.824 415.92 160.051 415.435C160.281 414.946 160.396 414.347 160.396 413.636ZM164.945 418L162.525 409.273H163.909L165.61 416.031H165.691L167.459 409.273H168.831L170.6 416.036H170.681L172.377 409.273H173.766L171.341 418H170.016L168.179 411.463H168.111L166.275 418H164.945ZM182.011 409.273V418H180.8L176.364 411.599H176.283V418H174.967V409.273H176.185L180.626 415.682H180.707V409.273H182.011Z" fill="black"/>
<defs>
<filter id="filter0_d_2_192" x="84.1904" y="17.5873" width="341.618" height="461.177" filterUnits="userSpaceOnUse" color-interpolation-filters="sRGB">
<feFlood flood-opacity="0" result="BackgroundImageFix"/>
<feColorMatrix in="SourceAlpha" type="matrix" values="0 0 0 0 0 0 0 0 0 0 0 0 0 0 0 0 0 0 127 0" result="hardAlpha"/>
<feOffset dy="15"/>
<feGaussianBlur stdDeviation="2"/>
<feComposite in2="hardAlpha" operator="out"/>
<feColorMatrix type="matrix" values="0 0 0 0 0.176471 0 0 0 0 0.231373 0 0 0 0 0.470588 0 0 0 0.14 0"/>
<feBlend mode="normal" in2="BackgroundImageFix" result="effect1_dropShadow_2_192"/>
<feBlend mode="normal" in="SourceGraphic" in2="effect1_dropShadow_2_192" result="shape"/>
</filter>
<clipPath id="clip0_2_192">
<rect width="20" height="20" fill="white" transform="translate(309 85.5)"/>
</clipPath>
<clipPath id="clip1_2_192">
<rect width="20" height="20" fill="white" transform="translate(222 313.5)"/>
</clipPath>
</defs>
</svg>
