<svg width="36" height="31" viewBox="0 0 36 31" fill="none" xmlns="http://www.w3.org/2000/svg">
<path d="M4.78868 17.3394L17.3153 29.1068C17.6398 29.4116 17.802 29.564 18 29.564C18.198 29.564 18.3602 29.4116 18.6847 29.1068L31.2113 17.3394L31.2117 17.339C31.2773 17.2774 31.3101 17.2466 31.3383 17.2196C34.6508 14.0532 35.0554 8.90352 32.2779 5.25877C32.2542 5.22766 32.2265 5.19198 32.1712 5.12062L31.6298 4.42285C28.1855 -0.0164833 21.2719 0.728024 18.8517 5.79889C18.5098 6.51518 17.4902 6.51518 17.1483 5.79889C14.7281 0.728023 7.81451 -0.0164838 4.3702 4.42285L3.82883 5.12062C3.77346 5.19198 3.74578 5.22766 3.72208 5.25877C0.944646 8.90352 1.34918 14.0532 4.66167 17.2196C4.6899 17.2466 4.72278 17.2775 4.78847 17.3392L4.78868 17.3394Z" stroke="#333333" stroke-width="2"/>
</svg>
