<?xml version="1.0" encoding="UTF-8"?>
<!DOCTYPE svg PUBLIC "-//W3C//DTD SVG 1.1//EN" "http://www.w3.org/Graphics/SVG/1.1/DTD/svg11.dtd">
<svg xmlns="http://www.w3.org/2000/svg" version="1.1" width="246px" height="66px" style="shape-rendering:geometricPrecision; text-rendering:geometricPrecision; image-rendering:optimizeQuality; fill-rule:evenodd; clip-rule:evenodd" xmlns:xlink="http://www.w3.org/1999/xlink">
<g><path style="opacity:0.357" fill="#000000" d="M 120.5,-0.5 C 121.167,-0.5 121.833,-0.5 122.5,-0.5C 122.312,2.21372 122.312,4.88039 122.5,7.5C 121.167,7.5 119.833,7.5 118.5,7.5C 118.56,4.65919 119.226,1.99253 120.5,-0.5 Z"/></g>
<g><path style="opacity:0.474" fill="#000000" d="M 112.5,3.5 C 114.346,3.22216 115.68,3.88882 116.5,5.5C 115.68,7.11118 114.346,7.77784 112.5,7.5C 112.5,6.16667 112.5,4.83333 112.5,3.5 Z"/></g>
<g><path style="opacity:0.488" fill="#000000" d="M 130.5,49.5 C 130.5,50.5 130.5,51.5 130.5,52.5C 129.833,52.5 129.5,52.8333 129.5,53.5C 128.167,53.5 126.833,53.5 125.5,53.5C 125.5,52.5 125.5,51.5 125.5,50.5C 123.508,50.6715 121.842,50.0049 120.5,48.5C 119.863,49.218 119.863,50.218 120.5,51.5C 117.376,55.5534 115.209,54.8868 114,49.5C 113.695,52.6958 112.362,55.6958 110,58.5C 108.989,59.3366 107.822,59.67 106.5,59.5C 106.5,60.5 106.5,61.5 106.5,62.5C 105.5,62.5 104.5,62.5 103.5,62.5C 104.776,57.4069 107.11,52.9069 110.5,49C 108.241,45.726 107.408,45.8927 108,49.5C 106.933,50.1905 105.766,50.6905 104.5,51C 106.161,54.1499 105.161,55.6499 101.5,55.5C 100.588,54.2618 100.421,52.9285 101,51.5C 104.304,48.6275 105.471,45.2941 104.5,41.5C 100.862,42.2634 99.3622,40.9301 100,37.5C 101.667,36.1667 103.333,36.1667 105,37.5C 105.5,37 106,36.5 106.5,36C 104.109,34.9651 101.776,34.7985 99.5,35.5C 95.53,33.8465 91.53,32.5132 87.5,31.5C 87.147,29.3652 87.9803,28.0319 90,27.5C 92.3154,28.8749 94.8154,29.8749 97.5,30.5C 98.3081,30.1924 98.9747,29.6924 99.5,29C 98.1916,28.1762 96.6916,27.6762 95,27.5C 94.51,26.2068 94.3433,24.8734 94.5,23.5C 96.451,23.2267 97.951,23.8934 99,25.5C 102.333,25.5 105.667,25.5 109,25.5C 107.229,23.7625 106.395,21.4292 106.5,18.5C 109.011,18.838 111.345,18.838 113.5,18.5C 112.833,17.5 112.167,16.5 111.5,15.5C 112.053,13.2727 112.053,10.9393 111.5,8.5C 112.833,8.5 114.167,8.5 115.5,8.5C 116.138,11.7626 116.138,14.9293 115.5,18C 117.723,18.6517 118.89,20.1517 119,22.5C 119.107,18.6302 118.607,14.7968 117.5,11C 118.333,8.5 119.833,8 122,9.5C 122.684,10.7839 122.517,11.9505 121.5,13C 123.527,14.3957 123.86,16.0624 122.5,18C 123.772,19.3068 124.772,20.8068 125.5,22.5C 129.14,18.1579 131.14,18.8245 131.5,24.5C 130.167,24.5 128.833,24.5 127.5,24.5C 127.703,26.3904 127.037,27.8904 125.5,29C 126.448,29.4828 127.448,29.6495 128.5,29.5C 128.351,28.448 128.517,27.448 129,26.5C 130.905,25.842 132.405,24.6753 133.5,23C 135.906,22.6943 138.073,21.861 140,20.5C 142.009,20.9949 144.176,20.9949 146.5,20.5C 146.824,23.694 145.658,24.694 143,23.5C 140.108,25.5772 136.941,26.9105 133.5,27.5C 133.343,28.8734 133.51,30.2068 134,31.5C 136.685,29.9504 139.352,28.2837 142,26.5C 143.269,27.9047 143.769,29.5714 143.5,31.5C 140.833,32.1667 138.167,32.8333 135.5,33.5C 135.439,35.5922 134.439,37.0922 132.5,38C 133.793,38.49 135.127,38.6567 136.5,38.5C 137.169,42.6759 135.669,44.0093 132,42.5C 131.517,43.448 131.351,44.448 131.5,45.5C 134.5,45.1667 135.833,46.5 135.5,49.5C 138.694,49.1756 139.694,50.3422 138.5,53C 142.587,56.0126 141.92,57.5126 136.5,57.5C 135.655,53.9854 133.655,51.3187 130.5,49.5 Z M 114.5,23.5 C 115.224,25.2184 115.891,27.0517 116.5,29C 118.464,29.624 120.131,29.124 121.5,27.5C 124.243,28.5196 124.91,30.1862 123.5,32.5C 127.43,35.7105 126.763,38.0439 121.5,39.5C 120.873,40.4168 120.539,41.4168 120.5,42.5C 119.041,42.4326 117.708,42.7659 116.5,43.5C 117.041,39.7053 115.375,37.7053 111.5,37.5C 110.128,35.3802 110.795,34.3802 113.5,34.5C 113.714,32.8561 113.38,31.3561 112.5,30C 114.229,28.2111 114.896,26.0444 114.5,23.5 Z M 103.5,29.5 C 102.762,31.7602 101.762,31.9269 100.5,30C 101.448,29.5172 102.448,29.3505 103.5,29.5 Z M 129.5,31.5 C 130.434,32.5676 130.768,33.901 130.5,35.5C 129.448,35.6495 128.448,35.4828 127.5,35C 128.973,34.2904 129.64,33.1238 129.5,31.5 Z M 104.5,41.5 C 106.364,40.2072 108.364,40.2072 110.5,41.5C 108.78,41.7463 106.78,41.7463 104.5,41.5 Z M 130.5,41.5 C 128.891,41.9059 127.557,41.9059 126.5,41.5C 127.958,40.218 129.292,40.218 130.5,41.5 Z M 115.5,44.5 C 115.631,45.2389 115.464,45.9056 115,46.5C 113.644,45.6198 112.144,45.2865 110.5,45.5C 110.369,44.7611 110.536,44.0944 111,43.5C 112.356,44.3802 113.856,44.7135 115.5,44.5 Z M 126.5,46.5 C 124.914,45.8519 123.247,45.3519 121.5,45C 123.101,44.7266 124.601,44.2266 126,43.5C 126.483,44.448 126.649,45.448 126.5,46.5 Z M 126.5,46.5 C 128.455,46.7986 129.789,47.7986 130.5,49.5C 128.545,49.2014 127.211,48.2014 126.5,46.5 Z"/></g>
<g><path style="opacity:0.376" fill="#000000" d="M 87.5,19.5 C 89.2821,20.7196 91.2821,21.3862 93.5,21.5C 93.5,22.8333 93.5,24.1667 93.5,25.5C 91.1691,25.5023 89.1691,24.669 87.5,23C 86.3157,21.8545 86.3157,20.6879 87.5,19.5 Z"/></g>
<g><path style="opacity:0.355" fill="#000000" d="M 146.5,25.5 C 148.01,26.7279 149.51,26.7279 151,25.5C 152.188,26.5634 152.688,27.8967 152.5,29.5C 150.131,29.8511 147.797,30.0178 145.5,30C 144.257,28.184 144.59,26.684 146.5,25.5 Z"/></g>
<g><path style="opacity:0.532" fill="#000000" d="M -0.5,44.5 C -0.5,44.1667 -0.5,43.8333 -0.5,43.5C 1.79066,39.709 4.624,36.3757 8,33.5C 10.212,35.5481 12.212,37.8814 14,40.5C 14.3095,39.2341 14.8095,38.0674 15.5,37C 22.2959,31.7937 27.7959,32.9604 32,40.5C 33.0128,38.1539 34.6794,36.4872 37,35.5C 40.0757,35.7562 43.2424,35.9229 46.5,36C 47.6667,36.5 48.5,37.3333 49,38.5C 49.5,37.3333 50.3333,36.5 51.5,36C 54.2004,35.7468 56.867,35.7468 59.5,36C 59.9981,34.8419 60.8315,34.0085 62,33.5C 64.2562,35.0855 66.7562,35.7521 69.5,35.5C 69.5,37.5 69.5,39.5 69.5,41.5C 70.5,41.5 71.5,41.5 72.5,41.5C 72.5,39.5 72.5,37.5 72.5,35.5C 73.8333,35.5 75.1667,35.5 76.5,35.5C 76.3505,36.552 76.5172,37.552 77,38.5C 77.7751,36.7769 79.1084,35.7769 81,35.5C 84.4358,35.8558 87.9358,36.0225 91.5,36C 93.1922,37.4007 93.8588,39.2341 93.5,41.5C 92.1667,41.5 90.8333,41.5 89.5,41.5C 89.5,42.5 89.5,43.5 89.5,44.5C 87.4727,44.6621 85.4727,44.4955 83.5,44C 82.6198,42.6439 82.2865,41.1439 82.5,39.5C 81.5,39.5 80.5,39.5 79.5,39.5C 79.5,41.1667 79.5,42.8333 79.5,44.5C 75.3228,44.3297 70.9895,44.1631 66.5,44C 64.7718,37.9518 63.7718,38.1184 63.5,44.5C 61.1667,44.5 58.8333,44.5 56.5,44.5C 56.5,42.8333 56.5,41.1667 56.5,39.5C 55.1667,39.5 53.8333,39.5 52.5,39.5C 52.5,41.1667 52.5,42.8333 52.5,44.5C 51.1667,44.5 49.8333,44.5 48.5,44.5C 48.5,43.5 48.5,42.5 48.5,41.5C 47.1667,41.5 45.8333,41.5 44.5,41.5C 44.5,42.5 44.5,43.5 44.5,44.5C 39.8823,45.6913 37.3823,44.0246 37,39.5C 33.1147,47.1221 29.448,46.7888 26,38.5C 25.7489,40.433 25.2489,42.2663 24.5,44C 18.6204,44.9462 12.9537,44.4462 7.5,42.5C 4.93284,43.6636 2.26617,44.3303 -0.5,44.5 Z M 17.5,39.5 C 19.288,39.2148 20.9547,39.5481 22.5,40.5C 21.6667,40.8333 20.8333,41.1667 20,41.5C 18.6244,41.3158 17.7911,40.6491 17.5,39.5 Z"/></g>
<g><path style="opacity:0.517" fill="#000000" d="M 245.5,33.5 C 245.5,36.8333 245.5,40.1667 245.5,43.5C 240.43,44.1796 235.43,44.513 230.5,44.5C 230.5,42.8333 230.5,41.1667 230.5,39.5C 229.167,39.5 227.833,39.5 226.5,39.5C 226.5,41.1667 226.5,42.8333 226.5,44.5C 224.876,44.6399 223.71,43.9733 223,42.5C 220.787,43.7595 218.287,44.4262 215.5,44.5C 208.642,44.0678 201.642,44.0678 194.5,44.5C 194.5,42.8333 194.5,41.1667 194.5,39.5C 193.167,39.5 191.833,39.5 190.5,39.5C 190.5,41.1667 190.5,42.8333 190.5,44.5C 189.167,44.5 187.833,44.5 186.5,44.5C 186.5,43.5 186.5,42.5 186.5,41.5C 185.127,41.3433 183.793,41.51 182.5,42C 182.957,42.414 183.291,42.914 183.5,43.5C 179.621,45.1403 176.287,44.4736 173.5,41.5C 171.334,41.4296 171.001,42.0962 172.5,43.5C 169.679,44.9705 167.179,44.6372 165,42.5C 161.002,44.0118 156.835,45.3451 152.5,46.5C 149.14,45.0885 145.64,44.0885 142,43.5C 139.848,35.1454 143.015,31.9787 151.5,34C 152.667,34.5 153.5,35.3333 154,36.5C 155.011,35.6634 156.178,35.33 157.5,35.5C 157.5,37.5 157.5,39.5 157.5,41.5C 158.833,41.5 160.167,41.5 161.5,41.5C 161.5,39.5 161.5,37.5 161.5,35.5C 164.53,36.5292 167.53,36.5292 170.5,35.5C 172.593,35.4858 174.426,36.1524 176,37.5C 180.062,34.5708 183.728,34.9042 187,38.5C 190.272,34.9042 193.938,34.5708 198,37.5C 199.789,35.771 201.956,35.1043 204.5,35.5C 204.5,36.5 204.5,37.5 204.5,38.5C 205.822,38.33 206.989,38.6634 208,39.5C 208.495,37.5273 208.662,35.5273 208.5,33.5C 209.5,33.5 210.5,33.5 211.5,33.5C 211.338,35.5273 211.505,37.5273 212,39.5C 213.356,38.6198 214.856,38.2865 216.5,38.5C 216.5,37.5 216.5,36.5 216.5,35.5C 219.368,35.085 221.535,36.085 223,38.5C 226.734,34.6112 230.4,34.6112 234,38.5C 234.388,37.572 235.055,36.9054 236,36.5C 239.152,35.334 242.319,34.334 245.5,33.5 Z M 145.5,37.5 C 147.167,37.5 148.833,37.5 150.5,37.5C 150.5,38.8333 150.5,40.1667 150.5,41.5C 148.833,41.5 147.167,41.5 145.5,41.5C 145.5,40.1667 145.5,38.8333 145.5,37.5 Z M 237.5,39.5 C 238.978,39.238 240.311,39.5713 241.5,40.5C 240.833,40.8333 240.167,41.1667 239.5,41.5C 238.287,41.2528 237.62,40.5862 237.5,39.5 Z"/></g>
<g><path style="opacity:0.371" fill="#000000" d="M 130.5,52.5 C 133.389,52.999 134.056,54.499 132.5,57C 133.448,57.4828 134.448,57.6495 135.5,57.5C 135.694,60.3297 136.361,62.9963 137.5,65.5C 136.167,65.5 134.833,65.5 133.5,65.5C 133.33,64.1779 133.663,63.0113 134.5,62C 133.552,61.5172 132.552,61.3505 131.5,61.5C 131.559,58.9512 130.559,56.9512 128.5,55.5C 128.863,54.8165 129.196,54.1499 129.5,53.5C 130.167,53.5 130.5,53.1667 130.5,52.5 Z"/></g>
<g><path style="opacity:0.379" fill="#000000" d="M 101.5,55.5 C 102.494,57.8543 101.494,58.8543 98.5,58.5C 98.5,59.5 98.5,60.5 98.5,61.5C 93.6604,60.8115 93.3271,59.1448 97.5,56.5C 98.6888,55.5713 100.022,55.238 101.5,55.5 Z"/></g>
</svg>
