<?xml version="1.0" encoding="UTF-8"?>
<!DOCTYPE svg PUBLIC "-//W3C//DTD SVG 1.1//EN" "http://www.w3.org/Graphics/SVG/1.1/DTD/svg11.dtd">
<svg xmlns="http://www.w3.org/2000/svg" version="1.1" width="129px" height="72px" style="shape-rendering:geometricPrecision; text-rendering:geometricPrecision; image-rendering:optimizeQuality; fill-rule:evenodd; clip-rule:evenodd" xmlns:xlink="http://www.w3.org/1999/xlink">
<g><path style="opacity:0.77" fill="#000000" d="M 54.5,-0.5 C 55.5,-0.5 56.5,-0.5 57.5,-0.5C 59.3122,1.46052 60.3122,3.79385 60.5,6.5C 62.2012,6.96624 63.7012,6.96624 65,6.5C 65.4396,4.13412 65.9396,1.80079 66.5,-0.5C 68.8333,-0.5 71.1667,-0.5 73.5,-0.5C 73.703,1.63824 74.703,3.30491 76.5,4.5C 74.4682,6.19822 72.8015,8.19822 71.5,10.5C 70.914,10.2907 70.414,9.95735 70,9.5C 68.9611,17.7619 71.1277,25.0952 76.5,31.5C 76.0004,32.8805 75.0004,33.5472 73.5,33.5C 71.406,31.4506 69.5727,29.1173 68,26.5C 69.0163,33.9052 70.683,41.2386 73,48.5C 75.1576,52.6694 78.6576,54.6694 83.5,54.5C 83.0233,55.4776 82.3567,56.3109 81.5,57C 78.7202,57.9088 76.0536,59.0755 73.5,60.5C 70.099,53.3648 66.4323,46.3648 62.5,39.5C 58.7445,44.0178 56.4112,49.1845 55.5,55C 60.7908,57.2255 60.7908,59.0589 55.5,60.5C 52.7284,59.293 50.0617,57.793 47.5,56C 51.8064,48.2219 55.1397,40.0552 57.5,31.5C 55.9539,30.316 54.2873,29.316 52.5,28.5C 52.1092,24.4316 51.1092,20.265 49.5,16C 51.3032,10.4382 52.9699,4.93819 54.5,-0.5 Z M 55.5,3.5 C 57.337,3.63945 57.6704,4.30612 56.5,5.5C 55.7025,5.04311 55.3691,4.37644 55.5,3.5 Z"/></g>
<g><path style="opacity:0.768" fill="#000000" d="M -0.5,37.5 C 4.6278,37.1115 9.6278,37.6115 14.5,39C 16.5363,41.5002 16.8696,44.1669 15.5,47C 19.5,51 19.5,55 15.5,59C 10.2636,60.339 4.93022,60.839 -0.5,60.5C -0.5,52.8333 -0.5,45.1667 -0.5,37.5 Z M 4.5,43.5 C 6.85684,43.3367 9.19018,43.5034 11.5,44C 8.81599,46.1449 6.48266,45.9783 4.5,43.5 Z M 4.5,51.5 C 16.5,52.5 16.5,53.5 4.5,54.5C 4.5,53.5 4.5,52.5 4.5,51.5 Z"/></g>
<g><path style="opacity:0.688" fill="#000000" d="M 25.5,37.5 C 26.8734,37.3433 28.2068,37.51 29.5,38C 31.3333,40.5 33.1667,43 35,45.5C 36.8333,43 38.6667,40.5 40.5,38C 44.1114,36.7458 45.6114,37.9124 45,41.5C 40.704,46.4169 38.3707,52.0836 38,58.5C 36.6043,60.5268 34.9376,60.8602 33,59.5C 32.5578,53.0568 30.2244,47.3901 26,42.5C 25.5065,40.8659 25.3398,39.1992 25.5,37.5 Z"/></g>
<g><path style="opacity:0.695" fill="#000000" d="M 82.5,37.5 C 88.8333,37.5 95.1667,37.5 101.5,37.5C 102.5,42.5 100.5,44.5 95.5,43.5C 95.8282,48.8746 95.4948,54.2079 94.5,59.5C 92.9579,60.7468 91.4579,60.7468 90,59.5C 89.5006,54.1771 89.334,48.8437 89.5,43.5C 84.0687,44.9064 81.7353,42.9064 82.5,37.5 Z"/></g>
<g><path style="opacity:0.681" fill="#000000" d="M 128.5,54.5 C 128.5,56.1667 128.5,57.8333 128.5,59.5C 126.609,60.5361 124.776,60.5361 123,59.5C 121.136,54.9093 119.47,50.2426 118,45.5C 115.876,50.0352 114.043,54.7018 112.5,59.5C 109.5,61.2257 107.834,60.3923 107.5,57C 109.108,51.5084 111.108,46.1751 113.5,41C 113.167,40.6667 112.833,40.3333 112.5,40C 115.526,36.9113 118.693,36.7446 122,39.5C 124.094,44.6423 126.26,49.6423 128.5,54.5 Z"/></g>
<g><path style="opacity:0.296" fill="#000000" d="M 14.5,71.5 C 13.5,71.5 12.5,71.5 11.5,71.5C 7.70159,70.5166 3.70159,70.1832 -0.5,70.5C -0.5,67.5 -0.5,64.5 -0.5,61.5C 1.74683,61.9153 3.9135,62.5819 6,63.5C 7.44695,63.0548 8.78028,62.3881 10,61.5C 11.7215,61.6107 11.8882,62.1107 10.5,63C 13.6846,64.4009 17.0179,64.5675 20.5,63.5C 20.6672,60.0429 21.6672,59.7096 23.5,62.5C 25.396,63.4656 27.396,63.7989 29.5,63.5C 29.5,65.8333 29.5,68.1667 29.5,70.5C 24.3054,70.1795 19.3054,70.5128 14.5,71.5 Z"/></g>
<g><path style="opacity:0.277" fill="#000000" d="M 55.5,60.5 C 58.2188,64.3471 61.5521,65.0137 65.5,62.5C 68.5027,63.0851 71.5027,63.7518 74.5,64.5C 75.767,66.3707 75.767,68.2041 74.5,70C 70,70.1667 65.5,70.3333 61,70.5C 56.0806,70.4676 51.414,69.8009 47,68.5C 45.3023,69.733 43.3023,70.3996 41,70.5C 37.6729,69.895 34.5063,69.895 31.5,70.5C 31.1244,67.3733 31.1244,64.3733 31.5,61.5C 33.8225,61.3308 36.1559,61.9974 38.5,63.5C 40.9116,63.5938 42.745,62.5938 44,60.5C 45.5862,62.6705 46.9196,65.0038 48,67.5C 48.2511,65.567 48.7511,63.7337 49.5,62C 49.8333,61.8333 50.1667,61.6667 50.5,61.5C 51.2508,62.376 51.7508,63.376 52,64.5C 52.7403,62.6813 53.9069,61.3479 55.5,60.5 Z"/></g>
<g><path style="opacity:0.259" fill="#000000" d="M 75.5,61.5 C 78.3966,61.788 81.2299,62.4546 84,63.5C 85.7159,63.2517 87.2159,62.585 88.5,61.5C 91.2123,63.2603 94.2123,63.927 97.5,63.5C 97.5,65.8333 97.5,68.1667 97.5,70.5C 90.5,70.5 83.5,70.5 76.5,70.5C 76.6323,67.4299 76.299,64.4299 75.5,61.5 Z"/></g>
<g><path style="opacity:0.284" fill="#000000" d="M 128.5,63.5 C 128.5,65.8333 128.5,68.1667 128.5,70.5C 118.358,69.9734 108.358,69.9734 98.5,70.5C 98.0632,67.1934 98.7298,64.1934 100.5,61.5C 103.83,63.0555 107.33,64.0555 111,64.5C 112.333,63.8333 113.333,62.8333 114,61.5C 116.005,63.8004 118.172,63.8004 120.5,61.5C 122.868,63.223 125.534,63.8897 128.5,63.5 Z"/></g>
</svg>
