<?xml version="1.0" encoding="UTF-8"?>
<!DOCTYPE svg PUBLIC "-//W3C//DTD SVG 1.1//EN" "http://www.w3.org/Graphics/SVG/1.1/DTD/svg11.dtd">
<svg xmlns="http://www.w3.org/2000/svg" version="1.1" width="300px" height="231px" style="shape-rendering:geometricPrecision; text-rendering:geometricPrecision; image-rendering:optimizeQuality; fill-rule:evenodd; clip-rule:evenodd" xmlns:xlink="http://www.w3.org/1999/xlink">
<g><path style="opacity:1" fill="#2656a0" d="M 96.5,-0.5 C 130.167,-0.5 163.833,-0.5 197.5,-0.5C 235.778,10.3586 252.945,35.6919 249,75.5C 241.735,104.098 223.569,120.931 194.5,126C 162.5,126.667 130.5,126.667 98.5,126C 74.9734,121.983 58.14,109.149 48,87.5C 37.5167,56.9222 44.6833,31.4222 69.5,11C 77.8695,5.47637 86.8695,1.64304 96.5,-0.5 Z"/></g>
<g><path style="opacity:1" fill="#fcfdfe" d="M 94.5,1.5 C 130.613,-1.70731 154.779,13.626 167,47.5C 172.446,85.6943 156.946,110.861 120.5,123C 93.039,127.846 71.2056,119.013 55,96.5C 37.4672,63.6777 42.9672,35.511 71.5,12C 78.7602,7.36591 86.4268,3.86591 94.5,1.5 Z"/></g>
<g><path style="opacity:1" fill="#2756a0" d="M 92.5,27.5 C 93.8324,38.9806 94.499,50.8139 94.5,63C 94.1667,74.8333 93.8333,86.6667 93.5,98.5C 74.6212,89.4132 66.7878,74.4132 70,53.5C 73.8364,41.5077 81.3364,32.841 92.5,27.5 Z"/></g>
<g><path style="opacity:1" fill="#2655a0" d="M 119.5,27.5 C 141.026,37.2267 148.526,53.56 142,76.5C 137.673,85.9929 130.84,92.9929 121.5,97.5C 119.51,74.5239 118.843,51.1906 119.5,27.5 Z"/></g>
<g><path style="opacity:1" fill="#bccbe1" d="M 119.5,27.5 C 118.843,51.1906 119.51,74.5239 121.5,97.5C 120.791,98.404 119.791,98.7373 118.5,98.5C 118.169,74.6608 118.502,50.9941 119.5,27.5 Z"/></g>
<g><path style="opacity:0.775" fill="#010101" d="M 228.5,136.5 C 229.833,136.5 231.167,136.5 232.5,136.5C 229.563,149.747 226.23,162.914 222.5,176C 222.833,176.5 223.167,177 223.5,177.5C 225.504,175.995 227.337,174.328 229,172.5C 229.772,172.645 230.439,172.978 231,173.5C 232.273,167.906 233.773,162.406 235.5,157C 234.241,156.077 232.908,155.243 231.5,154.5C 234.756,153.249 238.09,152.249 241.5,151.5C 240.834,159.528 239.167,167.528 236.5,175.5C 236.833,176.167 237.167,176.833 237.5,177.5C 244.902,171.078 249.902,163.078 252.5,153.5C 254.396,152.534 256.396,152.201 258.5,152.5C 256.177,160.785 254.344,169.118 253,177.5C 254.685,175.983 256.185,174.316 257.5,172.5C 258.192,173.025 258.692,173.692 259,174.5C 262.152,163.226 264.985,151.892 267.5,140.5C 266.167,140.5 264.833,140.5 263.5,140.5C 263.5,139.5 263.5,138.5 263.5,137.5C 267.575,137.002 271.575,137.002 275.5,137.5C 273.529,142.38 272.362,147.38 272,152.5C 281.097,147.464 286.597,150.131 288.5,160.5C 285.032,176.55 275.365,183.05 259.5,180C 258.773,178.601 258.273,177.101 258,175.5C 255.923,180.121 252.423,181.955 247.5,181C 246.718,178.26 246.218,175.426 246,172.5C 243.833,176 241,178.833 237.5,181C 231.643,182.813 229.143,180.646 230,174.5C 227.939,176.806 225.772,178.973 223.5,181C 216.923,182.591 214.756,180.091 217,173.5C 219.994,162.524 222.827,151.524 225.5,140.5C 224.022,140.762 222.689,140.429 221.5,139.5C 221.667,139.167 221.833,138.833 222,138.5C 224.277,137.883 226.444,137.216 228.5,136.5 Z"/></g>
<g><path style="opacity:0.763" fill="#000000" d="M 199.5,137.5 C 204.829,137.215 209.996,137.882 215,139.5C 216.11,137.963 217.61,137.297 219.5,137.5C 218.734,141.832 217.9,146.166 217,150.5C 216.586,150.957 216.086,151.291 215.5,151.5C 214.064,142.779 209.064,139.613 200.5,142C 191.787,147.074 187.121,154.741 186.5,165C 187.607,177.596 193.94,181.263 205.5,176C 207.96,174.542 210.127,172.709 212,170.5C 212.692,171.025 213.192,171.692 213.5,172.5C 204.17,183.979 193.67,185.312 182,176.5C 175.234,158.021 181.068,145.021 199.5,137.5 Z"/></g>
<g><path style="opacity:0.693" fill="#000000" d="M 66.5,138.5 C 72.4877,138.664 73.821,141.164 70.5,146C 64.8339,145.835 63.5006,143.335 66.5,138.5 Z"/></g>
<g><path style="opacity:0.839" fill="#090909" d="M 20.5,139.5 C 27.8409,139.334 35.1742,139.5 42.5,140C 54.0419,143.565 58.5419,151.398 56,163.5C 52.3008,174.197 44.8008,180.03 33.5,181C 26.1742,181.5 18.8409,181.666 11.5,181.5C 11.5,180.5 11.5,179.5 11.5,178.5C 13.1439,178.714 14.6439,178.38 16,177.5C 19.6397,165.939 22.8064,154.273 25.5,142.5C 22.9664,142.741 21.2998,141.741 20.5,139.5 Z"/></g>
<g><path style="opacity:1" fill="#f9f9f9" d="M 33.5,142.5 C 44.085,140.922 49.085,145.422 48.5,156C 48.7513,172.418 40.7513,179.751 24.5,178C 23.4464,176.612 23.2797,175.112 24,173.5C 27.1846,163.142 30.3513,152.808 33.5,142.5 Z"/></g>
<g><path style="opacity:0.753" fill="#000000" d="M 68.5,151.5 C 69.3764,151.369 70.0431,151.702 70.5,152.5C 68.1667,160.5 65.8333,168.5 63.5,176.5C 64.0016,177.521 64.6683,177.688 65.5,177C 66.7256,175.365 68.059,173.865 69.5,172.5C 69.8333,173 70.1667,173.5 70.5,174C 68.1353,179.403 64.1353,181.736 58.5,181C 57.9032,179.938 57.5698,178.772 57.5,177.5C 59.1719,170.148 60.8385,162.814 62.5,155.5C 61.0222,155.762 59.6888,155.429 58.5,154.5C 61.8906,153.283 65.2239,152.283 68.5,151.5 Z"/></g>
<g><path style="opacity:0.747" fill="#010101" d="M 82.5,151.5 C 83.0904,153.99 83.257,156.657 83,159.5C 85.8596,155.629 89.5263,152.962 94,151.5C 95.8916,151.777 97.2249,152.777 98,154.5C 97.1389,162.271 95.8056,169.938 94,177.5C 95.6837,175.649 97.5171,173.982 99.5,172.5C 102.061,161.605 108.728,154.605 119.5,151.5C 121.697,151.848 123.53,152.848 125,154.5C 128.616,153.287 132.282,152.287 136,151.5C 136.5,152 137,152.5 137.5,153C 136.446,154.388 136.28,155.888 137,157.5C 139.112,154.716 141.779,152.716 145,151.5C 146.987,152.154 148.32,153.487 149,155.5C 150.319,153.513 152.152,152.346 154.5,152C 157.866,152.441 161.2,152.274 164.5,151.5C 165.705,154.948 165.372,158.282 163.5,161.5C 162.1,159.159 160.434,156.993 158.5,155C 156.094,154.221 154.427,155.054 153.5,157.5C 155.802,161.633 158.302,165.633 161,169.5C 161.68,180.358 156.68,184.024 146,180.5C 144.739,180.759 143.739,181.426 143,182.5C 142.079,178.289 142.579,174.289 144.5,170.5C 145.658,173.642 147.325,176.475 149.5,179C 153.095,180.073 155.095,178.739 155.5,175C 153.993,170.822 151.826,166.989 149,163.5C 148.667,161.5 148.333,159.5 148,157.5C 145.957,159.967 143.79,159.967 141.5,157.5C 135.575,164.016 131.742,171.682 130,180.5C 127.861,181.769 125.695,181.769 123.5,180.5C 126.072,172.708 128.405,164.874 130.5,157C 129.095,155.731 127.429,155.231 125.5,155.5C 125.857,159.664 124.19,162.831 120.5,165C 116.805,167.349 112.805,168.849 108.5,169.5C 106.465,175.967 108.798,178.467 115.5,177C 117.811,174.836 120.478,173.836 123.5,174C 119,180.252 113,182.585 105.5,181C 103,179.833 101.167,178 100,175.5C 98.1667,177.333 96.3333,179.167 94.5,181C 88.3333,182.833 86.1667,180.667 88,174.5C 89.4025,168.795 90.9025,163.128 92.5,157.5C 90.8125,156.432 89.1459,156.599 87.5,158C 81.9607,164.578 78.1274,172.078 76,180.5C 74.3005,181.406 72.4672,181.739 70.5,181.5C 71.8684,173.36 73.8684,165.36 76.5,157.5C 75.3112,156.571 73.9778,156.238 72.5,156.5C 72.5,155.5 72.5,154.5 72.5,153.5C 76.0399,153.247 79.3733,152.581 82.5,151.5 Z"/></g>
<g><path style="opacity:1" fill="#ededed" d="M 116.5,153.5 C 117.822,153.33 118.989,153.663 120,154.5C 120.706,156.971 120.373,159.305 119,161.5C 115.738,165.062 111.904,166.728 107.5,166.5C 109.356,161.322 112.356,156.988 116.5,153.5 Z"/></g>
<g><path style="opacity:1" fill="#f3f3f3" d="M 275.5,153.5 C 278.808,152.974 280.974,154.307 282,157.5C 282.115,166.436 278.615,173.603 271.5,179C 269.19,179.497 266.857,179.663 264.5,179.5C 263.917,168.886 267.583,160.219 275.5,153.5 Z"/></g>
<g><path style="opacity:0.76" fill="#000000" d="M 299.5,185.5 C 299.5,187.167 299.5,188.833 299.5,190.5C 296.035,202.01 292.702,213.677 289.5,225.5C 291.269,226.627 292.603,226.127 293.5,224C 294.635,223.251 295.635,223.417 296.5,224.5C 294.81,226.519 293.144,228.519 291.5,230.5C 289.167,230.5 286.833,230.5 284.5,230.5C 283.659,228.621 283.325,226.621 283.5,224.5C 287.074,213.088 290.074,201.421 292.5,189.5C 291.022,189.762 289.689,189.429 288.5,188.5C 291.91,186.76 295.577,185.76 299.5,185.5 Z"/></g>
<g><path style="opacity:0.737" fill="#000000" d="M 194.5,187.5 C 199.068,187.083 200.568,189.083 199,193.5C 195.828,196.388 193.661,195.722 192.5,191.5C 192.752,189.927 193.418,188.594 194.5,187.5 Z"/></g>
<g><path style="opacity:0.761" fill="#000000" d="M 15.5,230.5 C 10.1667,230.5 4.83333,230.5 -0.5,230.5C -0.5,229.5 -0.5,228.5 -0.5,227.5C 0.822066,227.67 1.98873,227.337 3,226.5C 6.24433,215.689 9.411,204.856 12.5,194C 11.615,191.843 9.94835,191.01 7.5,191.5C 7.5,190.5 7.5,189.5 7.5,188.5C 13.1667,188.5 18.8333,188.5 24.5,188.5C 24.5,189.5 24.5,190.5 24.5,191.5C 22.0885,191.137 20.5885,192.137 20,194.5C 16.4413,205.337 13.608,216.337 11.5,227.5C 12.8333,227.5 14.1667,227.5 15.5,227.5C 15.5,228.5 15.5,229.5 15.5,230.5 Z"/></g>
<g><path style="opacity:0.726" fill="#000000" d="M 55.5,230.5 C 53.5,230.5 51.5,230.5 49.5,230.5C 49.0183,229.584 48.685,228.584 48.5,227.5C 50.4285,220.283 52.4285,213.116 54.5,206C 52.6161,205.784 50.9494,205.117 49.5,204C 53.9398,201.231 58.1065,198.065 62,194.5C 62.5,194.833 63,195.167 63.5,195.5C 62.8333,197.167 62.1667,198.833 61.5,200.5C 63.0453,201.452 64.712,201.785 66.5,201.5C 66.67,202.822 66.3366,203.989 65.5,205C 63.2729,205.121 61.4396,205.954 60,207.5C 58.3937,213.764 56.5604,219.93 54.5,226C 57.101,225.599 59.101,224.099 60.5,221.5C 60.8333,222 61.1667,222.5 61.5,223C 59.835,225.865 57.835,228.365 55.5,230.5 Z"/></g>
<g><path style="opacity:0.757" fill="#030303" d="M 174.5,230.5 C 172.5,230.5 170.5,230.5 168.5,230.5C 167.852,228.914 167.352,227.247 167,225.5C 165.293,227.037 163.793,228.704 162.5,230.5C 160.5,230.5 158.5,230.5 156.5,230.5C 155.852,228.914 155.352,227.247 155,225.5C 153.27,227.402 151.437,229.069 149.5,230.5C 146.833,230.5 144.167,230.5 141.5,230.5C 139.73,228.887 138.564,226.887 138,224.5C 136.64,227.023 134.807,229.023 132.5,230.5C 130.833,230.5 129.167,230.5 127.5,230.5C 126.939,229.092 126.605,227.592 126.5,226C 127.675,219.968 129.008,213.968 130.5,208C 130.167,207.167 129.833,206.333 129.5,205.5C 125.205,207.751 122.039,211.084 120,215.5C 117.663,220.348 115.83,225.348 114.5,230.5C 112.5,230.5 110.5,230.5 108.5,230.5C 110.973,222.275 112.973,213.942 114.5,205.5C 112.641,205.461 111.308,206.294 110.5,208C 108.193,208.779 106.193,208.279 104.5,206.5C 101.056,209.458 98.5561,213.124 97,217.5C 95.5896,221.899 94.0896,226.232 92.5,230.5C 90.5,230.5 88.5,230.5 86.5,230.5C 88.9143,222.341 91.2476,214.174 93.5,206C 92.0953,204.731 90.4286,204.231 88.5,204.5C 88.5589,208.548 86.8922,211.715 83.5,214C 79.1617,216.327 74.6617,218.161 70,219.5C 69.2369,226.053 72.0702,228.219 78.5,226C 80.3703,224.634 82.3703,223.467 84.5,222.5C 84.8333,222.833 85.1667,223.167 85.5,223.5C 83.1762,226.313 80.5095,228.646 77.5,230.5C 74.1667,230.5 70.8333,230.5 67.5,230.5C 61.533,224.707 61.033,218.373 66,211.5C 70.0628,205.451 75.7295,201.785 83,200.5C 84.982,200.99 86.6487,201.99 88,203.5C 91.6155,202.287 95.2822,201.287 99,200.5C 99.5,201 100,201.5 100.5,202C 99.4464,203.388 99.2797,204.888 100,206.5C 102.067,203.93 104.567,201.93 107.5,200.5C 112.305,202.898 117.138,202.898 122,200.5C 122.07,203.593 121.736,206.593 121,209.5C 123.612,204.943 127.446,201.943 132.5,200.5C 135.198,201.198 136.864,202.864 137.5,205.5C 135.45,212.458 133.95,219.458 133,226.5C 134.667,224.833 136.333,223.167 138,221.5C 140.134,210.699 146.468,203.699 157,200.5C 158.559,201.029 160.059,201.696 161.5,202.5C 163.167,201.833 164.833,201.167 166.5,200.5C 166.833,201.333 167.167,202.167 167.5,203C 165.11,210.381 163.61,217.881 163,225.5C 164.911,223.658 166.911,221.991 169,220.5C 170.328,215.522 171.495,210.522 172.5,205.5C 171.167,205.5 169.833,205.5 168.5,205.5C 168.281,204.325 168.614,203.325 169.5,202.5C 173.727,200.607 177.393,197.94 180.5,194.5C 181.363,196.771 181.363,199.105 180.5,201.5C 181.833,201.5 183.167,201.5 184.5,201.5C 184.5,202.833 184.5,204.167 184.5,205.5C 182.5,205.5 180.5,205.5 178.5,205.5C 177.463,212.316 175.796,218.982 173.5,225.5C 174.002,226.521 174.668,226.688 175.5,226C 176.305,224.028 177.639,222.528 179.5,221.5C 179.833,221.833 180.167,222.167 180.5,222.5C 178.86,225.468 176.86,228.135 174.5,230.5 Z"/></g>
<g><path style="opacity:0.733" fill="#000000" d="M 42.5,230.5 C 40.5,230.5 38.5,230.5 36.5,230.5C 36.3225,229.305 35.9891,228.138 35.5,227C 37.6907,219.934 39.3573,212.767 40.5,205.5C 39.448,205.351 38.448,205.517 37.5,206C 30.6779,212.809 26.3445,220.976 24.5,230.5C 22.5,230.5 20.5,230.5 18.5,230.5C 20.6579,222.202 22.6579,213.868 24.5,205.5C 23.1667,205.5 21.8333,205.5 20.5,205.5C 20.5,204.5 20.5,203.5 20.5,202.5C 24.2617,202.348 27.9284,201.681 31.5,200.5C 31.8333,201 32.1667,201.5 32.5,202C 31.3458,204.437 30.8458,206.937 31,209.5C 33.2215,205.612 36.3882,202.779 40.5,201C 44.0734,200.459 46.4068,201.959 47.5,205.5C 45.7293,212.419 43.7293,219.252 41.5,226C 44.101,225.599 46.101,224.099 47.5,221.5C 47.739,225.342 46.0723,228.342 42.5,230.5 Z"/></g>
<g><path style="opacity:0.786" fill="#030303" d="M 226.5,205.5 C 227.733,216.7 223.4,225.033 213.5,230.5C 209.833,230.5 206.167,230.5 202.5,230.5C 200.404,228.567 198.904,226.233 198,223.5C 196.306,226.358 194.139,228.691 191.5,230.5C 189.5,230.5 187.5,230.5 185.5,230.5C 185.322,229.305 184.989,228.138 184.5,227C 186.722,219.611 188.389,212.111 189.5,204.5C 188.022,204.762 186.689,204.429 185.5,203.5C 189.135,202.373 192.801,201.373 196.5,200.5C 195.872,209.185 193.872,217.685 190.5,226C 193.093,225.454 195.26,223.954 197,221.5C 199.243,210.258 205.909,203.258 217,200.5C 218.811,201.078 220.645,201.578 222.5,202C 223.705,203.376 225.038,204.542 226.5,205.5 Z"/></g>
<g><path style="opacity:0.763" fill="#020202" d="M 283.5,224.5 C 281.833,226.833 279.833,228.833 277.5,230.5C 275.833,230.5 274.167,230.5 272.5,230.5C 271.815,228.586 271.315,226.586 271,224.5C 269.64,227.023 267.807,229.023 265.5,230.5C 262.5,230.5 259.5,230.5 256.5,230.5C 255.343,228.862 254.176,227.196 253,225.5C 251.293,227.037 249.793,228.704 248.5,230.5C 246.5,230.5 244.5,230.5 242.5,230.5C 241.463,228.262 241.297,225.929 242,223.5C 243.658,217.866 245.158,212.199 246.5,206.5C 246,206.167 245.5,205.833 245,205.5C 241.346,207.821 238.346,210.821 236,214.5C 233.337,219.662 231.17,224.995 229.5,230.5C 227.833,230.5 226.167,230.5 224.5,230.5C 225.878,222.362 227.878,214.362 230.5,206.5C 229.311,205.571 227.978,205.238 226.5,205.5C 226.5,204.5 226.5,203.5 226.5,202.5C 230.136,202.406 233.636,201.739 237,200.5C 237.253,203.2 237.253,205.867 237,208.5C 239.812,204.845 243.312,202.179 247.5,200.5C 250.967,201.028 252.633,203.028 252.5,206.5C 251.14,212.746 249.474,218.913 247.5,225C 247.833,225.5 248.167,226 248.5,226.5C 252.527,223.12 255.027,218.786 256,213.5C 259.338,206.415 264.838,202.082 272.5,200.5C 275.716,202.714 279.049,202.714 282.5,200.5C 281.756,208.674 280.09,216.84 277.5,225C 277.667,225.5 277.833,226 278,226.5C 279.351,224.981 280.851,223.648 282.5,222.5C 283.298,222.957 283.631,223.624 283.5,224.5 Z"/></g>
<g><path style="opacity:1" fill="#efefef" d="M 78.5,203.5 C 80.1667,203.5 81.8333,203.5 83.5,203.5C 83.0698,210.937 79.0698,215.27 71.5,216.5C 70.432,214.813 70.5986,213.146 72,211.5C 74.0007,208.669 76.1673,206.003 78.5,203.5 Z"/></g>
<g><path style="opacity:1" fill="#f7f7f7" d="M 155.5,202.5 C 157.39,202.297 158.89,202.963 160,204.5C 160.994,214.847 156.994,222.514 148,227.5C 147.127,227.265 146.293,226.931 145.5,226.5C 143.573,216.276 146.906,208.276 155.5,202.5 Z"/></g>
<g><path style="opacity:1" fill="#f2f2f2" d="M 214.5,202.5 C 216.722,202.178 218.556,202.845 220,204.5C 221.78,211.669 220.447,218.336 216,224.5C 207.237,232.424 203.237,230.424 204,218.5C 205.764,211.926 209.264,206.592 214.5,202.5 Z"/></g>
<g><path style="opacity:1" fill="#f3f3f3" d="M 270.5,202.5 C 272.722,202.178 274.556,202.845 276,204.5C 276.316,212.882 273.482,220.049 267.5,226C 262.659,228.8 259.993,227.466 259.5,222C 260.743,214.003 264.409,207.503 270.5,202.5 Z"/></g>
</svg>
