<?xml version="1.0" encoding="UTF-8"?>
<svg width="16px" height="16px" viewBox="0 0 16 16" version="1.1" xmlns="http://www.w3.org/2000/svg" xmlns:xlink="http://www.w3.org/1999/xlink">
    <title>icn-search-small</title>
    <g id="Templates" stroke="none" stroke-width="1" fill="none" fill-rule="evenodd">
        <g id="Artboard" fill="#B2B2B2" fill-rule="nonzero">
            <path d="M6.5,0 C10.0898509,0 13,2.91014913 13,6.5 C13,7.93371063 12.5358211,9.25900646 11.7495478,10.3338028 L15.6568542,14.2426407 C16.0473785,14.633165 16.0473785,15.26633 15.6568542,15.6568542 C15.26633,16.0473785 14.633165,16.0473785 14.2426407,15.6568542 L10.3338028,11.7495478 C9.25900646,12.5358211 7.93371063,13 6.5,13 C2.91014913,13 0,10.0898509 0,6.5 C0,2.91014913 2.91014913,0 6.5,0 Z M6.5,2 C4.01471863,2 2,4.01471863 2,6.5 C2,8.98528137 4.01471863,11 6.5,11 C8.98528137,11 11,8.98528137 11,6.5 C11,4.01471863 8.98528137,2 6.5,2 Z" id="icn-search-small"></path>
        </g>
    </g>
</svg>